<svg xmlns="http://www.w3.org/2000/svg" viewBox="0 0 1334.33 82.56"><defs><style>.cls-1{fill:#606060;}.cls-2{fill:#a9a9a9;}.cls-3{fill:#fefefe;}.cls-4{fill:#aaa;}.cls-5{fill:#a0a0a2;}.cls-6{fill:#7e7e80;}.cls-7{fill:#767676;}.cls-8{fill:#fdfdfd;}.cls-9{fill:#bc070a;}.cls-10{fill:#bc090b;}.cls-11{fill:#be0411;}</style></defs><g id="Capa_2" data-name="Capa 2"><g id="Capa_1-2" data-name="Capa 1"><path class="cls-1" d="M1285.26,11.18a.78.78,0,0,0,.2.16l21.34,14.75.2.14a.37.37,0,0,1-.17.16,20.81,20.81,0,0,1-7.37,3.11,13.7,13.7,0,0,1-3.67.24,11.15,11.15,0,0,1-5.67-2l-10-6.83c-.24-.16-.24-.16-.47,0l-1,.67L1307,41.45a.43.43,0,0,1-.22.1,39,39,0,0,0-4.41,1.89,87.46,87.46,0,0,0-13.79,8.49,33.54,33.54,0,0,0-3.22,2.72c-.13.13-.1.12-.29,0l-6.93-4.79-14.45-10a.83.83,0,0,1-.21-.17c.12-.09.24-.18.37-.26a20.9,20.9,0,0,1,6.8-2.9,14.46,14.46,0,0,1,3.71-.35,11.34,11.34,0,0,1,6,2l10,6.85.14.09a.11.11,0,0,0,.15,0l1.18-.77-28.3-19.83a.07.07,0,0,1,0-.08,36.12,36.12,0,0,0,4.91-2.11A87.53,87.53,0,0,0,1281.94,14a32.5,32.5,0,0,0,3.11-2.63c.06,0,.15-.09.16-.19Z"/><path class="cls-1" d="M1334.33,76.54H1329c-.09,0-.14,0-.13-.12V62.28c0-.28,0-.26.25-.26h5.21Z"/><path class="cls-1" d="M1236.32,72.52c0-.22,0-.44,0-.66h6.59a.37.37,0,0,1,.37.22,3.45,3.45,0,0,0,.8.94,2.44,2.44,0,0,0,1.41.54,4.7,4.7,0,0,0,1.54-.15,1.54,1.54,0,0,0,.57-.29.82.82,0,0,0,.1-1.19,1.37,1.37,0,0,0-.51-.35,4,4,0,0,0-1.18-.29c-.43,0-.88,0-1.31-.08a23.88,23.88,0,0,1-4.89-.87,7.27,7.27,0,0,1-1.48-.66,3.4,3.4,0,0,1-1.68-2.89,4,4,0,0,1,1.94-3.78,4.86,4.86,0,0,1,.77-.43,9.9,9.9,0,0,1,2.66-.77,20.43,20.43,0,0,1,4.49-.13,13.09,13.09,0,0,1,3.81.76,6.32,6.32,0,0,1,1.92,1.09,3.79,3.79,0,0,1,1.38,2.41,3.42,3.42,0,0,1,0,.45c0,.11,0,.15-.14.14h-5.81a.4.4,0,0,1-.37-.2,3.11,3.11,0,0,0-2-1.38,3.78,3.78,0,0,0-2,.16,1,1,0,0,0-.71.77.55.55,0,0,0,.22.57,2,2,0,0,0,.62.29,11.36,11.36,0,0,0,1.74.33c1.14.15,2.3.25,3.43.48a12.33,12.33,0,0,1,3.15,1,6,6,0,0,1,1.16.77,3.61,3.61,0,0,1,.75,4.66,4.53,4.53,0,0,1-1.38,1.41,7.77,7.77,0,0,1-2.5,1,14,14,0,0,1-2.74.4l-.83,0H1245c-.63,0-1.26,0-1.89-.1a14.47,14.47,0,0,1-3.74-.71,5.76,5.76,0,0,1-1.55-.82,3.73,3.73,0,0,1-1.45-2.42C1236.35,72.73,1236.33,72.62,1236.32,72.52Z"/><path class="cls-1" d="M1315,67l1-.89,4.63-4A.48.48,0,0,1,1321,62H1328l0,0-8.22,7,8,7.4c0,.08-.08.05-.12.05h-7a.47.47,0,0,1-.33-.16l-4.49-4.27-.61-.58-.15-.13v4.87c0,.29,0,.26-.27.26h-5c-.27,0-.26,0-.26-.25v-14c0-.28,0-.26.26-.26h5c.23,0,.21,0,.21.22V67Z"/><path class="cls-1" d="M1281.81,72.84h8.13c.18,0,.18,0,.18.19v3.33c0,.18,0,.18-.19.18h-16.35c-.34,0-.3,0-.3-.31,0-.84,0-1.69,0-2.53a.51.51,0,0,1,.18-.42l7.85-7.33a2.68,2.68,0,0,0,.24-.24h-7.69c-.33,0-.29.05-.29-.29,0-1,0-2.07,0-3.11,0-.33,0-.29.27-.29h16c.33,0,.28,0,.28.3,0,.85,0,1.7,0,2.56a.49.49,0,0,1-.18.41q-3.95,3.6-7.87,7.22l-.31.29Z"/><path class="cls-1" d="M1263.13,76.88h-.57a1.63,1.63,0,0,0-.38,0,18.5,18.5,0,0,1-2.47-.29,8,8,0,0,1-1.8-.55,3.88,3.88,0,0,1-2.34-3.11,7.64,7.64,0,0,1-.1-1.26V62.23c0-.22,0-.21.2-.21h4.84c.21,0,.21,0,.21.23v8.5a2.8,2.8,0,0,0,.09.81,2.09,2.09,0,0,0,1,1.28,3.16,3.16,0,0,0,1.31.42,4.66,4.66,0,0,0,2.06-.17,2.57,2.57,0,0,0,1.09-.66,2.07,2.07,0,0,0,.59-1.37c0-.12,0-.24,0-.36V62.29c0-.29,0-.27.27-.27h4.79c.2,0,.2,0,.2.2v9.19a8.5,8.5,0,0,1-.18,1.88,3.8,3.8,0,0,1-2.12,2.68,8.3,8.3,0,0,1-2.19.67,21.19,21.19,0,0,1-2.25.24,2.54,2.54,0,0,0-.39,0,3.68,3.68,0,0,0-.47,0Z"/><path class="cls-1" d="M1301.35,76.88a1.7,1.7,0,0,0-.39,0,1.85,1.85,0,0,0-.47,0h-1.4a3.09,3.09,0,0,0-.43,0,3.09,3.09,0,0,0-.43,0,18.39,18.39,0,0,1-2.77-.34,7.28,7.28,0,0,1-1.87-.65,3.83,3.83,0,0,1-2-2.84,9.19,9.19,0,0,1-.14-1.65V62.23c0-.2,0-.21.21-.21h4.84c.24,0,.21,0,.21.23v8.53a2.85,2.85,0,0,0,.07.71A2.14,2.14,0,0,0,1298,73a3.29,3.29,0,0,0,1.1.31,4.66,4.66,0,0,0,2.19-.21,3,3,0,0,0,.88-.53,2.08,2.08,0,0,0,.66-1.37c0-.15,0-.3,0-.45V62.32c0-.34,0-.3.29-.3H1308c.09,0,.14,0,.13.13v.07q0,4.75,0,9.53a6.38,6.38,0,0,1-.25,1.84,3.71,3.71,0,0,1-1.87,2.29,7.82,7.82,0,0,1-2.09.71A18.12,18.12,0,0,1,1301.35,76.88Z"/><path class="cls-1" d="M416.57,71.67c-2,0-3.95,0-5.88,0-.37,0-.42-.29-.55-.51l-5.41-9.38-.46-.78c-.25,1.37-.48,2.6-.7,3.84l-1.11,6.36c0,.22,0,.47-.37.47h-4.54c.62-3.65,1.23-7.22,1.84-10.8L401.25,50c.16-1,.14-1,1.09-1s2.19,0,3.28,0c.49,0,.62.12.54.61-.49,2.84-1,5.68-1.43,8.52-.05.26-.07.52-.11.82a1.25,1.25,0,0,0,.58-.45q4.47-4.52,8.91-9.05a1.38,1.38,0,0,1,1.07-.45c1.66,0,3.32,0,5,0,0,.3-.25.41-.4.56-3.12,3.27-6.24,6.56-9.4,9.8a1.06,1.06,0,0,0-.2,1.57c2,3.31,4,6.66,6,10C416.29,71.16,416.4,71.38,416.57,71.67Z"/><path class="cls-1" d="M505.59,71.67c.53-3.22,1-6.38,1.57-9.53A1.67,1.67,0,0,0,507,61q-2.79-5.61-5.56-11.23l-.38-.78h1.18c1.21,0,2.42,0,3.62,0a.78.78,0,0,1,.83.52c1.23,2.51,2.48,5,3.74,7.53a7,7,0,0,0,1.12-1.27c1.73-2.11,3.44-4.24,5.17-6.35.15-.19.25-.43.57-.42h5l-3,3.73c-2.24,2.75-4.45,5.53-6.73,8.24a4.82,4.82,0,0,0-.8,2.55c-.46,2.52-.85,5-1.28,7.58,0,.23,0,.54-.36.54Z"/><path class="cls-1" d="M425.67,71.67c-2.28,0-4.56,0-6.83,0-.49,0-.57-.16-.49-.58q1.13-6.12,2.23-12.25c.08-.44.25-.56.7-.56,4.49,0,9,0,13.46,0,.58,0,.62.2.53.67-.23,1.2-.46,2.4-.63,3.61-.07.49-.27.58-.7.58-2.85,0-5.7,0-8.54,0-.62,0-.82.21-.92.76-.13.78-.31,1.56-.51,2.33-.13.47,0,.61.5.6,2.89,0,5.78,0,8.67,0,.6,0,.75.15.63.72-.23,1.18-.46,2.36-.62,3.55-.07.49-.23.63-.72.62C430.18,71.65,427.92,71.67,425.67,71.67Z"/><path class="cls-1" d="M443.72,71.67c-2.28,0-4.56,0-6.83,0-.43,0-.55-.09-.47-.53.76-4.1,1.52-8.21,2.25-12.31.08-.44.23-.54.65-.54q6.8,0,13.59,0c.43,0,.54.08.46.52-.25,1.24-.48,2.5-.66,3.75-.06.47-.24.58-.69.58-2.85,0-5.69,0-8.54,0-.61,0-.83.2-.92.76a21.07,21.07,0,0,1-.51,2.33c-.15.52,0,.6.51.6,2.91,0,5.83,0,8.74,0,.49,0,.69,0,.57.62-.26,1.22-.47,2.45-.64,3.68-.07.51-.29.6-.75.59C448.23,71.66,446,71.67,443.72,71.67Z"/><path class="cls-1" d="M437.68,53.83c-5.15,0-10.29,0-15.44,0-.58,0-.67-.15-.57-.69.23-1.18.43-2.36.58-3.56.06-.48.25-.56.69-.55h15.72c5,0,10.11,0,15.17,0,.62,0,.7.17.6.71-.22,1.14-.4,2.28-.55,3.43-.07.54-.28.67-.82.67C447.93,53.82,442.81,53.83,437.68,53.83Z"/><path class="cls-1" d="M358.57,61.35c-1-.27-1.9-.54-2.82-.77-.43-.1-.35-.41-.35-.69a18,18,0,0,1,4-11.41,18.66,18.66,0,0,1,31.27,3.09c.39.75.37.69-.45.94a1.11,1.11,0,0,1-1.53-.64,16.17,16.17,0,0,0-29.92,5.28A16.73,16.73,0,0,0,358.57,61.35Z"/><path class="cls-1" d="M391.75,54.41a18.4,18.4,0,0,1-7.18,20.89,18.59,18.59,0,0,1-22.65-1.24c.77-.49,1.54-1,2.29-1.45.31-.21.45,0,.64.18a16,16,0,0,0,8.67,3.28,16.18,16.18,0,0,0,16.65-11.34,15.85,15.85,0,0,0,.38-8,1.26,1.26,0,0,1,.36-1.33C391.2,55.12,391.44,54.78,391.75,54.41Z"/><path class="cls-1" d="M390.46,53.85a82.25,82.25,0,0,1-8,9.25,75.59,75.59,0,0,1-7,6.34c-.69-.75-.69-.75,0-1.38a86.31,86.31,0,0,0,11-12l.32-.44a2.16,2.16,0,0,0-1,.13A65.21,65.21,0,0,1,367.19,57a.78.78,0,0,1-.61-.23c-1-1.19-2-2.38-3.14-3.66,1.49.24,2.85.47,4.22.67a80,80,0,0,0,16.22.55c2.09-.13,4.17-.39,6.25-.62C390.3,53.61,390.48,53.57,390.46,53.85Z"/><path class="cls-1" d="M382.35,58.55a57.3,57.3,0,0,1-14.14,13c-.46-.55-.36-.93.23-1.37a58.22,58.22,0,0,0,9.75-9.4l.39-.51c-2.27.35-4.44.65-6.62.88a47.45,47.45,0,0,1-9.68-.23.62.62,0,0,1-.49-.32l-1.91-2.82A52.61,52.61,0,0,0,382.35,58.55Z"/><path class="cls-1" d="M370,64.59c-1.58.16-3.17.14-4.76.17a57.67,57.67,0,0,1-8.9-.74c-.39-.06-.6-.19-.62-.64s-.16-1.15-.25-1.82a46.2,46.2,0,0,0,18.36,1.59c0,.36-.27.47-.43.64a55.44,55.44,0,0,1-12.15,9.28c-.38.22-.51.06-.71-.19s.12-.42.28-.53a55.47,55.47,0,0,0,8.7-7.11,5.08,5.08,0,0,1,.57-.47Z"/><path class="cls-1" d="M356.11,65.1c1.12.16,2.15.31,3.18.44.27,0,.3.25.37.43a14.81,14.81,0,0,0,2.24,3.87c.22.27.19.39-.09.57-.57.36-1.14.74-1.69,1.14-.31.24-.49.25-.75-.09A18.36,18.36,0,0,1,356.11,65.1Z"/><path class="cls-1" d="M390.46,53.85c-.06-.15-.21-.15-.33-.19.16-.11.35-.19.5,0S390.56,53.8,390.46,53.85Z"/><path class="cls-1" d="M489.81,49c-1.43,0-2.86,0-4.29,0a.81.81,0,0,0-.9.58c-2.21,5-4.45,10-6.68,15.05a1.48,1.48,0,0,1-.46.75c-.26-2.26-.5-4.44-.75-6.63-.35-3.06-.71-6.13-1-9.2,0-.43-.17-.56-.61-.55-1.46,0-2.92,0-4.37,0a.85.85,0,0,0-.94.64q-3.09,7.38-6.2,14.74l-.5,1.13c-.3-2.52-.57-4.84-.84-7.16-.34-2.93-.69-5.86-1-8.79,0-.42-.18-.56-.62-.55-1.37,0-2.73,0-4.1,0-.4,0-.5.08-.43.49.34,2.18.65,4.35,1,6.53.76,5,1.53,10.05,2.27,15.08.07.48.25.57.69.56,1.48,0,3,0,4.44,0a.83.83,0,0,0,.94-.63q3-7.26,6-14.51c.1-.23.21-.46.39-.85.57,5.22,1.13,10.25,1.65,15.28.06.55.21.73.78.71,1.45,0,2.91,0,4.37,0a.88.88,0,0,0,1-.6q5-10.69,10-21.37A1.13,1.13,0,0,0,489.81,49Z"/><path class="cls-1" d="M504.44,71.18q-2.64-10.83-5.24-21.67c-.09-.41-.27-.49-.64-.49-1.28,0-2.55,0-3.83,0a.92.92,0,0,0-1,.55q-6.21,10.76-12.46,21.5a.88.88,0,0,0-.23.6c1.5,0,3,0,4.48,0a.79.79,0,0,0,.84-.51c.77-1.46,1.59-2.9,2.36-4.37a.76.76,0,0,1,.79-.47q4,0,8.06,0c.43,0,.58.12.66.54.24,1.43.54,2.85.79,4.28.07.42.24.54.66.53,1.44,0,2.87,0,4.31,0C504.43,71.68,504.54,71.6,504.44,71.18Zm-7.38-9.26c-.24.28-1.06.09-1.63.1h-3.55c-.22,0-.51.06-.3-.35l3.85-7.56c.49,2.15.95,4.15,1.39,6.16C496.94,60.83,497.37,61.54,497.06,61.92Z"/><path class="cls-1" d="M20,59.75c-.28,0-.7.12-.69-.25s.42-.22.69-.21A5.92,5.92,0,0,0,24.35,54a6.16,6.16,0,0,0-3.07-6.2,10.59,10.59,0,0,0-5.85-1.59q-7,0-14,0c-.51,0-1.22-.27-1.38.57s.36,1.14,1,1.35c1.05.37,1.23,1.11,1.22,2.13q-.06,10,0,20c0,1.29,0,2.41-1.55,2.82A.88.88,0,0,0,0,74.2c.14.54.63.53,1.05.6a3.11,3.11,0,0,0,.53,0H16.16a10.28,10.28,0,0,0,3-.4,8.47,8.47,0,0,0,6-7.86A7.33,7.33,0,0,0,20,59.75Zm-9-6c0-.57,0-1.13,0-1.69s-.33-1.55.61-1.94a3,3,0,0,1,3.1.29c1.2.87,1.71,3.64,1.06,5.47-.38,1.1-1.95,1.84-3.62,1.77-.78,0-1.21-.3-1.17-1.17S11,54.7,11,53.79ZM16.1,68.55c-.41,2-3,2.55-4.42,2a1.06,1.06,0,0,1-.63-1.16c0-1.13,0-2.26,0-3.39s0-2.26,0-3.39c0-.54.13-1,.67-1.12,1.91-.47,4.07,0,4.52,2.46A12.16,12.16,0,0,1,16.1,68.55Z"/><path class="cls-1" d="M73.86,73c-.89-.33-1-1-1-1.84.05-1.87,0-3.74,0-5.61s0-4,0-6a6.26,6.26,0,0,0-3.68-5.86,8.63,8.63,0,0,0-8.6.6c-.35.21-.69.75-1.12.49s-.15-.79-.16-1.2c0-1.53-.45-1.8-1.84-1.14-2.67,1.27-5.33,2.57-8,3.85-.4.19-.82.41-.84.9s.42.74.85.85c1,.26,1.17.9,1.15,1.85-.06,3.57-.07,7.14,0,10.71,0,1.2-.12,2.11-1.42,2.5a.87.87,0,0,0-.67,1c.1.55.55.62,1,.62H60c.45,0,.9,0,1-.58a.85.85,0,0,0-.63-1c-1.18-.37-1.27-1.23-1.18-2.24,0-.52,0-1,0-1.57,0-2.87,0-5.74,0-8.62a2.51,2.51,0,0,1,1.6-2.47c2-.81,3.72.23,3.77,2.48.07,3.39,0,6.79,0,10.19,0,1-.08,1.77-1.18,2.13-.5.16-1,.52-.76,1.17s.73.53,1.21.53c3.19,0,6.37,0,9.56,0,.51,0,1.12.12,1.29-.57S74.36,73.2,73.86,73Z"/><path class="cls-1" d="M96.47,67.17a1.51,1.51,0,0,0-2.12.11,11.77,11.77,0,0,1-4.23,2.5,5.9,5.9,0,0,1-6.32-2c-.52-.74-.67-1.14.46-1.52C88,65,91.64,63.6,95.34,62.32c1-.35,1.29-.9,1-1.87A10.68,10.68,0,0,0,89.48,53c-7.39-2.68-15,3-15,11.27a9.6,9.6,0,0,0,.37,3,10.72,10.72,0,0,0,9.37,8.24c5.06.53,10.4-2.13,12.51-6.2A1.5,1.5,0,0,0,96.47,67.17ZM82,60.5c.09-3,2.35-5,4.79-4.15a2.92,2.92,0,0,1,1.67,1.37c.82,1.43.62,2-.91,2.55-1.31.45-2.63.89-3.94,1.35C82.1,62.14,81.93,62,82,60.5Z"/><path class="cls-1" d="M48.39,67.16a1.45,1.45,0,0,0-2,0A12.44,12.44,0,0,1,42,69.78a5.85,5.85,0,0,1-6.45-2.25c-.41-.66-.42-1,.44-1.25C39.68,65,43.31,63.71,47,62.4c1.46-.52,1.71-.92,1.2-2.41a10.64,10.64,0,0,0-7.43-7.25c-7.31-2.05-14.22,3.49-14.24,11.32a10.91,10.91,0,0,0,1.74,6.44,10.54,10.54,0,0,0,10,5,12.52,12.52,0,0,0,10.58-6.42A1.38,1.38,0,0,0,48.39,67.16ZM33.9,60.51c.05-3,2.47-5,4.93-4.12a2.86,2.86,0,0,1,1.55,1.33c.79,1.45.57,2-1,2.57l-3.95,1.36C34.05,62.13,33.87,62,33.9,60.51Z"/><path class="cls-1" d="M108.2,73c-.88-.34-1-1-1-1.84,0-4.05,0-8.1,0-12.15V46.5c0-1.49-.37-1.71-1.73-1.06-2.71,1.28-5.41,2.59-8.11,3.89-.43.2-.92.37-.9,1s.5.79,1,.9c.93.22,1.16.77,1.15,1.7,0,6,0,11.93,0,17.89,0,1.08-.16,1.84-1.25,2.23-.46.17-.9.49-.8,1.06s.73.63,1.26.63c3.32,0,6.63,0,9.95,0,.51,0,1.12.12,1.3-.57S108.7,73.2,108.2,73Z"/><path class="cls-1" d="M121.62,73c-.86-.29-1-.89-1-1.72,0-4.09,0-8.18,0-12.27s0-8.35,0-12.53c0-1.39-.41-1.65-1.65-1.06-2.75,1.3-5.49,2.62-8.23,3.93-.43.21-.93.39-.89,1s.52.8,1,.9c1,.2,1.11.82,1.11,1.7,0,6,0,11.92,0,17.88,0,1.06-.1,1.86-1.22,2.25-.46.16-.92.48-.79,1s.73.64,1.28.64h9.94c.51,0,1.12.13,1.27-.6S122.13,73.16,121.62,73Z"/><path class="cls-1" d="M135.14,73c-.8-.3-.93-.85-.92-1.62.05-2.57,0-5.14,0-7.7s0-5.4,0-8.1c0-1.31-.39-1.56-1.58-1q-4.12,2-8.24,3.94c-.42.2-.93.36-.93,1s.56.85,1.06,1c.88.22,1.09.73,1.07,1.61-.06,3,0,6,0,9,0,.93-.12,1.57-1.09,1.92-.5.17-1.13.48-.91,1.22s.8.55,1.32.55h9.82c.51,0,1.13.12,1.31-.55S135.66,73.15,135.14,73Z"/><path class="cls-1" d="M129.77,54.29a4.64,4.64,0,1,0-4.57-4.58A4.61,4.61,0,0,0,129.77,54.29Z"/><path class="cls-1" d="M20,59.75v-.46C19.77,59.44,19.77,59.6,20,59.75Z"/><path class="cls-1" d="M811.8,54c-1.63,4.48-3.28,9-4.87,13.45-.34,1-.79,1.42-1.9,1.31s-2.54,0-4,0L806.37,54c-.35-.47-.86-.22-1.29-.23-1.78,0-3.56,0-5.34,0-.45,0-1,.16-1.24-.4l1.36-3.91h41.45A17.08,17.08,0,0,1,840,53.38a2.1,2.1,0,0,1-1.57.39c-1.82,0-3.64,0-5.46,0-.35,0-.75-.18-1,.2-1.65,4.53-3.32,9.05-4.91,13.6-.32.92-.78,1.28-1.73,1.12a6,6,0,0,0-.85,0c-3.26,0-3.25,0-2.14-3.07,1.41-3.88,2.8-7.76,4.2-11.64-.18-.32-.49-.22-.76-.22H812.59C812.31,53.77,812,53.7,811.8,54Z"/><path class="cls-1" d="M790.47,57.54c-1.16,4.12-1.16,4.12-5.41,4.12h-.85c-2.64,0-2.64,0-3.35,2.5.39.41.89.2,1.33.21,2.87,0,5.75,0,8.62,0a2.73,2.73,0,0,1,1.39.13,1.27,1.27,0,0,1,0,.28c-.52,1.28-.56,3-1.61,3.73s-2.56.17-3.88.17H773.53c1-2.74,1.9-5.35,2.84-8s2.06-5.46,3-8.23a4.54,4.54,0,0,1,2.35-3.06h15.89a11.88,11.88,0,0,1-1.71,4.43,89.4,89.4,0,0,0-11.34.07l-2.12,5.61c1.44-.5,1.87-1.82,3-2.3a19.47,19.47,0,0,0,3.58.15A3.32,3.32,0,0,1,790.47,57.54Z"/><path class="cls-1" d="M887.29,49.45a12.54,12.54,0,0,1-1.71,4.44c-3.37-.27-6.74-.08-10.12-.1a11.36,11.36,0,0,0-3.72.16,3.28,3.28,0,0,0-2.28,2.4c-1.33,3.8-2.75,7.58-4.09,11.38-.25.71-.56,1-1.39,1a27.55,27.55,0,0,0-3.4,0c-.84,0-.91-.21-.63-1,1.9-5.13,3.79-10.26,5.6-15.42a5.17,5.17,0,0,1,3-2.88Z"/><path class="cls-1" d="M766.36,64.2a3.54,3.54,0,0,0,2.11-2.42c1.43-4.13,2.95-8.22,4.43-12.33h5.39c-1.9,5.24-3.78,10.49-5.69,15.73-1,2.67-2.19,3.5-5.1,3.51-5,0-10,0-15,0v-.28l1.63-3.93c3.58-.25,7.17,0,10.76-.12C765.35,64.36,765.89,64.54,766.36,64.2Z"/><path class="cls-1" d="M811.8,54c.28-.45.74-.32,1.15-.32H825.4c.4,0,.87-.13,1.13.35Z"/><path class="cls-1" d="M871.74,54c-.2-.43.17-.31.34-.31h12.73a.91.91,0,0,1,.77.26Z"/><path class="cls-1" d="M784.54,54c.21-.33.55-.32.88-.32h9.69a1,1,0,0,1,.77.25Z"/><path class="cls-1" d="M792.2,64.51c-3.31,0-6.61,0-9.92,0-.48,0-1.06.23-1.42-.34,3.38,0,6.75,0,10.12,0C791.39,64.22,791.93,63.9,792.2,64.51Z"/><path class="cls-1" d="M798.5,53.36c2.09.6,4.22.11,6.33.28.52,0,1.16-.27,1.54.37-2.36,0-4.72,0-7.08-.08C799,53.92,798.18,54.32,798.5,53.36Z"/><path class="cls-1" d="M832,54c.4-.59,1-.3,1.54-.34,2.17-.14,4.36.27,6.52-.26-.13.76-.74.56-1.21.56C836.53,54,834.24,54,832,54Z"/><path class="cls-1" d="M790.47,57.54c-1.69-.16-3.42.34-5.08-.28l4.63-.08C790.26,57.17,790.49,57.21,790.47,57.54Z"/><path class="cls-1" d="M861.46,49.45H845a3.85,3.85,0,0,0-2.38,2.87c-.38,1.29-.93,2.53-1.36,3.81-1,3.08-2.44,6-3.18,9.21-.49,2.11.45,3.3,2.6,3.33,4.87.06,9.75,0,14.62,0A2.7,2.7,0,0,0,858,67c1.68-4.62,3.56-9.19,5-13.91C863.54,51.26,863.14,50.48,861.46,49.45Zm-4.69,6.25c-.8,2.32-1.66,4.63-2.48,6.95a2.37,2.37,0,0,1-1.37,1.5h0a.58.58,0,0,1-.55.35c-2.36,0-4.71,0-7.07,0a.61.61,0,0,1-.57-.33,1.44,1.44,0,0,1-.35-1.75c.85-2.26,1.62-4.55,2.42-6.84a2.29,2.29,0,0,1,2.47-1.65c2.08,0,4.16,0,6.24,0C856.85,54,857.21,54.44,856.77,55.7Z"/><path class="cls-1" d="M850.46,64.35a4.39,4.39,0,0,0,2.46-.2l-8.19,0C846.63,64.62,848.55,64.29,850.46,64.35Z"/><path class="cls-1" d="M921.35,49.45a3.75,3.75,0,0,0-.87,1.25,15.74,15.74,0,0,1-5.57,6.19,51.26,51.26,0,0,1-15.51,6.68c-1.1.29-2.14,1-3.35.83a1.06,1.06,0,0,1,.31-.84,6.72,6.72,0,0,1,3.15-2A42.51,42.51,0,0,0,915.33,51c.39-.41,1-.76.63-1.51h-1.42a6.25,6.25,0,0,0-1.65,1.28A27.19,27.19,0,0,1,909,54.12a95,95,0,0,1-10.17,5.76c-.29.16-.61.49-1,.16a3.91,3.91,0,0,1,2-2.67c3-2,6.13-3.85,8.58-6.55.36-.4,1-.68.78-1.37h-9.08c-3.68,3.66-7.23,7.46-11.07,10.95-2.54,2.29-2.77,5.41-4.18,8.3,6.12,0,12,0,17.83,0a21.3,21.3,0,0,0,12.81-4.11c.21-.16.4-.45.77-.1-1,1.9-2.91,2.86-4.8,4.22,1.18,0,2.07-.07,3,0s1.44-.28,1.78-1.25c1.55-4.45,3.26-8.83,4.79-13.28.54-1.57,1.42-3,1.54-4.74Zm-2.48,8.36c-2.08,5.2-6.14,8-11.52,9.19a42.54,42.54,0,0,1-7.87.74c-1.56,0-3.12,0-4.67,0-.22,0-.51.09-.64-.16s.11-.5.29-.7a4.77,4.77,0,0,1,2.35-1.2c4-1.07,8-1.74,11.81-3.36,3.29-1.42,6.75-2.53,9.33-5.19.27-.28.62-.59,1-.34S919,57.46,918.87,57.81Z"/><path class="cls-1" d="M766.36,64.2c-.29.43-.75.31-1.16.31l-11.11,0c.32-.52.85-.28,1.28-.28C759,64.19,762.7,64.2,766.36,64.2Z"/><path class="cls-1" d="M568.46,60.4c1.9.87,3.59,1.65,5.28,2.41,2.77,1.26,5.55,2.5,8.32,3.75.83.38,1.62.8,1.61,1.9s-.79,1.47-1.56,1.82c-5.78,2.63-11.56,5.23-17.35,7.85a2.85,2.85,0,0,1-2.35.15c-3.88-1.71-7.73-3.47-11.85-5.33l10.56-4.76c.85-.39,1.71-.77,2.56-1.18.63-.31.66-.73,0-1.05-1.15-.58-2.34-1.1-3.52-1.63-.42-.19-.77.13-1.12.29l-12.36,5.53c-.36.17-.72.31-1.26.54,0-2.46,0-4.76,0-7.06,0-.61.45-.69.85-.87l5.22-2.37c-1.87-.85-3.49-1.63-5.14-2.33a1.23,1.23,0,0,1-.94-1.36q.11-2.75,0-5.49c0-1,.27-1.1,1.12-.7,3.94,1.81,7.91,3.54,11.83,5.39a3,3,0,0,0,3.13,0c.53-.32,1.14-.5,1.7-.78.37-.2,1-.23.93-.8s-.59-.63-1-.81l-10.87-4.9c-.48-.22-.94-.46-1.4-.68.14-.46.5-.48.76-.6l10-4.54a3.81,3.81,0,0,1,3.36,0q8.47,3.89,17,7.7c.85.39,1.63.77,1.68,1.86s-.8,1.5-1.62,1.88l-11.83,5.38Z"/><path class="cls-1" d="M688.1,56c-.85,1.45-1.65,2.78-2.43,4.12l-4.94,8.59c-.24.42-.42.86-1.07.84-2.09,0-4.18,0-6.5,0,.57-.94,1-1.73,1.51-2.52,3-4.88,6-9.75,8.9-14.66a1.87,1.87,0,0,1,1.91-1.06c1.83.07,3.67,0,5.51,0a1.38,1.38,0,0,1,1.4.74c3.34,5.55,6.72,11.07,10.09,16.6.13.22.23.46.46.9h-6.67c-.59,0-.74-.53-.86-.9-.67-2-2.08-2.52-4.11-2.36-2.39.18-4.81,0-7.36,0a12.2,12.2,0,0,1,1.75-3.1,2.28,2.28,0,0,1,1.88-.86c1.08,0,2.15,0,3.23,0,.88,0,.87-.24.48-.89C690.22,59.71,689.22,57.92,688.1,56Z"/><path class="cls-1" d="M702.35,65.52c3.71,0,7.24,0,10.76,0,2,0,2.63-.68,2.63-2.65,0-3.49,0-7,0-10.46,0-.84.18-1.18,1.09-1.12,1.34.08,2.69,0,4,0,.64,0,.84.18.83.82,0,4.34,0,8.68,0,13a4.17,4.17,0,0,1-3.85,4.14c-4,.54-8,.25-11.95.18a2.28,2.28,0,0,1-2-1.22C703.39,67.39,702.93,66.54,702.35,65.52Z"/><path class="cls-1" d="M654.71,65.56c3.38,0,6.59,0,9.8,0s3.54-.41,3.55-3.54,0-6.35,0-9.51c0-1,.29-1.3,1.27-1.23,1.3.08,2.6,0,3.9,0,.62,0,.85.15.85.81,0,4.2,0,8.4,0,12.59a4.34,4.34,0,0,1-4.15,4.6,84,84,0,0,1-11.66.16,2.37,2.37,0,0,1-1.83-1A15.87,15.87,0,0,1,654.71,65.56Z"/><path class="cls-1" d="M626.27,63.83c-.28-1.95-1.76-2.74-3.36-3.57.38-.21.68-.39,1-.55a3.92,3.92,0,0,0,2.43-3.83,4,4,0,0,0-2.82-3.72A14.89,14.89,0,0,0,618,51.3c-5,0-10,0-15.05,0-1,0-1.28.24-1.26,1.25.05,5,0,10.1,0,15.15,0,1.82,0,1.84,1.78,1.85,4.71,0,9.41,0,14.12,0a14.2,14.2,0,0,0,6.3-1A4.14,4.14,0,0,0,626.27,63.83Zm-8.59,1.68a41.33,41.33,0,0,1-5.1,0A3.68,3.68,0,0,0,608.37,68a4.34,4.34,0,0,1-.33.54l-.25-.06c0-2,0-3.93,0-5.89,0-.67.29-.81.89-.8,2.82,0,5.64,0,8.46,0a3.58,3.58,0,0,1,.8.1c1,.22,1.84.68,1.75,1.84A1.84,1.84,0,0,1,617.68,65.51Zm.72-7.68a34.86,34.86,0,0,1-4.68.1c-2.55-.18-4.78.07-5.59,3.17l-.34-.25c0-1.6,0-3.19,0-4.78,0-.56.16-.79.76-.79,3.21,0,6.43,0,9.64.07.8,0,1.44.36,1.5,1.21S619.08,57.78,618.4,57.83Z"/><path class="cls-1" d="M655,69c-3.45-5.69-6.92-11.37-10.35-17.07a1.2,1.2,0,0,0-1.21-.61c-2,0-3.94,0-5.91,0a1.45,1.45,0,0,0-1.48.83c-2.74,4.55-5.53,9.08-8.3,13.62-.73,1.2-1.44,2.41-2.27,3.79,2.12,0,4-.06,5.86,0a1.8,1.8,0,0,0,1.86-1.11c2.32-4.11,4.7-8.19,7.18-12.48,1.26,2.18,2.42,4.21,3.78,6.56-3.68-.55-6.86-.57-7.77,3.78,2.59,0,5.2.12,7.79,0a2.87,2.87,0,0,1,3.3,1.93c.21.52.36,1.31,1.16,1.32,2.16,0,4.32,0,6.57,0A4.38,4.38,0,0,0,655,69Z"/><path class="cls-1" d="M260.88,42.45c.91.38,1.83.72,2.72,1.14.43.2.59.19.56-.32s0-.74,0-1.1c-.08-.62.2-.75.76-.75,2.66,0,5.32,0,8,0h50c1,0,1,0,1,1q0,19.59,0,39.17c0,.65-.16.83-.82.83q-29.06,0-58.13,0c-.62,0-.82-.19-.79-.79s-.05-1.09,0-1.63-.13-.6-.61-.35a20,20,0,0,1-10.84,2.32,19.73,19.73,0,0,1-12.38-5.83,15.48,15.48,0,0,1-1.63-1.71,1.5,1.5,0,0,0-1.69-.65c-1.09.23-2.19.36-3.29.49-.43.06-.59.21-.58.66,0,2.24.07,4.48.13,6.72,0,.91,0,.94-.93.94h-64c-1.16,0-1.16,0-1.16-1.18q0-19.62,0-39.24c0-.66.15-.84.84-.84,12.33,0,24.65,0,37,.08,9.17.07,18.34,0,27.51.07a14.58,14.58,0,0,1,5.1,1.4,15.72,15.72,0,0,1,4.29,2.43.52.52,0,0,0,.77,0,22.6,22.6,0,0,1,3.37-2,20.79,20.79,0,0,1,9.63-1.93A19.22,19.22,0,0,1,260.88,42.45Z"/><path class="cls-2" d="M260.88,42.45c-1.11-.18-2.18-.55-3.29-.71A20.27,20.27,0,0,0,246.5,43.2a5.12,5.12,0,0,1-.56.15A10.52,10.52,0,0,1,249.33,42a19.17,19.17,0,0,1,11.2.19C260.67,42.25,260.82,42.29,260.88,42.45Z"/><path class="cls-3" d="M261,46.59a20.2,20.2,0,0,1,5.68,3.93c.28-.33.13-.66.13-1,0-1.36,0-2.71,0-4.07,0-.53.16-.67.67-.67q6.56,0,13.09,0a.88.88,0,0,1,.92.57c.52,1,1.1,2.09,1.65,3.13a1.08,1.08,0,0,0,.5.6c0-1.24,0-2.38,0-3.52,0-.61.16-.78.78-.78q17.71,0,35.43,0c.61,0,.8.14.8.77q0,16.48,0,33c0,.55-.14.72-.7.72H285.5a.85.85,0,0,1-.87-.52c-.71-1.38-1.45-2.73-2.2-4.09-.11-.21-.13-.48-.53-.61v3.32c0,1.89,0,1.89-1.88,1.89-4.14,0-8.28,0-12.42,0-.56,0-.79-.11-.76-.73.05-1.23,0-2.47,0-3.7,0-.25.18-.61-.12-.73s-.45.22-.66.37a23.13,23.13,0,0,1-8.92,4,15.43,15.43,0,0,1-13.87-4,23.85,23.85,0,0,1-3.82-4.39c-.25-.37-.44-.5-.89-.29a16.31,16.31,0,0,1-7.79,1.32c-.64,0-.85.06-.84.75,0,2.17,0,4.34,0,6.51,0,.71-.17.9-.89.9q-17.79,0-35.58,0c-7.47,0-14.94,0-22.41,0-.78,0-.93-.23-.92-1q0-16.29,0-32.59c0-.66.17-.91.87-.91q30.63,0,61.25,0A12.18,12.18,0,0,1,238.34,47a14.21,14.21,0,0,1,3.41,2.81c.35.4.54.39.94.06a19.46,19.46,0,0,1,9.72-4.53,14.45,14.45,0,0,1,7.14.67C260,46.21,260.55,46.37,261,46.59Z"/><path class="cls-4" d="M261,46.59a2.79,2.79,0,0,1-1.48-.59A2.87,2.87,0,0,1,261,46.59Z"/><path class="cls-1" d="M287,62.37V60.93c0-3.87,0-7.74,0-11.6,0-.6.13-.82.77-.81,2.61,0,5.23,0,7.84,0,.55,0,.71.16.7.71q0,12.9,0,25.79c0,.62-.21.73-.77.72q-3.84,0-7.69,0a1.17,1.17,0,0,1-1.12-.63q-3.67-5.82-7.39-11.63c-.12-.17-.17-.41-.46-.49a1.78,1.78,0,0,0-.05.94c0,3.69,0,7.39,0,11.08,0,.53-.11.73-.69.73-2.58,0-5.17,0-7.76,0-.48,0-.63-.12-.63-.62q0-13,0-26c0-.47.17-.58.6-.58q4.14,0,8.29,0a.87.87,0,0,1,.85.55q3.47,6.34,7,12.67C286.61,62,286.64,62.23,287,62.37Z"/><path class="cls-1" d="M241.51,58.43A13.42,13.42,0,1,1,250.67,75a7.11,7.11,0,0,1-.89-.29,13.35,13.35,0,0,1-8.72-13.74c0-.55.05-1.09.11-1.64C241.27,59,241.43,58.73,241.51,58.43Z"/><path class="cls-1" d="M240.74,60.77a9.82,9.82,0,0,1-9.51,7.33c-1.33,0-2.66,0-4-.07-.48,0-.65.12-.64.62,0,2.14,0,4.28,0,6.42,0,.53-.13.68-.65.67-2.71,0-5.43,0-8.14,0-.54,0-.64-.19-.64-.68q0-12.93,0-25.85c0-.42,0-.68.57-.69,4.55,0,9.11-.08,13.67-.06a9.47,9.47,0,0,1,9.61,8.33,7.28,7.28,0,0,1,.07,1.68,12.72,12.72,0,0,1-.17,1.85A.85.85,0,0,1,240.74,60.77Z"/><path class="cls-1" d="M298.91,62.1c0-4.29,0-8.57,0-12.86,0-.55.15-.72.71-.72q8.28,0,16.56,0c.48,0,.65.14.64.63q0,3.3,0,6.58c0,.54-.19.66-.69.65-2.24,0-4.48,0-6.73,0-.58,0-.77.14-.76.74,0,1.63,0,1.63,1.64,1.63,1.92,0,3.84,0,5.77,0,.55,0,.78.1.77.73,0,1.94,0,3.89,0,5.83,0,.52-.15.69-.67.68-2.27,0-4.53,0-6.8,0-.49,0-.7.1-.69.65,0,1.94,0,1.94,1.91,1.94s3.75,0,5.62,0c.48,0,.64.13.63.62,0,2,0,4,0,6,0,.51-.2.61-.65.61H299.59c-.56,0-.7-.16-.69-.71C298.92,70.72,298.91,66.41,298.91,62.1Z"/><path class="cls-1" d="M204.54,62.09c0-4.26,0-8.52,0-12.78,0-.62.16-.8.78-.79,2.86,0,5.71,0,8.57,0,.52,0,.68.14.68.67q0,13,0,25.93c0,.49-.15.63-.63.62q-4.37,0-8.73,0c-.59,0-.67-.22-.67-.74C204.55,70.71,204.54,66.4,204.54,62.09Z"/><path class="cls-1" d="M174.25,62.12c0-4.21,0-8.42,0-12.63,0-.64.19-.76.8-.76q12.42,0,24.84,0c.7,0,.86.2.85.87q0,12.52,0,25c0,.7-.15.92-.89.92q-12.42,0-24.84,0c-.64,0-.77-.2-.77-.8C174.26,70.54,174.25,66.33,174.25,62.12Z"/><path class="cls-5" d="M240.74,60.77l0-.43a6.55,6.55,0,0,0,.26-1.81l0-1.74c.33.6.07,1.26.19,1.89.17,0,.11-.25.27-.25.09.31-.09.59-.16.88a5.75,5.75,0,0,1-.33,1.36Z"/><path class="cls-6" d="M241,60.67a4.59,4.59,0,0,1,.33-1.36,3.68,3.68,0,0,1-.29,1.63Z"/><path class="cls-7" d="M249.78,74.68a1.09,1.09,0,0,1,.89.29A1,1,0,0,1,249.78,74.68Z"/><path class="cls-3" d="M259.38,62.13a5,5,0,1,1-4.93-5A5,5,0,0,1,259.38,62.13Z"/><path class="cls-8" d="M226.74,58.49c0-.71,0-1.42,0-2.14,0-.28.05-.51.39-.49a4.08,4.08,0,0,1,3.3,1.35,2.24,2.24,0,0,1-.38,3.21,5.23,5.23,0,0,1-2.93.86c-.34,0-.38-.23-.38-.5C226.74,60,226.74,59.26,226.74,58.49Z"/><path class="cls-6" d="M241,58.53a2.71,2.71,0,0,1-.26,1.81Z"/><path class="cls-3" d="M175.44,62.12c0-3.82,0-7.64,0-11.45,0-.62.18-.78.79-.77q11.28,0,22.55,0c.67,0,.8.2.8.83q0,11.45,0,22.9c0,.63-.17.78-.78.77q-11.28,0-22.54,0c-.68,0-.82-.19-.81-.84,0-3.81,0-7.63,0-11.44Z"/><path class="cls-1" d="M180.24,56.17A8.28,8.28,0,0,1,186,52.75a9.07,9.07,0,0,1,8.87,3.5,2.32,2.32,0,0,1,.21.38c.14.23.24.47.37.71a9,9,0,0,1,.88,6.93,5.21,5.21,0,0,1-1.05,2.29c-.37-.34-.11-.7,0-1a9.39,9.39,0,0,0,.76-3.28,8.33,8.33,0,0,0-4.12-7.71,8.75,8.75,0,0,0-9.22.21,6.14,6.14,0,0,0-2.1,2,.77.77,0,0,1-.67.41.35.35,0,0,1-.24-.23c0-.09,0-.14.08-.16A1.62,1.62,0,0,0,180.24,56.17Z"/><path class="cls-9" d="M179.67,56.94l.14.15c.19.22.11.46,0,.7-.34,1-.63,2-.92,3a5.83,5.83,0,0,0,.19,2.75,8.06,8.06,0,0,0,2.95,5,8.8,8.8,0,0,0,6.2,1.83,9.27,9.27,0,0,0,4.65-1.85c.21-.15.41-.3.65-.07-.06.42-.39.6-.69.8a9.1,9.1,0,0,1-9.14.95,3.24,3.24,0,0,1-.41-.13,6.08,6.08,0,0,1-2.18-1.5,8,8,0,0,0-.78-.86h0a10.46,10.46,0,0,1-1.69-3.22,8.91,8.91,0,0,1,0-5.31c.13-.37.22-.75.34-1.12h0a6.15,6.15,0,0,0,.6-1.06A.13.13,0,0,1,179.67,56.94Z"/><path class="cls-1" d="M183.32,70.11a7,7,0,0,1,1.74.49,9.08,9.08,0,0,0,7.67-1.33,2.91,2.91,0,0,0,.84-.8.36.36,0,0,1,0-.1c.52-.58,1-1.18,1.51-1.78l.09,0a8.65,8.65,0,0,0,1.14-6.49,23.21,23.21,0,0,0-1-2.83s0-.07,0-.1,0-.05,0-.05a8.5,8.5,0,0,1,1.27,6.35,9.28,9.28,0,0,1-12.73,7A5.15,5.15,0,0,1,183.32,70.11Z"/><path class="cls-10" d="M179.06,58.11c.11.74-.37,1.34-.48,2a9,9,0,0,0,1.5,7c.14.19.36.37.3.65a8.78,8.78,0,0,1-2-7.73A4.55,4.55,0,0,1,179.06,58.11Z"/><path class="cls-10" d="M179.65,57.06a1.42,1.42,0,0,1-.6,1.06A1.83,1.83,0,0,1,179.65,57.06Z"/><path class="cls-10" d="M180.36,67.75a1.27,1.27,0,0,1,.78.86A2.15,2.15,0,0,1,180.36,67.75Z"/><path class="cls-11" d="M180.24,56.17a.59.59,0,0,1-.49.61A1.34,1.34,0,0,1,180.24,56.17Z"/><path class="cls-11" d="M195.34,57.08a.77.77,0,0,1,0,.15.84.84,0,0,1-.27-.6A.58.58,0,0,1,195.34,57.08Z"/><path class="cls-1" d="M193.57,68.47c-.63,0-1,.57-1.45.86a8,8,0,0,1-4.51,1.32,9.88,9.88,0,0,1-4-.91,9.07,9.07,0,0,1-3.55-3.11,7.53,7.53,0,0,1-1.1-3,7.11,7.11,0,0,1-.35-1.32,13,13,0,0,1,1-4.26,3,3,0,0,0,.24-.92c.54-.06.58-.61.88-.91a9.34,9.34,0,0,1,5.94-3,9,9,0,0,1,5.49,1.27,9.2,9.2,0,0,1,2.79,2.58,10.3,10.3,0,0,1,1,2.51,8.59,8.59,0,0,1,0,4.69c-.16.76-.61,1.49-.76,2.29h0c-.54.64-1.06,1.3-1.62,1.92Z"/><path class="cls-9" d="M193.57,68.47c0-.24.13-.37.27-.54.29-.36.79-.55.82-1.13,0-.25.31-.25.53-.25A4.94,4.94,0,0,1,193.57,68.47Z"/><circle class="cls-1" cx="187.49" cy="62.14" r="9.63"/><path class="cls-1" d="M993.49,67.37H987.9c-.33,0-.34,0-.24-.34.28-1,.56-1.94.83-2.92a.41.41,0,0,1,.47-.35c3.55,0,7.1,0,10.65,0a1.08,1.08,0,0,0,1-.56,4.53,4.53,0,0,0,.39-.72c.13-.35.06-.45-.31-.45l-5.26,0-5.89,0c-.44,0-.45,0-.34-.43a47.23,47.23,0,0,1,1.38-4.57,5.92,5.92,0,0,1,3.5-3.46,4.11,4.11,0,0,1,1.56-.14c3.41,0,6.82,0,10.23,0h.09c.39,0,.39,0,.28.37-.28.91-.57,1.82-.85,2.73a.35.35,0,0,1-.4.3c-3.56,0-7.12.06-10.68,0a1.08,1.08,0,0,0-1.1.66,6.06,6.06,0,0,0-.28.65c-.11.32,0,.43.31.43l6.3,0,4.85,0c.41,0,.42,0,.31.39-.45,1.56-.9,3.13-1.43,4.67a6.54,6.54,0,0,1-2.67,3.22,2.78,2.78,0,0,1-1.47.38c-1.64.11-3.29.07-4.94.1-.24,0-.49,0-.74,0Z"/><path class="cls-1" d="M1019.81,53.54h5.56c.37,0,.38,0,.27.35-.28.92-.57,1.84-.85,2.76-.06.22-.17.28-.39.29l-8.85.05-2.19,0a.44.44,0,0,0-.33.09,2.67,2.67,0,0,0-.74,1.33c-.06.23.11.31.34.3l5.77,0,5.48,0c.27,0,.3.07.23.32-.46,1.64-.92,3.29-1.5,4.9A6.46,6.46,0,0,1,1020,67a3.17,3.17,0,0,1-1.74.39c-3.69.13-7.39.06-11.09.09-.17,0-.22,0-.17-.21.31-1,.62-2.1.91-3.15.07-.25.23-.22.4-.22h10.8a.88.88,0,0,0,.82-.42,4.72,4.72,0,0,0,.47-.82c.16-.38.09-.5-.33-.5-1.7,0-3.41,0-5.12,0-2,0-4,0-6.06,0-.37,0-.37,0-.28-.37.42-1.55.81-3.1,1.37-4.6a6.2,6.2,0,0,1,3.09-3.32,2.83,2.83,0,0,1,1.34-.3Z"/><path class="cls-1" d="M1039.25,67.19l.77-2.65c.65-2.29,1.29-4.58,2-6.86a6.18,6.18,0,0,1,2.28-3.36,4.93,4.93,0,0,1,3-.83c2.07,0,4.14,0,6.21,0h3.85c.73,0,.72,0,.51.69-1.32,4.24-2.57,8.5-3.83,12.76-.07.21-.14.32-.4.31-.69,0-1.38,0-2.07,0-.34,0-.34,0-.24-.32,1-3.19,2-6.39,2.9-9.59.17-.58.19-.54-.38-.54-2.49,0-5,0-7.48.05-.2,0-.4,0-.59,0a1.13,1.13,0,0,0-1.11.85c-.33.83-.5,1.7-.75,2.54q-1,3.3-1.9,6.6a.31.31,0,0,1-.34.28C1040.86,67.17,1040.07,67.2,1039.25,67.19Z"/><path class="cls-1" d="M988.4,45.85l-2.78-.1c-.41,0-.41,0-.38-.41.15-1.76.21-3.52.23-5.29,0-.21-.06-.28-.25-.34-.92-.26-1.83-.55-2.75-.81a65,65,0,0,0-14.13-2.37,56.54,56.54,0,0,0-11.26.54,57.24,57.24,0,0,0-11,2.79.49.49,0,0,0-.38.58,77.8,77.8,0,0,0,1,9.63,50.79,50.79,0,0,0,2.6,9.69.77.77,0,0,1,.11.4h-4.29c-.35,0-.37,0-.21.35.43.9,1,1.74,1.45,2.6a.59.59,0,0,0,.58.34c1.22,0,2.43,0,3.64,0a.55.55,0,0,1,.56.35,31.48,31.48,0,0,0,13.77,13.88l2,1h.12c0-.1.15-.12.23-.17a35.82,35.82,0,0,0,9.26-8.31,39.51,39.51,0,0,0,6.79-13.77,50,50,0,0,0,1.42-6.84c0-.28.12-.39.43-.37.57,0,1.15,0,1.72,0a.4.4,0,0,0,.46-.29c.38-1,.78-1.94,1.18-2.9C988.63,45.91,988.6,45.85,988.4,45.85ZM983,49.63a47.75,47.75,0,0,1-2.42,9.71,36.35,36.35,0,0,1-5.8,10.32,34,34,0,0,1-7.78,7,.32.32,0,0,1-.35,0,30,30,0,0,1-13.68-13c0-.06,0-.11-.07-.16a0,0,0,0,1,0,0c1.14,0,2.27,0,3.4,0,4.36,0,8.73.06,13.1,0a8.06,8.06,0,0,0,5.8-2.71,6.46,6.46,0,0,0,1.39-2.11l2.32-5.7c.13-.34.13-.35-.25-.36-2.72-.07-5.44,0-8.16,0-4,0-7.93,0-11.9,0h-.82c-.4,0-.49-.12-.38-.49a4.67,4.67,0,0,1,1.09-2,2.59,2.59,0,0,1,2-.93c1.16,0,2.32,0,3.49,0l18.72,0C983.09,49.25,983.1,49.26,983,49.63Zm.48-4.13c0,.21-.12.19-.26.19l-10.12-.15h-.71c-3.32,0-6.64-.07-10,0a13.09,13.09,0,0,0-2.26.18,1,1,0,0,0-.34.11,11.39,11.39,0,0,0-4.11,3.34A19.19,19.19,0,0,0,954,52.63c-.48,1.17-.93,2.35-1.41,3.53-.1.23,0,.28.2.29,1.55.06,3.1,0,4.64,0l11.78,0,4.08,0c.54,0,.57,0,.4.56a5.39,5.39,0,0,1-1.53,2.61,2.14,2.14,0,0,1-1.47.58c-1.17,0-2.34,0-3.52,0H951.61a.4.4,0,0,1-.44-.3,50.12,50.12,0,0,1-2.88-10.62,77.72,77.72,0,0,1-.82-7.75.36.36,0,0,1,.28-.42,54.83,54.83,0,0,1,21.93-2.74A65.52,65.52,0,0,1,983.49,41c.22.07.26.17.26.38C983.69,42.72,983.63,44.11,983.52,45.5Z"/><path class="cls-1" d="M1041.89,53.48c-1.66-.07-3.32-.06-5-.07-2.05,0-4.11,0-6.15.07a3.25,3.25,0,0,0-1.52.33,6,6,0,0,0-2.9,3.25c-1,3.29-2,6.61-3,9.92-.1.35-.09.35.27.35h6.07v-.12h6a.4.4,0,0,0,.46-.35c.27-.89.56-1.78.84-2.67.11-.35.1-.36-.26-.36h-9.29c-.35,0-.37,0-.27-.35s.28-.79.41-1.2a.3.3,0,0,1,.36-.24h1.1c2.28,0,4.55.06,6.83.06a4.56,4.56,0,0,0,3.65-1.76,6.66,6.66,0,0,0,1.15-2.11c.52-1.45.91-2.94,1.41-4.4C1042.26,53.49,1042.26,53.5,1041.89,53.48Zm-3.47,3.85a3,3,0,0,1-.32.7,1.43,1.43,0,0,1-1.39.79c-2.36,0-4.73,0-7.1,0l-.56,0c-.4,0-.48-.13-.36-.52a4,4,0,0,1,.64-1.19c.14-.2.36-.19.56-.2,1.37-.06,2.74-.06,4.11,0s2.68,0,4,0C1038.53,56.81,1038.55,56.85,1038.42,57.33Z"/><path class="cls-1" d="M1087.73,53.59c-3.92,0-7.85,0-11.77-.05a.49.49,0,0,0-.56.4c-.26.85-.48,1.72-.71,2.58-.08.29,0,.33.26.33h5c1.43,0,2.86,0,4.29,0,.22,0,.31.07.24.3s-.13.47-.2.71c-.24.78-.24.77-1.08.77-2.67,0-5.35-.07-8,0a3.57,3.57,0,0,0-1.89.57,5.52,5.52,0,0,0-2.19,2.63c-.13.35-.27.7-.39,1-.42,1.22-.78,2.45-1.11,3.7-.1.38,0,.5.37.56a3.94,3.94,0,0,0,.77,0l6.65,0h4a1.47,1.47,0,0,0,.86-.28,14.84,14.84,0,0,0,1.36-1,4.75,4.75,0,0,0,1.5-2.25c.81-2.49,1.55-5,2.3-7.52.25-.83.51-1.65.71-2.53Zm-4.66,8.79a4.72,4.72,0,0,1-.62,1.2.87.87,0,0,1-.73.37l-8.1,0h-.21c-.2,0-.28-.09-.24-.3a3.87,3.87,0,0,1,.54-1.27,1,1,0,0,1,.84-.44h4.11v0h4.11C1083.15,62,1083.2,62,1083.07,62.38Z"/><path class="cls-1" d="M1071.7,48.39c-.24,0-.32.07-.38.29-.37,1.46-.75,2.91-1.13,4.37-.12.48-.12.48-.61.47q-3.15-.08-6.3,0a3.42,3.42,0,0,0-1.75.35,5.64,5.64,0,0,0-2.58,3.08c-1.1,3.33-2,6.7-3,10.07-.06.21,0,.25.2.25,3.08,0,6.15,0,9.23-.1a3.39,3.39,0,0,0,2.38-1,6.94,6.94,0,0,0,2-2.82c1.06-3.64,2.15-7.27,3.23-10.91.4-1.32.79-2.65,1.19-4Zm-2.84,8.71c-.56,1.89-1.11,3.79-1.68,5.68a1.3,1.3,0,0,1-1.42,1.12c-1.41.09-2.83,0-4.25,0-.57,0-1.14,0-1.72,0-.35,0-.39-.06-.29-.38.59-1.93,1.17-3.85,1.77-5.77a1.06,1.06,0,0,1,1.2-.88h6.21C1068.88,56.84,1068.92,56.9,1068.86,57.1Z"/><path class="cls-1" d="M1124.92,46.44l.07.16v0c.64.5,1.28,1,1.89,1.56l1.33,1.16c1.13,1,2.27,2,3.39,3a14.59,14.59,0,0,0,1.11,1c.41.31.76.73,1.15,1.08.67.59,1.35,1.16,2,1.73.46.38.85.84,1.33,1.21.84.65,1.58,1.42,2.39,2.1.65.54,1.28,1.11,1.92,1.65.44.37.86.75,1.28,1.14s1.07.87,1.55,1.37a2.15,2.15,0,0,0,.66.54s0,.08,0,.12h-7.13a1.15,1.15,0,0,1-.37-.25.17.17,0,0,0-.18-.1h0a.17.17,0,0,0-.17-.18h0c0-.07,0-.16-.12-.12l-1.61-1.48a.54.54,0,0,0-.35-.31h0a.89.89,0,0,0-.38-.34h0c0-.14-.1-.25-.26-.28h0c0-.17-.17-.2-.3-.26a.38.38,0,0,1-.22-.19,1.14,1.14,0,0,0-.36-.33h0a.5.5,0,0,0-.34-.28h0a.45.45,0,0,0-.35-.35h0a.2.2,0,0,0-.18-.18h0c0-.11-.08-.15-.17-.17a1.5,1.5,0,0,1-.74-.57,12,12,0,0,0-1.48-1.37,9.05,9.05,0,0,1-1-.89c-.69-.69-1.38-1.37-2.13-2a3.84,3.84,0,0,1-.44-.46c-.69-.77-1.52-1.4-2.24-2.14-.05-.05-.11-.09-.13-.16a.52.52,0,0,0-.19-.2h0l-.12-.09h0a.68.68,0,0,0-.31-.34l0,0a.45.45,0,0,0-.2-.21,1.49,1.49,0,0,1-.41-.38c-.44-.49-1-.89-1.42-1.36a10.85,10.85,0,0,1-1.84-2.53,4.34,4.34,0,0,1-.35-1.18,5.67,5.67,0,0,1,.58-3.81c.15-.27.25-.58.41-.85a9.42,9.42,0,0,1,.76-1,9.28,9.28,0,0,1,2.92-2.29,15.42,15.42,0,0,1,1.5-.65c.75-.3,1.48-.66,2.25-.94,1.27-.46,2.49-1,3.75-1.52s2.6-1.11,3.92-1.61c.78-.29,1.56-.58,2.32-.92,1.77-.81,3.61-1.45,5.39-2.23,1.17-.5,2.34-1,3.53-1.45,1-.37,2-.82,3-1.18.19-.07.35-.21.54-.28,1.46-.53,2.89-1.18,4.34-1.74.68-.26,1.34-.57,2-.85s1.4-.58,2.12-.84,1.58-.6,2.35-.95c1-.46,2-.82,3-1.26.49-.21,1-.4,1.47-.6.72-.28,1.46-.53,2.16-.85s1.38-.64,2.09-.9c1.39-.49,2.73-1.1,4.1-1.65,1.14-.45,2.26-1,3.41-1.41.74-.27,1.45-.62,2.2-.86.39-.13.73-.39,1.12-.54.69-.25,1.37-.51,2-.78s1.48-.62,2.22-.93c1.32-.55,2.63-1.12,4-1.63,1-.36,1.92-.75,2.86-1.17,1.16-.5,2.34-.93,3.5-1.42.33-.14.65-.31,1-.42,1.42-.48,2.74-1.2,4.15-1.71,1.08-.39,2.13-.85,3.18-1.29s1.85-.76,2.78-1.13,2.14-.84,3.19-1.29c.52-.22,1-.47,1.56-.69.79-.32,1.59-.58,2.36-.93S1215.23.36,1216,0c.07,0,.12-.06.19,0s0,.12,0,.16a17.39,17.39,0,0,0-.76,2.42c-.26.91-.49,1.83-.82,2.72a14.33,14.33,0,0,1-1.46,2.73,11.33,11.33,0,0,1-2.18,2.3,17.79,17.79,0,0,1-3.53,2.29,29.9,29.9,0,0,1-2.82,1.3c-.32.13-.66.21-1,.34-.54.2-1.07.43-1.6.63-1,.37-2,.69-3,1-1.36.46-2.7,1-4,1.47-2.22.84-4.5,1.52-6.7,2.41-.65.27-1.33.46-2,.69-1.19.41-2.36.85-3.53,1.28a7.35,7.35,0,0,0-.91.28,17.62,17.62,0,0,1-2.13.81c-.65.23-1.29.47-2,.68a30.84,30.84,0,0,0-2.91,1.08c-.67.29-1.39.47-2.08.71l-4.27,1.51c-.41.14-.79.34-1.2.47-1,.33-2,.7-3,1-1.18.39-2.32.87-3.49,1.27-1.68.57-3.35,1.22-5,1.77-1,.32-1.9.75-2.87,1.07-1.9.62-3.76,1.34-5.65,2-.84.28-1.68.59-2.51.91s-1.47.51-2.2.76-1.58.62-2.38.9l-2,.69c-1.53.55-3,1.12-4.58,1.66-1.2.42-2.38.88-3.58,1.26a16.82,16.82,0,0,0-3.8,1.63,3.62,3.62,0,0,0-1.87,2.36,1.79,1.79,0,0,0,.48,1.73h0v0Z"/><path class="cls-1" d="M1128.36,47.52l0-.05a.52.52,0,0,0-.34-.31h0a.41.41,0,0,0-.26-.25h0l-.23-.17-.06-.09,0,0a2.73,2.73,0,0,1-.63-1.2,1.77,1.77,0,0,1,.79-1.71,16.41,16.41,0,0,1,4-1.53,10.49,10.49,0,0,0,2-.72,6.84,6.84,0,0,1,1.38-.48c1.7-.49,3.37-1,5-1.6,1.47-.51,3-.94,4.45-1.46,1-.37,2.09-.61,3.11-1,.78-.28,1.56-.58,2.35-.8,1.66-.47,3.27-1,4.91-1.57s3.36-1.14,5.06-1.65c1-.3,2-.61,2.94-.94.57-.2,1.13-.43,1.7-.59.93-.26,1.84-.57,2.75-.87.64-.21,1.27-.45,1.92-.62,1.07-.28,2.08-.72,3.14-1,.63-.19,1.24-.45,1.87-.62s1.39-.44,2.09-.65c.92-.28,1.81-.65,2.73-.93l2.54-.8c.78-.25,1.54-.54,2.32-.75,1.65-.46,3.21-1.15,4.86-1.6,1.28-.36,2.55-.78,3.81-1.22,1.43-.49,2.89-.92,4.32-1.41,1.14-.39,2.31-.68,3.44-1.09.91-.33,1.83-.66,2.76-.93,1.54-.46,3-1,4.57-1.47.7-.21,1.36-.51,2.07-.68.18-.05.28,0,.26.17a14.08,14.08,0,0,0-.68,1.48c-.31.65-.56,1.33-.89,2a21.76,21.76,0,0,1-1.67,2.61c-.35.49-.78.91-1.16,1.38a4.21,4.21,0,0,1-.66.74c-.34.26-.68.53-1,.82a10.54,10.54,0,0,1-1.85,1.25,10.15,10.15,0,0,1-2.74,1.13c-1.93.47-3.83,1-5.75,1.53s-4,1.11-6,1.58c-.85.19-1.68.49-2.53.71-1.07.27-2.14.57-3.21.82-2.06.49-4.08,1.08-6.12,1.62-1.88.5-3.74,1-5.63,1.48-1.08.25-2.15.54-3.2.88-1.36.43-2.76.7-4.14,1.07s-3.06.78-4.58,1.2c-1.11.31-2.22.62-3.33.91s-2.33.61-3.51.9c-.68.16-1.35.37-2,.48a1.45,1.45,0,0,0-1.39,1.53c0,.21-.07.29-.28.35-1.16.35-2.37.58-3.54.93-1.45.44-2.93.82-4.41,1.18-2,.47-3.88,1.08-5.82,1.58-1.26.32-2.5.66-3.75,1a1.44,1.44,0,0,1-1,0h0c0-.18-.2-.23-.35-.26h0c0-.05,0-.08-.09-.09h0l-.1-.09h0A.13.13,0,0,0,1128.36,47.52Z"/><path class="cls-1" d="M1133.67,52a.68.68,0,0,1-.31-.22c-.48-.47-1-.89-1.5-1.34s-.88-.77-1.29-1.19a1,1,0,0,1-.18-.23c0-.08-.05-.17.08-.19.57-.12,1.13-.31,1.71-.42s1-.24,1.46-.36c1.39-.35,2.77-.74,4.16-1.07,1.74-.42,3.45-1,5.19-1.38.81-.19,1.62-.36,2.42-.59,1.14-.33,2.31-.56,3.44-.94.87-.29,1.79-.41,2.67-.66s1.91-.52,2.87-.76c.64-.16,1.27-.33,1.92-.47a14.4,14.4,0,0,0,2.39-.67c.64-.25,1.32-.36,2-.55,1.31-.37,2.65-.63,4-1,.75-.21,1.51-.36,2.25-.58,1.1-.33,2.22-.56,3.32-.86,1.26-.34,2.51-.72,3.78-1,.9-.19,1.79-.4,2.67-.66s1.79-.52,2.7-.73c1.47-.36,2.94-.75,4.41-1.13.86-.22,1.73-.41,2.58-.65l2.82-.75c1.14-.29,2.25-.65,3.41-.86.48-.09.94-.24,1.41-.37s.9-.21,1.34-.35c.84-.26,1.69-.5,2.55-.71s1.51-.35,2.26-.54,1.66-.45,2.49-.66c.12,0,.24-.11.35,0s0,0,0,0l0,0-.29.43c-.55.84-1.1,1.68-1.63,2.53a14.42,14.42,0,0,1-1.93,2.59,18.38,18.38,0,0,1-1.76,1.77,17,17,0,0,1-3.15,1.93,13.87,13.87,0,0,1-3.65,1.16c-1.25.2-2.48.48-3.73.68-.73.12-1.45.35-2.18.49-1,.19-1.94.38-2.93.51-.56.08-1.12.23-1.69.33-2.21.36-4.4.86-6.61,1.18-1.31.2-2.59.54-3.89.76-1.48.25-2.93.59-4.41.8-.84.12-1.67.3-2.5.46-1.73.32-3.46.58-5.16,1a1.52,1.52,0,0,0-1.3,1.49.23.23,0,0,1-.22.25c-.39.06-.77.14-1.15.21-1.07.21-2.13.47-3.2.66s-2.37.46-3.57.63c-.79.11-1.57.33-2.37.46-2,.33-4,.78-6,1.13-1.48.26-3,.56-4.44.84-.66.13-.66.13-1.16-.16h0l-.09-.09h0c0-.12-.08-.16-.18-.18h0Z"/><path class="cls-1" d="M1140.22,57.79a1,1,0,0,1-.46-.31l-1-.89-1.49-1.34A.3.3,0,0,0,1137,55h0a.15.15,0,0,0-.1-.09h0a.14.14,0,0,0-.13-.09,3.47,3.47,0,0,1-.91-.92,6.61,6.61,0,0,1,1.21-.28c.91-.19,1.82-.41,2.75-.53,1.45-.2,2.87-.55,4.31-.81,1-.17,1.91-.35,2.87-.55a11.55,11.55,0,0,1,1.31-.22,4.18,4.18,0,0,0,.58-.16l2.86-.56,2.45-.49,2-.37,2.62-.49c.63-.12,1.27-.24,1.89-.39.94-.23,1.88-.42,2.83-.58,1.28-.21,2.56-.47,3.85-.72s2.5-.48,3.75-.74c.45-.09.9-.16,1.36-.22.67-.09,1.31-.31,2-.43l3.21-.62c.47-.09,1-.16,1.43-.29s1.21-.18,1.82-.32,1.15-.22,1.73-.33l2.36-.48c.44-.09.89-.17,1.34-.29a15.35,15.35,0,0,1,1.89-.36c.67-.1,1.33-.24,2-.37l2.79-.56c.07,0,.18-.06.22,0s-.07.12-.11.18a1,1,0,0,0-.17.19q-.63,1-1.35,1.89c-.42.54-.82,1.11-1.27,1.63a17.66,17.66,0,0,1-2.66,2.45,9.76,9.76,0,0,1-3.14,1.49,15.71,15.71,0,0,1-2.37.44c-1.49.21-3,.47-4.47.67s-3.21.48-4.81.71-3,.53-4.53.62a3.2,3.2,0,0,0-1.2.32,1.08,1.08,0,0,0-.64.71,1.47,1.47,0,0,0-.08.51c0,.16-.07.23-.23.24l-.85.11-3,.39c-1.31.16-2.63.29-3.93.48-1.55.23-3.12.3-4.67.57-.53.09-1.08.13-1.62.2l-3.25.41-3.16.4-2.66.3c-.6.07-1.2.11-1.8.2A1.36,1.36,0,0,1,1140.22,57.79Z"/><path class="cls-1" d="M1142.16,59.75a.76.76,0,0,1-.39-.45L1144,59c.56-.07,1.12-.17,1.69-.26l1.49-.21,2.65-.33,2.65-.33c1.26-.16,2.54-.28,3.8-.47s2.31-.28,3.46-.43l2.39-.32c.61-.09,1.23-.11,1.83-.25s1.48-.19,2.21-.28l2-.26a.59.59,0,0,1,.41.1c.68.44,1.39.85,2,1.32.35.25.73.46,1.1.68.63.37,1.21.82,1.83,1.21.84.52,1.67,1,2.5,1.58,1.1.7,2.18,1.42,3.3,2.08.63.37,1.18.86,1.82,1.21,0,0,0,0,0,.07h-33.72a1.59,1.59,0,0,1-.83-.19h0a.55.55,0,0,0-.35-.36l-.07-.07a1.31,1.31,0,0,0-.54-.53h0l-.09-.09h0a.37.37,0,0,0-.27-.26h0l-.1-.09h0a.32.32,0,0,0-.18-.1h0l-.1-.09h0a.37.37,0,0,0-.27-.18h0a.11.11,0,0,0-.09-.1h0l-.09-.09h0l-.1-.1h0l-.09-.1h0l-.09-.09h0l-.11-.1s0,0-.06-.07l-.1-.1h0a.37.37,0,0,0-.27-.27h0c-.13-.33-.44-.44-.7-.61h0a.79.79,0,0,0-.37-.35l0,0-.16-.14v0a.33.33,0,0,0-.26-.21h0C1142.36,59.84,1142.3,59.74,1142.16,59.75Z"/><path class="cls-1" d="M1124.88,46.37a1.79,1.79,0,0,1-.48-1.73,3.62,3.62,0,0,1,1.87-2.36,16.82,16.82,0,0,1,3.8-1.63c1.2-.38,2.38-.84,3.58-1.26,1.53-.54,3-1.11,4.58-1.66l2-.69c.8-.28,1.57-.63,2.38-.9s1.47-.47,2.2-.76,1.67-.63,2.51-.91c1.89-.65,3.75-1.37,5.65-2,1-.32,1.9-.75,2.87-1.07,1.69-.55,3.36-1.2,5-1.77,1.17-.4,2.31-.88,3.49-1.27,1-.34,2-.71,3-1,.41-.13.79-.33,1.2-.47l4.27-1.51c.69-.24,1.41-.42,2.08-.71a30.84,30.84,0,0,1,2.91-1.08c.66-.21,1.3-.45,2-.68a17.62,17.62,0,0,0,2.13-.81,7.35,7.35,0,0,1,.91-.28c1.17-.43,2.34-.87,3.53-1.28.66-.23,1.34-.42,2-.69,2.2-.89,4.48-1.57,6.7-2.41,1.34-.5,2.68-1,4-1.47,1-.34,2-.66,3-1,.53-.2,1.06-.43,1.6-.63.32-.13.66-.21,1-.34a29.9,29.9,0,0,0,2.82-1.3,17.79,17.79,0,0,0,3.53-2.29,11.33,11.33,0,0,0,2.18-2.3,14.33,14.33,0,0,0,1.46-2.73c.33-.89.56-1.81.82-2.72a17.39,17.39,0,0,1,.76-2.42s0-.11,0-.16a.5.5,0,0,1,.11.53c-.49,1.8-1,3.61-1.58,5.38a6.55,6.55,0,0,1-.46.87,10.38,10.38,0,0,1-1.2,1.93,10.63,10.63,0,0,1-1.27,1.33,17.7,17.7,0,0,1-1.6,1.29c-.36.28-.75.49-1.12.73a26.34,26.34,0,0,1-3.86,1.95c-.45.2-1,.29-1.4.51a22.47,22.47,0,0,1-2.52,1L1198,16.66c-1.8.65-3.59,1.34-5.4,2-.88.3-1.76.58-2.63.92s-1.89.71-2.86,1c-.69.22-1.37.5-2.06.75-.41.15-.84.28-1.26.43-1.49.53-3,1.12-4.48,1.62-1,.33-2,.68-3,1-.36.13-.69.33-1.07.44-1.57.49-3.09,1.13-4.65,1.62-1.07.34-2.07.82-3.14,1.15-.85.26-1.68.58-2.51.88s-1.9.69-2.85,1.05c-.74.28-1.48.55-2.23.78s-1.45.53-2.17.8c-.39.14-.8.2-1.19.36-1.08.44-2.16.9-3.28,1.24-1.4.42-2.75,1-4.12,1.44s-2.64.93-4,1.43c-.57.22-1.16.39-1.74.59-1,.32-1.86.71-2.8,1.06-.65.24-1.33.43-2,.66-.92.32-1.83.66-2.75,1-1.52.55-3,1.13-4.56,1.64a23,23,0,0,0-2.45.88,16,16,0,0,0-2.56,1.18,3.83,3.83,0,0,0-1,.9,5.6,5.6,0,0,0-.48.59A2.35,2.35,0,0,0,1124.88,46.37Z"/><path class="cls-1" d="M1129,48a1.44,1.44,0,0,0,1,0c1.25-.36,2.49-.7,3.75-1,1.94-.5,3.86-1.11,5.82-1.58,1.48-.36,3-.74,4.41-1.18,1.17-.35,2.38-.58,3.54-.93.21-.06.3-.14.28-.35a1.45,1.45,0,0,1,1.39-1.53c.7-.11,1.37-.32,2-.48,1.18-.29,2.34-.59,3.51-.9s2.22-.6,3.33-.91c1.52-.42,3.06-.78,4.58-1.2s2.78-.64,4.14-1.07c1-.34,2.12-.63,3.2-.88,1.89-.45,3.75-1,5.63-1.48,2-.54,4.06-1.13,6.12-1.62,1.07-.25,2.14-.55,3.21-.82.85-.22,1.68-.52,2.53-.71,2-.47,4-1.05,6-1.58s3.82-1.06,5.75-1.53a10.15,10.15,0,0,0,2.74-1.13,10.54,10.54,0,0,0,1.85-1.25c.32-.29.66-.56,1-.82a4.21,4.21,0,0,0,.66-.74c.38-.47.81-.89,1.16-1.38a21.76,21.76,0,0,0,1.67-2.61c.33-.64.58-1.32.89-2a14.08,14.08,0,0,1,.68-1.48c.15,0,.18.09.14.19s-.14.4-.22.6c-.35,1-.84,1.85-1.26,2.77a18.17,18.17,0,0,1-1.73,2.8c-.28.39-.64.71-.92,1.09a10.8,10.8,0,0,1-2.33,2.15,11.28,11.28,0,0,1-4.21,2c-.68.16-1.35.38-2,.56l-3.89,1-2.77.74-1.86.47a19.35,19.35,0,0,0-2.34.65,15.74,15.74,0,0,1-1.7.46l-3.2.8-3.73,1-2.76.75c-1.21.32-2.42.68-3.64.95s-2.17.53-3.23.85c-.88.26-1.75.52-2.64.71-1.35.29-2.65.71-4,1-.77.18-1.54.42-2.32.59-.36.07-.7.22-1.06.32-1,.27-2,.51-2.94.79s-2,.48-3,.76a11.72,11.72,0,0,0-1.57.43,14.55,14.55,0,0,1-1.8.49,1.12,1.12,0,0,0-.9,1.32c0,.27-.08.31-.27.35-.46.11-.93.21-1.38.33-.79.22-1.58.47-2.37.68-1.07.28-2.13.58-3.2.84s-1.91.47-2.85.78a4,4,0,0,1-.5.1c-.66.12-1.26.45-1.92.58a31.1,31.1,0,0,0-3,.78c-.88.25-1.77.48-2.65.72A.69.69,0,0,1,1129,48Z"/><path class="cls-1" d="M1134,52.34c.5.29.5.29,1.16.16,1.48-.28,3-.58,4.44-.84,2-.35,4-.8,6-1.13.8-.13,1.58-.35,2.37-.46,1.2-.17,2.38-.43,3.57-.63s2.13-.45,3.2-.66c.38-.07.76-.15,1.15-.21a.23.23,0,0,0,.22-.25,1.52,1.52,0,0,1,1.3-1.49c1.7-.46,3.43-.72,5.16-1,.83-.16,1.66-.34,2.5-.46,1.48-.21,2.93-.55,4.41-.8,1.3-.22,2.58-.56,3.89-.76,2.21-.32,4.4-.82,6.61-1.18.57-.1,1.13-.25,1.69-.33,1-.13,2-.32,2.93-.51.73-.14,1.45-.37,2.18-.49,1.25-.2,2.48-.48,3.73-.68a13.87,13.87,0,0,0,3.65-1.16,17,17,0,0,0,3.15-1.93,18.38,18.38,0,0,0,1.76-1.77,14.42,14.42,0,0,0,1.93-2.59c.53-.85,1.08-1.69,1.63-2.53l.29-.43c0,.16.16,0,.24.11a1.38,1.38,0,0,1-.29.46c-.7,1.12-1.39,2.23-2.13,3.32-.28.42-.56.83-.86,1.23s-.75.78-1.1,1.2a11.83,11.83,0,0,1-3,2.41,15.4,15.4,0,0,1-2.78,1.32,30.67,30.67,0,0,1-3.88.89c-.63.13-1.26.23-1.89.39a33.72,33.72,0,0,1-3.91.74c-.55.06-1.09.19-1.64.29l-1.94.38c-.62.11-1.23.26-1.85.35-1.05.15-2.08.41-3.13.53a12.23,12.23,0,0,0-1.8.37c-.33.09-.67.15-1,.21l-1.82.33-2.53.46c-1.12.21-2.26.36-3.38.6-.86.19-1.74.29-2.6.47-.58.13-1.17.2-1.75.38a6.8,6.8,0,0,1-1.56.27,3.22,3.22,0,0,0-1.23.38,1.34,1.34,0,0,0-.76,1.33c0,.17,0,.2-.17.22-1,.21-2,.42-2.94.61-.78.15-1.58.26-2.36.41-1.08.21-2.17.38-3.25.59l-3.12.58c-.81.16-1.63.28-2.43.5-.57.15-1.18.2-1.77.31l-2.61.5c-.77.15-1.54.31-2.32.43a.88.88,0,0,0-.17,0C1134.66,53,1134.32,52.74,1134,52.34Z"/><path class="cls-1" d="M1140.22,57.79a1.36,1.36,0,0,0,1.1.14c.6-.09,1.2-.13,1.8-.2l2.66-.3,3.16-.4,3.25-.41c.54-.07,1.09-.11,1.62-.2,1.55-.27,3.12-.34,4.67-.57,1.3-.19,2.62-.32,3.93-.48l3-.39.85-.11c.16,0,.24-.08.23-.24a1.47,1.47,0,0,1,.08-.51,1.08,1.08,0,0,1,.64-.71,3.2,3.2,0,0,1,1.2-.32c1.53-.09,3-.4,4.53-.62s3.21-.49,4.81-.71,3-.46,4.47-.67a15.71,15.71,0,0,0,2.37-.44,9.76,9.76,0,0,0,3.14-1.49,17.66,17.66,0,0,0,2.66-2.45c.45-.52.85-1.09,1.27-1.63s.93-1.24,1.35-1.89a1,1,0,0,1,.17-.19c.09,0,.17-.06.25,0s0,.15-.08.22c-.4.59-.76,1.21-1.21,1.76a28.59,28.59,0,0,1-2.45,2.93,8.78,8.78,0,0,1-.75.64,10.66,10.66,0,0,1-1.55,1.22,14.25,14.25,0,0,1-3,1.24c-.73.15-1.47.21-2.2.37-1.16.27-2.35.31-3.51.53-.9.17-1.81.29-2.72.42-1.19.17-2.37.38-3.56.53l-2.13.28a15.06,15.06,0,0,0-2.41.35,1.3,1.3,0,0,0-1,.79,1.5,1.5,0,0,0-.07.59c0,.17,0,.23-.24.26l-3.06.39c-1.15.14-2.3.28-3.46.4l-2.25.27c-.26,0-.52,0-.77.07-1.07.23-2.16.28-3.23.46-.43.07-.88.08-1.32.14l-1.57.2c-.89.11-1.78.23-2.68.32s-1.75.23-2.63.33c-.58.07-1.17.11-1.75.18s-1.11.13-1.66.21a7.89,7.89,0,0,0-1.28.18.17.17,0,0,1-.19-.06C1140.55,58.05,1140.31,58,1140.22,57.79Z"/><path class="cls-1" d="M1146.71,63.92a1.59,1.59,0,0,0,.83.19h33.72l.15.14c0,.12-.1.08-.16.09h-.74q-16.32,0-32.66,0A1.33,1.33,0,0,1,1146.71,63.92Z"/><path class="cls-1" d="M1138.59,75.37c-.13,0-.23.06-.25-.11a2.35,2.35,0,0,1,0-.26V68.92c0-.37,0-.38.4-.38s.89,0,1.34,0,.51,0,.52-.52,0-1.09,0-1.63a.63.63,0,0,1,.21.58c0,.49,0,1,0,1.47s0,.39-.36.39c-.54,0-1.07,0-1.6,0-.23,0-.29.07-.29.29C1138.58,71.2,1138.58,73.28,1138.59,75.37Z"/><path class="cls-1" d="M1137.93,64.19h7.13c0,.09.17.06.16.18s-.21,0-.32,0c-2.16,0-4.33,0-6.49,0C1138.21,64.42,1138,64.47,1137.93,64.19Z"/><path class="cls-1" d="M1197.68,77.85l.64,0h6.19c.42,0,.42,0,.42-.4s0-.92,0-1.38a1.23,1.23,0,0,1,0-.47c.1,0,.16,0,.16.15,0,.7,0,1.4,0,2.11,0,.23-.17.19-.3.19h-7.08C1197.68,78,1197.68,77.92,1197.68,77.85Z"/><path class="cls-1" d="M1178.9,66.52c0-.23-.17-.22-.34-.22h-6.24c-.14,0-.19.08-.19.22v1.72c0,.16.08.19.22.19l1.39,0c.23,0,.31.09.27.31,0,1.87,0,3.74,0,5.61-.79-.93-1.43-1.93-2.16-2.88-.45-.58-.83-1.22-1.26-1.83s-.79-1-1.14-1.56-.69-1-1-1.43a.68.68,0,0,0-.67-.33c-2.65,0-5.3,0-8,0h-.26a.19.19,0,0,0-.21.21c0,.59,0,1.18,0,1.77,0,.12.08.14.17.15l1.72,0c.21,0,.28.09.25.29v6.43c0,.41,0,.41-.39.41h-1.52c-.11,0-.24,0-.24.17,0,.6,0,1.21,0,1.81,0,.12.1.13.18.15h0l5.93,0h.24c.38,0,.44,0,.44-.34a1.41,1.41,0,0,0,0-.22h0V77c0-.19,0-.39,0-.59h0a4,4,0,0,1,0-.6c0-.19-.13-.22-.29-.22h-1.45c-.16.09-.22,0-.22-.14s0-.37,0-.56c0-.79,0-1.59,0-2.38V70.08a1.37,1.37,0,0,0,0-.19c0-.07,0-.15,0-.22a.74.74,0,0,1,0-.21.83.83,0,0,1,.06-.21l.1.07a.58.58,0,0,1,.08.18c.19.08.17.31.31.45a6.41,6.41,0,0,1,1,1.29c.61.92,1.26,1.81,1.92,2.69.14.2.24.42.39.61a17.87,17.87,0,0,1,1.07,1.51,11.4,11.4,0,0,0,1.24,1.62h5.87c.42,0,.42,0,.42-.43v-8.4c0-.42,0-.42.44-.42h1.34c.44,0,.45,0,.46-.47A8.4,8.4,0,0,1,1178.9,66.52Z"/><path class="cls-1" d="M1201.12,68.61c.79-.07,1.59,0,2.38,0,.08,0,.19,0,.21.09s-.08.14-.14.2a17.76,17.76,0,0,0-1.93,0h-.3A.2.2,0,0,1,1201.12,68.61Z"/><path class="cls-1" d="M1172.35,68.43l1.39,0c.23,0,.31.09.27.31h-1.4C1172.41,68.72,1172.29,68.66,1172.35,68.43Z"/><path class="cls-1" d="M1159.5,68.43l1.72,0c.21,0,.28.09.25.29h-1.67C1159.6,68.71,1159.47,68.67,1159.5,68.43Z"/><path class="cls-1" d="M1180.12,68.61a15.89,15.89,0,0,1,1.69,0c.19,0,.27.08.17.26h-1.53C1180.28,68.83,1180.15,68.8,1180.12,68.61Z"/><path class="cls-1" d="M1143.16,60.65c.26.17.57.28.7.61A2.93,2.93,0,0,1,1143.16,60.65Z"/><path class="cls-1" d="M1145.76,63a1.31,1.31,0,0,1,.54.53A1.11,1.11,0,0,1,1145.76,63Z"/><path class="cls-1" d="M1142.88,75.84c.21.21.49.34.63.62A1.78,1.78,0,0,1,1142.88,75.84Z"/><path class="cls-1" d="M1146.37,63.57a.55.55,0,0,1,.35.36C1146.52,63.88,1146.45,63.72,1146.37,63.57Z"/><path class="cls-1" d="M1134.76,61.43a.89.89,0,0,1,.38.34C1135,61.68,1134.8,61.64,1134.76,61.43Z"/><path class="cls-1" d="M1142.8,60.3a.79.79,0,0,1,.37.35A.74.74,0,0,1,1142.8,60.3Z"/><path class="cls-1" d="M1145.41,62.63a.37.37,0,0,1,.27.26A.44.44,0,0,1,1145.41,62.63Z"/><path class="cls-1" d="M1143.85,61.25a.37.37,0,0,1,.27.27A.37.37,0,0,1,1143.85,61.25Z"/><path class="cls-1" d="M1134.52,61.16c.16,0,.22.14.26.28C1134.67,61.37,1134.54,61.32,1134.52,61.16Z"/><path class="cls-1" d="M1134.23,60.91c.13.06.27.09.3.26C1134.39,61.13,1134.32,61,1134.23,60.91Z"/><path class="cls-1" d="M1133.65,60.39a1.14,1.14,0,0,1,.36.33A.68.68,0,0,1,1133.65,60.39Z"/><path class="cls-1" d="M1133,59.78a.45.45,0,0,1,.35.35A1.66,1.66,0,0,1,1133,59.78Z"/><path class="cls-1" d="M1142.16,59.75c.14,0,.2.09.23.21A.37.37,0,0,1,1142.16,59.75Z"/><path class="cls-1" d="M1135.13,61.76a.54.54,0,0,1,.35.31C1135.38,62,1135.2,61.91,1135.13,61.76Z"/><path class="cls-1" d="M1158.23,69.37c-.18-.06-.18-.21-.2-.35A.55.55,0,0,1,1158.23,69.37Z"/><path class="cls-1" d="M1133.32,60.12a.5.5,0,0,1,.34.28A.59.59,0,0,1,1133.32,60.12Z"/><path class="cls-1" d="M1144.8,62.2a.37.37,0,0,1,.27.18A.32.32,0,0,1,1144.8,62.2Z"/><path class="cls-1" d="M1137,55a.3.3,0,0,1,.26.22C1137.19,55.19,1137.08,55.15,1137,55Z"/><path class="cls-1" d="M1142.39,60a.33.33,0,0,1,.26.21Z"/><path class="cls-1" d="M1133.75,52.09c.1,0,.17.06.18.18S1133.8,52.16,1133.75,52.09Z"/><path class="cls-1" d="M1137.21,63.66a.17.17,0,0,1,.17.18C1137.32,63.79,1137.21,63.77,1137.21,63.66Z"/><path class="cls-1" d="M1132.63,59.44c.09,0,.16.06.17.17C1132.74,59.56,1132.65,59.53,1132.63,59.44Z"/><path class="cls-1" d="M1132.8,59.6a.2.2,0,0,1,.18.18C1132.91,59.73,1132.82,59.71,1132.8,59.6Z"/><path class="cls-1" d="M1142.66,60.18l.16.14C1142.74,60.3,1142.67,60.28,1142.66,60.18Z"/><path class="cls-1" d="M1158,68.93l-.1-.12A.14.14,0,0,1,1158,68.93Z"/><path class="cls-1" d="M1137.09,63.55c.13,0,.11.05.12.12Z"/><path class="cls-1" d="M1145.15,62.46a.32.32,0,0,1,.18.1A.35.35,0,0,1,1145.15,62.46Z"/><path class="cls-1" d="M1137.38,63.84a.17.17,0,0,1,.18.1C1137.49,63.93,1137.4,63.94,1137.38,63.84Z"/><path class="cls-1" d="M1158.3,69.55c-.09,0-.09-.12-.09-.19S1158.3,69.47,1158.3,69.55Z"/><path class="cls-1" d="M1133.67,52l.08.09Z"/><path class="cls-1" d="M1144.37,61.77l.09.09A.08.08,0,0,1,1144.37,61.77Z"/><path class="cls-1" d="M1144.46,61.85l.09.1A.1.1,0,0,1,1144.46,61.85Z"/><path class="cls-1" d="M1144.27,61.68l.11.1A.12.12,0,0,1,1144.27,61.68Z"/><path class="cls-1" d="M1145.67,62.89l.09.09S1145.68,62.94,1145.67,62.89Z"/><path class="cls-1" d="M1145.32,62.55l.1.09C1145.36,62.63,1145.32,62.6,1145.32,62.55Z"/><path class="cls-1" d="M1158,69a.13.13,0,0,1-.08-.11A.15.15,0,0,1,1158,69Z"/><path class="cls-1" d="M1145.06,62.37l.1.09A.09.09,0,0,1,1145.06,62.37Z"/><path class="cls-1" d="M1133.92,52.26l.09.09Z"/><path class="cls-1" d="M1136.82,54.86a.14.14,0,0,1,.13.09A.14.14,0,0,1,1136.82,54.86Z"/><polygon class="cls-1" points="1204.9 75.4 1204.91 75.4 1204.91 75.37 1204.9 75.4"/><polygon class="cls-1" points="1131.8 75.4 1131.81 75.4 1131.82 75.4 1131.8 75.4"/><path class="cls-1" d="M1140,77.66a2.26,2.26,0,0,0,.26,0c.3,0,.31,0,.32-.31,0-.64,0-1.27,0-1.9-.12-.12-.27-.07-.41-.07h-1.62c-.13,0-.23.06-.25-.11a2.35,2.35,0,0,1,0-.26V68.92c0-.37,0-.38.4-.38s.89,0,1.34,0,.51,0,.52-.52,0-1.09,0-1.63c-.14-.15-.32-.08-.49-.09h-7.77c-.12,0-.23,0-.35,0s-.27.07-.27.28c0,.61,0,1.23,0,1.85,0,.08,0,.15.09.18.64-.07,1.3,0,2,0,.19,0,.24.09.21.27v1.59c0,.3,0,.31-.31.31h-6c-.12,0-.25,0-.25-.12,0-.62,0-1.24,0-1.85,0-.18.13-.19.27-.19h1.38c.64,0,.59.06.59-.61v-1a.68.68,0,0,1,.08-.42c0-.28-.26-.22-.43-.22h-8.16c-.31,0-.31,0-.31.31q0,.84,0,1.68c0,.12-.05.27.13.33.64-.08,1.29,0,1.94,0,.19,0,.26.09.23.26v6.07c0,.45.07.46-.48.46h-1.59c-.15,0-.24,0-.24.22q0,.94,0,1.89c0,.12,0,.19.17.2l1.68,0h6.35c.1,0,.2,0,.3,0,.31,0,.32,0,.33-.31s0-.87,0-1.3a.81.81,0,0,1,.08-.46l0-.13h0a.14.14,0,0,0-.12-.06h0l-1.88,0c-.15.07-.27,0-.27-.14V73.37a.17.17,0,0,1,.19-.18h6.22c.14,0,.13.13.12.23,0,.46,0,.92,0,1.37,0,.63.13.57-.6.59-.53,0-1.05,0-1.58,0,0,0,0,0,0,0a17,17,0,0,0,0,2.14c0,.09.09.09.16.11l3.45,0Z"/><path class="cls-1" d="M1144.72,62.11a.11.11,0,0,1,.09.1A.09.09,0,0,1,1144.72,62.11Z"/><path class="cls-1" d="M1144.63,62l.09.09C1144.66,62.12,1144.64,62.08,1144.63,62Z"/><path class="cls-1" d="M1136.94,54.94a.15.15,0,0,1,.1.09Z"/><path class="cls-1" d="M1144.11,61.51l.1.1S1144.11,61.58,1144.11,61.51Z"/><path class="cls-1" d="M1144.54,61.94l.1.1A.11.11,0,0,1,1144.54,61.94Z"/><polygon class="cls-1" points="1204.9 75.4 1204.9 75.4 1204.91 75.4 1204.9 75.4"/><path class="cls-1" d="M1208.85,77.83h8.05c.1,0,.21,0,.31,0s.31-.07.3-.29c0-.71,0-1.41,0-2.11a.81.81,0,0,0-.46-.05c-.55,0-1.1,0-1.65,0-.12.06-.15-.06-.18-.12-.35-.59-.6-1.24-1-1.82,0,0,0-.1,0-.16a2.56,2.56,0,0,1-.6-1.11.14.14,0,0,1-.1-.16.18.18,0,0,1-.09-.18c-.06,0-.08,0,0-.1-.27-.66-.62-1.28-1-1.92s-.69-1.17-1-1.79a12.59,12.59,0,0,0-.93-1.64.5.5,0,0,0-.48-.25h-8.71c-.33,0-.34,0-.35.33v1.86c0,.12,0,.27.13.33.79-.07,1.59,0,2.38,0,.08,0,.19,0,.21.09s-.08.14-.14.2c-.24.41-.45.83-.72,1.22-.48.7-.8,1.49-1.28,2.18-.61.89-1,1.88-1.61,2.79a.58.58,0,0,1-.58.32c-.54,0-1.07,0-1.6,0-.16,0-.28,0-.28.22q0,1,0,2.07c0,.13,0,.19.18.19l.64,0h6.19c.42,0,.42,0,.42-.4s0-.92,0-1.38a1.23,1.23,0,0,1,0-.47c0-.06,0-.14-.08-.18-.6-.05-1.2,0-1.8,0-.09,0-.2.07-.28,0s0-.16,0-.23c.21-.34.43-.68.62-1a.4.4,0,0,1,.4-.25c1.71,0,3.41,0,5.12,0,.19,0,.35,0,.38.25a7.26,7.26,0,0,1,.71,1.27h-1.79c-.12,0-.23,0-.23.18V77.7c0,.12.08.13.16.15Zm-3.45-6.42h0c-.28,0-.27,0-.19-.21a14,14,0,0,1,1-1.82,3.79,3.79,0,0,1,.2-.34c.14-.23.15-.23.3.06.36.72.82,1.39,1.16,2.12,0,0,0,.08,0,.17Z"/><path class="cls-1" d="M1206.72,69.1c-.28.48-.57,1-.85,1.44-.17.28-.31.58-.47.87-.28,0-.27,0-.19-.21a14,14,0,0,1,1-1.82,3.79,3.79,0,0,1,.2-.34C1206.56,68.81,1206.57,68.81,1206.72,69.1Z"/><path class="cls-1" d="M1190.47,77.65a11.69,11.69,0,0,0,2.7-.23,7.35,7.35,0,0,0,2.31-1,2,2,0,0,0,.53-.55,13.65,13.65,0,0,0,.86-1.24,4.17,4.17,0,0,0,.53-1.44,6.19,6.19,0,0,0-.14-3.11,1.88,1.88,0,0,0-.32-.65c0-.06-.11-.14,0-.23-.07-.23-.28-.35-.4-.54a4.61,4.61,0,0,0-2.4-1.79,9.81,9.81,0,0,0-3.67-.58c-.46,0-.92,0-1.38,0h-8.54c-.1,0-.2,0-.3,0s-.23.06-.23.23c0,.63,0,1.26,0,1.89,0,.09,0,.18.13.19a15.89,15.89,0,0,1,1.69,0c.19,0,.27.08.17.26V75c0,.41,0,.41-.42.41h-1.34c-.16,0-.23,0-.23.23q0,.95,0,1.89c0,.13,0,.18.17.18h1.46C1184.57,77.66,1187.52,77.68,1190.47,77.65ZM1186.65,69a1.47,1.47,0,0,0,0-.21c0-.21.1-.28.29-.28,1,0,2-.05,3,0a2.89,2.89,0,0,1,2.12,1,4,4,0,0,1,1.18,2.53,2.23,2.23,0,0,1-.11.93,2.76,2.76,0,0,1-1.61,1.92l-.53.23-.54.22h-3.58c-.08,0-.15,0-.19,0a.1.1,0,0,1,0-.08,1.51,1.51,0,0,1,0-.3C1186.65,73,1186.65,71,1186.65,69Z"/><polygon class="cls-1" points="1158.03 69.02 1158.03 69.02 1158.04 69.03 1158.03 69.02"/><path class="cls-1" d="M1158,68.91h0Z"/><path class="cls-1" d="M1158.21,69.36Z"/><polygon class="cls-1" points="1143.51 76.45 1143.51 76.46 1143.51 76.46 1143.51 76.45"/><path class="cls-1" d="M1144,76.67a8.89,8.89,0,0,0,3.55,1.25,19.19,19.19,0,0,0,2.83.16,11.18,11.18,0,0,0,4.53-.91,5.29,5.29,0,0,0,3.64-4.51,8.48,8.48,0,0,0,0-1.67,3.54,3.54,0,0,0-.16-.85.78.78,0,0,1-.09-.54,0,0,0,0,0,0,0c-.09,0-.09-.11-.09-.19-.16-.06-.16-.21-.18-.34a.11.11,0,0,1-.06-.1l-.1-.11a1.5,1.5,0,0,0-.37-.52,8.09,8.09,0,0,0-1.75-1.37,13.8,13.8,0,0,0-2.76-1.06,11.54,11.54,0,0,0-3.42-.28,13.29,13.29,0,0,0-2.51.34,12.78,12.78,0,0,0-3,1.15,5.68,5.68,0,0,0-2,1.81,4.8,4.8,0,0,0-.81,2.46,5.57,5.57,0,0,0,.74,3.29,10,10,0,0,0,.94,1.21c.21.21.49.34.63.61A1,1,0,0,1,1144,76.67Zm3.32-7.65a3.29,3.29,0,0,1,3.13-1,3.22,3.22,0,0,1,1.65.76c.07.06.14.11.13.21a.16.16,0,0,1,.18.09.21.21,0,0,1,.17.16h0l.09.09h0l.08.08h0l.07.07a.75.75,0,0,0,.07.12,3.75,3.75,0,0,1,.43,3.7,3.59,3.59,0,0,1-2.63,2.41,3.4,3.4,0,0,1-2-.15,2.54,2.54,0,0,1-.41-.18,3.54,3.54,0,0,1-1-.84h0c-.06,0-.07-.06-.08-.11h0v0a.24.24,0,0,1-.16-.24h0a3.48,3.48,0,0,1-.69-1.75A3.83,3.83,0,0,1,1147.33,69Z"/><path class="cls-1" d="M1152.42,69Z"/><polygon class="cls-1" points="1152.24 68.94 1152.24 68.94 1152.24 68.94 1152.24 68.94"/><path class="cls-1" d="M1152.24,68.94a6.79,6.79,0,0,0-1.06-.58,3.81,3.81,0,0,0-1.77-.14,3.27,3.27,0,0,0-1.94,1.09,4,4,0,0,0-.59,4.44,1.23,1.23,0,0,1,.12.37,3.4,3.4,0,0,1-.71-1.77,3.83,3.83,0,0,1,1-3.33,3.29,3.29,0,0,1,3.13-1,3.22,3.22,0,0,1,1.65.76C1152.18,68.79,1152.25,68.84,1152.24,68.94Z"/><path class="cls-1" d="M1147,74.09a.38.38,0,0,1,.18.29A.26.26,0,0,1,1147,74.09Z"/><path class="cls-1" d="M1152.59,69.19l-.18-.17A.26.26,0,0,1,1152.59,69.19Z"/><path class="cls-1" d="M1152.42,69a.2.2,0,0,1-.18-.09A.16.16,0,0,1,1152.42,69Z"/><path class="cls-1" d="M1147.15,74.36c.08,0,.08.07.08.13S1147.17,74.41,1147.15,74.36Z"/><path class="cls-1" d="M1152.76,69.36l-.08-.08Z"/><path class="cls-1" d="M1152.84,69.43s-.06,0-.07-.07Z"/><path class="cls-1" d="M1152.68,69.28l-.09-.09Z"/></g></g></svg>