<svg xmlns="http://www.w3.org/2000/svg" viewBox="0 0 119.8 42.74"><defs><style>.cls-1{fill:#fff;}</style></defs><g id="Capa_2" data-name="Capa 2"><g id="Capa_1-2" data-name="Capa 1"><polygon class="cls-1" points="2.09 0.99 20.2 0.99 9.42 18.59 20.2 18.49 19.55 23.85 0 23.57 11.13 5.99 0.74 5.97 2.09 0.99"/><path class="cls-1" d="M27.7,12.22c0-3.66,2.36-6.66,5.34-6.89L29.83,1a12.1,12.1,0,0,0-7.92,11.5,12.1,12.1,0,0,0,7.56,11.37L33,19.11C30.05,18.86,27.7,15.87,27.7,12.22Z"/><path class="cls-1" d="M45.08,12.51A12.1,12.1,0,0,0,37.16,1L33.94,5.34c2.92.31,5.21,3.27,5.21,6.88S36.87,18.77,34,19.09l3.57,4.79A12.1,12.1,0,0,0,45.08,12.51Z"/><polygon class="cls-1" points="45.09 0.51 45.09 5.35 52.94 5.35 52.94 23.88 58.08 23.88 58.08 5.3 65.85 5.3 65.85 0.51 45.09 0.51"/><rect class="cls-1" x="68.43" y="0.5" width="4.95" height="23.38"/><path class="cls-1" d="M99.92,0h.9l13.53,13V1h5.45V24.42s-.81.16-1,0-13.68-12.65-13.68-12.65l.1,12.11H99.92Z"/><rect class="cls-1" y="27.05" width="119.8" height="1.51"/><polygon class="cls-1" points="22.71 30.93 23.46 30.83 28.52 37.88 33.43 30.83 34.11 30.94 36.94 42.31 33.45 42.31 32.24 37.62 28.83 42.74 28.2 42.74 24.37 37.58 23.24 42.36 19.66 42.36 22.71 30.93"/><path class="cls-1" d="M50,32.08a8.79,8.79,0,0,0-4.87-1.25,9.33,9.33,0,0,0-4.5,1,5.58,5.58,0,0,0-2.9,4.86,5.29,5.29,0,0,0,2,4.13,8.64,8.64,0,0,0,5.4,1.73,9,9,0,0,0,5.21-1.36,5.54,5.54,0,0,0,2.18-4.5A5.61,5.61,0,0,0,50,32.08ZM47.56,39.2A3.61,3.61,0,0,1,45.1,40a3.71,3.71,0,0,1-2.43-.78,3.26,3.26,0,0,1-1-2.48,3.15,3.15,0,0,1,.87-2.28,3.6,3.6,0,0,1,2.53-1,3.65,3.65,0,0,1,2.66,1,3.33,3.33,0,0,1,.73,2.28A3.45,3.45,0,0,1,47.56,39.2Z"/><polygon class="cls-1" points="57.02 33.71 57.02 42.53 60.92 42.53 60.92 33.71 65.4 33.71 65.4 31.09 52.78 31.09 52.78 33.71 57.02 33.71"/><path class="cls-1" d="M77.91,32.08A8.79,8.79,0,0,0,73,30.83a9.33,9.33,0,0,0-4.5,1,5.58,5.58,0,0,0-2.9,4.86,5.29,5.29,0,0,0,2,4.13A8.64,8.64,0,0,0,73,42.54a9,9,0,0,0,5.21-1.36,5.54,5.54,0,0,0,2.18-4.5A5.61,5.61,0,0,0,77.91,32.08ZM75.49,39.2A3.61,3.61,0,0,1,73,40a3.71,3.71,0,0,1-2.43-.78,3.26,3.26,0,0,1-1-2.48,3.15,3.15,0,0,1,.87-2.28,3.6,3.6,0,0,1,2.53-1,3.65,3.65,0,0,1,2.66,1,3.33,3.33,0,0,1,.73,2.28A3.45,3.45,0,0,1,75.49,39.2Z"/><path class="cls-1" d="M90,37.71a4.92,4.92,0,0,0,2-1.24,3.39,3.39,0,0,0-.29-4,4.75,4.75,0,0,0-3.19-1.35c-1.87,0-6.06,0-6.06,0V42.54h3.74V38h.31l3.51,4.33,4.2,0ZM88.11,36.2H86.17V33.46h1.89A1.62,1.62,0,0,1,89.2,34.7,1.64,1.64,0,0,1,88.11,36.2Z"/><path class="cls-1" d="M94.75,39c0,.37.1,3.45.1,3.45s8.63,1.76,9.27-3.45c0,0,.49-2.71-5-4,0,0-1.5-.32-1.14-1.43,0,0,.3-.73,2.25-.39a4.77,4.77,0,0,1,2.1.94l.69,0V31.35s-4.47-1.44-6.69,0c0,0-2.44,1.16-1.79,3.35,0,0,.09,1.62,3.47,3l2,.74s.68.32.57.82c0,0-.1.88-1.53.79,0,0-2.81,0-4.21-1Z"/><polygon class="cls-1" points="92.91 23.88 98.12 23.85 86.67 0.51 75.16 23.88 80.38 23.88 86.64 11.45 92.91 23.88"/></g></g></svg>