<svg xmlns="http://www.w3.org/2000/svg" viewBox="0 0 369.54 72.7"><defs><style>.cls-1{fill:#606060;}.cls-2{fill:#fefefe;}.cls-3{fill:#a9a9a9;}.cls-4{fill:#aaa;}.cls-5{fill:#a0a0a2;}.cls-6{fill:#7e7e80;}.cls-7{fill:#767676;}.cls-8{fill:#fdfdfd;}.cls-9{fill:#bc070a;}.cls-10{fill:#bc090b;}.cls-11{fill:#be0411;}.cls-12{fill:#616160;fill-rule:evenodd;}</style></defs><g id="Capa_2" data-name="Capa 2"><g id="Capa_1-2" data-name="Capa 1"><path class="cls-1" d="M269.67,3.53a.35.35,0,0,0,.1.08l10.93,7.56.11.07s-.06.06-.09.08a10.44,10.44,0,0,1-3.78,1.59,6.91,6.91,0,0,1-1.87.13,5.85,5.85,0,0,1-2.91-1l-5.1-3.5c-.12-.08-.12-.08-.24,0l-.52.34L280.8,19s-.07,0-.11,0a21.64,21.64,0,0,0-2.26,1,44.05,44.05,0,0,0-7.06,4.35,16.85,16.85,0,0,0-1.65,1.39c-.07.07-.05.06-.15,0L266,23.33l-7.4-5.11a.81.81,0,0,1-.1-.09l.18-.13a10.9,10.9,0,0,1,3.49-1.49,7.12,7.12,0,0,1,1.9-.17,5.82,5.82,0,0,1,3.07,1l5.11,3.51.07.05a.06.06,0,0,0,.08,0l.61-.39L258.54,10.37s0,0,0,0a19.36,19.36,0,0,0,2.52-1.09A44.94,44.94,0,0,0,268,5a16.93,16.93,0,0,0,1.59-1.35s.07,0,.08-.1Z"/><path class="cls-1" d="M294.8,37h-2.73s-.07,0-.07-.06,0,0,0-.07V29.7c0-.15,0-.13.13-.13h2.67Z"/><path class="cls-1" d="M244.61,34.94c0-.11,0-.22,0-.34H248a.19.19,0,0,1,.2.11,1.69,1.69,0,0,0,.41.48,1.25,1.25,0,0,0,.72.27,2.65,2.65,0,0,0,.79-.07.89.89,0,0,0,.29-.15.42.42,0,0,0,0-.61.68.68,0,0,0-.26-.18,2.51,2.51,0,0,0-.6-.15c-.23,0-.45,0-.68,0a11.94,11.94,0,0,1-2.5-.45,3.64,3.64,0,0,1-.76-.33,1.76,1.76,0,0,1-.86-1.48,2.08,2.08,0,0,1,1-1.94,3.11,3.11,0,0,1,.4-.22,4.93,4.93,0,0,1,1.36-.39,10.4,10.4,0,0,1,2.3-.07,6.89,6.89,0,0,1,1.95.39,3.24,3.24,0,0,1,1,.56,1.93,1.93,0,0,1,.7,1.23c0,.08,0,.16,0,.24s0,.07-.07.07,0,0-.06,0h-2.92a.19.19,0,0,1-.18-.1,1.63,1.63,0,0,0-1-.71,2,2,0,0,0-1,.08.53.53,0,0,0-.36.4.28.28,0,0,0,.11.29,1.05,1.05,0,0,0,.32.15,6.66,6.66,0,0,0,.89.17c.58.07,1.17.13,1.76.24a6.18,6.18,0,0,1,1.61.52,3.35,3.35,0,0,1,.59.39,1.86,1.86,0,0,1,.39,2.39,2.32,2.32,0,0,1-.71.72,3.92,3.92,0,0,1-1.28.54,6.66,6.66,0,0,1-1.4.2l-.43,0h-.59l-1-.06a7.32,7.32,0,0,1-1.92-.36,3.23,3.23,0,0,1-.8-.42,1.88,1.88,0,0,1-.73-1.24Z"/><path class="cls-1" d="M284.9,32.13l.53-.46,2.37-2a.24.24,0,0,1,.18-.07h3.55v0l-4.2,3.6L291.41,37s0,0-.06,0h-3.59a.21.21,0,0,1-.17-.08l-2.3-2.18-.31-.3a.44.44,0,0,1-.08-.07v2.5c0,.15,0,.13-.14.13h-2.54c-.14,0-.13,0-.13-.13V29.7c0-.14,0-.13.13-.13h2.57c.12,0,.11,0,.11.11v2.45Z"/><path class="cls-1" d="M267.91,35.11h4.16c.09,0,.09,0,.09.1v1.7c0,.09,0,.09-.09.09h-8.38c-.17,0-.15,0-.15-.16v-1.3a.24.24,0,0,1,.09-.21l4-3.75a1.35,1.35,0,0,0,.12-.12h-3.93c-.17,0-.15,0-.15-.15,0-.53,0-1.07,0-1.6,0-.16,0-.14.14-.14H272c.17,0,.14,0,.14.15,0,.44,0,.87,0,1.31a.25.25,0,0,1-.1.21l-4,3.7-.17.14Z"/><path class="cls-1" d="M258.34,37.18h-.49c-.42,0-.84-.07-1.26-.15a4.11,4.11,0,0,1-.92-.29,2,2,0,0,1-1.2-1.59,4.62,4.62,0,0,1-.05-.65V29.67c0-.11,0-.1.1-.1H257c.11,0,.11,0,.11.11V34a1.43,1.43,0,0,0,0,.41,1.07,1.07,0,0,0,.52.66,1.75,1.75,0,0,0,.67.21,2.47,2.47,0,0,0,1.05-.08,1.28,1.28,0,0,0,.56-.34,1.12,1.12,0,0,0,.31-.71V29.71c0-.15,0-.14.14-.14h2.45c.1,0,.1,0,.1.1v4.7a4.34,4.34,0,0,1-.09,1,2,2,0,0,1-1.09,1.38,4.28,4.28,0,0,1-1.12.34,11.24,11.24,0,0,1-1.15.13h-1.16Z"/><path class="cls-1" d="M277.91,37.18h-1.6a8.62,8.62,0,0,1-1.42-.18,3.57,3.57,0,0,1-.95-.33,2,2,0,0,1-1-1.46,4.76,4.76,0,0,1-.07-.84v-4.7c0-.1,0-.1.11-.1h2.47c.13,0,.11,0,.11.11v4.37a1.47,1.47,0,0,0,0,.36,1.09,1.09,0,0,0,.63.75,1.63,1.63,0,0,0,.56.16,2.41,2.41,0,0,0,1.13-.11,1.34,1.34,0,0,0,.44-.27,1,1,0,0,0,.34-.7,1.77,1.77,0,0,0,0-.23V29.72c0-.17,0-.15.15-.15h2.48q.07,0,.06.06v4.92a3.33,3.33,0,0,1-.13.94,1.86,1.86,0,0,1-1,1.17,4,4,0,0,1-1.07.37A11.24,11.24,0,0,1,277.91,37.18Z"/><path class="cls-1" d="M213.31,67.12c-1,0-2,0-3,0-.19,0-.22-.15-.29-.26-.92-1.6-1.84-3.21-2.77-4.81l-.23-.4c-.13.71-.25,1.34-.36,2l-.57,3.26c0,.11,0,.24-.19.24h-2.32c.32-1.87.63-3.7.94-5.53s.64-3.71,1-5.57c.08-.49.08-.49.56-.49s1.12,0,1.68,0c.25,0,.32.06.28.31-.25,1.45-.49,2.91-.74,4.37,0,.13,0,.26-.05.41a.6.6,0,0,0,.3-.23l4.56-4.63a.71.71,0,0,1,.55-.23h2.55c0,.15-.12.2-.2.28-1.6,1.68-3.2,3.36-4.81,5-.27.28-.32.45-.11.8,1.05,1.7,2.05,3.41,3.07,5.12Z"/><path class="cls-1" d="M258.89,67.12c.27-1.65.53-3.27.8-4.88a.86.86,0,0,0-.08-.57c-1-1.91-1.9-3.83-2.85-5.75-.05-.11-.11-.22-.19-.4H259a.39.39,0,0,1,.42.27c.63,1.28,1.27,2.56,1.91,3.85a3.22,3.22,0,0,0,.58-.65l2.64-3.25c.08-.1.13-.22.3-.22h2.58l-1.55,1.91c-1.15,1.41-2.28,2.83-3.45,4.23a2.45,2.45,0,0,0-.4,1.3c-.24,1.29-.44,2.59-.66,3.88,0,.12,0,.28-.19.28Z"/><path class="cls-1" d="M218,67.12c-1.17,0-2.34,0-3.5,0-.25,0-.29-.08-.25-.29.38-2.09.77-4.18,1.14-6.27,0-.23.13-.29.36-.29h6.89c.3,0,.32.1.27.34-.11.61-.23,1.23-.32,1.85,0,.25-.14.29-.36.29-1.46,0-2.92,0-4.37,0-.32,0-.42.11-.47.39s-.16.8-.26,1.19,0,.31.25.31h4.44c.31,0,.39.08.33.37-.13.6-.24,1.21-.32,1.82,0,.25-.12.32-.37.31C220.28,67.11,219.12,67.12,218,67.12Z"/><path class="cls-1" d="M227.21,67.12c-1.17,0-2.33,0-3.5,0-.22,0-.28-.05-.24-.27.39-2.1.78-4.2,1.15-6.3,0-.23.12-.28.34-.28h7c.22,0,.27,0,.23.27-.13.63-.24,1.28-.33,1.92,0,.24-.13.29-.36.29-1.46,0-2.92,0-4.37,0-.32,0-.43.1-.47.39a12,12,0,0,1-.26,1.19c-.08.27,0,.31.26.31h4.47c.25,0,.35,0,.29.32-.13.62-.24,1.25-.33,1.88,0,.26-.14.31-.38.3C229.52,67.11,228.36,67.12,227.21,67.12Z"/><path class="cls-1" d="M224.12,58h-7.91c-.3,0-.34-.08-.29-.35q.18-.91.3-1.83c0-.24.12-.28.35-.28h8.05c2.59,0,5.18,0,7.77,0,.31,0,.36.09.3.37-.11.58-.2,1.17-.28,1.75,0,.28-.14.35-.42.35Z"/><path class="cls-1" d="M183.61,61.83l-1.45-.39c-.22,0-.17-.21-.17-.35a9.21,9.21,0,0,1,2-5.85,9.56,9.56,0,0,1,16,1.59c.19.38.18.35-.23.48A.58.58,0,0,1,199,57a8.28,8.28,0,0,0-15.32,2.7A8.54,8.54,0,0,0,183.61,61.83Z"/><path class="cls-1" d="M200.6,58.28a9.51,9.51,0,0,1-15.28,10.06l1.18-.74c.16-.11.23,0,.32.09a8.31,8.31,0,0,0,13-4.13,8.11,8.11,0,0,0,.19-4.09.65.65,0,0,1,.19-.68C200.32,58.64,200.44,58.47,200.6,58.28Z"/><path class="cls-1" d="M199.94,58a43.19,43.19,0,0,1-4.12,4.74,41.08,41.08,0,0,1-3.6,3.25c-.36-.39-.36-.39,0-.71a45,45,0,0,0,5.64-6.14c0-.06.09-.13.16-.23a1.24,1.24,0,0,0-.52.07,33.2,33.2,0,0,1-9.49.61.37.37,0,0,1-.31-.12c-.52-.61-1-1.22-1.61-1.87.76.12,1.46.24,2.16.34a40.51,40.51,0,0,0,8.31.28c1.07-.07,2.13-.19,3.2-.32C199.86,57.87,200,57.85,199.94,58Z"/><path class="cls-1" d="M195.78,60.4A29.28,29.28,0,0,1,188.54,67c-.23-.28-.18-.47.12-.7a29.51,29.51,0,0,0,5-4.81l.2-.26c-1.16.17-2.27.33-3.39.44a23.42,23.42,0,0,1-5-.11.31.31,0,0,1-.25-.16c-.31-.47-.63-.93-1-1.45A26.9,26.9,0,0,0,195.78,60.4Z"/><path class="cls-1" d="M189.45,63.49c-.81.08-1.63.07-2.44.09a29,29,0,0,1-4.56-.38c-.2,0-.31-.1-.32-.33a9,9,0,0,0-.13-.93,23.8,23.8,0,0,0,9.41.82c0,.18-.14.24-.22.32A28.24,28.24,0,0,1,185,67.83c-.19.12-.26,0-.36-.1s.06-.21.14-.26a28.93,28.93,0,0,0,4.46-3.64,3.47,3.47,0,0,1,.29-.25Z"/><path class="cls-1" d="M182.35,63.75,184,64c.14,0,.15.13.19.22a7.51,7.51,0,0,0,1.14,2c.12.14.1.2,0,.29-.29.19-.59.38-.87.59s-.25.12-.38,0A9.34,9.34,0,0,1,182.35,63.75Z"/><path class="cls-1" d="M199.94,58c0-.07-.11-.08-.17-.1s.18-.09.26,0S200,58,199.94,58Z"/><path class="cls-1" d="M250.81,55.52h-2.2a.41.41,0,0,0-.46.29c-1.13,2.58-2.27,5.14-3.42,7.71a.73.73,0,0,1-.23.39c-.14-1.16-.26-2.28-.39-3.4-.17-1.57-.36-3.14-.53-4.71,0-.22-.09-.29-.31-.28-.75,0-1.5,0-2.24,0a.43.43,0,0,0-.48.32c-1.05,2.52-2.12,5-3.18,7.55l-.25.58-.43-3.67c-.18-1.5-.36-3-.52-4.5,0-.21-.1-.29-.32-.28h-2.1c-.2,0-.26,0-.22.25.17,1.11.33,2.23.5,3.34.39,2.58.79,5.15,1.17,7.72,0,.25.12.3.35.29.75,0,1.51,0,2.27,0a.42.42,0,0,0,.48-.32c1-2.48,2.06-4.95,3.09-7.43l.19-.44c.29,2.68.58,5.25.85,7.83,0,.28.11.37.4.36.74,0,1.49,0,2.24,0a.44.44,0,0,0,.49-.31q2.56-5.48,5.14-10.94A.54.54,0,0,0,250.81,55.52Z"/><path class="cls-1" d="M258.3,66.87q-1.35-5.55-2.68-11.1c-.05-.21-.14-.25-.33-.25-.65,0-1.31,0-2,0a.47.47,0,0,0-.49.28q-3.18,5.51-6.38,11c-.05.09-.13.16-.11.31.76,0,1.53,0,2.29,0a.4.4,0,0,0,.43-.26c.4-.75.81-1.49,1.21-2.23a.39.39,0,0,1,.4-.25c1.38,0,2.76,0,4.13,0,.22,0,.3.07.34.28.12.73.28,1.46.4,2.19,0,.22.13.28.34.27.74,0,1.47,0,2.2,0C258.3,67.12,258.35,67.08,258.3,66.87Zm-3.78-4.75c-.12.15-.54.05-.83.05h-1.82c-.11,0-.26,0-.15-.17l2-3.88c.25,1.11.49,2.13.71,3.16C254.46,61.57,254.68,61.93,254.52,62.12Z"/><path class="cls-1" d="M10.23,61c-.14,0-.35.07-.35-.12s.22-.11.35-.11a3.06,3.06,0,0,0,2.24-2.72,3.16,3.16,0,0,0-1.57-3.18,5.46,5.46,0,0,0-3-.81H.72c-.26,0-.62-.13-.71.3s.19.58.5.69c.54.19.62.56.62,1.09,0,3.41,0,6.83,0,10.24,0,.66,0,1.23-.79,1.44a.45.45,0,0,0-.32.58c.07.28.32.27.54.31a2.43,2.43,0,0,0,.27,0c2.48,0,5,0,7.45,0a5.62,5.62,0,0,0,1.52-.2,4.37,4.37,0,0,0,3.09-4A3.77,3.77,0,0,0,10.23,61ZM5.64,58c0-.29,0-.58,0-.87s-.17-.79.32-1a1.59,1.59,0,0,1,1.59.15,2.84,2.84,0,0,1,.54,2.8A1.86,1.86,0,0,1,6.23,60c-.4,0-.62-.15-.6-.6S5.64,58.43,5.64,58Zm2.6,7.56a1.68,1.68,0,0,1-2.26,1,.54.54,0,0,1-.32-.6c0-.57,0-1.15,0-1.73s0-1.16,0-1.74c0-.27.06-.5.34-.57a1.7,1.7,0,0,1,2.32,1.26A6.17,6.17,0,0,1,8.24,65.52Z"/><path class="cls-1" d="M37.82,67.81c-.46-.17-.53-.51-.52-1,0-1,0-1.91,0-2.87s0-2.06,0-3.08a3.22,3.22,0,0,0-1.89-3,4.42,4.42,0,0,0-4.4.31c-.19.11-.36.38-.58.25s-.08-.4-.08-.62c0-.78-.23-.92-.94-.58l-4.1,2c-.21.1-.42.21-.43.46s.22.38.44.44c.5.13.59.46.59,1,0,1.82,0,3.65,0,5.48,0,.62-.06,1.08-.73,1.28a.44.44,0,0,0-.34.51c0,.28.28.32.52.32h5.36c.23,0,.47,0,.53-.3a.45.45,0,0,0-.33-.52c-.6-.19-.65-.63-.6-1.15,0-.26,0-.53,0-.8,0-1.47,0-2.94,0-4.41a1.28,1.28,0,0,1,.82-1.27,1.3,1.3,0,0,1,1.93,1.27c0,1.74,0,3.48,0,5.22,0,.51,0,.9-.61,1.09-.25.08-.49.27-.38.6s.37.27.61.27h4.9c.26,0,.58.06.66-.29S38.08,67.9,37.82,67.81Z"/><path class="cls-1" d="M49.4,64.82a.77.77,0,0,0-1.09.05,6,6,0,0,1-2.17,1.28,3,3,0,0,1-3.23-1c-.27-.38-.34-.59.24-.78,1.9-.63,3.77-1.35,5.67-2,.51-.18.66-.46.51-1a5.44,5.44,0,0,0-3.51-3.83c-3.79-1.38-7.66,1.53-7.66,5.77a4.83,4.83,0,0,0,.19,1.53,5.51,5.51,0,0,0,4.8,4.23,6.68,6.68,0,0,0,6.41-3.18A.76.76,0,0,0,49.4,64.82ZM42,61.4c0-1.54,1.2-2.54,2.45-2.13a1.53,1.53,0,0,1,.86.7c.42.74.31,1-.47,1.31l-2,.69C42,62.24,42,62.18,42,61.4Z"/><path class="cls-1" d="M24.78,64.81a.75.75,0,0,0-1,0,6.46,6.46,0,0,1-2.23,1.32A3,3,0,0,1,18.22,65c-.21-.34-.22-.49.22-.64,1.88-.64,3.74-1.32,5.6-2,.75-.27.88-.47.62-1.23a5.47,5.47,0,0,0-3.81-3.72,5.79,5.79,0,0,0-7.29,5.8,5.58,5.58,0,0,0,.89,3.3,5.39,5.39,0,0,0,5.11,2.58A6.4,6.4,0,0,0,25,65.82.71.71,0,0,0,24.78,64.81ZM17.36,61.4c0-1.55,1.26-2.58,2.52-2.11a1.45,1.45,0,0,1,.79.69c.41.74.3,1-.5,1.31l-2,.7C17.43,62.23,17.35,62.17,17.36,61.4Z"/><path class="cls-1" d="M55.4,67.81c-.45-.17-.52-.5-.52-.94,0-2.08,0-4.15,0-6.22V54.23c0-.76-.19-.88-.88-.55l-4.16,2c-.22.1-.47.19-.46.5s.26.41.5.46c.47.12.59.4.59.87,0,3.05,0,6.11,0,9.16,0,.55-.08.94-.64,1.15-.23.08-.46.25-.41.54s.37.32.64.32h5.1c.26,0,.57.06.66-.29S55.66,67.9,55.4,67.81Z"/><path class="cls-1" d="M62.28,67.79c-.44-.15-.51-.45-.51-.88,0-2.09,0-4.19,0-6.28V54.21c0-.72-.21-.85-.85-.55l-4.21,2c-.22.11-.48.2-.45.51s.26.41.5.46c.51.1.57.41.57.87q0,4.57,0,9.15c0,.54-.05,1-.62,1.15-.24.08-.47.25-.41.54s.37.32.65.32h5.1c.26,0,.57.06.65-.31S62.54,67.88,62.28,67.79Z"/><path class="cls-1" d="M69.2,67.77c-.41-.15-.48-.43-.47-.83,0-1.31,0-2.63,0-3.94V58.85c0-.67-.2-.79-.82-.51l-4.21,2c-.22.11-.48.19-.48.49s.29.44.54.5c.45.12.56.38.55.83,0,1.54,0,3.07,0,4.61,0,.47-.06.8-.56,1-.26.09-.58.25-.47.63s.42.28.68.28h5c.26,0,.58.06.67-.28S69.47,67.87,69.2,67.77Z"/><path class="cls-1" d="M66.45,58.22a2.38,2.38,0,1,0-2.34-2.35A2.35,2.35,0,0,0,66.45,58.22Z"/><path class="cls-1" d="M10.23,61v-.23C10.12,60.86,10.12,60.93,10.23,61Z"/><path class="cls-1" d="M31.23,23.44c-.83,2.29-1.67,4.59-2.49,6.89a.82.82,0,0,1-1,.67c-.65-.06-1.3,0-2,0l2.72-7.53c-.18-.24-.44-.11-.66-.11-.91,0-1.82,0-2.73,0-.23,0-.5.08-.64-.21l.7-2H46.34a8.31,8.31,0,0,1-.66,2,1.08,1.08,0,0,1-.8.2h-2.8c-.17,0-.38-.1-.52.1-.85,2.32-1.7,4.63-2.52,7-.16.47-.4.66-.88.58a3.23,3.23,0,0,0-.44,0c-1.67,0-1.66,0-1.09-1.58.72-2,1.43-4,2.15-6-.1-.16-.26-.11-.39-.11H31.64C31.5,23.34,31.34,23.31,31.23,23.44Z"/><path class="cls-1" d="M20.31,25.27c-.59,2.11-.59,2.11-2.77,2.11H17.1c-1.35,0-1.35,0-1.71,1.28.2.21.46.11.68.11h4.42a1.44,1.44,0,0,1,.71.06.59.59,0,0,1,0,.14c-.26.66-.28,1.56-.82,1.91s-1.31.09-2,.09H11.64c.5-1.41,1-2.74,1.45-4.08s1.06-2.8,1.53-4.21a2.32,2.32,0,0,1,1.2-1.57H24a6.24,6.24,0,0,1-.88,2.27,46.77,46.77,0,0,0-5.8,0L16.19,26.3c.74-.25,1-.93,1.52-1.17a9.35,9.35,0,0,0,1.83.07A1.81,1.81,0,0,1,20.31,25.27Z"/><path class="cls-1" d="M69.89,21.13A6.48,6.48,0,0,1,69,23.4c-1.73-.13-3.46,0-5.19,0a6.06,6.06,0,0,0-1.9.08,1.69,1.69,0,0,0-1.17,1.23c-.68,1.95-1.41,3.88-2.09,5.83-.13.36-.29.54-.72.51a14.42,14.42,0,0,0-1.74,0c-.43,0-.46-.1-.32-.49,1-2.63,1.94-5.26,2.87-7.9a2.65,2.65,0,0,1,1.54-1.47Z"/><path class="cls-1" d="M8,28.68a1.82,1.82,0,0,0,1.08-1.24c.73-2.11,1.51-4.21,2.26-6.31h2.77c-1,2.68-1.94,5.37-2.92,8.05A2.3,2.3,0,0,1,8.55,31H.85v-.15l.83-2c1.84-.13,3.68,0,5.51-.06C7.45,28.76,7.73,28.86,8,28.68Z"/><path class="cls-1" d="M31.23,23.44c.15-.23.39-.17.59-.17H38.2c.2,0,.44-.06.58.18Z"/><path class="cls-1" d="M61.93,23.43c-.1-.22.09-.16.17-.16h6.52a.49.49,0,0,1,.4.13Z"/><path class="cls-1" d="M17.28,23.43c.1-.17.28-.16.44-.16h5a.47.47,0,0,1,.39.13Z"/><path class="cls-1" d="M21.2,28.84c-1.7,0-3.39,0-5.08,0-.25,0-.54.11-.73-.18l5.19,0C20.78,28.69,21.06,28.53,21.2,28.84Z"/><path class="cls-1" d="M24.42,23.13a16,16,0,0,0,3.24.15c.27,0,.6-.14.79.18-1.2,0-2.41,0-3.62,0C24.67,23.42,24.26,23.62,24.42,23.13Z"/><path class="cls-1" d="M41.56,23.45c.2-.3.52-.16.78-.17a19.57,19.57,0,0,0,3.34-.14c-.06.39-.37.29-.62.29Z"/><path class="cls-1" d="M20.31,25.27a9.86,9.86,0,0,1-2.6-.14l2.37-.05C20.2,25.08,20.32,25.1,20.31,25.27Z"/><path class="cls-1" d="M56.66,21.13H48.23A2,2,0,0,0,47,22.6c-.19.66-.47,1.29-.69,1.95-.53,1.57-1.25,3.09-1.63,4.71C44.44,30.35,44.92,31,46,31c2.5,0,5,0,7.49,0a1.39,1.39,0,0,0,1.4-.84c.86-2.37,1.83-4.71,2.54-7.13C57.73,22.05,57.52,21.66,56.66,21.13Zm-2.4,3.2c-.41,1.19-.85,2.37-1.27,3.56a1.24,1.24,0,0,1-.7.77h0a.29.29,0,0,1-.28.18H48.39a.31.31,0,0,1-.29-.17.74.74,0,0,1-.19-.9c.44-1.16.84-2.33,1.25-3.5a1.17,1.17,0,0,1,1.26-.85c1.07,0,2.13,0,3.2,0C54.3,23.44,54.49,23.69,54.26,24.33Z"/><path class="cls-1" d="M51,28.76a2.26,2.26,0,0,0,1.26-.1H48.1A14.34,14.34,0,0,0,51,28.76Z"/><path class="cls-1" d="M87.33,21.13a1.81,1.81,0,0,0-.45.64A8,8,0,0,1,84,24.94a26.06,26.06,0,0,1-7.94,3.42,4.84,4.84,0,0,1-1.72.43.57.57,0,0,1,.17-.44,3.34,3.34,0,0,1,1.61-1,21.83,21.83,0,0,0,8.1-5.41c.2-.21.53-.39.32-.77h-.73a3.14,3.14,0,0,0-.84.66,14.52,14.52,0,0,1-2,1.73,48.46,48.46,0,0,1-5.21,2.95c-.15.08-.31.25-.53.08a2,2,0,0,1,1.05-1.36,21.82,21.82,0,0,0,4.4-3.36c.18-.2.48-.35.39-.7H76.43c-1.88,1.88-3.7,3.82-5.67,5.6-1.3,1.18-1.41,2.78-2.13,4.26,3.13,0,6.13,0,9.13,0a10.91,10.91,0,0,0,6.55-2.1c.11-.08.21-.23.4-.05A7.23,7.23,0,0,1,82.25,31c.6,0,1.06,0,1.51,0s.74-.14.91-.64c.79-2.27,1.67-4.52,2.46-6.79a10,10,0,0,0,.78-2.43Zm-1.27,4.28a7.65,7.65,0,0,1-5.9,4.71,22.73,22.73,0,0,1-4,.38H73.74c-.11,0-.26.05-.33-.08s.06-.26.15-.35a2.43,2.43,0,0,1,1.2-.62,44.92,44.92,0,0,0,6-1.72c1.68-.73,3.46-1.3,4.78-2.66.14-.14.32-.3.49-.17S86.13,25.23,86.06,25.41Z"/><path class="cls-1" d="M8,28.68c-.15.22-.39.16-.6.16H1.68c.17-.27.44-.14.66-.14Z"/><path class="cls-2" d="M95.21,37v-5.5l0,0a8.94,8.94,0,0,1,1,.12.56.56,0,0,1,.48.52v4.26a.56.56,0,0,1-.48.52c-.34.05-.69.09-1,.12Z"/><path class="cls-1" d="M291.09,61.35l2.7,1.23,4.26,1.92c.42.19.83.41.82,1s-.4.75-.8.93l-8.88,4a1.45,1.45,0,0,1-1.2.08c-2-.87-4-1.77-6.07-2.72l5.41-2.45c.43-.19.87-.39,1.3-.6s.35-.37,0-.54c-.59-.29-1.19-.56-1.8-.83-.22-.1-.39.07-.58.15L280,66.34l-.65.28c0-1.26,0-2.44,0-3.62,0-.31.23-.35.43-.44l2.67-1.22c-.95-.44-1.78-.83-2.63-1.19a.64.64,0,0,1-.48-.7c0-.93,0-1.87,0-2.81,0-.53.14-.56.57-.36,2,.93,4.06,1.81,6.06,2.76a1.51,1.51,0,0,0,1.6,0c.28-.16.59-.25.87-.4s.51-.12.48-.41-.3-.32-.5-.41l-5.57-2.51c-.25-.11-.48-.23-.72-.35.07-.23.26-.24.39-.31l5.13-2.32a2,2,0,0,1,1.72,0q4.33,2,8.69,3.95c.43.2.83.39.86,1s-.41.77-.83,1L292,60.93C291.72,61,291.46,61.17,291.09,61.35Z"/><path class="cls-1" d="M352.35,59.09l-1.25,2.1q-1.26,2.2-2.53,4.4c-.12.22-.21.44-.54.43H344.7l.77-1.29c1.52-2.5,3-5,4.56-7.51a1,1,0,0,1,1-.55c.93,0,1.88,0,2.82,0a.68.68,0,0,1,.71.38q2.56,4.26,5.17,8.5a4.77,4.77,0,0,1,.23.46h-3.41c-.3,0-.38-.27-.44-.45-.35-1-1.06-1.29-2.1-1.21-1.23.09-2.47,0-3.78,0a6.4,6.4,0,0,1,.9-1.59,1.16,1.16,0,0,1,1-.44c.55,0,1.1,0,1.65,0s.44-.12.24-.46C353.43,61,352.92,60.08,352.35,59.09Z"/><path class="cls-1" d="M359.64,64c1.91,0,3.71,0,5.51,0,1,0,1.35-.34,1.35-1.35,0-1.79,0-3.57,0-5.36,0-.43.09-.6.56-.57.69,0,1.38,0,2.07,0,.32,0,.43.09.42.42,0,2.22,0,4.44,0,6.66a2.14,2.14,0,0,1-2,2.13,41.67,41.67,0,0,1-6.12.09,1.19,1.19,0,0,1-1-.63C360.18,64.93,359.94,64.49,359.64,64Z"/><path class="cls-1" d="M335.25,64h5c1.62,0,1.81-.21,1.81-1.82s0-3.24,0-4.87c0-.53.15-.66.65-.62.66,0,1.33,0,2,0,.32,0,.43.08.43.42,0,2.15,0,4.3,0,6.44A2.22,2.22,0,0,1,343,65.9a42.62,42.62,0,0,1-6,.08,1.24,1.24,0,0,1-.93-.51A8.33,8.33,0,0,1,335.25,64Z"/><path class="cls-1" d="M320.69,63.1c-.15-1-.91-1.4-1.73-1.82l.52-.29a2,2,0,0,0,1.24-2,2,2,0,0,0-1.44-1.9,7.42,7.42,0,0,0-2.84-.44c-2.57,0-5.14,0-7.71,0-.51,0-.65.12-.64.64,0,2.59,0,5.17,0,7.76,0,.93,0,.94.91,1,2.41,0,4.82,0,7.23,0a7.46,7.46,0,0,0,3.23-.54A2.14,2.14,0,0,0,320.69,63.1Zm-4.4.86a22.74,22.74,0,0,1-2.61,0,1.87,1.87,0,0,0-2.16,1.27,1.53,1.53,0,0,1-.17.27l-.12,0c0-1,0-2,0-3,0-.35.15-.42.45-.41H316a1.83,1.83,0,0,1,.4,0c.51.12.95.36.9,1A.94.94,0,0,1,316.29,64Zm.36-3.93a17.34,17.34,0,0,1-2.39,0c-1.31-.09-2.45,0-2.86,1.63l-.17-.14c0-.81,0-1.63,0-2.44,0-.29.08-.41.39-.4,1.64,0,3.29,0,4.94,0a.67.67,0,0,1,.76.62C317.35,59.81,317,60,316.65,60Z"/><path class="cls-1" d="M335.39,65.73q-2.65-4.37-5.3-8.73a.62.62,0,0,0-.62-.32c-1,0-2,0-3,0a.75.75,0,0,0-.76.42c-1.4,2.33-2.83,4.65-4.24,7-.38.62-.74,1.24-1.17,2,1.09,0,2.05,0,3,0a.9.9,0,0,0,1-.57c1.19-2.1,2.41-4.19,3.68-6.39.65,1.12,1.24,2.16,1.94,3.36-1.89-.28-3.52-.29-4,1.94,1.33,0,2.66.06,4,0a1.46,1.46,0,0,1,1.69,1c.1.26.18.66.59.67,1.11,0,2.22,0,3.37,0C335.44,65.86,335.42,65.79,335.39,65.73Z"/><path class="cls-1" d="M133.58,52.16c.47.19.94.37,1.4.58.22.1.3.09.28-.16s0-.38,0-.57.1-.38.38-.38h29.7c.49,0,.49,0,.49.49q0,10,0,20.06c0,.33-.08.42-.42.42H135.66c-.32,0-.43-.09-.41-.4s0-.56,0-.83-.07-.31-.31-.18a10.22,10.22,0,0,1-5.56,1.18,10,10,0,0,1-6.33-3,9.84,9.84,0,0,1-.84-.87.76.76,0,0,0-.86-.34c-.56.12-1.13.18-1.69.25-.22,0-.3.11-.3.34,0,1.15,0,2.29.07,3.44,0,.47,0,.48-.47.48H86.15c-.59,0-.59,0-.59-.61q0-10.05,0-20.09c0-.34.08-.44.43-.43,6.32,0,12.63,0,18.94,0,4.69,0,9.39,0,14.08,0a7.58,7.58,0,0,1,2.62.72,8,8,0,0,1,2.19,1.24.27.27,0,0,0,.4,0,11,11,0,0,1,1.73-1,10.58,10.58,0,0,1,4.93-1A9.31,9.31,0,0,1,133.58,52.16Z"/><path class="cls-3" d="M133.58,52.16c-.56-.1-1.11-.29-1.68-.37a10.43,10.43,0,0,0-5.68.75c-.09,0-.19.05-.28.08a5.25,5.25,0,0,1,1.73-.68,9.85,9.85,0,0,1,5.74.09C133.48,52.05,133.55,52.07,133.58,52.16Z"/><path class="cls-2" d="M133.66,54.28a10.23,10.23,0,0,1,2.91,2c.14-.17.07-.34.07-.5,0-.69,0-1.38,0-2.08,0-.27.08-.34.34-.34,2.24,0,4.47,0,6.71,0a.45.45,0,0,1,.46.29c.27.54.57,1.07.85,1.61a.57.57,0,0,0,.26.3c0-.63,0-1.22,0-1.8,0-.32.08-.4.4-.4q9.07,0,18.14,0c.31,0,.41.07.41.39q0,8.45,0,16.88c0,.28-.07.37-.36.37q-8.82,0-17.65,0a.43.43,0,0,1-.44-.27c-.37-.7-.75-1.4-1.13-2.09-.05-.11-.07-.25-.27-.32V70c0,1,0,1-1,1H137c-.28,0-.4-.06-.38-.38,0-.63,0-1.26,0-1.89,0-.13.09-.31-.06-.37s-.24.11-.34.19a11.83,11.83,0,0,1-4.57,2,7.87,7.87,0,0,1-7.1-2,12,12,0,0,1-2-2.25c-.13-.19-.22-.25-.46-.14a8.36,8.36,0,0,1-4,.67c-.33,0-.44,0-.43.39,0,1.11,0,2.22,0,3.33,0,.36-.08.46-.45.46H87.6c-.4,0-.47-.11-.47-.49q0-8.34,0-16.69c0-.33.09-.46.45-.46q15.67,0,31.36,0a6.2,6.2,0,0,1,3.11,1.09,7.3,7.3,0,0,1,1.74,1.44c.18.2.28.2.48,0a10,10,0,0,1,5-2.32,7.32,7.32,0,0,1,3.65.34C133.15,54.08,133.41,54.16,133.66,54.28Z"/><path class="cls-4" d="M133.66,54.28a1.42,1.42,0,0,1-.76-.31A1.42,1.42,0,0,1,133.66,54.28Z"/><path class="cls-1" d="M147,62.36v-.74c0-2,0-4,0-5.94,0-.31.07-.42.4-.42,1.34,0,2.68,0,4,0,.29,0,.37.08.37.37q0,6.6,0,13.2c0,.32-.11.38-.39.37-1.32,0-2.63,0-3.94,0a.58.58,0,0,1-.58-.31c-1.25-2-2.52-4-3.78-6-.06-.09-.09-.21-.24-.25a1,1,0,0,0,0,.48q0,2.84,0,5.67c0,.28-.06.38-.35.37-1.33,0-2.65,0-4,0-.24,0-.32-.06-.32-.32,0-4.44,0-8.87,0-13.31,0-.24.08-.3.31-.3,1.41,0,2.82,0,4.24,0a.44.44,0,0,1,.43.28q1.78,3.26,3.58,6.49C146.76,62.14,146.78,62.28,147,62.36Z"/><path class="cls-1" d="M123.67,60.34a6.87,6.87,0,1,1,4.69,8.47,3.53,3.53,0,0,1-.46-.15,6.84,6.84,0,0,1-4.46-7c0-.28,0-.56,0-.83S123.62,60.49,123.67,60.34Z"/><path class="cls-1" d="M123.27,61.54a5,5,0,0,1-2.64,3.23,4.91,4.91,0,0,1-2.23.52c-.68,0-1.36,0-2,0-.25,0-.33.06-.33.32,0,1.1,0,2.19,0,3.29,0,.27-.07.35-.33.34q-2.08,0-4.17,0c-.28,0-.33-.09-.32-.35V55.62c0-.22,0-.35.29-.36,2.33,0,4.67,0,7,0a4.85,4.85,0,0,1,4.92,4.27,4.1,4.1,0,0,1,0,.86,7.81,7.81,0,0,1-.09,1A.45.45,0,0,1,123.27,61.54Z"/><path class="cls-1" d="M153.06,62.22c0-2.2,0-4.39,0-6.59,0-.28.08-.37.36-.36h8.48c.25,0,.33.07.33.32,0,1.12,0,2.24,0,3.37,0,.27-.09.33-.35.33h-3.44c-.3,0-.4.07-.39.38,0,.83,0,.83.84.83h3c.28,0,.4,0,.39.37,0,1,0,2,0,3,0,.26-.08.35-.34.34h-3.49c-.25,0-.35.06-.35.34,0,1,0,1,1,1h2.88c.25,0,.33.07.32.32,0,1,0,2.05,0,3.07,0,.26-.1.31-.33.31-2.83,0-5.65,0-8.48,0-.29,0-.36-.08-.36-.36Q153.07,65.52,153.06,62.22Z"/><path class="cls-1" d="M104.74,62.21q0-3.27,0-6.54c0-.32.08-.41.4-.41,1.46,0,2.93,0,4.39,0,.26,0,.35.07.35.34q0,6.63,0,13.27c0,.26-.08.32-.33.32-1.49,0-3,0-4.46,0-.31,0-.35-.12-.35-.38C104.74,66.62,104.74,64.42,104.74,62.21Z"/><path class="cls-1" d="M89.22,62.23c0-2.16,0-4.31,0-6.47,0-.33.09-.39.4-.39q6.38,0,12.73,0c.36,0,.43.1.43.44q0,6.42,0,12.82c0,.36-.07.48-.45.48q-6.36,0-12.72,0c-.33,0-.39-.1-.39-.4C89.23,66.54,89.22,64.38,89.22,62.23Z"/><path class="cls-5" d="M123.27,61.54l0-.22a3.26,3.26,0,0,0,.13-.93V59.5c.17.31,0,.64.1,1,.08,0,0-.12.14-.12a.89.89,0,0,1-.09.45,2.84,2.84,0,0,1-.16.7Z"/><path class="cls-6" d="M123.42,61.49a2.31,2.31,0,0,1,.16-.7,1.82,1.82,0,0,1-.14.83Z"/><path class="cls-7" d="M127.9,68.66a.59.59,0,0,1,.46.15A.52.52,0,0,1,127.9,68.66Z"/><path class="cls-2" d="M132.82,62.23a2.54,2.54,0,1,1-2.53-2.54A2.56,2.56,0,0,1,132.82,62.23Z"/><path class="cls-8" d="M116.1,60.37v-1.1c0-.14,0-.26.2-.25a2.12,2.12,0,0,1,1.69.69,1.15,1.15,0,0,1-.2,1.65,2.74,2.74,0,0,1-1.5.44c-.17,0-.19-.12-.19-.26Z"/><path class="cls-6" d="M123.42,60.39a1.37,1.37,0,0,1-.13.93Z"/><path class="cls-2" d="M89.83,62.23c0-2,0-3.91,0-5.87,0-.32.09-.39.4-.39h11.54c.35,0,.42.1.42.42,0,3.91,0,7.82,0,11.72,0,.33-.09.4-.4.4q-5.78,0-11.55,0c-.34,0-.41-.09-.41-.42,0-2,0-3.91,0-5.86Z"/><path class="cls-1" d="M92.29,59.18a4.27,4.27,0,0,1,2.93-1.75,4.64,4.64,0,0,1,4.55,1.79c0,.06.07.13.11.2s.12.24.19.36a4.68,4.68,0,0,1,.45,3.55A2.85,2.85,0,0,1,100,64.5c-.19-.17-.06-.36,0-.52a4.48,4.48,0,0,0,.39-1.68,4.23,4.23,0,0,0-2.11-3.94,4.48,4.48,0,0,0-4.72.1,3.16,3.16,0,0,0-1.07,1,.38.38,0,0,1-.35.21c-.06,0-.09-.06-.12-.11s0-.08,0-.09A.84.84,0,0,0,92.29,59.18Z"/><path class="cls-9" d="M92,59.58l.07.07a.34.34,0,0,1,0,.36c-.18.51-.33,1-.47,1.55a2.89,2.89,0,0,0,.1,1.4,4.12,4.12,0,0,0,1.51,2.58,4.47,4.47,0,0,0,3.17.93,4.66,4.66,0,0,0,2.38-1c.11-.07.21-.15.34,0,0,.21-.21.3-.36.41a4.69,4.69,0,0,1-4.68.49l-.21-.07a3.12,3.12,0,0,1-1.12-.77,4.09,4.09,0,0,0-.39-.44h0a5.53,5.53,0,0,1-.86-1.65,4.51,4.51,0,0,1,0-2.72c.06-.19.11-.39.17-.58h0a3.26,3.26,0,0,0,.31-.54A.06.06,0,0,1,92,59.58Z"/><path class="cls-1" d="M93.87,66.32a3.47,3.47,0,0,1,.89.25,4.65,4.65,0,0,0,3.93-.68,1.68,1.68,0,0,0,.43-.41v0l.77-.91,0,0a4.39,4.39,0,0,0,.58-3.32,12.47,12.47,0,0,0-.51-1.45.06.06,0,0,1,0,0l0,0a4.35,4.35,0,0,1,.64,3.25,4.74,4.74,0,0,1-6.51,3.59Z"/><path class="cls-10" d="M91.69,60.17c.06.38-.19.69-.25,1a4.67,4.67,0,0,0,.77,3.56c.07.1.18.19.15.34a4.47,4.47,0,0,1-1-4A2.34,2.34,0,0,1,91.69,60.17Z"/><path class="cls-10" d="M92,59.64a.71.71,0,0,1-.31.54A.92.92,0,0,1,92,59.64Z"/><path class="cls-10" d="M92.36,65.11a.64.64,0,0,1,.39.44A1.1,1.1,0,0,1,92.36,65.11Z"/><path class="cls-11" d="M92.29,59.18a.3.3,0,0,1-.25.31A.69.69,0,0,1,92.29,59.18Z"/><path class="cls-11" d="M100,59.65s0,.05,0,.07a.39.39,0,0,1-.14-.3A.31.31,0,0,1,100,59.65Z"/><path class="cls-1" d="M99.12,65.48c-.32,0-.51.29-.75.44a4.07,4.07,0,0,1-2.3.68A5.23,5.23,0,0,1,94,66.13a4.66,4.66,0,0,1-1.81-1.59A3.82,3.82,0,0,1,91.63,63a4.7,4.7,0,0,1-.18-.67,6.85,6.85,0,0,1,.5-2.19,1.26,1.26,0,0,0,.12-.47c.28,0,.3-.31.46-.46a4.69,4.69,0,0,1,3-1.52,4.51,4.51,0,0,1,2.82.65,4.72,4.72,0,0,1,1.42,1.32,5,5,0,0,1,.52,1.28,4.35,4.35,0,0,1,0,2.4c-.08.39-.32.76-.39,1.17h0c-.28.33-.54.67-.83,1Z"/><path class="cls-9" d="M99.12,65.48c0-.13.06-.19.14-.28s.4-.28.42-.58c0-.12.16-.13.27-.13A2.5,2.5,0,0,1,99.12,65.48Z"/><circle class="cls-1" cx="96.01" cy="62.24" r="4.93"/><path class="cls-1" d="M124.27,30.3h-2.86c-.17,0-.17,0-.13-.17.15-.5.29-1,.43-1.49a.21.21,0,0,1,.24-.18h5.45a.56.56,0,0,0,.53-.29,1.9,1.9,0,0,0,.2-.37c.07-.18,0-.23-.15-.23h-5.71c-.23,0-.23,0-.17-.22a21,21,0,0,1,.7-2.34,3,3,0,0,1,1.79-1.77,2.16,2.16,0,0,1,.8-.07h5.29c.19,0,.2,0,.14.19l-.43,1.39c0,.12-.09.16-.21.16l-5.47,0a.55.55,0,0,0-.56.33c-.05.11-.11.22-.15.33s0,.23.16.23l3.23,0h2.48c.21,0,.22,0,.16.2-.23.8-.46,1.6-.73,2.39a3.36,3.36,0,0,1-1.37,1.65,1.4,1.4,0,0,1-.75.19c-.84.06-1.69,0-2.53.06Z"/><path class="cls-1" d="M137.75,23.23c.95,0,1.9,0,2.84,0,.2,0,.2,0,.15.17-.15.48-.3,1-.44,1.42a.18.18,0,0,1-.2.14l-4.53,0-1.12,0a.25.25,0,0,0-.17,0,1.44,1.44,0,0,0-.38.68c0,.12,0,.16.17.16l3,0,2.8,0c.14,0,.16,0,.12.17-.24.84-.47,1.68-.77,2.51a3.33,3.33,0,0,1-1.35,1.57,1.59,1.59,0,0,1-.88.2c-1.9.07-3.79,0-5.69.05-.08,0-.11,0-.08-.11.16-.54.32-1.07.46-1.61,0-.13.12-.12.21-.12h5.53a.44.44,0,0,0,.42-.21,2.52,2.52,0,0,0,.24-.42c.08-.2.05-.26-.17-.26l-2.62,0c-1,0-2.07,0-3.1,0-.19,0-.2,0-.15-.19.22-.79.42-1.58.71-2.35a3.13,3.13,0,0,1,1.58-1.7,1.24,1.24,0,0,1,.68-.15Z"/><path class="cls-1" d="M147.7,30.21c.13-.46.27-.91.4-1.36.33-1.17.66-2.34,1-3.51a3.2,3.2,0,0,1,1.17-1.72,2.59,2.59,0,0,1,1.53-.42H157c.38,0,.37,0,.27.35-.68,2.18-1.32,4.36-2,6.54,0,.11-.07.16-.2.16H154c-.18,0-.17,0-.12-.16.5-1.64,1-3.27,1.48-4.91.09-.3.1-.27-.19-.28-1.28,0-2.56,0-3.83,0l-.31,0a.56.56,0,0,0-.56.43c-.17.42-.26.87-.39,1.3-.32,1.13-.65,2.25-1,3.38,0,.1-.06.14-.17.14C148.52,30.2,148.12,30.22,147.7,30.21Z"/><path class="cls-1" d="M121.66,19.28l-1.42-.05c-.21,0-.21,0-.19-.21.07-.9.1-1.8.12-2.7,0-.11,0-.15-.14-.18l-1.4-.41a33.53,33.53,0,0,0-7.24-1.22,28.46,28.46,0,0,0-5.76.28A29.52,29.52,0,0,0,100,16.22a.25.25,0,0,0-.19.3,41,41,0,0,0,.51,4.93,26,26,0,0,0,1.33,5,.35.35,0,0,1,.06.21H99.5c-.18,0-.19,0-.11.17.23.46.5.89.75,1.33a.3.3,0,0,0,.3.18l1.86,0a.26.26,0,0,1,.28.18,16.1,16.1,0,0,0,7.06,7.1l1,.52h.06a.19.19,0,0,1,.11-.09,18.15,18.15,0,0,0,4.74-4.25,20.1,20.1,0,0,0,3.48-7.06,25.89,25.89,0,0,0,.73-3.5c0-.14.06-.2.22-.19s.59,0,.88,0a.22.22,0,0,0,.24-.15c.19-.49.4-1,.6-1.48C121.78,19.32,121.77,19.29,121.66,19.28Zm-2.74,1.94a24.94,24.94,0,0,1-1.24,5,18.65,18.65,0,0,1-3,5.29,17.68,17.68,0,0,1-4,3.59.17.17,0,0,1-.18,0,15.38,15.38,0,0,1-7-6.64l0-.08h1.75c2.23,0,4.47,0,6.7,0a4.13,4.13,0,0,0,3-1.38,3.55,3.55,0,0,0,.71-1.08c.39-1,.79-1.95,1.18-2.92.07-.18.07-.18-.12-.19-1.4,0-2.79,0-4.18,0-2,0-4.06,0-6.09,0H106c-.2,0-.25-.06-.19-.25a2.42,2.42,0,0,1,.56-1,1.38,1.38,0,0,1,1-.48h1.78l9.59,0C119,21,119,21,118.92,21.22Zm.25-2.12c0,.11-.07.11-.14.11l-5.18-.08h-.36c-1.7,0-3.41,0-5.11,0a6.41,6.41,0,0,0-1.16.09l-.17.05A5.76,5.76,0,0,0,105,21a8.85,8.85,0,0,0-.9,1.76c-.25.59-.48,1.2-.72,1.8,0,.13,0,.15.1.15.79,0,1.58,0,2.38,0l6,0,2.09,0c.27,0,.29,0,.2.28a2.73,2.73,0,0,1-.78,1.34,1.14,1.14,0,0,1-.75.3c-.6,0-1.2,0-1.81,0h-8a.21.21,0,0,1-.23-.16A24.86,24.86,0,0,1,101.13,21a37.43,37.43,0,0,1-.42-4c0-.13,0-.18.14-.21a27.92,27.92,0,0,1,5.24-1.24,28.57,28.57,0,0,1,6-.17,34,34,0,0,1,7.07,1.34.16.16,0,0,1,.13.19C119.25,17.68,119.22,18.39,119.17,19.1Z"/><path class="cls-1" d="M149.05,23.19c-.85,0-1.69,0-2.54,0-1,0-2.1,0-3.15,0a1.59,1.59,0,0,0-.78.16A3,3,0,0,0,141.1,25c-.53,1.68-1,3.38-1.52,5.07-.05.18-.05.19.14.19h3.11v-.07h3.09c.14,0,.19,0,.23-.17.14-.46.29-.92.43-1.37.06-.18,0-.19-.13-.19h-4.76c-.18,0-.19,0-.14-.18s.15-.41.21-.62.09-.12.19-.12.37,0,.56,0c1.16,0,2.33,0,3.5,0a2.35,2.35,0,0,0,1.86-.9,3.45,3.45,0,0,0,.59-1.08c.27-.75.47-1.51.72-2.26C149.25,23.2,149.24,23.2,149.05,23.19Zm-1.78,2a1.23,1.23,0,0,1-.16.35.74.74,0,0,1-.71.41c-1.21,0-2.42,0-3.63,0h-.29c-.2,0-.25-.07-.19-.27a2.4,2.4,0,0,1,.33-.61c.07-.1.18-.09.29-.1.7,0,1.4,0,2.1,0h2.06C147.33,24.9,147.35,24.92,147.27,25.17Z"/><path class="cls-1" d="M172.53,23.25c-2,0-4,0-6,0a.26.26,0,0,0-.29.21c-.13.44-.24.88-.36,1.32,0,.15,0,.17.13.17h2.59c.73,0,1.46,0,2.2,0,.11,0,.16,0,.12.15s-.07.24-.1.36c-.13.4-.13.4-.56.4-1.37,0-2.73,0-4.1,0a1.86,1.86,0,0,0-1,.29A2.79,2.79,0,0,0,164,27.5c-.07.18-.14.36-.2.54-.22.62-.4,1.25-.57,1.89-.05.2,0,.26.19.29a1.7,1.7,0,0,0,.39,0h5.47a.79.79,0,0,0,.44-.14,7,7,0,0,0,.69-.53,2.5,2.5,0,0,0,.77-1.15c.42-1.28.79-2.57,1.18-3.86.13-.42.26-.84.36-1.29Zm-2.39,4.5a2.37,2.37,0,0,1-.32.61.42.42,0,0,1-.37.19l-4.15,0h-.11c-.1,0-.14,0-.12-.16a1.92,1.92,0,0,1,.28-.64.47.47,0,0,1,.43-.23H170C170.18,27.54,170.21,27.57,170.14,27.75Z"/><path class="cls-1" d="M164.32,20.58c-.12,0-.17,0-.19.16L163.55,23c-.07.25-.07.25-.32.24-1.07,0-2.15,0-3.22,0a1.76,1.76,0,0,0-.9.18A2.88,2.88,0,0,0,157.79,25c-.57,1.71-1,3.44-1.56,5.16,0,.11,0,.13.11.13,1.57,0,3.15,0,4.72,0a1.7,1.7,0,0,0,1.22-.52,3.5,3.5,0,0,0,1-1.44c.54-1.86,1.1-3.72,1.65-5.58.21-.68.41-1.36.61-2.06Zm-1.46,4.47c-.28,1-.57,1.93-.86,2.9a.66.66,0,0,1-.72.58c-.73,0-1.45,0-2.18,0h-.88c-.18,0-.2,0-.15-.2.3-1,.6-2,.91-2.95a.53.53,0,0,1,.61-.45c.53,0,1,0,1.58,0h1.6C162.88,24.92,162.9,24.94,162.86,25.05Z"/><path class="cls-12" d="M313.62.19s2.34,2,7.68,3.62S333.88,8.2,333.88,8.2l-9.67,12,7,3-2.43,1.28-8.85-3.37,9.67-11.28s-7.11-2.45-9.1-3-5.69-3.13-6.15-4.17A13.13,13.13,0,0,1,313.62.19Z"/><path class="cls-12" d="M316.07,5.31a20.87,20.87,0,0,0,3.6,2.07c1.52.57,8.63,2.81,8.63,2.81l-.95,1.39-6.62-2a14.11,14.11,0,0,1-2.45-.82,5.49,5.49,0,0,1-2.21-2.1A1.62,1.62,0,0,1,316.07,5.31Z"/><path class="cls-12" d="M317.46,9.23a9.39,9.39,0,0,0,2.34,1.07c1,.21,6.87,2,6.87,2l-1.07,1.39s-4.3-.92-5.23-1.28a4.24,4.24,0,0,1-2.2-1.52A4,4,0,0,1,317.46,9.23Z"/><polygon class="cls-12" points="326.67 18.3 325.14 19.94 332.47 23.09 334.92 21.79 326.67 18.3"/><polygon class="cls-12" points="326.31 26.83 345.76 18.55 347.25 19.96 327.95 28.21 326.31 26.83"/><path class="cls-12" d="M329,28.68l2,1.17,21.4-9.07L342.73,9.72l7-2.34s3.35-1.17,4.63-1.82,3.38-1.88,4.06-4.09.25-1.28.25-1.28a13.82,13.82,0,0,1-2.81,1.64c-1.61.7-3.13,1.39-5.2,2.09s-11.87,4.39-11.87,4.39l9.77,11.76Z"/><polygon class="cls-12" points="337.48 28.21 340.85 29.74 343.52 28.57 339.93 27.04 337.48 28.21"/><polygon class="cls-12" points="341.43 26.47 344.69 27.86 347.04 26.83 343.66 25.44 341.43 26.47"/><path class="cls-12" d="M344.48,10.3s4.52-1.75,5.44-2a33,33,0,0,0,3.84-1.5c.79-.35,2.78-1.5,2.78-1.5A5.57,5.57,0,0,1,354.91,8a19.75,19.75,0,0,1-4.28,1.88c-1.39.47-5.12,1.5-5.12,1.5Z"/><path class="cls-12" d="M346.22,12.15s2.67-.68,3.7-1,1.64-.6,2.45-.92,2.32-1,2.32-1,.11,1.42-1.88,2.35A27.7,27.7,0,0,1,349.24,13l-2.1.44Z"/><polygon class="cls-12" points="307.3 31.84 313.46 31.84 313.24 32.41 307.74 36.41 311.82 36.41 311.63 36.98 305.48 36.98 305.7 36.41 311.2 32.41 307.11 32.41 307.3 31.84"/><path class="cls-12" d="M317.46,31.84h2.07a2,2,0,0,1,1.25.35A.59.59,0,0,1,321,33l-1.44,2.86a2,2,0,0,1-1,.79,4.1,4.1,0,0,1-1.36.33v-.82a.75.75,0,0,0,.33-.3L318.93,33a.27.27,0,0,0-.08-.38.9.9,0,0,0-.65-.19,1.54,1.54,0,0,0-.79.19l-.22.08v-.82ZM317.19,37a1.1,1.1,0,0,1-.27,0h-2.05a2.17,2.17,0,0,1-1.28-.32.63.63,0,0,1-.19-.82L314.85,33a2,2,0,0,1,1-.79,4,4,0,0,1,1.34-.33v.82a.94.94,0,0,0-.3.3l-1.44,2.86a.31.31,0,0,0,.1.41,1,1,0,0,0,.63.16,2,2,0,0,0,.82-.16,1.6,1.6,0,0,0,.19-.11Z"/><path class="cls-12" d="M333.26,34.12h3.07l-.6,1.72a1.47,1.47,0,0,1-1,.84,4.13,4.13,0,0,1-1.5.3h-3.46c-.95.09-1.38-.13-.7-1.14l1.71-3.1a1.68,1.68,0,0,1,1.28-.9h5.2l-.08.6-2.34,0h-1a1.52,1.52,0,0,0-.79.19.75.75,0,0,0-.43.38l-1,2.86a.34.34,0,0,0,.17.41,1.18,1.18,0,0,0,.68.16c.65,0,1.06-.22,1.22-.57l.41-1.14h-1Z"/><path class="cls-12" d="M344,31.84v.6c-1,0-1.36,0-1.93,0a1.87,1.87,0,0,0-.85.16.7.7,0,0,0-.43.41.33.33,0,0,0,.16.41l1.69,1.36c.3.25.41.52.3.79l-.08.3a1.57,1.57,0,0,1-.9.79,3.29,3.29,0,0,1-1.55.35h-1c-.68,0-.65.09-1.52.06-.58,0-1.28,0-1.28,0v-.63a13.51,13.51,0,0,0,1.63,0,12.1,12.1,0,0,0,1.39,0,1.71,1.71,0,0,0,.82-.16.73.73,0,0,0,.4-.41c.06-.16,0-.27-.16-.41L339,34.07c-.32-.25-.43-.52-.32-.79l.1-.3a1.58,1.58,0,0,1,.88-.79,3.76,3.76,0,0,1,1.57-.35H344Z"/><polygon class="cls-12" points="344.48 36.98 346.82 31.84 348.86 31.84 347.82 34.13 349.87 34.13 350.9 31.84 352.92 31.84 350.6 36.98 348.56 36.98 349.6 34.7 347.55 34.7 346.52 36.98 344.48 36.98"/><polygon class="cls-12" points="352.64 36.98 355.15 31.84 360.27 31.84 359.97 32.41 356.89 32.41 356.05 34.13 358.12 34.13 357.82 34.7 355.78 34.7 354.93 36.41 358.01 36.41 357.71 36.98 352.64 36.98"/><polygon class="cls-12" points="359.86 36.98 361.69 31.84 362.15 31.84 366.81 34.7 367.81 31.84 368.85 31.84 367.02 36.98 366.56 36.98 361.9 34.13 360.87 36.98 359.86 36.98"/><polygon class="cls-12" points="320.16 36.98 322.34 31.84 322.8 31.84 327.26 34.7 328.46 31.84 329.5 31.84 327.32 36.98 326.83 36.98 322.39 34.13 321.17 36.98 320.16 36.98"/><path class="cls-1" d="M192.4,22.85l0,.06h0c.26.21.52.41.76.63l.54.47c.46.4.92.8,1.37,1.21.15.13.29.26.45.38s.31.29.47.44l.82.7c.19.15.35.34.54.49.34.26.64.57,1,.85l.78.67.52.46c.2.19.43.35.62.55a.71.71,0,0,0,.27.22.07.07,0,0,1,0,.05h-2.89a.36.36,0,0,1-.14-.1.07.07,0,0,0-.08,0h0a.06.06,0,0,0-.07-.07h0s0-.06,0,0l-.66-.6a.19.19,0,0,0-.14-.12h0a.34.34,0,0,0-.15-.14h0a.15.15,0,0,0-.11-.12h0c0-.07-.07-.09-.12-.11a.16.16,0,0,1-.09-.07.5.5,0,0,0-.15-.14h0a.3.3,0,0,0-.14-.11h0a.21.21,0,0,0-.15-.15h0a.1.1,0,0,0-.07-.08h0a.1.1,0,0,0-.07-.08.57.57,0,0,1-.3-.22,5.3,5.3,0,0,0-.6-.56,3.33,3.33,0,0,1-.39-.36,11,11,0,0,0-.87-.8l-.18-.19c-.27-.32-.61-.57-.9-.87,0,0,0,0,0-.07a.18.18,0,0,0-.08-.07h0l0,0h0a.29.29,0,0,0-.13-.14h0a.2.2,0,0,0-.08-.08.65.65,0,0,1-.17-.16c-.18-.2-.39-.36-.57-.55a4.62,4.62,0,0,1-.75-1,1.63,1.63,0,0,1-.14-.49,2.31,2.31,0,0,1,.24-1.54c.06-.11.1-.23.16-.34a4.13,4.13,0,0,1,.31-.42,3.8,3.8,0,0,1,1.18-.93c.2-.1.41-.17.61-.26s.6-.27.91-.38c.52-.18,1-.41,1.52-.61s1-.45,1.59-.66c.32-.11.63-.23.94-.37.72-.33,1.46-.59,2.18-.9.48-.21,1-.41,1.43-.59s.8-.33,1.2-.48l.21-.11c.6-.22,1.17-.48,1.76-.71.28-.1.55-.23.82-.34s.57-.24.86-.34.64-.25,1-.39.82-.33,1.22-.51l.6-.24c.29-.12.59-.21.87-.35s.56-.25.85-.36c.56-.2,1.1-.45,1.66-.67s.91-.39,1.38-.57c.3-.11.59-.25.89-.35s.3-.16.45-.22l.83-.31.9-.38c.54-.22,1.07-.45,1.61-.66s.78-.3,1.16-.47,1-.38,1.42-.58l.4-.17c.57-.19,1.11-.49,1.68-.69s.86-.34,1.29-.53l1.12-.45c.43-.18.87-.34,1.29-.52.22-.09.42-.2.64-.28s.64-.24,1-.38.63-.26.94-.38a.08.08,0,0,1,.08,0s0,0,0,.07a7,7,0,0,0-.31,1c-.1.37-.2.74-.33,1.1a5.91,5.91,0,0,1-.59,1.11,4.61,4.61,0,0,1-.89.93,7.17,7.17,0,0,1-1.43.93c-.37.19-.75.37-1.14.53l-.4.13-.65.26c-.39.15-.8.28-1.2.41s-1.09.4-1.64.6c-.9.34-1.82.62-2.71,1-.27.11-.54.18-.81.28-.48.16-.95.34-1.43.51-.12.05-.25.06-.36.12a7.06,7.06,0,0,1-.87.33c-.26.09-.52.19-.79.27s-.79.27-1.18.44-.56.19-.84.29l-1.73.61c-.16.06-.32.14-.49.19-.4.13-.8.28-1.2.42s-.94.35-1.41.51c-.69.24-1.36.5-2.05.72-.39.13-.77.31-1.16.43-.77.26-1.52.55-2.29.81l-1,.37c-.3.12-.6.21-.9.31s-.63.25-1,.36l-.82.28-1.86.67c-.48.18-1,.36-1.45.52a6.75,6.75,0,0,0-1.54.66,1.48,1.48,0,0,0-.76.95.72.72,0,0,0,.2.7h0Z"/><path class="cls-1" d="M193.8,23.29l0,0a.25.25,0,0,0-.14-.13h0a.17.17,0,0,0-.1-.1h0l-.09-.07,0,0a0,0,0,0,1,0,0,.94.94,0,0,1-.26-.48.73.73,0,0,1,.32-.69,6.63,6.63,0,0,1,1.6-.62,4,4,0,0,0,.82-.3,3.35,3.35,0,0,1,.56-.19c.69-.2,1.37-.41,2-.65s1.21-.38,1.8-.59c.42-.15.85-.24,1.26-.4s.63-.23,1-.33c.67-.18,1.32-.42,2-.63s1.37-.46,2.05-.67c.4-.12.8-.24,1.2-.38.23-.08.45-.17.68-.24.38-.1.75-.23,1.12-.35s.51-.18.78-.25c.43-.11.84-.29,1.27-.42.25-.08.5-.18.75-.25l.85-.26c.37-.12.73-.27,1.11-.38l1-.32c.31-.11.62-.22.94-.31.66-.18,1.3-.46,2-.65s1-.31,1.55-.49,1.17-.37,1.75-.57.93-.28,1.39-.44.74-.27,1.12-.38c.62-.18,1.23-.41,1.85-.6.28-.08.55-.2.84-.27.07,0,.11,0,.1.07a6.46,6.46,0,0,0-.27.6c-.13.26-.23.54-.36.79a8.31,8.31,0,0,1-.68,1.06c-.14.2-.32.37-.47.56a1.29,1.29,0,0,1-.27.3c-.13.11-.27.21-.4.33a4.14,4.14,0,0,1-.75.51,4.34,4.34,0,0,1-1.11.46c-.78.19-1.55.41-2.33.62s-1.63.45-2.45.64c-.35.08-.68.2-1,.28s-.87.24-1.31.34c-.83.2-1.65.44-2.48.65s-1.51.42-2.28.6c-.43.11-.87.22-1.29.36s-1.12.28-1.68.43l-1.86.49-1.34.37-1.42.36c-.28.07-.55.15-.83.2s-.61.25-.57.62c0,.08,0,.11-.11.14-.47.14-1,.23-1.43.38s-1.19.33-1.79.47c-.79.19-1.57.44-2.36.64-.51.13-1,.27-1.52.42a.65.65,0,0,1-.39,0h0a.16.16,0,0,0-.15-.11h0s0,0,0,0h0l0,0h0A.05.05,0,0,0,193.8,23.29Z"/><path class="cls-1" d="M196,25.1a.24.24,0,0,1-.13-.09c-.19-.19-.4-.36-.61-.54s-.35-.31-.52-.48l-.07-.09s0-.07,0-.08c.23-.05.46-.13.69-.17l.6-.15c.56-.14,1.12-.3,1.68-.43.71-.17,1.4-.39,2.1-.56.33-.08.66-.15,1-.24.47-.13.94-.22,1.4-.38s.72-.17,1.08-.27l1.16-.31.78-.19a6.62,6.62,0,0,0,1-.26,7.32,7.32,0,0,1,.8-.23c.53-.15,1.07-.25,1.61-.4.3-.09.61-.15.9-.24.45-.13.9-.22,1.35-.35s1-.29,1.53-.4.73-.16,1.08-.27.73-.21,1.1-.3l1.78-.45c.35-.09.7-.17,1-.27l1.14-.3c.46-.12.91-.26,1.38-.35.2,0,.38-.1.58-.15a5.18,5.18,0,0,0,.53-.14c.35-.11.69-.2,1-.29l.91-.22,1-.27c.05,0,.1,0,.14,0s0,0,0,0h0l-.12.17-.66,1a5.72,5.72,0,0,1-.78,1.05,6.89,6.89,0,0,1-.72.71,6.14,6.14,0,0,1-1.27.79,5.44,5.44,0,0,1-1.48.47c-.5.08-1,.19-1.51.27-.3.05-.59.14-.88.2s-.79.15-1.19.21c-.23,0-.45.09-.68.13-.9.15-1.78.35-2.68.48-.53.08-1,.22-1.58.31s-1.19.23-1.79.32c-.34.05-.67.12-1,.19-.7.13-1.4.23-2.09.42a.61.61,0,0,0-.52.6c0,.06,0,.09-.09.1l-.47.09c-.43.09-.86.19-1.3.26s-1,.19-1.44.26c-.32.05-.64.13-1,.19-.81.13-1.62.31-2.43.45l-1.8.35c-.27.05-.27.05-.47-.07h0l0,0h0s0-.06-.07-.07h0Z"/><path class="cls-1" d="M198.6,27.45a.4.4,0,0,1-.18-.13L198,27l-.6-.54a.13.13,0,0,0-.11-.09h0s0,0,0,0h0a.1.1,0,0,0-.05,0,1.3,1.3,0,0,1-.37-.37,4.37,4.37,0,0,1,.49-.12c.37-.07.73-.16,1.11-.21.59-.08,1.16-.22,1.74-.33l1.17-.22a4.51,4.51,0,0,1,.53-.09,2,2,0,0,0,.23-.06l1.16-.23,1-.2.83-.15,1.06-.2c.25,0,.51-.09.77-.16s.76-.16,1.14-.23l1.56-.29,1.52-.3a5.25,5.25,0,0,1,.55-.09c.27,0,.53-.13.8-.18l1.3-.24c.19,0,.39-.07.58-.12s.49-.08.73-.13.47-.09.71-.14l.95-.19.54-.12a6.55,6.55,0,0,1,.77-.15l.81-.14,1.12-.23s.08,0,.1,0l-.05.07-.07.07c-.17.27-.35.52-.54.77s-.34.45-.52.66a6.75,6.75,0,0,1-1.08,1,3.93,3.93,0,0,1-1.27.61,6,6,0,0,1-1,.17l-1.81.28-1.95.28c-.61.09-1.21.22-1.83.25a1.43,1.43,0,0,0-.49.13.44.44,0,0,0-.26.29.76.76,0,0,0,0,.21.09.09,0,0,1-.09.1l-.35,0-1.23.16c-.53.06-1.06.11-1.59.19s-1.27.12-1.89.23c-.22,0-.44.06-.66.08l-1.32.17-1.28.16-1.07.12c-.25,0-.49,0-.73.09A.59.59,0,0,1,198.6,27.45Z"/><path class="cls-1" d="M199.39,28.24a.29.29,0,0,1-.16-.18l.91-.12.69-.11.6-.08,1.07-.13,1.08-.14c.51-.06,1-.11,1.53-.19s.94-.11,1.41-.17l1-.14c.25,0,.5,0,.75-.09a8.66,8.66,0,0,1,.89-.12l.83-.1a.2.2,0,0,1,.17,0c.28.17.56.34.83.53s.29.19.44.28.49.33.75.49l1,.64c.44.28.88.57,1.34.84.25.15.47.35.73.49,0,0,0,0,0,0H215c-4.47,0-8.94,0-13.41,0a.66.66,0,0,1-.34-.08h0a.22.22,0,0,0-.14-.14l0,0a.53.53,0,0,0-.21-.21h0l0,0h0a.14.14,0,0,0-.11-.11h0l0,0h0l-.07,0h0l0,0h0a.18.18,0,0,0-.11-.08h0a0,0,0,0,0,0,0h0l0,0h0l0,0h0l0,0h0l0,0h0l0,0s0,0,0,0l0,0h0a.14.14,0,0,0-.11-.11h0c0-.13-.17-.18-.28-.24h0a.29.29,0,0,0-.15-.14h0l-.07-.06h0a.14.14,0,0,0-.11-.09h0S199.45,28.24,199.39,28.24Z"/><path class="cls-1" d="M192.39,22.82a.72.72,0,0,1-.2-.7,1.48,1.48,0,0,1,.76-.95,6.75,6.75,0,0,1,1.54-.66c.49-.16,1-.34,1.45-.52l1.86-.67.82-.28c.33-.11.64-.25,1-.36s.6-.19.9-.31l1-.37c.77-.26,1.52-.55,2.29-.81.39-.12.77-.3,1.16-.43.69-.22,1.36-.48,2.05-.72.47-.16.93-.35,1.41-.51s.8-.29,1.2-.42c.17,0,.33-.13.49-.19l1.73-.61c.28-.1.57-.17.84-.29s.78-.31,1.18-.44.53-.18.79-.27a7.06,7.06,0,0,0,.87-.33c.11-.06.24-.07.36-.12.48-.17.95-.35,1.43-.51.27-.1.54-.17.81-.28.89-.36,1.81-.64,2.71-1,.55-.2,1.09-.41,1.64-.6s.81-.26,1.2-.41l.65-.26.4-.13c.39-.16.77-.34,1.14-.53a7.17,7.17,0,0,0,1.43-.93,4.61,4.61,0,0,0,.89-.93,5.91,5.91,0,0,0,.59-1.11c.13-.36.23-.73.33-1.1a7,7,0,0,1,.31-1s0,0,0-.07a.24.24,0,0,1,0,.22c-.2.73-.4,1.46-.64,2.18a3.84,3.84,0,0,1-.18.35,4.12,4.12,0,0,1-.49.78,5.38,5.38,0,0,1-.52.55,8.22,8.22,0,0,1-.65.52c-.14.11-.3.19-.45.29a11.41,11.41,0,0,1-1.56.79c-.19.08-.39.12-.57.21a8.94,8.94,0,0,1-1,.39l-1.34.47c-.73.26-1.45.54-2.19.79-.35.12-.71.23-1.06.37s-.77.29-1.16.42l-.84.3-.5.18c-.61.21-1.21.45-1.82.65l-1.2.42c-.14.05-.28.13-.43.18-.64.19-1.25.45-1.88.65-.44.14-.84.34-1.28.47l-1,.35-1.16.43c-.3.11-.59.22-.9.32s-.59.21-.88.32-.32.08-.48.15c-.44.18-.88.36-1.33.5s-1.11.39-1.67.58l-1.6.58c-.23.09-.47.16-.7.24-.39.13-.76.29-1.14.43s-.54.17-.8.27l-1.11.4c-.62.22-1.23.45-1.85.66-.34.12-.68.21-1,.36a5.67,5.67,0,0,0-1,.48,1.52,1.52,0,0,0-.4.36,2.23,2.23,0,0,0-.19.24A.94.94,0,0,0,192.39,22.82Z"/><path class="cls-1" d="M194.05,23.5a.65.65,0,0,0,.39,0c.51-.15,1-.29,1.52-.42.79-.2,1.57-.45,2.36-.64.6-.14,1.2-.3,1.79-.47s1-.24,1.43-.38c.08,0,.12-.06.11-.14,0-.37.25-.57.57-.62s.55-.13.83-.2l1.42-.36,1.34-.37,1.86-.49c.56-.15,1.13-.25,1.68-.43s.86-.25,1.29-.36c.77-.18,1.53-.39,2.28-.6s1.65-.45,2.48-.65c.44-.1.87-.23,1.31-.34s.67-.2,1-.28c.82-.19,1.63-.43,2.45-.64s1.55-.43,2.33-.62a4.34,4.34,0,0,0,1.11-.46,4.14,4.14,0,0,0,.75-.51c.13-.12.27-.22.4-.33a1.29,1.29,0,0,0,.27-.3c.15-.19.33-.36.47-.56a8.31,8.31,0,0,0,.68-1.06c.13-.25.23-.53.36-.79a6.46,6.46,0,0,1,.27-.6c.06,0,.08,0,.06.07a1.84,1.84,0,0,1-.09.25c-.14.39-.34.75-.51,1.12a7.42,7.42,0,0,1-.7,1.14c-.11.15-.26.28-.37.44a4.62,4.62,0,0,1-1,.87,4.63,4.63,0,0,1-1.7.82c-.28.06-.55.15-.82.23l-1.58.41c-.37.1-.74.21-1.12.3l-.75.19a7.9,7.9,0,0,0-.95.27c-.22.08-.46.12-.69.18l-1.29.33-1.51.4-1.12.3c-.49.14-1,.28-1.48.39s-.88.21-1.31.34a10,10,0,0,1-1.07.29c-.54.12-1.07.29-1.61.42-.32.07-.62.17-.94.24-.15,0-.29.09-.43.13-.4.11-.8.2-1.19.32s-.83.19-1.23.31a4.29,4.29,0,0,0-.64.17,5,5,0,0,1-.73.2.44.44,0,0,0-.36.53c0,.11,0,.13-.11.15l-.56.13c-.32.09-.64.19-1,.27s-.86.24-1.3.34-.77.19-1.15.32l-.2,0c-.27,0-.52.19-.78.23-.42.08-.82.21-1.23.32l-1.07.3A.29.29,0,0,1,194.05,23.5Z"/><path class="cls-1" d="M196.09,25.24c.2.12.2.12.47.07l1.8-.35c.81-.14,1.62-.32,2.43-.45.32-.06.64-.14,1-.19.48-.07,1-.17,1.44-.26s.87-.17,1.3-.26l.47-.09c.06,0,.08,0,.09-.1a.61.61,0,0,1,.52-.6c.69-.19,1.39-.29,2.09-.42.34-.07.67-.14,1-.19.6-.09,1.19-.22,1.79-.32s1-.23,1.58-.31c.9-.13,1.78-.33,2.68-.48.23,0,.45-.1.68-.13.4-.06.79-.13,1.19-.21s.58-.15.88-.2c.51-.08,1-.19,1.51-.27a5.44,5.44,0,0,0,1.48-.47,6.14,6.14,0,0,0,1.27-.79,6.89,6.89,0,0,0,.72-.71,5.72,5.72,0,0,0,.78-1.05l.66-1,.12-.17c0,.06.07,0,.1,0a.62.62,0,0,1-.12.19c-.28.45-.57.9-.86,1.35l-.35.49c-.14.18-.31.32-.45.49a5,5,0,0,1-1.21,1,6.48,6.48,0,0,1-1.13.53,12.29,12.29,0,0,1-1.57.36l-.77.16a13.77,13.77,0,0,1-1.58.3l-.67.12-.78.15c-.25,0-.5.11-.75.14-.43.06-.84.17-1.27.22a3.64,3.64,0,0,0-.73.15l-.41.08-.73.14-1,.18c-.45.09-.91.15-1.37.25s-.7.11-1.05.19-.48.08-.71.15a2.68,2.68,0,0,1-.63.11,1.39,1.39,0,0,0-.5.15.55.55,0,0,0-.31.54c0,.07,0,.08-.07.09l-1.19.25c-.31.06-.64.1-1,.17l-1.32.23c-.42.09-.84.16-1.26.24s-.66.11-1,.2-.48.08-.72.13l-1,.2-.94.17h-.07C196.35,25.52,196.21,25.4,196.09,25.24Z"/><path class="cls-1" d="M198.6,27.45a.59.59,0,0,0,.45.06c.24,0,.48-.06.73-.09l1.07-.12,1.28-.16,1.32-.17c.22,0,.44,0,.66-.08.62-.11,1.26-.14,1.89-.23s1.06-.13,1.59-.19l1.23-.16.35,0a.09.09,0,0,0,.09-.1.76.76,0,0,1,0-.21.44.44,0,0,1,.26-.29,1.43,1.43,0,0,1,.49-.13c.62,0,1.22-.16,1.83-.25l1.95-.28,1.81-.28a6,6,0,0,0,1-.17,3.93,3.93,0,0,0,1.27-.61,6.75,6.75,0,0,0,1.08-1c.18-.21.34-.44.52-.66s.37-.5.54-.77l.07-.07s.07,0,.1,0,0,.06,0,.08c-.16.24-.31.5-.49.72a12.49,12.49,0,0,1-1,1.19,3.88,3.88,0,0,1-.31.26,3.79,3.79,0,0,1-.63.49,5.48,5.48,0,0,1-1.23.5c-.3.06-.6.09-.89.15-.47.11-.95.13-1.42.22l-1.1.17c-.49.06-1,.15-1.45.21l-.86.11a6.44,6.44,0,0,0-1,.15.52.52,0,0,0-.4.32.61.61,0,0,0,0,.23c0,.08,0,.1-.1.11l-1.24.16-1.4.16-.91.11c-.1,0-.21,0-.31,0-.43.09-.87.11-1.31.18l-.53.06-.64.08c-.36.05-.72.1-1.08.13l-1.07.14-.71.07c-.23,0-.45.05-.67.09a3.09,3.09,0,0,0-.52.07.08.08,0,0,1-.08,0C198.74,27.55,198.64,27.53,198.6,27.45Z"/><path class="cls-1" d="M201.23,29.93a.66.66,0,0,0,.34.08c4.47,0,8.94,0,13.41,0h.25l.06.06s0,0-.07,0H201.69A.53.53,0,0,1,201.23,29.93Z"/><path class="cls-1" d="M197.94,34.57c-.05,0-.09,0-.1,0V32c0-.15,0-.16.16-.16h.54c.21,0,.21,0,.21-.21s0-.44,0-.66a.27.27,0,0,1,.09.24c0,.2,0,.39,0,.59s0,.16-.15.16h-.65c-.09,0-.12,0-.12.12C197.94,32.88,197.94,33.72,197.94,34.57Z"/><path class="cls-1" d="M197.67,30h2.89s.07,0,.07.07-.09,0-.13,0h-2.63C197.79,30.14,197.7,30.15,197.67,30Z"/><path class="cls-1" d="M221.88,35.57h2.77c.16,0,.16,0,.17-.17v-.55a.4.4,0,0,1,0-.19.05.05,0,0,1,.06.06v.85c0,.1-.07.08-.12.08h-2.87S221.88,35.6,221.88,35.57Z"/><path class="cls-1" d="M214.27,31c0-.09-.07-.08-.14-.08h-2.52c-.06,0-.08,0-.08.08v.7c0,.07,0,.08.09.08h.56c.1,0,.13,0,.11.12,0,.76,0,1.52,0,2.28-.32-.38-.58-.79-.87-1.17-.19-.23-.34-.49-.51-.74s-.32-.41-.46-.63-.28-.39-.42-.58a.3.3,0,0,0-.27-.14h-3.32a.07.07,0,0,0-.09.08v.72c0,.05,0,.05.07.06h.7c.09,0,.11,0,.1.12v2.6c0,.17,0,.17-.16.17h-.61c-.05,0-.1,0-.1.07v.74s0,0,.07,0h2.51c.15,0,.18,0,.18-.14v-.09h0V35h0a1.93,1.93,0,0,1,0-.24c0-.08-.05-.09-.12-.09h-.59c-.06,0-.08,0-.09-.05s0-.15,0-.23c0-.32,0-.64,0-1v-1a.28.28,0,0,1,0-.09v-.08a.32.32,0,0,1,0-.09l0,0,0,.07c.08,0,.07.13.12.18a2.84,2.84,0,0,1,.4.53c.24.37.51.73.77,1.09.06.08.1.17.16.25a6.61,6.61,0,0,1,.44.6,3.58,3.58,0,0,0,.5.66h2.38c.17,0,.17,0,.17-.17V31.92c0-.17,0-.17.18-.17h.54c.18,0,.18,0,.18-.19A3.79,3.79,0,0,1,214.27,31Z"/><path class="cls-1" d="M223.27,31.83c.32,0,.64,0,1,0,0,0,.07,0,.08,0s0,.05-.06.08a6.77,6.77,0,0,0-.78,0h-.12C223.31,31.91,223.27,31.89,223.27,31.83Z"/><path class="cls-1" d="M211.62,31.76h.56c.1,0,.13,0,.11.12h-.57C211.64,31.88,211.59,31.85,211.62,31.76Z"/><path class="cls-1" d="M206.41,31.76h.7c.09,0,.11,0,.1.12h-.68C206.45,31.87,206.4,31.85,206.41,31.76Z"/><path class="cls-1" d="M214.76,31.83a5.3,5.3,0,0,1,.69,0c.08,0,.11,0,.07.11h-.62C214.83,31.92,214.78,31.91,214.76,31.83Z"/><path class="cls-1" d="M199.79,28.61c.11.06.23.11.28.24A1.55,1.55,0,0,1,199.79,28.61Z"/><path class="cls-1" d="M200.85,29.55a.53.53,0,0,1,.21.21A.47.47,0,0,1,200.85,29.55Z"/><path class="cls-1" d="M199.68,34.76c.08.08.2.14.26.25A.69.69,0,0,1,199.68,34.76Z"/><path class="cls-1" d="M201.09,29.79a.22.22,0,0,1,.14.14C201.15,29.92,201.13,29.85,201.09,29.79Z"/><path class="cls-1" d="M196.39,28.92a.34.34,0,0,1,.15.14C196.48,29,196.41,29,196.39,28.92Z"/><path class="cls-1" d="M199.65,28.47a.29.29,0,0,1,.15.14A.29.29,0,0,1,199.65,28.47Z"/><path class="cls-1" d="M200.7,29.41a.14.14,0,0,1,.11.11A.23.23,0,0,1,200.7,29.41Z"/><path class="cls-1" d="M200.07,28.85a.14.14,0,0,1,.11.11A.15.15,0,0,1,200.07,28.85Z"/><path class="cls-1" d="M196.29,28.81a.15.15,0,0,1,.11.12C196.35,28.9,196.3,28.88,196.29,28.81Z"/><path class="cls-1" d="M196.18,28.71s.11,0,.12.11A.26.26,0,0,1,196.18,28.71Z"/><path class="cls-1" d="M195.94,28.5a.5.5,0,0,1,.15.14A.29.29,0,0,1,195.94,28.5Z"/><path class="cls-1" d="M195.66,28.25a.21.21,0,0,1,.15.15A.71.71,0,0,1,195.66,28.25Z"/><path class="cls-1" d="M199.39,28.24c.06,0,.08,0,.09.09A.2.2,0,0,1,199.39,28.24Z"/><path class="cls-1" d="M196.54,29.06a.19.19,0,0,1,.14.12S196.57,29.12,196.54,29.06Z"/><path class="cls-1" d="M205.9,32.14c-.08,0-.08-.09-.08-.14A.22.22,0,0,1,205.9,32.14Z"/><path class="cls-1" d="M195.81,28.39a.3.3,0,0,1,.14.11A.2.2,0,0,1,195.81,28.39Z"/><path class="cls-1" d="M200.46,29.23a.18.18,0,0,1,.11.08A.13.13,0,0,1,200.46,29.23Z"/><path class="cls-1" d="M197.31,26.33a.13.13,0,0,1,.11.09A.17.17,0,0,1,197.31,26.33Z"/><path class="cls-1" d="M199.48,28.32a.14.14,0,0,1,.11.09Z"/><path class="cls-1" d="M196,25.14s.07,0,.07.07S196,25.17,196,25.14Z"/><path class="cls-1" d="M197.38,29.83a.06.06,0,0,1,.07.07S197.38,29.87,197.38,29.83Z"/><path class="cls-1" d="M195.53,28.11a.1.1,0,0,1,.07.08S195.54,28.15,195.53,28.11Z"/><path class="cls-1" d="M195.6,28.18a.1.1,0,0,1,.07.08S195.6,28.22,195.6,28.18Z"/><path class="cls-1" d="M199.59,28.41l.07.06S199.59,28.46,199.59,28.41Z"/><path class="cls-1" d="M205.79,32l0-.05A.07.07,0,0,1,205.79,32Z"/><path class="cls-1" d="M197.34,29.78s0,0,0,0Z"/><path class="cls-1" d="M200.6,29.34l.07,0A.1.1,0,0,1,200.6,29.34Z"/><path class="cls-1" d="M197.45,29.9a.07.07,0,0,1,.08,0S197.46,29.94,197.45,29.9Z"/><path class="cls-1" d="M205.92,32.21s0,0,0-.08S205.92,32.18,205.92,32.21Z"/><path class="cls-1" d="M196,25.1l0,0Z"/><path class="cls-1" d="M200.28,29.06l0,0A0,0,0,0,1,200.28,29.06Z"/><path class="cls-1" d="M200.32,29.09l0,0S200.32,29.12,200.32,29.09Z"/><path class="cls-1" d="M200.24,29l0,0S200.25,29.05,200.24,29Z"/><path class="cls-1" d="M200.81,29.51l0,0S200.81,29.53,200.81,29.51Z"/><path class="cls-1" d="M200.67,29.37l0,0S200.67,29.4,200.67,29.37Z"/><path class="cls-1" d="M205.82,32a.05.05,0,0,1,0-.05A.05.05,0,0,1,205.82,32Z"/><path class="cls-1" d="M200.56,29.31l0,0S200.56,29.33,200.56,29.31Z"/><path class="cls-1" d="M196.05,25.21l0,0Z"/><path class="cls-1" d="M197.23,26.26a.1.1,0,0,1,.05,0S197.24,26.28,197.23,26.26Z"/><polygon class="cls-1" points="224.8 34.58 224.81 34.58 224.81 34.57 224.8 34.58"/><polygon class="cls-1" points="195.19 34.58 195.2 34.58 195.2 34.58 195.19 34.58"/><path class="cls-1" d="M198.52,35.5h.1c.13,0,.13,0,.13-.13s0-.51,0-.77c0-.05-.11,0-.16,0h-.66c-.05,0-.09,0-.1,0V32c0-.15,0-.16.16-.16h.54c.21,0,.21,0,.21-.21s0-.44,0-.66c0-.06-.13,0-.19,0h-3.29c-.09,0-.12,0-.11.11v.75s0,.06,0,.07c.26,0,.53,0,.79,0,.08,0,.1,0,.09.11v.64c0,.13,0,.13-.13.13h-2.41s-.1,0-.1-.06c0-.25,0-.49,0-.74,0-.08.05-.08.11-.08h.55c.27,0,.24,0,.24-.25a2.94,2.94,0,0,0,0-.42.24.24,0,0,1,0-.16c0-.12-.11-.09-.18-.09h-3.3c-.13,0-.13,0-.13.12v.68c0,.05,0,.11,0,.13.26,0,.53,0,.79,0,.08,0,.1,0,.09.11v2.45c0,.19,0,.19-.19.19h-.65c-.06,0-.09,0-.09.09v.76s0,.08.07.08h3.37c.12,0,.13,0,.13-.13s0-.35,0-.52a.31.31,0,0,1,0-.19l0,0h0l0,0h-.76c-.06,0-.11,0-.11-.06v-.75s0-.07.08-.07H196c.06,0,.05.05.05.09v.56c0,.25,0,.23-.25.23s-.42,0-.63,0h0a8.42,8.42,0,0,0,0,.87s0,0,.07,0h3.28Z"/><path class="cls-1" d="M200.42,29.2a0,0,0,0,1,0,0A0,0,0,0,1,200.42,29.2Z"/><path class="cls-1" d="M200.39,29.16l0,0S200.39,29.19,200.39,29.16Z"/><path class="cls-1" d="M197.27,26.3s0,0,0,0Z"/><path class="cls-1" d="M200.18,29l0,0S200.18,29,200.18,29Z"/><path class="cls-1" d="M200.35,29.13l0,0S200.36,29.15,200.35,29.13Z"/><polygon class="cls-1" points="224.8 34.58 224.8 34.58 224.81 34.58 224.8 34.58"/><path class="cls-1" d="M226.4,35.57h3.39c.09,0,.12,0,.12-.12v-.86c-.06,0-.12,0-.18,0-.23,0-.45,0-.67,0-.05,0-.06,0-.08-.05-.14-.24-.24-.51-.39-.74a.15.15,0,0,1,0-.07,1.07,1.07,0,0,1-.25-.44s0,0,0-.07a.08.08,0,0,1,0-.07s0,0,0,0c-.12-.26-.26-.52-.39-.77s-.28-.48-.4-.73a4.34,4.34,0,0,0-.38-.66.19.19,0,0,0-.19-.1h-3.53c-.14,0-.14,0-.14.14v.75c0,.05,0,.11.05.13.32,0,.64,0,1,0,0,0,.07,0,.08,0s0,.05-.06.08-.18.33-.29.49-.32.6-.52.89-.41.76-.65,1.12a.22.22,0,0,1-.24.13h-.64c-.07,0-.12,0-.11.09v.84s0,.07.07.07h2.77c.16,0,.16,0,.17-.17v-.55a.4.4,0,0,1,0-.19s0-.06,0-.08c-.24,0-.48,0-.73,0a.09.09,0,0,1-.11,0s0-.07,0-.1.17-.27.25-.42a.14.14,0,0,1,.16-.09h2.08c.08,0,.14,0,.15.1a2.73,2.73,0,0,1,.29.51h-.73c-.05,0-.09,0-.09.07v.87c0,.05,0,.06.07.06ZM225,33h0c-.12,0-.12,0-.08-.08a5.35,5.35,0,0,1,.41-.74l.08-.13c.06-.1.06-.1.12,0,.15.29.33.56.47.86,0,0,0,0,0,.07Z"/><path class="cls-1" d="M225.54,32l-.35.58L225,33c-.12,0-.12,0-.08-.08a5.35,5.35,0,0,1,.41-.74l.08-.13C225.48,31.91,225.48,31.91,225.54,32Z"/><path class="cls-1" d="M219,35.49a4.46,4.46,0,0,0,1.09-.09A2.92,2.92,0,0,0,221,35a.93.93,0,0,0,.21-.23,4.46,4.46,0,0,0,.35-.5,1.56,1.56,0,0,0,.21-.58,2.45,2.45,0,0,0,0-1.26.64.64,0,0,0-.13-.26s-.05-.06,0-.1-.11-.14-.16-.22a1.84,1.84,0,0,0-1-.72,4,4,0,0,0-1.49-.24l-.55,0h-3.58c-.07,0-.1,0-.1.09v.77s0,.07,0,.07a5.3,5.3,0,0,1,.69,0c.08,0,.11,0,.07.11V34.4c0,.17,0,.17-.17.17h-.54c-.07,0-.1,0-.1.09v.77s0,.07.07.07h.59C216.57,35.5,217.76,35.51,219,35.49ZM217.41,32v-.09c0-.08,0-.11.12-.11.41,0,.82,0,1.22,0a1.15,1.15,0,0,1,.86.4,1.68,1.68,0,0,1,.48,1,.9.9,0,0,1-.05.37,1.09,1.09,0,0,1-.65.78l-.22.09a1,1,0,0,1-.21.09h-1.45s-.06,0-.08,0,0,0,0,0a.49.49,0,0,1,0-.12Z"/><polygon class="cls-1" points="205.82 32 205.82 32 205.82 32 205.82 32"/><polygon class="cls-1" points="205.79 31.95 205.79 31.96 205.79 31.96 205.79 31.95"/><polygon class="cls-1" points="205.89 32.13 205.89 32.13 205.9 32.14 205.89 32.13"/><polygon class="cls-1" points="199.93 35.01 199.94 35.01 199.94 35.01 199.93 35.01"/><path class="cls-1" d="M200.14,35.1a3.54,3.54,0,0,0,1.44.5,7.2,7.2,0,0,0,1.14.07,4.48,4.48,0,0,0,1.84-.37,2.34,2.34,0,0,0,.61-.36,2.43,2.43,0,0,0,.68-.78,2.34,2.34,0,0,0,.18-.69,3.09,3.09,0,0,0,0-.68,1,1,0,0,0-.06-.34.34.34,0,0,1,0-.22s0,0,0,0,0,0,0-.08a.12.12,0,0,1-.07-.13.05.05,0,0,1,0,0l0-.05a.51.51,0,0,0-.15-.21,3.21,3.21,0,0,0-.71-.55,5.2,5.2,0,0,0-1.11-.43,4.65,4.65,0,0,0-1.39-.12,6,6,0,0,0-1,.14,5.77,5.77,0,0,0-1.23.47,2.27,2.27,0,0,0-.81.73,2,2,0,0,0-.33,1,2.22,2.22,0,0,0,.3,1.33,3.57,3.57,0,0,0,.38.49c.08.08.2.14.25.25A.4.4,0,0,1,200.14,35.1Zm1.34-3.1a1.34,1.34,0,0,1,1.27-.43,1.3,1.3,0,0,1,.67.31s.06,0,.05.08a.07.07,0,0,1,.07,0,.08.08,0,0,1,.07.07h0l0,0h0l0,0h0l0,0a.08.08,0,0,0,0,0,1.5,1.5,0,0,1,.17,1.5,1.35,1.35,0,0,1-.24.46,1.43,1.43,0,0,1-1.64.46l-.16-.08a1.18,1.18,0,0,1-.43-.34h0s0,0,0,0h0a.13.13,0,0,1-.07-.1h0a1.48,1.48,0,0,1-.28-.7A1.54,1.54,0,0,1,201.48,32Z"/><polygon class="cls-1" points="203.54 32 203.54 32 203.54 32 203.54 32"/><polygon class="cls-1" points="203.47 31.96 203.47 31.96 203.47 31.96 203.47 31.96"/><path class="cls-1" d="M203.47,32a2.26,2.26,0,0,0-.43-.24,1.6,1.6,0,0,0-.72-.06,1.39,1.39,0,0,0-.78.44,1.69,1.69,0,0,0-.38.74,1.66,1.66,0,0,0,.14,1.07.58.58,0,0,1,0,.14,1.43,1.43,0,0,1-.29-.71,1.54,1.54,0,0,1,.42-1.35,1.34,1.34,0,0,1,1.27-.43,1.3,1.3,0,0,1,.67.31S203.48,31.92,203.47,32Z"/><path class="cls-1" d="M201.34,34.05a.2.2,0,0,1,.08.12A.11.11,0,0,1,201.34,34.05Z"/><path class="cls-1" d="M203.61,32.07l-.07-.07A.08.08,0,0,1,203.61,32.07Z"/><path class="cls-1" d="M203.54,32a.08.08,0,0,1-.07,0A.07.07,0,0,1,203.54,32Z"/><path class="cls-1" d="M201.41,34.16s0,0,0,.05S201.42,34.18,201.41,34.16Z"/><path class="cls-1" d="M203.68,32.14l0,0Z"/><path class="cls-1" d="M203.72,32.17s0,0,0,0Z"/><path class="cls-1" d="M203.65,32.1l0,0Z"/></g></g></svg>