<svg xmlns="http://www.w3.org/2000/svg" viewBox="0 0 1334.33 75.45"><defs><style>.cls-1{fill:#606060;}.cls-2{fill:#a9a9a9;}.cls-3{fill:#fefefe;}.cls-4{fill:#aaa;}.cls-5{fill:#a0a0a2;}.cls-6{fill:#7e7e80;}.cls-7{fill:#767676;}.cls-8{fill:#fdfdfd;}.cls-9{fill:#bc070a;}.cls-10{fill:#bc090b;}.cls-11{fill:#be0411;}</style></defs><g id="Capa_2" data-name="Capa 2"><g id="Capa_1-2" data-name="Capa 1"><path class="cls-1" d="M1285.26,4.07a.78.78,0,0,0,.2.16L1306.8,19l.2.15a.4.4,0,0,1-.17.15,20.63,20.63,0,0,1-7.37,3.11,13.3,13.3,0,0,1-3.67.24,11.15,11.15,0,0,1-5.67-2l-10-6.83c-.24-.16-.24-.16-.47,0l-1,.67L1307,34.34a.43.43,0,0,1-.22.1,39,39,0,0,0-4.41,1.89,87.46,87.46,0,0,0-13.79,8.49,33.54,33.54,0,0,0-3.22,2.72c-.13.13-.1.12-.29,0l-6.93-4.79-14.45-10a.66.66,0,0,1-.21-.17c.12-.09.24-.18.37-.26a20.9,20.9,0,0,1,6.8-2.9,14.46,14.46,0,0,1,3.71-.35,11.43,11.43,0,0,1,6,2l10,6.85.14.1a.11.11,0,0,0,.15,0l1.18-.77-28.3-19.83c0-.06,0-.07,0-.07a37.47,37.47,0,0,0,4.91-2.12,87.53,87.53,0,0,0,13.47-8.33,32.5,32.5,0,0,0,3.11-2.63c.06,0,.15-.09.16-.19Z"/><path class="cls-1" d="M1334.33,69.43H1329c-.09,0-.14,0-.13-.12V55.18c0-.29,0-.26.25-.26,1.67,0,3.33,0,5,0h.21Z"/><path class="cls-1" d="M1236.32,65.41c0-.22,0-.44,0-.66h6.59a.37.37,0,0,1,.37.22,3.45,3.45,0,0,0,.8.94,2.44,2.44,0,0,0,1.41.54,4.7,4.7,0,0,0,1.54-.15,1.54,1.54,0,0,0,.57-.29.82.82,0,0,0,.1-1.19,1.37,1.37,0,0,0-.51-.35,4.74,4.74,0,0,0-1.18-.29c-.43,0-.88,0-1.31-.08a23.88,23.88,0,0,1-4.89-.87,7.27,7.27,0,0,1-1.48-.66,3.4,3.4,0,0,1-1.68-2.89,4,4,0,0,1,1.94-3.78,4.86,4.86,0,0,1,.77-.43,9.53,9.53,0,0,1,2.66-.76,19.84,19.84,0,0,1,4.49-.14,13.43,13.43,0,0,1,3.81.76,6.32,6.32,0,0,1,1.92,1.09,3.79,3.79,0,0,1,1.38,2.41,3.42,3.42,0,0,1,0,.45c0,.11,0,.15-.14.14h-5.81a.4.4,0,0,1-.37-.2,3.11,3.11,0,0,0-2-1.38,3.78,3.78,0,0,0-2,.16,1,1,0,0,0-.71.77.55.55,0,0,0,.22.57,2,2,0,0,0,.62.29,11.36,11.36,0,0,0,1.74.33c1.14.15,2.3.25,3.43.48a12.33,12.33,0,0,1,3.15,1,6,6,0,0,1,1.16.77,3.61,3.61,0,0,1,.75,4.66,4.53,4.53,0,0,1-1.38,1.41,7.77,7.77,0,0,1-2.5,1,14,14,0,0,1-2.74.4l-.83,0H1245c-.63,0-1.26,0-1.89-.1a14.47,14.47,0,0,1-3.74-.71,5.76,5.76,0,0,1-1.55-.82,3.7,3.7,0,0,1-1.45-2.42C1236.35,65.62,1236.33,65.52,1236.32,65.41Z"/><path class="cls-1" d="M1315,59.92l1-.89,4.63-4a.48.48,0,0,1,.36-.14c2.24,0,4.49,0,6.73,0h.2l0,.05-8.22,7,8,7.4c0,.08-.08.05-.12.05h-7a.47.47,0,0,1-.33-.16L1315.75,65l-.61-.58-.15-.13v4.87c0,.29,0,.26-.27.26h-5c-.27,0-.26,0-.26-.25v-14c0-.27,0-.26.26-.26h5c.23,0,.21,0,.21.22v4.79Z"/><path class="cls-1" d="M1281.81,65.74h8.13c.18,0,.18,0,.18.19v3.32c0,.18,0,.18-.19.18h-16.35c-.34,0-.3,0-.3-.31,0-.84,0-1.69,0-2.53a.51.51,0,0,1,.18-.42q3.93-3.66,7.85-7.33a2.68,2.68,0,0,0,.24-.24h-7.69c-.33,0-.29,0-.29-.29,0-1,0-2.07,0-3.11,0-.32,0-.28.27-.28h16c.33,0,.28-.05.28.29,0,.85,0,1.71,0,2.56a.49.49,0,0,1-.18.41q-3.95,3.6-7.87,7.22l-.31.29Z"/><path class="cls-1" d="M1263.13,69.78h-.57a1.63,1.63,0,0,0-.38,0,18.5,18.5,0,0,1-2.47-.29,8,8,0,0,1-1.8-.55,3.87,3.87,0,0,1-2.34-3.11,7.64,7.64,0,0,1-.1-1.26V55.12c0-.22,0-.21.2-.21h4.84c.21,0,.21,0,.21.23v8.5a2.76,2.76,0,0,0,.09.81,2.09,2.09,0,0,0,1,1.28,3.16,3.16,0,0,0,1.31.42,4.8,4.8,0,0,0,2.06-.16,2.69,2.69,0,0,0,1.09-.67,2.07,2.07,0,0,0,.59-1.37c0-.12,0-.24,0-.36V55.18c0-.29,0-.27.27-.27h4.79c.2,0,.2,0,.2.2V64.3a8.5,8.5,0,0,1-.18,1.88,3.8,3.8,0,0,1-2.12,2.68,8.3,8.3,0,0,1-2.19.67,21.19,21.19,0,0,1-2.25.24,1.7,1.7,0,0,0-.39,0,2.46,2.46,0,0,0-.47,0Z"/><path class="cls-1" d="M1301.35,69.77a1.7,1.7,0,0,0-.39,0,2.46,2.46,0,0,0-.47,0h-1.4a18.5,18.5,0,0,1-.86,0,17.19,17.19,0,0,1-2.77-.34,7.28,7.28,0,0,1-1.87-.65,3.79,3.79,0,0,1-2-2.84,9.19,9.19,0,0,1-.14-1.65V55.12c0-.2,0-.21.21-.21h4.84c.24,0,.21,0,.21.23v8.53a2.85,2.85,0,0,0,.07.71,2.14,2.14,0,0,0,1.24,1.46,3.29,3.29,0,0,0,1.1.31,4.66,4.66,0,0,0,2.19-.21,3,3,0,0,0,.88-.53,2.05,2.05,0,0,0,.66-1.37c0-.15,0-.3,0-.45V55.21c0-.34,0-.29.29-.29h4.67a.86.86,0,0,0,.16,0c.09,0,.14,0,.13.13v.07c0,3.18,0,6.35,0,9.53a6.38,6.38,0,0,1-.25,1.84,3.71,3.71,0,0,1-1.87,2.29,7.49,7.49,0,0,1-2.09.71A18.12,18.12,0,0,1,1301.35,69.77Z"/><path class="cls-1" d="M416.57,64.56h-5.88c-.37,0-.42-.3-.55-.52l-5.41-9.38c-.13-.21-.25-.43-.46-.78-.25,1.37-.48,2.6-.7,3.84l-1.11,6.37c0,.21,0,.46-.37.46h-4.54c.62-3.65,1.23-7.22,1.84-10.8l1.86-10.87c.16-1,.14-1,1.09-1s2.19,0,3.28,0c.49,0,.62.12.54.61-.49,2.84-1,5.68-1.43,8.52-.05.26-.07.52-.11.82a1.25,1.25,0,0,0,.58-.45q4.47-4.52,8.91-9a1.38,1.38,0,0,1,1.07-.45c1.66,0,3.32,0,5,0,0,.3-.25.41-.4.56-3.12,3.28-6.24,6.56-9.4,9.8a1.06,1.06,0,0,0-.2,1.57c2,3.31,4,6.66,6,10C416.29,64.05,416.4,64.27,416.57,64.56Z"/><path class="cls-1" d="M505.59,64.56c.53-3.22,1-6.38,1.57-9.53a1.67,1.67,0,0,0-.17-1.1q-2.79-5.61-5.56-11.23l-.38-.78h1.18c1.21,0,2.42,0,3.62,0a.78.78,0,0,1,.83.52c1.23,2.51,2.48,5,3.74,7.54a7.45,7.45,0,0,0,1.12-1.28c1.73-2.11,3.44-4.23,5.17-6.35.15-.19.25-.43.57-.42h5l-3,3.73c-2.24,2.75-4.45,5.53-6.73,8.24a4.82,4.82,0,0,0-.8,2.55c-.46,2.52-.85,5.05-1.28,7.58,0,.23,0,.54-.36.54Z"/><path class="cls-1" d="M425.67,64.56c-2.28,0-4.56,0-6.83,0-.49,0-.57-.15-.49-.58q1.13-6.12,2.23-12.24c.08-.45.25-.57.7-.56q6.74,0,13.46,0c.58,0,.62.2.53.67-.23,1.2-.46,2.4-.63,3.61-.07.49-.27.58-.7.58-2.85,0-5.7,0-8.54,0-.62,0-.82.21-.92.76-.13.79-.31,1.56-.51,2.33-.13.48,0,.61.5.6,2.89,0,5.78,0,8.67,0,.6,0,.75.15.63.72-.23,1.18-.46,2.36-.62,3.55-.07.49-.23.63-.72.62C430.18,64.55,427.92,64.56,425.67,64.56Z"/><path class="cls-1" d="M443.72,64.56c-2.28,0-4.56,0-6.83,0-.43,0-.55-.09-.47-.53.76-4.1,1.52-8.21,2.25-12.31.08-.44.23-.54.65-.54q6.8,0,13.59,0c.43,0,.54.08.46.52-.25,1.25-.48,2.5-.66,3.75-.06.47-.24.58-.69.58-2.85,0-5.69,0-8.54,0-.61,0-.83.2-.92.76a21.07,21.07,0,0,1-.51,2.33c-.15.52,0,.6.51.6,2.91,0,5.83,0,8.74,0,.49,0,.69,0,.57.62-.26,1.22-.47,2.45-.64,3.68-.07.52-.29.6-.75.59C448.23,64.55,446,64.56,443.72,64.56Z"/><path class="cls-1" d="M437.68,46.72c-5.15,0-10.29,0-15.44,0-.58,0-.67-.15-.57-.69.23-1.17.43-2.36.58-3.55.06-.49.25-.56.69-.56h15.72c5,0,10.11,0,15.17,0,.62,0,.7.17.6.72-.22,1.13-.4,2.27-.55,3.42-.07.54-.28.68-.82.67C447.93,46.71,442.81,46.72,437.68,46.72Z"/><path class="cls-1" d="M358.57,54.24c-1-.27-1.9-.54-2.82-.77-.43-.1-.35-.41-.35-.69a18.05,18.05,0,0,1,4-11.41,18.66,18.66,0,0,1,31.27,3.09c.39.75.37.69-.45.94a1.11,1.11,0,0,1-1.53-.64A16.17,16.17,0,0,0,358.75,50,16.75,16.75,0,0,0,358.57,54.24Z"/><path class="cls-1" d="M391.75,47.3A18.56,18.56,0,0,1,361.92,67c.77-.49,1.54-1,2.29-1.44.31-.21.45,0,.64.17A16,16,0,0,0,373.52,69a16.18,16.18,0,0,0,16.65-11.34,15.85,15.85,0,0,0,.38-8,1.26,1.26,0,0,1,.36-1.33C391.2,48,391.44,47.67,391.75,47.3Z"/><path class="cls-1" d="M390.46,46.74a83.24,83.24,0,0,1-8,9.26,75.49,75.49,0,0,1-7,6.33c-.69-.74-.69-.74,0-1.38a86.31,86.31,0,0,0,11-12l.32-.44a2.16,2.16,0,0,0-1,.13,65.58,65.58,0,0,1-18.54,1.2.79.79,0,0,1-.61-.24c-1-1.19-2-2.38-3.14-3.66,1.49.24,2.85.47,4.22.67a80,80,0,0,0,16.22.55c2.09-.13,4.17-.38,6.25-.62C390.3,46.5,390.48,46.46,390.46,46.74Z"/><path class="cls-1" d="M382.35,51.44a57.11,57.11,0,0,1-14.14,13c-.46-.55-.36-.92.23-1.37a57.82,57.82,0,0,0,9.75-9.4l.39-.5c-2.27.34-4.44.64-6.62.87a47.45,47.45,0,0,1-9.68-.23.62.62,0,0,1-.49-.32l-1.91-2.82A52.61,52.61,0,0,0,382.35,51.44Z"/><path class="cls-1" d="M370,57.48c-1.58.16-3.17.14-4.76.17a57.67,57.67,0,0,1-8.9-.74c-.39-.06-.6-.19-.62-.64s-.16-1.15-.25-1.82A46,46,0,0,0,373.8,56c0,.36-.27.47-.43.64A55.44,55.44,0,0,1,361.22,66c-.38.22-.51.06-.71-.19s.12-.42.28-.53a55.47,55.47,0,0,0,8.7-7.11,6.47,6.47,0,0,1,.57-.47Z"/><path class="cls-1" d="M356.11,58c1.12.16,2.15.31,3.18.44.27,0,.3.25.37.43a14.81,14.81,0,0,0,2.24,3.87c.22.27.19.4-.09.57-.57.37-1.14.74-1.69,1.15-.31.23-.49.24-.75-.1A18.28,18.28,0,0,1,356.11,58Z"/><path class="cls-1" d="M390.46,46.74c-.06-.14-.21-.15-.33-.19.16-.11.35-.19.5,0S390.56,46.69,390.46,46.74Z"/><path class="cls-1" d="M489.81,41.92c-1.43,0-2.86,0-4.29,0a.81.81,0,0,0-.9.58c-2.21,5-4.45,10-6.68,15a1.48,1.48,0,0,1-.46.75c-.26-2.26-.5-4.44-.75-6.63-.35-3.06-.71-6.13-1-9.2,0-.43-.17-.56-.61-.55-1.46,0-2.92,0-4.37,0a.84.84,0,0,0-.94.63q-3.09,7.38-6.2,14.74l-.5,1.13c-.3-2.51-.57-4.83-.84-7.16-.34-2.93-.69-5.86-1-8.79,0-.42-.18-.56-.62-.55-1.37,0-2.73,0-4.1,0-.4,0-.5.09-.43.49.34,2.18.65,4.36,1,6.53.76,5,1.53,10,2.27,15.08.07.48.25.57.69.56,1.48,0,3,0,4.44,0a.85.85,0,0,0,.94-.64q3-7.26,6-14.51c.1-.23.21-.46.39-.85.57,5.22,1.13,10.25,1.65,15.28.06.55.21.73.78.72,1.45,0,2.91,0,4.37,0a.9.9,0,0,0,1-.61q5-10.69,10-21.37A1.13,1.13,0,0,0,489.81,41.92Z"/><path class="cls-1" d="M504.44,64.07Q501.8,53.24,499.2,42.4c-.09-.41-.27-.49-.64-.49-1.28,0-2.55,0-3.83,0a.93.93,0,0,0-1,.55Q487.57,53.23,481.32,64a.88.88,0,0,0-.23.6c1.5,0,3,0,4.48,0a.79.79,0,0,0,.84-.51c.77-1.46,1.59-2.9,2.36-4.37a.77.77,0,0,1,.79-.47q4,0,8.06,0c.43,0,.58.13.66.54.24,1.43.54,2.85.79,4.28.07.42.24.54.66.53,1.44,0,2.87,0,4.31,0C504.43,64.57,504.54,64.49,504.44,64.07Zm-7.38-9.26c-.24.29-1.06.09-1.63.1-1.18,0-2.36,0-3.55,0-.22,0-.51.06-.3-.35L495.43,47c.49,2.15.95,4.15,1.39,6.16C496.94,53.72,497.37,54.43,497.06,54.81Z"/><path class="cls-1" d="M20,52.64c-.28,0-.7.12-.69-.25s.42-.22.69-.21a5.92,5.92,0,0,0,4.36-5.31,6.17,6.17,0,0,0-3.07-6.2,10.59,10.59,0,0,0-5.85-1.59q-7,0-14,0c-.51,0-1.22-.27-1.38.57S.39,40.8,1,41c1.05.37,1.23,1.11,1.22,2.13q-.06,10,0,20c0,1.28,0,2.41-1.55,2.82A.86.86,0,0,0,0,67.09c.14.54.63.53,1.05.6a3.11,3.11,0,0,0,.53,0H16.16a10.28,10.28,0,0,0,3-.4,8.47,8.47,0,0,0,6-7.86A7.33,7.33,0,0,0,20,52.64Zm-9-6c0-.56,0-1.13,0-1.69s-.33-1.55.61-1.94a3.05,3.05,0,0,1,3.1.29c1.2.87,1.71,3.64,1.06,5.48-.38,1.09-1.95,1.83-3.62,1.76-.78,0-1.21-.3-1.17-1.17S11,47.59,11,46.68ZM16.1,61.44c-.41,2-3,2.55-4.42,2a1.06,1.06,0,0,1-.63-1.16c0-1.13,0-2.26,0-3.39s0-2.26,0-3.39c0-.54.13-1,.67-1.12,1.91-.47,4.07,0,4.52,2.46A12.16,12.16,0,0,1,16.1,61.44Z"/><path class="cls-1" d="M73.86,65.9c-.89-.33-1-1-1-1.84.05-1.87,0-3.74,0-5.61s0-4,0-6a6.26,6.26,0,0,0-3.68-5.86,8.66,8.66,0,0,0-8.6.6c-.35.22-.69.75-1.12.5s-.15-.8-.16-1.21c0-1.53-.45-1.8-1.84-1.14-2.67,1.27-5.33,2.57-8,3.85-.4.19-.82.41-.84.9s.42.74.85.85c1,.26,1.17.9,1.15,1.85-.06,3.57-.07,7.14,0,10.71,0,1.2-.12,2.11-1.42,2.5a.87.87,0,0,0-.67,1c.1.55.55.62,1,.62H60c.45,0,.9,0,1-.58a.85.85,0,0,0-.63-1c-1.18-.37-1.27-1.23-1.18-2.24,0-.52,0-1,0-1.57,0-2.87,0-5.74,0-8.62a2.48,2.48,0,0,1,1.6-2.46c2-.82,3.72.22,3.77,2.47.07,3.39,0,6.79,0,10.19,0,1-.08,1.77-1.18,2.13-.5.16-1,.52-.76,1.18s.73.52,1.21.52c3.19,0,6.37,0,9.56,0,.51,0,1.12.12,1.29-.57S74.36,66.09,73.86,65.9Z"/><path class="cls-1" d="M96.47,60.07a1.5,1.5,0,0,0-2.12.1,11.94,11.94,0,0,1-4.23,2.51,5.92,5.92,0,0,1-6.32-2c-.52-.74-.67-1.14.46-1.52,3.72-1.23,7.38-2.63,11.08-3.91,1-.35,1.29-.9,1-1.87a10.68,10.68,0,0,0-6.87-7.49c-7.39-2.68-15,3-15,11.27a9.57,9.57,0,0,0,.37,3,10.72,10.72,0,0,0,9.37,8.24c5.06.53,10.4-2.13,12.51-6.19A1.5,1.5,0,0,0,96.47,60.07ZM82,53.39c.09-3,2.35-5,4.79-4.15a3,3,0,0,1,1.67,1.37c.82,1.43.62,2-.91,2.55-1.31.46-2.63.9-3.94,1.35C82.1,55,81.93,54.92,82,53.39Z"/><path class="cls-1" d="M48.39,60.05a1.45,1.45,0,0,0-2,.05A12.44,12.44,0,0,1,42,62.67a5.85,5.85,0,0,1-6.45-2.25c-.41-.66-.42-1,.44-1.25,3.66-1.24,7.29-2.57,10.93-3.88,1.46-.52,1.71-.92,1.2-2.41a10.65,10.65,0,0,0-7.43-7.25C33.41,43.58,26.5,49.12,26.48,57a11,11,0,0,0,1.74,6.45,10.55,10.55,0,0,0,10,5A12.52,12.52,0,0,0,48.78,62,1.38,1.38,0,0,0,48.39,60.05ZM33.9,53.4c.05-3,2.47-5,4.93-4.12a2.87,2.87,0,0,1,1.55,1.34c.79,1.44.57,2-1,2.56l-3.95,1.36C34.05,55,33.87,54.89,33.9,53.4Z"/><path class="cls-1" d="M108.2,65.91c-.88-.34-1-1-1-1.84,0-4,0-8.1,0-12.14V39.39c0-1.48-.37-1.71-1.73-1.06-2.71,1.28-5.41,2.59-8.11,3.89-.43.2-.92.37-.9,1s.5.8,1,.91c.93.22,1.16.76,1.15,1.69,0,6,0,11.93,0,17.89,0,1.08-.16,1.84-1.25,2.24-.46.16-.9.48-.8,1s.73.63,1.26.63c3.32,0,6.63,0,9.95,0,.51,0,1.12.12,1.3-.57S108.7,66.1,108.2,65.91Z"/><path class="cls-1" d="M121.62,65.88c-.86-.3-1-.89-1-1.72,0-4.1,0-8.19,0-12.28s0-8.35,0-12.53c0-1.39-.41-1.65-1.65-1.06q-4.12,2-8.23,3.94c-.43.2-.93.38-.89,1s.52.8,1,.89c1,.2,1.11.82,1.11,1.7,0,6,0,11.92,0,17.89,0,1-.1,1.85-1.22,2.24-.46.16-.92.48-.79,1s.73.64,1.28.64h9.94c.51,0,1.12.13,1.27-.59S122.13,66.05,121.62,65.88Z"/><path class="cls-1" d="M135.14,65.84c-.8-.3-.93-.84-.92-1.62.05-2.57,0-5.14,0-7.7s0-5.4,0-8.1c0-1.31-.39-1.56-1.58-1q-4.12,1.95-8.24,3.94c-.42.2-.93.36-.93,1s.56.85,1.06,1c.88.22,1.09.73,1.07,1.61-.06,3,0,6,0,9,0,.93-.12,1.57-1.09,1.92-.5.17-1.13.48-.91,1.22s.8.55,1.32.55c3.28,0,6.55,0,9.82,0,.51,0,1.13.12,1.31-.55S135.66,66,135.14,65.84Z"/><path class="cls-1" d="M129.77,47.18a4.64,4.64,0,1,0-4.57-4.58A4.61,4.61,0,0,0,129.77,47.18Z"/><path class="cls-1" d="M20,52.64v-.46C19.77,52.33,19.77,52.49,20,52.64Z"/><path class="cls-1" d="M811.8,46.85c-1.63,4.48-3.28,9-4.87,13.46a1.61,1.61,0,0,1-1.9,1.31c-1.26-.12-2.54,0-4,0l5.33-14.69c-.35-.47-.86-.22-1.29-.23-1.78,0-3.56,0-5.34,0-.45,0-1,.17-1.24-.4l1.36-3.91h41.45A17.15,17.15,0,0,1,840,46.28a2.14,2.14,0,0,1-1.57.38c-1.82,0-3.64,0-5.46,0-.35,0-.75-.18-1,.2-1.65,4.53-3.32,9.05-4.91,13.6-.32.92-.78,1.28-1.73,1.13a4.8,4.8,0,0,0-.85,0c-3.26,0-3.25,0-2.14-3.07,1.41-3.88,2.8-7.76,4.2-11.64-.18-.32-.49-.22-.76-.22H812.59C812.31,46.66,812,46.59,811.8,46.85Z"/><path class="cls-1" d="M790.47,50.43c-1.16,4.12-1.16,4.12-5.41,4.12h-.85c-2.64,0-2.64,0-3.35,2.51.39.4.89.2,1.33.2,2.87,0,5.75,0,8.62,0a2.73,2.73,0,0,1,1.39.12,1.2,1.2,0,0,1,0,.28c-.52,1.28-.56,3-1.61,3.73s-2.56.17-3.88.18H773.53c1-2.74,1.9-5.35,2.84-8s2.06-5.46,3-8.23a4.54,4.54,0,0,1,2.35-3.06h15.89a11.88,11.88,0,0,1-1.71,4.43,89.4,89.4,0,0,0-11.34.07l-2.12,5.61c1.44-.5,1.87-1.82,3-2.29a20.39,20.39,0,0,0,3.58.14A3.32,3.32,0,0,1,790.47,50.43Z"/><path class="cls-1" d="M887.29,42.34a12.54,12.54,0,0,1-1.71,4.44c-3.37-.27-6.74-.08-10.12-.1a11.36,11.36,0,0,0-3.72.16,3.28,3.28,0,0,0-2.28,2.4c-1.33,3.8-2.75,7.58-4.09,11.38-.25.71-.56,1.05-1.39,1a29.67,29.67,0,0,0-3.4,0c-.84,0-.91-.2-.63-1,1.9-5.13,3.79-10.26,5.6-15.42a5.17,5.17,0,0,1,3-2.88Z"/><path class="cls-1" d="M766.36,57.1a3.58,3.58,0,0,0,2.11-2.43c1.43-4.12,2.95-8.22,4.43-12.33h5.39c-1.9,5.24-3.78,10.49-5.69,15.73-1,2.67-2.19,3.5-5.1,3.51-5,0-10,0-15,0v-.28l1.63-3.93c3.58-.25,7.17,0,10.76-.12C765.35,57.25,765.89,57.43,766.36,57.1Z"/><path class="cls-1" d="M811.8,46.85c.28-.45.74-.32,1.15-.32H825.4c.4,0,.87-.13,1.13.35Z"/><path class="cls-1" d="M871.74,46.84c-.2-.43.17-.31.34-.31h12.73a.9.9,0,0,1,.77.25Z"/><path class="cls-1" d="M784.54,46.84c.21-.33.55-.31.88-.31h9.69a1,1,0,0,1,.77.24Z"/><path class="cls-1" d="M792.2,57.4c-3.31,0-6.61,0-9.92,0-.48,0-1.06.23-1.42-.33,3.38,0,6.75,0,10.12,0C791.39,57.11,791.93,56.79,792.2,57.4Z"/><path class="cls-1" d="M798.5,46.25c2.09.6,4.22.11,6.33.28.52,0,1.16-.27,1.54.37-2.36,0-4.72,0-7.08-.08C799,46.81,798.18,47.21,798.5,46.25Z"/><path class="cls-1" d="M832,46.87c.4-.59,1-.3,1.54-.34,2.17-.14,4.36.27,6.52-.25-.13.75-.74.55-1.21.56C836.53,46.86,834.24,46.86,832,46.87Z"/><path class="cls-1" d="M790.47,50.43c-1.69-.16-3.42.34-5.08-.27l4.63-.09C790.26,50.06,790.49,50.1,790.47,50.43Z"/><path class="cls-1" d="M861.46,42.34H845a3.85,3.85,0,0,0-2.38,2.87c-.38,1.29-.93,2.53-1.36,3.81-1,3.08-2.44,6-3.18,9.21-.49,2.11.45,3.3,2.6,3.33,4.87.06,9.75,0,14.62,0A2.7,2.7,0,0,0,858,59.94c1.68-4.63,3.56-9.19,5-13.92C863.54,44.15,863.14,43.37,861.46,42.34Zm-4.69,6.25c-.8,2.32-1.66,4.63-2.48,6.95a2.37,2.37,0,0,1-1.37,1.5h0a.58.58,0,0,1-.55.35H845.3a.61.61,0,0,1-.57-.33,1.43,1.43,0,0,1-.35-1.75c.85-2.26,1.62-4.55,2.42-6.84a2.29,2.29,0,0,1,2.47-1.65c2.08,0,4.16,0,6.24,0C856.85,46.85,857.21,47.33,856.77,48.59Z"/><path class="cls-1" d="M850.46,57.24a4.39,4.39,0,0,0,2.46-.2l-8.19,0C846.63,57.51,848.55,57.18,850.46,57.24Z"/><path class="cls-1" d="M921.35,42.34a3.75,3.75,0,0,0-.87,1.25,15.74,15.74,0,0,1-5.57,6.19,51.26,51.26,0,0,1-15.51,6.68c-1.1.29-2.14,1-3.35.83a1.06,1.06,0,0,1,.31-.84,6.63,6.63,0,0,1,3.15-2,42.53,42.53,0,0,0,15.82-10.57c.39-.41,1-.76.63-1.51h-1.42a6.09,6.09,0,0,0-1.65,1.29A27.76,27.76,0,0,1,909,47a95,95,0,0,1-10.17,5.76c-.29.16-.61.49-1,.17a3.89,3.89,0,0,1,2-2.67c3-2,6.13-3.86,8.58-6.56.36-.39,1-.68.78-1.37h-9.08C896.39,46,892.84,49.8,889,53.29c-2.54,2.29-2.77,5.41-4.18,8.3,6.12,0,12,0,17.83,0a21.3,21.3,0,0,0,12.81-4.11c.21-.15.4-.44.77-.1-1,1.9-2.91,2.86-4.8,4.22,1.18,0,2.07-.07,3,0s1.44-.28,1.78-1.25c1.55-4.45,3.26-8.83,4.79-13.28.54-1.57,1.42-3,1.54-4.74Zm-2.48,8.36c-2.08,5.2-6.14,8-11.52,9.19a42.54,42.54,0,0,1-7.87.74h-4.67c-.22,0-.51.09-.64-.16s.11-.5.29-.7a4.85,4.85,0,0,1,2.35-1.2c4-1.07,8-1.74,11.81-3.36,3.29-1.42,6.75-2.53,9.33-5.19.27-.27.62-.59,1-.34S919,50.35,918.87,50.7Z"/><path class="cls-1" d="M766.36,57.1c-.29.42-.75.3-1.16.3l-11.11,0c.32-.52.85-.28,1.28-.28C759,57.08,762.7,57.09,766.36,57.1Z"/><path class="cls-1" d="M1127.16,66.72l-1.43-.16a.91.91,0,0,1-.91-.93,1.48,1.48,0,0,1,0-.21V59.05a.76.76,0,0,1,0-.15.9.9,0,0,1,.92-1l1.41-.17c.12,0,.16,0,.16-.18,0-.43,0-.86,0-1.3,0-.16,0-.21-.2-.21h-9.5c-.14,0-.2,0-.19.18q0,.66,0,1.32c0,.14,0,.18.17.19l1.52.18a.85.85,0,0,1,.82.84c0,.12,0,.24,0,.36,0,.54,0,1.09,0,1.63,0,.18,0,.22-.22.22h-7.29c-.09,0-.13,0-.12-.12,0-.68,0-1.37,0-2.06a.86.86,0,0,1,.88-.88c.47-.05,1-.12,1.43-.16.14,0,.17-.08.17-.21q0-.64,0-1.29c0-.17,0-.2-.2-.2h-9.67c0,.55,0,1.1,0,1.65l.14,0,1.52.18a.83.83,0,0,1,.78.69,2.32,2.32,0,0,1,0,.53v6.18c0,.13,0,.27,0,.4a.85.85,0,0,1-.76.81l-.42,0-1.28.17c0,.55,0,1.1,0,1.65h9.67c.15,0,.2,0,.2-.2,0-.43,0-.86,0-1.3,0-.12,0-.19-.17-.2l-1.5-.17a.83.83,0,0,1-.78-.71,1.64,1.64,0,0,1,0-.44c0-.57,0-1.13,0-1.7,0-.18.06-.2.22-.2h7.2c.08,0,.19,0,.18.12,0,.7,0,1.4,0,2.1a.85.85,0,0,1-.82.83l-1.49.17c-.14,0-.17.06-.16.19,0,.41,0,.83,0,1.25,0,.2,0,.26.25.26h9.43c.18,0,.23,0,.22-.23,0-.43,0-.86,0-1.29C1127.31,66.78,1127.28,66.74,1127.16,66.72Z"/><path class="cls-1" d="M1170.11,56h-7.5c-.18,0-.23,0-.23.22,0,.45,0,.89-.06,1.34,0,.12,0,.16.15.17l1.49.18a.84.84,0,0,1,.81.73,2.27,2.27,0,0,1,0,.45c0,2,0,3.9,0,5.86,0,.06,0,.12,0,.18a1.47,1.47,0,0,0-.1-.13c-2.08-2.74-4.17-5.47-6.22-8.23a1.56,1.56,0,0,0-1.45-.72h-8.29c-.11,0-.16,0-.16.15v1.38c0,.11,0,.15.14.16l1.47.17a.88.88,0,0,1,.87.88c0,.12,0,.24,0,.36v6.16c0,.11,0,.22,0,.34a.87.87,0,0,1-.86.89l-1.46.17c-.13,0-.16.06-.16.19,0,.43,0,.86,0,1.29,0,.16,0,.22.2.22h7.53c.14,0,.19,0,.19-.18,0-.45,0-.89,0-1.34,0-.12,0-.15-.16-.17l-1.41-.16a.92.92,0,0,1-.93-1V59.28l.17.21,6.29,8.28a1.36,1.36,0,0,0,1.13.6h6c.2,0,.23-.06.23-.24,0-3,0-6,0-9,0-.11,0-.23,0-.34a.9.9,0,0,1,.91-.94l1.44-.17c.1,0,.14-.05.14-.16,0-.46,0-.92,0-1.38C1170.27,56,1170.22,56,1170.11,56Z"/><path class="cls-1" d="M1191.2,60.62A5.2,5.2,0,0,0,1188,57a10.83,10.83,0,0,0-4.46-.88H1171.3c-.14,0-.17,0-.17.18,0,.43,0,.87,0,1.3,0,.15,0,.2.2.22.42,0,.84.08,1.26.13a.87.87,0,0,1,.88,1v6.69a.89.89,0,0,1-.91,1l-1.41.17c-.15,0-.18.07-.18.21,0,.42,0,.84,0,1.26,0,.19,0,.23.23.23h12a12.58,12.58,0,0,0,4.09-.59,5.71,5.71,0,0,0,3.92-7.16ZM1185.51,64a2.47,2.47,0,0,1-2.42,2c-.81.07-1.62,0-2.44,0s-1.47,0-2.21,0c-.15,0-.18,0-.18-.19V58.63c0-.16,0-.2.19-.19h4a6.1,6.1,0,0,1,1.13.11,2.32,2.32,0,0,1,1.92,1.84A7.43,7.43,0,0,1,1185.51,64Z"/><path class="cls-1" d="M1144.45,56.83a13.45,13.45,0,0,0-5.11-1.15,22.77,22.77,0,0,0-4.52.16,10.88,10.88,0,0,0-3.93,1.24,5.57,5.57,0,0,0-3.06,5.09,5.5,5.5,0,0,0,1.74,4.22,8,8,0,0,0,3.41,1.82,17.55,17.55,0,0,0,4.77.59,22.71,22.71,0,0,0,3.32-.21,11.43,11.43,0,0,0,3.82-1.2,5.85,5.85,0,0,0-.44-10.56Zm-2.33,7.05a3,3,0,0,1-2.27,2.35,7.55,7.55,0,0,1-3.89,0,3,3,0,0,1-2.27-2.37,7.15,7.15,0,0,1,0-3.38,3,3,0,0,1,2.18-2.21,7.4,7.4,0,0,1,4,0,3.07,3.07,0,0,1,2.32,2.68,7.23,7.23,0,0,1,.1,1.31A6.92,6.92,0,0,1,1142.12,63.88Z"/><path class="cls-1" d="M1213.67,66.86c0-.14,0-.17-.18-.18-.34,0-.69-.08-1-.09a1.77,1.77,0,0,1-1.6-1c-.5-.83-1-1.62-1.57-2.42l-4.21-6.42a1.4,1.4,0,0,0-1.23-.73h-9.18c-.14,0-.16,0-.16.17,0,.43,0,.87,0,1.3,0,.16,0,.21.2.23.68.06,1.36.13,2,.21a.62.62,0,0,1,.53.79,1.07,1.07,0,0,1-.16.32l-2.55,4.13-1.65,2.66a1.25,1.25,0,0,1-1,.66c-.44,0-.88.11-1.33.15-.16,0-.21.06-.21.23,0,.43,0,.86,0,1.29,0,.13,0,.17.16.17h7.56c.12,0,.16,0,.16-.15,0-.45,0-.91,0-1.36,0-.12,0-.16-.15-.17s-.46,0-.68-.06a3,3,0,0,1-.84-.12.54.54,0,0,1-.28-.86c.14-.24.32-.48.44-.74a.54.54,0,0,1,.57-.31h7c.07,0,.16,0,.22,0a7.75,7.75,0,0,1,.68,1.1.49.49,0,0,1-.22.62,1.36,1.36,0,0,1-.59.18l-1.24.13c-.14,0-.17.07-.17.2,0,.43,0,.85,0,1.28,0,.18.06.22.23.22h10.19c.16,0,.21,0,.2-.2Q1213.66,67.52,1213.67,66.86Zm-15.39-4.44c.78-1.26,1.54-2.51,2.33-3.78l2.48,3.78Z"/><path class="cls-1" d="M1131.36,35.35a25.8,25.8,0,0,0,1.23,4.58,11.77,11.77,0,0,0,1.69,3.14,10,10,0,0,0,4.62,3.13,27.73,27.73,0,0,0,6.43,1.32c1.7.16,3.41.27,5.12.35,3,.14,6.06.2,7.89.21,4.33,0,7.45-.06,10.57-.22a62.32,62.32,0,0,0,6.95-.64,22.07,22.07,0,0,0,4.6-1.19,9.48,9.48,0,0,0,4.57-3.59,15.13,15.13,0,0,0,1.7-3.86,37.33,37.33,0,0,0,1-4.78c.36-2.13.58-4.27.79-6.41.14-1.34.25-2.69.32-4,.08-1.53.16-3.07.14-4.6,0-2.17-.09-4.33-.24-6.5a17,17,0,0,0-.64-3.75,9.35,9.35,0,0,0-4.79-5.82,17,17,0,0,0-4.54-1.47,50.47,50.47,0,0,0-5-.64c-2.49-.23-5-.37-7.46-.45C1163.5,0,1160.7,0,1157.89,0c-3,0-6.06.1-9.08.28-2.45.15-4.89.32-7.32.67a21.35,21.35,0,0,0-5,1.23,9.47,9.47,0,0,0-4.93,4.12,12.27,12.27,0,0,0-1.45,4.64,47.19,47.19,0,0,0-.29,4.9,105.32,105.32,0,0,0,.72,14.09C1130.77,31.75,1131,33.56,1131.36,35.35Zm1.49-18.24a49.41,49.41,0,0,1,.42-6.2A9.61,9.61,0,0,1,1135,6.42a8,8,0,0,1,3.54-2.57,17,17,0,0,1,3.78-.94c2.17-.33,4.35-.54,6.54-.68,4.52-.3,9.05-.38,13.59-.32,2.48,0,5,.15,7.42.31,1.83.12,3.66.29,5.48.53a20.83,20.83,0,0,1,4.62,1,8.23,8.23,0,0,1,3.84,2.73,9.2,9.2,0,0,1,1.58,3.71,28.52,28.52,0,0,1,.46,4.32c.13,2.29.14,4.57.09,6.86,0,1.67-.14,3.34-.28,5-.13,1.48-.26,3-.44,4.44a38,38,0,0,1-1.53,7.61,10.49,10.49,0,0,1-1.89,3.57,8.55,8.55,0,0,1-4,2.54,20.65,20.65,0,0,1-4.12.85c-3.12.4-6.26.52-9.41.61-1.51,0-3,0-4.43.07-2.89,0-5.66,0-8.44-.17-2.14-.1-4.28-.23-6.41-.51a21.06,21.06,0,0,1-4.5-1,8.2,8.2,0,0,1-4.83-4.49,22.07,22.07,0,0,1-1.48-4.89c-.43-2.18-.69-4.37-.91-6.58A93,93,0,0,1,1132.85,17.11Z"/><path class="cls-1" d="M1142,9.58c.11,1.68.22,3.37.32,5.06l.27,4.15.33,4.88c.09,1.33.17,2.67.27,4l.36,5.1c.11,1.41.21,2.81.32,4.22s.24,3.13.37,4.7l.18,2.22c0,.12,0,.19.17.21l1.12.12c1.46.13,2.92.19,4.39.24.2,0,.29,0,.34-.24.32-1.26.64-2.51,1-3.76a34.6,34.6,0,0,1,1.47-4.45,4,4,0,0,1,3.29-2.57,22.21,22.21,0,0,1,6.41,0,3.92,3.92,0,0,1,3.18,2.34,23.61,23.61,0,0,1,.91,2.34c.66,2,1.15,4.11,1.68,6.17,0,.15.09.19.24.18,1.08,0,2.16-.08,3.24-.16.77,0,1.53-.14,2.29-.21.12,0,.19,0,.19-.19s0-.41,0-.61c.11-1.3.21-2.6.31-3.89.13-1.6.25-3.19.37-4.79.1-1.24.18-2.48.27-3.73l.33-4.53.27-4.09c.11-1.62.22-3.25.32-4.87l.27-4.22.33-5.08h0c.08-1.2.15-2.39.23-3.58,0-.16,0-.19-.17-.21-1.24-.15-2.49-.2-3.73-.25-.12,0-.18,0-.2.15s-.11.49-.16.74c-1.18,5.48-2.4,10.94-3.84,16.36a28.07,28.07,0,0,1-1.52,4.62,6.07,6.07,0,0,1-3.47,3.38,9.26,9.26,0,0,1-3,.53,23.05,23.05,0,0,1-5-.18,6,6,0,0,1-4.55-3.25,16.62,16.62,0,0,1-1.26-3.34c-1.06-3.83-2-7.7-2.85-11.58-.55-2.42-1.07-4.84-1.6-7.26,0-.11,0-.18-.18-.17-1.26,0-2.52.1-3.77.25-.13,0-.17.07-.15.19s0,.52,0,.79Z"/><path class="cls-1" d="M568.46,53.29l5.28,2.42,8.32,3.74c.83.38,1.62.8,1.61,1.91s-.79,1.46-1.56,1.82L564.76,71a2.85,2.85,0,0,1-2.35.15c-3.88-1.71-7.73-3.47-11.85-5.32l10.56-4.77c.85-.39,1.71-.77,2.56-1.18.63-.31.66-.73,0-1-1.15-.58-2.34-1.1-3.52-1.63-.42-.18-.77.13-1.12.29l-12.36,5.54-1.26.53c0-2.45,0-4.75,0-7.06,0-.61.45-.68.85-.86l5.22-2.38c-1.87-.85-3.49-1.63-5.14-2.33a1.23,1.23,0,0,1-.94-1.35c.07-1.83.07-3.67,0-5.5,0-1,.27-1.1,1.12-.7,3.94,1.81,7.91,3.54,11.83,5.4a3,3,0,0,0,3.13,0c.53-.32,1.14-.5,1.7-.78.37-.19,1-.23.93-.8s-.59-.63-1-.81l-10.87-4.9c-.48-.22-.94-.46-1.4-.68.14-.46.5-.48.76-.6l10-4.54a3.81,3.81,0,0,1,3.36,0q8.47,3.89,17,7.7c.85.39,1.63.77,1.68,1.86s-.8,1.5-1.62,1.88l-11.83,5.38Z"/><path class="cls-1" d="M688.1,48.88c-.85,1.44-1.65,2.77-2.43,4.11l-4.94,8.59c-.24.42-.42.86-1.07.85-2.09,0-4.18,0-6.5,0,.57-.94,1-1.73,1.51-2.52,3-4.88,6-9.75,8.9-14.65a1.86,1.86,0,0,1,1.91-1.07c1.83.07,3.67,0,5.51,0a1.36,1.36,0,0,1,1.4.73c3.34,5.55,6.72,11.07,10.09,16.61.13.21.23.45.46.89h-6.67c-.59,0-.74-.53-.86-.9-.67-2-2.08-2.51-4.11-2.36-2.39.18-4.81,0-7.36,0a12.2,12.2,0,0,1,1.75-3.1,2.28,2.28,0,0,1,1.88-.86c1.08,0,2.15,0,3.23,0,.88,0,.87-.24.48-.89C690.22,52.6,689.22,50.82,688.1,48.88Z"/><path class="cls-1" d="M702.35,58.41c3.71,0,7.24,0,10.76,0,2,0,2.63-.67,2.63-2.65,0-3.48,0-7,0-10.46,0-.84.18-1.18,1.09-1.12,1.34.08,2.69,0,4,0,.64,0,.84.18.83.83,0,4.33,0,8.67,0,13a4.19,4.19,0,0,1-3.85,4.15c-4,.53-8,.24-11.95.18a2.32,2.32,0,0,1-2-1.22C703.39,60.28,702.93,59.43,702.35,58.41Z"/><path class="cls-1" d="M654.71,58.46c3.38,0,6.59,0,9.8,0s3.54-.41,3.55-3.54,0-6.34,0-9.51c0-1,.29-1.3,1.27-1.23,1.3.08,2.6,0,3.9,0,.62,0,.85.15.85.81,0,4.2,0,8.4,0,12.59a4.34,4.34,0,0,1-4.15,4.6,84,84,0,0,1-11.66.16,2.37,2.37,0,0,1-1.83-1A15.78,15.78,0,0,1,654.71,58.46Z"/><path class="cls-1" d="M626.27,56.72c-.28-1.95-1.76-2.74-3.36-3.57.38-.21.68-.39,1-.55a3.92,3.92,0,0,0,2.43-3.83,4,4,0,0,0-2.82-3.71,14.69,14.69,0,0,0-5.54-.87c-5,0-10,0-15.05,0-1,0-1.28.24-1.26,1.25.05,5.05,0,10.1,0,15.15,0,1.82,0,1.84,1.78,1.85,4.71,0,9.41.05,14.12,0a14.34,14.34,0,0,0,6.3-1A4.15,4.15,0,0,0,626.27,56.72Zm-8.59,1.68a41.33,41.33,0,0,1-5.1,0,3.68,3.68,0,0,0-4.21,2.49,3.71,3.71,0,0,1-.33.54l-.25-.06c0-2,0-3.93,0-5.89,0-.67.29-.81.89-.8,2.82,0,5.64,0,8.46,0a3.58,3.58,0,0,1,.8.1c1,.23,1.84.69,1.75,1.84A1.84,1.84,0,0,1,617.68,58.4Zm.72-7.68a34.86,34.86,0,0,1-4.68.1c-2.55-.18-4.78.08-5.59,3.17l-.34-.25c0-1.6,0-3.19,0-4.78,0-.56.16-.79.76-.78,3.21,0,6.43,0,9.64.06.8,0,1.44.36,1.5,1.21S619.08,50.67,618.4,50.72Z"/><path class="cls-1" d="M655,61.86c-3.45-5.69-6.92-11.37-10.35-17.07a1.2,1.2,0,0,0-1.21-.61c-2,0-3.94,0-5.91,0A1.46,1.46,0,0,0,636,45c-2.74,4.56-5.53,9.08-8.3,13.62-.73,1.2-1.44,2.41-2.27,3.79,2.12,0,4-.06,5.86,0a1.8,1.8,0,0,0,1.86-1.11c2.32-4.11,4.7-8.19,7.18-12.48,1.26,2.18,2.42,4.21,3.78,6.56-3.68-.55-6.86-.57-7.77,3.78,2.59,0,5.2.12,7.79,0a2.88,2.88,0,0,1,3.3,1.93c.21.52.36,1.31,1.16,1.32,2.16,0,4.32,0,6.57,0A4.38,4.38,0,0,0,655,61.86Z"/><path class="cls-1" d="M260.88,35.35c.91.37,1.83.71,2.72,1.13.43.2.59.19.56-.31s0-.75,0-1.11c-.08-.62.2-.75.76-.74,2.66,0,5.32,0,8,0h50c1,0,1,0,1,1q0,19.57,0,39.16c0,.65-.16.84-.82.83q-29.06,0-58.13,0c-.62,0-.82-.19-.79-.79s-.05-1.09,0-1.63-.13-.6-.61-.35a20,20,0,0,1-10.84,2.32A19.73,19.73,0,0,1,240.28,69a15.48,15.48,0,0,1-1.63-1.71,1.5,1.5,0,0,0-1.69-.65c-1.09.23-2.19.36-3.29.49-.43.06-.59.21-.58.66,0,2.24.07,4.48.13,6.72,0,.92,0,.94-.93.94h-64c-1.16,0-1.16,0-1.16-1.18q0-19.62,0-39.23c0-.67.15-.85.84-.85,12.33,0,24.65,0,37,.08,9.17.07,18.34,0,27.51.07a14.8,14.8,0,0,1,5.1,1.4,15.72,15.72,0,0,1,4.29,2.43.52.52,0,0,0,.77,0,21.71,21.71,0,0,1,3.37-2,20.54,20.54,0,0,1,9.63-1.93A18.52,18.52,0,0,1,260.88,35.35Z"/><path class="cls-2" d="M260.88,35.35c-1.11-.19-2.18-.56-3.29-.72a20.27,20.27,0,0,0-11.09,1.46c-.18.07-.37.1-.56.16a10.54,10.54,0,0,1,3.39-1.34,19.25,19.25,0,0,1,11.2.19C260.67,35.14,260.82,35.18,260.88,35.35Z"/><path class="cls-3" d="M261,39.48a20.2,20.2,0,0,1,5.68,3.93c.28-.33.13-.66.13-1,0-1.36,0-2.71,0-4.07,0-.53.16-.67.67-.67q6.56,0,13.09,0a.89.89,0,0,1,.92.57c.52,1.06,1.1,2.09,1.65,3.14a1.1,1.1,0,0,0,.5.59c0-1.24,0-2.38,0-3.51,0-.62.16-.79.78-.79q17.71,0,35.43,0c.61,0,.8.14.8.77q0,16.49,0,33c0,.55-.14.72-.7.72H285.5a.85.85,0,0,1-.87-.52c-.71-1.37-1.45-2.73-2.2-4.09-.11-.2-.13-.48-.53-.61v3.33c0,1.88,0,1.88-1.88,1.88-4.14,0-8.28,0-12.42,0-.56,0-.79-.11-.76-.73.05-1.23,0-2.47,0-3.7,0-.25.18-.61-.12-.73s-.45.22-.66.37a23.13,23.13,0,0,1-8.92,4,15.43,15.43,0,0,1-13.87-4A23.85,23.85,0,0,1,239.45,63c-.25-.37-.44-.5-.89-.29A16.31,16.31,0,0,1,230.77,64c-.64,0-.85.06-.84.75,0,2.17,0,4.34,0,6.51,0,.71-.17.91-.89.9q-17.79,0-35.58,0c-7.47,0-14.94,0-22.41,0-.78,0-.93-.23-.92-1q0-16.29,0-32.59c0-.66.17-.91.87-.91q30.63,0,61.25,0a12.18,12.18,0,0,1,6.06,2.14,14.21,14.21,0,0,1,3.41,2.81c.35.4.54.39.94.06a19.46,19.46,0,0,1,9.72-4.53,14.45,14.45,0,0,1,7.14.67C260,39.11,260.55,39.26,261,39.48Z"/><path class="cls-4" d="M261,39.48a2.79,2.79,0,0,1-1.48-.59A3,3,0,0,1,261,39.48Z"/><path class="cls-1" d="M287,55.26V53.82c0-3.87,0-7.74,0-11.6,0-.6.13-.82.77-.81,2.61,0,5.23,0,7.84,0,.55,0,.71.16.7.72q0,12.88,0,25.78c0,.62-.21.73-.77.73q-3.84,0-7.69,0a1.17,1.17,0,0,1-1.12-.62q-3.67-5.84-7.39-11.64c-.12-.17-.17-.41-.46-.49a1.78,1.78,0,0,0-.05.94c0,3.69,0,7.39,0,11.08,0,.53-.11.73-.69.73-2.58,0-5.17,0-7.76,0-.48,0-.63-.13-.63-.63q0-13,0-26c0-.47.17-.58.6-.58,2.76,0,5.52,0,8.29,0a.87.87,0,0,1,.85.55q3.47,6.34,7,12.67C286.61,54.84,286.64,55.12,287,55.26Z"/><path class="cls-1" d="M241.51,51.32a13.42,13.42,0,1,1,9.16,16.54,9.18,9.18,0,0,1-.89-.28,13.37,13.37,0,0,1-8.72-13.75c0-.55.05-1.09.11-1.64C241.27,51.9,241.43,51.62,241.51,51.32Z"/><path class="cls-1" d="M240.74,53.67A9.69,9.69,0,0,1,235.58,60a9.52,9.52,0,0,1-4.35,1c-1.33,0-2.66,0-4-.07-.48,0-.65.12-.64.62,0,2.14,0,4.28,0,6.42,0,.53-.13.68-.65.68-2.71,0-5.43,0-8.14,0-.54,0-.64-.19-.64-.69q0-12.91,0-25.85c0-.42,0-.68.57-.69,4.55,0,9.11-.08,13.67-.06a9.47,9.47,0,0,1,9.61,8.34,7.17,7.17,0,0,1,.07,1.67,12.72,12.72,0,0,1-.17,1.85A.88.88,0,0,1,240.74,53.67Z"/><path class="cls-1" d="M298.91,55c0-4.28,0-8.57,0-12.86,0-.54.15-.72.71-.72q8.28,0,16.56,0c.48,0,.65.14.64.63q0,3.29,0,6.57c0,.54-.19.66-.69.65-2.24,0-4.48,0-6.73,0-.58,0-.77.14-.76.74,0,1.63,0,1.63,1.64,1.63,1.92,0,3.84,0,5.77,0,.55,0,.78.1.77.73,0,1.94,0,3.89,0,5.83,0,.52-.15.69-.67.68-2.27,0-4.53,0-6.8,0-.49,0-.7.1-.69.65,0,1.94,0,1.94,1.91,1.94s3.75,0,5.62,0c.48,0,.64.13.63.62,0,2,0,4,0,6,0,.52-.2.61-.65.61q-8.28,0-16.57,0c-.56,0-.7-.17-.69-.72C298.92,63.61,298.91,59.3,298.91,55Z"/><path class="cls-1" d="M204.54,55c0-4.26,0-8.52,0-12.78,0-.61.16-.8.78-.79,2.86,0,5.71,0,8.57,0,.52,0,.68.14.68.67q0,13,0,25.93c0,.49-.15.63-.63.62-2.91,0-5.82,0-8.73,0-.59,0-.67-.22-.67-.73C204.55,63.6,204.54,59.29,204.54,55Z"/><path class="cls-1" d="M174.25,55c0-4.21,0-8.42,0-12.63,0-.63.19-.76.8-.76q12.42,0,24.84,0c.7,0,.86.2.85.87q0,12.52,0,25c0,.7-.15.93-.89.92q-12.42,0-24.84,0c-.64,0-.77-.2-.77-.79C174.26,63.43,174.25,59.22,174.25,55Z"/><path class="cls-5" d="M240.74,53.67l0-.44a6.49,6.49,0,0,0,.26-1.81l0-1.73c.33.6.07,1.25.19,1.88.17,0,.11-.25.27-.25.09.32-.09.59-.16.88a6,6,0,0,1-.33,1.37Z"/><path class="cls-6" d="M241,53.57a4.58,4.58,0,0,1,.33-1.37,3.68,3.68,0,0,1-.29,1.63Z"/><path class="cls-7" d="M249.78,67.58a1.08,1.08,0,0,1,.89.28A1,1,0,0,1,249.78,67.58Z"/><path class="cls-3" d="M259.38,55a5,5,0,1,1-4.93-5A5,5,0,0,1,259.38,55Z"/><path class="cls-8" d="M226.74,51.38c0-.71,0-1.42,0-2.14,0-.27.05-.51.39-.49a4.08,4.08,0,0,1,3.3,1.35,2.24,2.24,0,0,1-.38,3.21,5.23,5.23,0,0,1-2.93.86c-.34,0-.38-.23-.38-.5C226.74,52.91,226.74,52.15,226.74,51.38Z"/><path class="cls-6" d="M241,51.42a2.71,2.71,0,0,1-.26,1.81Z"/><path class="cls-3" d="M175.44,55c0-3.82,0-7.63,0-11.45,0-.62.18-.77.79-.77q11.28,0,22.55,0c.67,0,.8.2.8.83q0,11.46,0,22.9c0,.63-.17.78-.78.78q-11.28,0-22.54,0c-.68,0-.82-.19-.81-.84,0-3.81,0-7.63,0-11.44Z"/><path class="cls-1" d="M180.24,49.07A8.25,8.25,0,0,1,186,45.64a9.07,9.07,0,0,1,8.87,3.5,3.59,3.59,0,0,1,.21.38c.14.23.24.47.37.71a9,9,0,0,1,.88,6.93,5.21,5.21,0,0,1-1.05,2.29c-.37-.33-.11-.7,0-1a9.39,9.39,0,0,0,.76-3.28,8.33,8.33,0,0,0-4.12-7.71,8.75,8.75,0,0,0-9.22.21,6.14,6.14,0,0,0-2.1,2,.77.77,0,0,1-.67.41.35.35,0,0,1-.24-.23c0-.09,0-.14.08-.16A1.67,1.67,0,0,0,180.24,49.07Z"/><path class="cls-9" d="M179.67,49.83l.14.15a.66.66,0,0,1,0,.7c-.34,1-.63,2-.92,3a5.83,5.83,0,0,0,.19,2.75,8.11,8.11,0,0,0,2.95,5,8.84,8.84,0,0,0,6.2,1.82,9.27,9.27,0,0,0,4.65-1.85c.21-.15.41-.3.65-.07-.06.42-.39.6-.69.8a9.1,9.1,0,0,1-9.14,1,3.24,3.24,0,0,1-.41-.13,6.08,6.08,0,0,1-2.18-1.5,8,8,0,0,0-.78-.86h0a10.46,10.46,0,0,1-1.69-3.22,8.91,8.91,0,0,1,0-5.31c.13-.37.22-.75.34-1.12h0a6.15,6.15,0,0,0,.6-1.06A.13.13,0,0,1,179.67,49.83Z"/><path class="cls-1" d="M183.32,63a7,7,0,0,1,1.74.49,9.08,9.08,0,0,0,7.67-1.33,2.91,2.91,0,0,0,.84-.8.44.44,0,0,1,0-.1c.52-.58,1-1.18,1.51-1.78l.09,0A8.64,8.64,0,0,0,196.33,53a22.77,22.77,0,0,0-1-2.84s0-.07,0-.1,0-.05,0-.05a8.5,8.5,0,0,1,1.27,6.35,9.28,9.28,0,0,1-12.73,7A5.15,5.15,0,0,1,183.32,63Z"/><path class="cls-10" d="M179.06,51c.11.74-.37,1.34-.48,2a9,9,0,0,0,1.5,7c.14.19.36.37.3.65a8.78,8.78,0,0,1-2-7.73A4.55,4.55,0,0,1,179.06,51Z"/><path class="cls-10" d="M179.65,50a1.42,1.42,0,0,1-.6,1.06A1.83,1.83,0,0,1,179.65,50Z"/><path class="cls-10" d="M180.36,60.64a1.27,1.27,0,0,1,.78.86A2.15,2.15,0,0,1,180.36,60.64Z"/><path class="cls-11" d="M180.24,49.07a.58.58,0,0,1-.49.6A1.26,1.26,0,0,1,180.24,49.07Z"/><path class="cls-11" d="M195.34,50a.77.77,0,0,1,0,.15.84.84,0,0,1-.27-.6A.58.58,0,0,1,195.34,50Z"/><path class="cls-1" d="M193.57,61.36c-.63,0-1,.57-1.45.86a8,8,0,0,1-4.51,1.32,10,10,0,0,1-4-.9,9.18,9.18,0,0,1-3.55-3.12,7.48,7.48,0,0,1-1.1-3,7,7,0,0,1-.35-1.31,13,13,0,0,1,1-4.27,3,3,0,0,0,.24-.92c.54-.06.58-.61.88-.91a9.28,9.28,0,0,1,5.94-3,8.89,8.89,0,0,1,5.49,1.27A9.17,9.17,0,0,1,194.91,50a10.47,10.47,0,0,1,1,2.51,8.59,8.59,0,0,1,0,4.69c-.16.77-.61,1.49-.76,2.29h0c-.54.64-1.06,1.3-1.62,1.92Z"/><path class="cls-9" d="M193.57,61.36c0-.24.13-.37.27-.54.29-.36.79-.55.82-1.13,0-.25.31-.25.53-.25A4.87,4.87,0,0,1,193.57,61.36Z"/><circle class="cls-1" cx="187.49" cy="55.04" r="9.63"/><path class="cls-1" d="M993.49,60.26H987.9c-.33,0-.34,0-.24-.34.28-1,.56-1.94.83-2.91a.41.41,0,0,1,.47-.36c3.55,0,7.1,0,10.65,0a1.08,1.08,0,0,0,1-.56,4.53,4.53,0,0,0,.39-.72c.13-.35.06-.45-.31-.45l-5.26,0-5.89,0c-.44,0-.45,0-.34-.43a47.23,47.23,0,0,1,1.38-4.57,5.92,5.92,0,0,1,3.5-3.46,4.11,4.11,0,0,1,1.56-.14c3.41,0,6.82,0,10.23,0h.09c.39,0,.39,0,.28.37-.28.91-.57,1.82-.85,2.73a.36.36,0,0,1-.4.31c-3.56,0-7.12,0-10.68,0a1.08,1.08,0,0,0-1.1.66,6.06,6.06,0,0,0-.28.65c-.11.32,0,.44.31.43l6.3,0,4.85,0c.41,0,.42,0,.31.39-.45,1.56-.9,3.13-1.43,4.68a6.56,6.56,0,0,1-2.67,3.21,2.78,2.78,0,0,1-1.47.38c-1.64.11-3.29.07-4.94.1h-.74Z"/><path class="cls-1" d="M1019.81,46.43h5.56c.37,0,.38,0,.27.36-.28.92-.57,1.83-.85,2.75a.33.33,0,0,1-.39.29l-8.85.05-2.19,0a.49.49,0,0,0-.33.09,2.67,2.67,0,0,0-.74,1.33c-.06.23.11.31.34.31l5.77,0,5.48,0c.27,0,.3.08.23.32-.46,1.64-.92,3.29-1.5,4.9a6.46,6.46,0,0,1-2.63,3.07,3.17,3.17,0,0,1-1.74.39c-3.69.13-7.39.06-11.09.09-.17,0-.22,0-.17-.21.31-1.05.62-2.09.91-3.15.07-.24.23-.22.4-.22h10.8a.88.88,0,0,0,.82-.42,5,5,0,0,0,.47-.81c.16-.39.09-.51-.33-.51-1.7,0-3.41,0-5.12,0-2,0-4,0-6.06,0-.37,0-.37,0-.28-.37.42-1.54.81-3.1,1.37-4.6a6.2,6.2,0,0,1,3.09-3.32,2.83,2.83,0,0,1,1.34-.3h5.42Z"/><path class="cls-1" d="M1039.25,60.08c.26-.9.52-1.77.77-2.65.65-2.29,1.29-4.58,2-6.86a6.18,6.18,0,0,1,2.28-3.36,5,5,0,0,1,3-.83c2.07,0,4.14,0,6.21,0h3.85c.73,0,.72,0,.51.69-1.32,4.24-2.57,8.5-3.83,12.76-.07.22-.14.32-.4.31-.69,0-1.38,0-2.07,0-.34,0-.34,0-.24-.32,1-3.19,2-6.39,2.9-9.59.17-.58.19-.53-.38-.54-2.49,0-5,0-7.48.05-.2,0-.4,0-.59,0a1.11,1.11,0,0,0-1.11.84c-.33.83-.5,1.7-.75,2.55q-1,3.28-1.9,6.59a.31.31,0,0,1-.34.28C1040.86,60.06,1040.07,60.09,1039.25,60.08Z"/><path class="cls-1" d="M988.4,38.74l-2.78-.1c-.41,0-.41,0-.38-.41.15-1.76.21-3.52.23-5.28a.29.29,0,0,0-.25-.35c-.92-.26-1.83-.55-2.75-.81a65,65,0,0,0-14.13-2.37,56.54,56.54,0,0,0-11.26.54,57.24,57.24,0,0,0-11,2.79.49.49,0,0,0-.38.58,77.8,77.8,0,0,0,1,9.63,50.79,50.79,0,0,0,2.6,9.69.81.81,0,0,1,.11.41h-4.29c-.35,0-.37,0-.21.34.43.9,1,1.74,1.45,2.6a.62.62,0,0,0,.58.35c1.22,0,2.43,0,3.64,0a.55.55,0,0,1,.56.35,31.48,31.48,0,0,0,13.77,13.88c.67.35,1.36.67,2,1h.12c0-.1.15-.12.23-.17a35.82,35.82,0,0,0,9.26-8.31,39.51,39.51,0,0,0,6.79-13.77,50,50,0,0,0,1.42-6.84c0-.28.12-.39.43-.37.57,0,1.15,0,1.72,0a.4.4,0,0,0,.46-.29c.38-1,.78-1.93,1.18-2.9C988.63,38.8,988.6,38.74,988.4,38.74ZM983,42.52a47.75,47.75,0,0,1-2.42,9.71,36.21,36.21,0,0,1-5.8,10.32,34,34,0,0,1-7.78,7,.32.32,0,0,1-.35,0,30,30,0,0,1-13.68-13l-.07-.16a0,0,0,0,1,0,0c1.14,0,2.27,0,3.4,0,4.36,0,8.73.06,13.1,0a8.06,8.06,0,0,0,5.8-2.71,6.46,6.46,0,0,0,1.39-2.11L979,46c.13-.34.13-.35-.25-.36-2.72-.07-5.44,0-8.16,0-4,0-7.93,0-11.9,0-.27,0-.55,0-.82,0s-.49-.12-.38-.49a4.67,4.67,0,0,1,1.09-2,2.59,2.59,0,0,1,2-.93c1.16,0,2.32,0,3.49,0l18.72,0C983.09,42.14,983.1,42.15,983,42.52Zm.48-4.13c0,.21-.12.2-.26.19l-10.12-.15h-.71c-3.32,0-6.64-.07-10,0a13.09,13.09,0,0,0-2.26.18,1,1,0,0,0-.34.11,11.39,11.39,0,0,0-4.11,3.34A19.19,19.19,0,0,0,954,45.52c-.48,1.17-.93,2.35-1.41,3.53-.1.24,0,.28.2.29,1.55.06,3.1,0,4.64,0l11.78,0,4.08,0c.54,0,.57,0,.4.56a5.39,5.39,0,0,1-1.53,2.61,2.14,2.14,0,0,1-1.47.58c-1.17,0-2.34,0-3.52,0H951.61a.4.4,0,0,1-.44-.3,50.12,50.12,0,0,1-2.88-10.62,77.72,77.72,0,0,1-.82-7.75.36.36,0,0,1,.28-.42,54.83,54.83,0,0,1,21.93-2.74,66.16,66.16,0,0,1,13.81,2.62c.22.07.26.17.26.38C983.69,35.61,983.63,37,983.52,38.39Z"/><path class="cls-1" d="M1041.89,46.37c-1.66-.07-3.32-.06-5-.07-2.05,0-4.11,0-6.15.08a3.13,3.13,0,0,0-1.52.32,6,6,0,0,0-2.9,3.26c-1,3.29-2,6.6-3,9.91-.1.35-.09.35.27.35h6.07V60.1h6a.39.39,0,0,0,.46-.35c.27-.89.56-1.78.84-2.67.11-.35.1-.36-.26-.36h-4.29l-5,0c-.35,0-.37,0-.27-.36s.28-.79.41-1.2a.3.3,0,0,1,.36-.24h1.1c2.28,0,4.55.07,6.83.06a4.58,4.58,0,0,0,3.65-1.75,6.82,6.82,0,0,0,1.15-2.12c.52-1.45.91-2.94,1.41-4.4C1042.26,46.38,1042.26,46.39,1041.89,46.37Zm-3.47,3.85a3,3,0,0,1-.32.7,1.43,1.43,0,0,1-1.39.79c-2.36-.05-4.73,0-7.1,0l-.56,0c-.4,0-.48-.13-.36-.52a4.15,4.15,0,0,1,.64-1.19c.14-.2.36-.19.56-.2,1.37-.06,2.74-.06,4.11,0s2.68,0,4,0C1038.53,49.7,1038.55,49.75,1038.42,50.22Z"/><path class="cls-1" d="M1087.73,46.48c-3.92,0-7.85,0-11.77,0a.49.49,0,0,0-.56.4c-.26.85-.48,1.72-.71,2.58-.08.29,0,.33.26.33h5c1.43,0,2.86,0,4.29,0,.22,0,.31.07.24.3s-.13.47-.2.71c-.24.78-.24.77-1.08.77-2.67,0-5.35-.07-8,0a3.59,3.59,0,0,0-1.89.58,5.45,5.45,0,0,0-2.19,2.62c-.13.35-.27.7-.39,1-.42,1.22-.78,2.45-1.11,3.7-.1.38,0,.5.37.57a4.9,4.9,0,0,0,.77,0l6.65,0h4a1.54,1.54,0,0,0,.86-.27,17,17,0,0,0,1.36-1,4.75,4.75,0,0,0,1.5-2.25c.81-2.49,1.55-5,2.3-7.52.25-.83.51-1.65.71-2.53Zm-4.66,8.79a4.56,4.56,0,0,1-.62,1.2.87.87,0,0,1-.73.37l-8.1,0h-.21c-.2,0-.28-.09-.24-.3a3.87,3.87,0,0,1,.54-1.27,1,1,0,0,1,.84-.44h4.11v0h4.11C1083.15,54.86,1083.2,54.92,1083.07,55.27Z"/><path class="cls-1" d="M1071.7,41.28c-.24,0-.32.08-.38.29-.37,1.46-.75,2.91-1.13,4.37-.12.48-.12.48-.61.47-2.1,0-4.2-.06-6.3,0a3.32,3.32,0,0,0-1.75.35,5.59,5.59,0,0,0-2.58,3.07c-1.1,3.33-2,6.7-3,10.07-.06.21,0,.25.2.25,3.08,0,6.15,0,9.23-.1a3.39,3.39,0,0,0,2.38-1,6.94,6.94,0,0,0,2-2.82c1.06-3.64,2.15-7.27,3.23-10.9.4-1.33.79-2.66,1.19-4C1073.27,41.28,1072.48,41.3,1071.7,41.28ZM1068.86,50c-.56,1.89-1.11,3.79-1.68,5.68a1.3,1.3,0,0,1-1.42,1.12c-1.41.09-2.83,0-4.25,0-.57,0-1.14,0-1.72,0-.35,0-.39-.05-.29-.38.59-1.92,1.17-3.85,1.77-5.77a1.06,1.06,0,0,1,1.2-.88c1,0,2,0,3.07,0h3.14C1068.88,49.73,1068.92,49.79,1068.86,50Z"/></g></g></svg>