<svg xmlns="http://www.w3.org/2000/svg" viewBox="0 0 1491.04 72.74"><defs><style>.cls-1{fill:#fff;}.cls-2{fill:#4e84be;}.cls-3{fill:#e8eff6;}.cls-4{fill:#b8cee5;}.cls-5{fill:#88add4;}.cls-6{fill:#85aad2;}.cls-7{fill:#bfd3e7;}.cls-8{fill:#7ca4cf;}.cls-9{fill:#d2dfee;}.cls-10{fill:#cddded;}.cls-11{fill:#ccdcec;}.cls-12{fill:#9dbbdb;}.cls-13{fill:#759fcd;}.cls-14{fill:#606060;}.cls-15{fill:#fefefe;}.cls-16{fill:#b9b9b9;}.cls-17{fill:#a9a9a9;}.cls-18{fill:#aaa;}.cls-19{fill:#a0a0a2;}.cls-20{fill:#7e7e80;}.cls-21{fill:#767676;}.cls-22{fill:#fdfdfd;}.cls-23{fill:#bc070a;}.cls-24{fill:#bc090b;}.cls-25{fill:#be0411;}.cls-26{fill:#616160;fill-rule:evenodd;}</style></defs><g id="Capa_2" data-name="Capa 2"><g id="Capa_1-2" data-name="Capa 1"><path class="cls-1" d="M246.76,42.32h-9.1V37.45c.17,0,.09.21.15.3a5.64,5.64,0,0,0,.41,1.4,4.31,4.31,0,0,0,2.19,2,11.71,11.71,0,0,0,3.4.85c.91.12,1.81.15,2.72.2a.54.54,0,0,1,.22,0A0,0,0,0,1,246.76,42.32Z"/><path class="cls-2" d="M267,40H265.6a.05.05,0,0,1,0-.08,4.63,4.63,0,0,1,1.39,0A.07.07,0,0,1,267,40Z"/><path class="cls-2" d="M304.36,40h-1.44a.07.07,0,0,1,0-.08,4.63,4.63,0,0,1,1.39,0A.05.05,0,0,1,304.36,40Z"/><path class="cls-3" d="M246.76,40v0a.26.26,0,0,1,.2-.08c.33,0,.67-.09,1,.08v0Z"/><path class="cls-4" d="M237.76,40.23c-.09-.08,0-.22-.1-.3v-.39h.07A.71.71,0,0,1,237.76,40.23Z"/><path class="cls-5" d="M267,40V39.9a.47.47,0,0,1,.47,0,.05.05,0,0,1,0,.08Z"/><path class="cls-6" d="M304.36,40v0a.45.45,0,0,1,.47,0,.05.05,0,0,1,0,.08Z"/><path class="cls-7" d="M302,40V39.9a.38.38,0,0,1,.42,0,.05.05,0,0,1,0,.08Z"/><path class="cls-8" d="M302.47,40v0a.33.33,0,0,1,.45,0v0Z"/><path class="cls-9" d="M264.6,39.94v0a.35.35,0,0,1,.38,0s0,0,0,.07Z"/><path class="cls-10" d="M267.53,40s0,0,0-.05a.29.29,0,0,1,.39,0V40Z"/><path class="cls-11" d="M304.86,40V39.9a.3.3,0,0,1,.4,0V40Z"/><path class="cls-12" d="M265,39.94v0a.23.23,0,0,1,.28,0,.06.06,0,0,1,0,.08Z"/><path class="cls-13" d="M265.3,39.94v0a.19.19,0,0,1,.29,0v0Z"/><path class="cls-14" d="M1285.26,7a.62.62,0,0,0,.2.16l21.34,14.75.2.15c0,.09-.11.11-.17.15a20.45,20.45,0,0,1-7.37,3.11,13.71,13.71,0,0,1-3.67.25,11.34,11.34,0,0,1-5.67-2l-10-6.84c-.24-.16-.24-.16-.47,0l-1,.67L1307,37.3c-.07.08-.15.08-.22.11a35.67,35.67,0,0,0-4.41,1.89,86.67,86.67,0,0,0-13.79,8.48,33.54,33.54,0,0,0-3.22,2.72c-.13.13-.1.13-.29,0l-6.93-4.79-14.45-10a.55.55,0,0,1-.21-.17l.37-.25a20.92,20.92,0,0,1,6.8-2.91,14,14,0,0,1,3.71-.34,11.34,11.34,0,0,1,6,2l10,6.84a1.7,1.7,0,0,0,.14.1.12.12,0,0,0,.15,0l1.18-.78-28.3-19.82c0-.07,0-.07,0-.08a37.42,37.42,0,0,0,4.91-2.11,87.59,87.59,0,0,0,13.47-8.34,33.92,33.92,0,0,0,3.11-2.62c.06-.06.15-.1.16-.2Z"/><path class="cls-14" d="M1334.33,72.4h-5.21a.48.48,0,0,0-.12,0c-.09,0-.14,0-.13-.12V58.14c0-.29,0-.26.25-.26h5.21Z"/><path class="cls-14" d="M1236.32,68.38c0-.23,0-.45,0-.67h6.59a.36.36,0,0,1,.37.21,3.45,3.45,0,0,0,.8.94,2.37,2.37,0,0,0,1.41.54,4.7,4.7,0,0,0,1.54-.15,1.52,1.52,0,0,0,.57-.28.83.83,0,0,0,.1-1.2,1.37,1.37,0,0,0-.51-.35,4.32,4.32,0,0,0-1.18-.28c-.43-.06-.88,0-1.31-.09a23.88,23.88,0,0,1-4.89-.87,6.32,6.32,0,0,1-1.48-.66,3.4,3.4,0,0,1-1.68-2.89,4,4,0,0,1,1.94-3.78,7.22,7.22,0,0,1,.77-.43,9.88,9.88,0,0,1,2.66-.76,20.44,20.44,0,0,1,4.49-.14,13.79,13.79,0,0,1,3.81.76,6.32,6.32,0,0,1,1.92,1.09,3.81,3.81,0,0,1,1.38,2.41,3.57,3.57,0,0,1,0,.46c0,.1,0,.14-.14.14h-5.81a.39.39,0,0,1-.37-.19,3.09,3.09,0,0,0-2-1.39,3.78,3.78,0,0,0-2,.16,1,1,0,0,0-.71.77.54.54,0,0,0,.22.57,1.6,1.6,0,0,0,.62.29,11.36,11.36,0,0,0,1.74.33c1.14.16,2.3.26,3.43.48a12,12,0,0,1,3.15,1,6,6,0,0,1,1.16.76,3.62,3.62,0,0,1,.75,4.66,4.42,4.42,0,0,1-1.38,1.41,8,8,0,0,1-2.5,1.06,14.83,14.83,0,0,1-2.74.39l-.83,0a11,11,0,0,0-1.15,0c-.63,0-1.26-.06-1.89-.11a13.67,13.67,0,0,1-3.74-.71,5.76,5.76,0,0,1-1.55-.82,3.68,3.68,0,0,1-1.45-2.42C1236.35,68.58,1236.33,68.48,1236.32,68.38Z"/><path class="cls-14" d="M1315,62.88l1-.89,4.63-4a.52.52,0,0,1,.36-.14H1328l0,0-8.22,7,8,7.4c0,.08-.08.06-.12.06h-7a.51.51,0,0,1-.33-.15L1315.75,68l-.61-.57s-.08-.07-.15-.14v4.87c0,.3,0,.27-.27.27h-5c-.27,0-.26,0-.26-.26v-14c0-.28,0-.26.26-.26h5c.23,0,.21,0,.21.21v4.79Z"/><path class="cls-14" d="M1281.81,68.7h8.13c.18,0,.18,0,.18.19v3.33c0,.17,0,.17-.19.18h-16.35c-.34,0-.3,0-.3-.31,0-.85,0-1.69,0-2.54a.49.49,0,0,1,.18-.41l7.85-7.34.24-.23h-7.69c-.33,0-.29,0-.29-.3,0-1,0-2.07,0-3.11,0-.32,0-.28.27-.28h16c.33,0,.28,0,.28.29,0,.86,0,1.71,0,2.56a.49.49,0,0,1-.18.41l-7.87,7.22-.31.29Z"/><path class="cls-14" d="M1263.13,72.74h-.57a1.61,1.61,0,0,0-.38,0,22.5,22.5,0,0,1-2.47-.29,8.55,8.55,0,0,1-1.8-.56,3.87,3.87,0,0,1-2.34-3.11,7.64,7.64,0,0,1-.1-1.26V58.09c0-.23,0-.21.2-.21h4.84c.21,0,.21,0,.21.23v8.5a2.69,2.69,0,0,0,.09.8,2.11,2.11,0,0,0,1,1.29,3.3,3.3,0,0,0,1.31.41,4.8,4.8,0,0,0,2.06-.16,2.78,2.78,0,0,0,1.09-.66,2.11,2.11,0,0,0,.59-1.38c0-.12,0-.24,0-.36v-8.4c0-.3,0-.27.27-.27h4.79c.2,0,.2,0,.2.19v9.19a8.44,8.44,0,0,1-.18,1.88,3.8,3.8,0,0,1-2.12,2.68,7.94,7.94,0,0,1-2.19.67,21.21,21.21,0,0,1-2.25.25,1.7,1.7,0,0,0-.39,0,3.68,3.68,0,0,0-.47,0Z"/><path class="cls-14" d="M1301.35,72.74a1.7,1.7,0,0,0-.39,0,3.69,3.69,0,0,0-.47,0h-1.4a2.06,2.06,0,0,0-.43,0,3.09,3.09,0,0,0-.43,0,18.39,18.39,0,0,1-2.77-.34,7.7,7.7,0,0,1-1.87-.66,3.79,3.79,0,0,1-2-2.84,9,9,0,0,1-.14-1.64V58.09c0-.21,0-.21.21-.21h4.84c.24,0,.21,0,.21.23v8.52a2.81,2.81,0,0,0,.07.71,2.18,2.18,0,0,0,1.24,1.47,3.53,3.53,0,0,0,1.1.3,4.53,4.53,0,0,0,2.19-.21,2.65,2.65,0,0,0,.88-.53,2,2,0,0,0,.66-1.37c0-.15,0-.3,0-.45V58.17c0-.34,0-.29.29-.29H1308c.09,0,.14,0,.13.12v.07c0,3.18,0,6.35,0,9.53a6.34,6.34,0,0,1-.25,1.84,3.66,3.66,0,0,1-1.87,2.29,7.18,7.18,0,0,1-2.09.71A19.77,19.77,0,0,1,1301.35,72.74Z"/><path class="cls-14" d="M416.57,55.58h-5.88c-.37,0-.42-.3-.55-.52q-2.72-4.68-5.41-9.38c-.13-.21-.25-.43-.46-.78-.25,1.37-.48,2.6-.7,3.84l-1.11,6.37c0,.21,0,.46-.37.46h-4.54l1.84-10.8,1.86-10.87c.16-1,.14-1,1.09-1s2.19,0,3.28,0c.49,0,.62.12.54.61-.49,2.84-1,5.68-1.43,8.52-.05.26-.07.52-.11.82a1.25,1.25,0,0,0,.58-.45q4.47-4.51,8.91-9a1.32,1.32,0,0,1,1.07-.45c1.66,0,3.32,0,5,0,0,.29-.25.4-.4.55-3.12,3.28-6.24,6.56-9.4,9.8a1.06,1.06,0,0,0-.2,1.57c2,3.31,4,6.66,6,10C416.29,55.07,416.4,55.29,416.57,55.58Z"/><path class="cls-14" d="M505.59,55.58c.53-3.22,1-6.38,1.57-9.53A1.67,1.67,0,0,0,507,45q-2.79-5.61-5.56-11.23l-.38-.78h1.18c1.21,0,2.42,0,3.62,0a.78.78,0,0,1,.83.52c1.23,2.51,2.48,5,3.74,7.54a7.45,7.45,0,0,0,1.12-1.28c1.73-2.11,3.44-4.23,5.17-6.35.15-.19.25-.42.57-.42,1.63,0,3.26,0,5,0l-3,3.73c-2.24,2.75-4.45,5.53-6.73,8.24a4.82,4.82,0,0,0-.8,2.55c-.46,2.52-.85,5.06-1.28,7.58,0,.23,0,.54-.36.54Z"/><path class="cls-14" d="M425.67,55.58c-2.28,0-4.56,0-6.83,0-.49,0-.57-.15-.49-.58q1.13-6.12,2.23-12.24c.08-.45.25-.57.7-.56q6.74,0,13.46,0c.58,0,.62.21.53.67-.23,1.2-.46,2.4-.63,3.62-.07.48-.27.57-.7.57-2.85,0-5.7,0-8.54,0-.62,0-.82.21-.92.77-.13.78-.31,1.55-.51,2.32-.13.48,0,.61.5.6,2.89,0,5.78,0,8.67,0,.6,0,.75.15.63.72-.23,1.18-.46,2.36-.62,3.55-.07.49-.23.63-.72.62C430.18,55.57,427.92,55.58,425.67,55.58Z"/><path class="cls-14" d="M443.72,55.58c-2.28,0-4.56,0-6.83,0-.43,0-.55-.09-.47-.53.76-4.1,1.52-8.2,2.25-12.31.08-.44.23-.54.65-.54h13.59c.43,0,.54.08.46.52-.25,1.25-.48,2.5-.66,3.75-.06.47-.24.58-.69.58-2.85,0-5.69,0-8.54,0-.61,0-.83.21-.92.76a20.12,20.12,0,0,1-.51,2.33c-.15.52,0,.6.51.6,2.91,0,5.83,0,8.74,0,.49,0,.69,0,.57.62-.26,1.22-.47,2.45-.64,3.69-.07.51-.29.59-.75.58C448.23,55.57,446,55.58,443.72,55.58Z"/><path class="cls-14" d="M437.68,37.74c-5.15,0-10.29,0-15.44,0-.58,0-.67-.15-.57-.68.23-1.18.43-2.37.58-3.56.06-.48.25-.56.69-.56h15.72c5,0,10.11,0,15.17,0,.62,0,.7.18.6.72-.22,1.13-.4,2.28-.55,3.42-.07.54-.28.68-.82.67C447.93,37.73,442.81,37.74,437.68,37.74Z"/><path class="cls-14" d="M358.57,45.26c-1-.27-1.9-.54-2.82-.77-.43-.1-.35-.4-.35-.69a18.07,18.07,0,0,1,4-11.41,18.66,18.66,0,0,1,31.27,3.09c.39.75.37.69-.45.94a1.11,1.11,0,0,1-1.53-.64,16.17,16.17,0,0,0-29.92,5.28A16.75,16.75,0,0,0,358.57,45.26Z"/><path class="cls-14" d="M391.75,38.32A18.56,18.56,0,0,1,361.92,58c.77-.49,1.54-.95,2.29-1.44.31-.21.45,0,.64.17A16,16,0,0,0,373.52,60a16.16,16.16,0,0,0,16.65-11.34,15.85,15.85,0,0,0,.38-8,1.26,1.26,0,0,1,.36-1.33C391.2,39,391.44,38.69,391.75,38.32Z"/><path class="cls-14" d="M390.46,37.76a83.24,83.24,0,0,1-8,9.26,75.49,75.49,0,0,1-7,6.33c-.69-.74-.69-.74,0-1.38a86.23,86.23,0,0,0,11-12l.32-.45a2.16,2.16,0,0,0-1,.13,65.58,65.58,0,0,1-18.54,1.2.79.79,0,0,1-.61-.24c-1-1.19-2-2.38-3.14-3.66,1.49.24,2.85.48,4.22.67a79.25,79.25,0,0,0,16.22.55c2.09-.13,4.17-.38,6.25-.62C390.3,37.52,390.48,37.48,390.46,37.76Z"/><path class="cls-14" d="M382.35,42.46a57.11,57.11,0,0,1-14.14,13c-.46-.55-.36-.92.23-1.37a57.82,57.82,0,0,0,9.75-9.4c.11-.13.22-.28.39-.5-2.27.34-4.44.64-6.62.87a47.45,47.45,0,0,1-9.68-.22.68.68,0,0,1-.49-.32l-1.91-2.83A52.61,52.61,0,0,0,382.35,42.46Z"/><path class="cls-14" d="M370,48.5c-1.58.16-3.17.14-4.76.17a57.67,57.67,0,0,1-8.9-.74c-.39-.06-.6-.19-.62-.63s-.16-1.16-.25-1.82a46.19,46.19,0,0,0,18.36,1.58c0,.36-.27.47-.43.64A55.44,55.44,0,0,1,361.22,57c-.38.22-.51.06-.71-.19s.12-.42.28-.53a55.47,55.47,0,0,0,8.7-7.11,6.47,6.47,0,0,1,.57-.47Z"/><path class="cls-14" d="M356.11,49c1.12.16,2.15.31,3.18.44.27,0,.3.25.37.43a14.81,14.81,0,0,0,2.24,3.87c.22.27.19.4-.09.57-.57.37-1.14.74-1.69,1.15-.31.23-.49.24-.75-.1A18.28,18.28,0,0,1,356.11,49Z"/><path class="cls-14" d="M390.46,37.76c-.06-.14-.21-.15-.33-.19.16-.11.35-.19.5,0S390.56,37.71,390.46,37.76Z"/><path class="cls-14" d="M489.81,32.94c-1.43,0-2.86,0-4.29,0a.81.81,0,0,0-.9.58c-2.21,5-4.45,10-6.68,15.05a1.48,1.48,0,0,1-.46.75c-.26-2.26-.5-4.44-.75-6.62-.35-3.07-.71-6.14-1-9.21,0-.43-.17-.56-.61-.55-1.46,0-2.92,0-4.37,0a.84.84,0,0,0-.94.63q-3.09,7.38-6.2,14.74l-.5,1.13c-.3-2.51-.57-4.83-.84-7.16-.34-2.93-.69-5.86-1-8.79,0-.42-.18-.56-.62-.55-1.37,0-2.73,0-4.1,0-.4,0-.5.09-.43.49.34,2.18.65,4.36,1,6.53.76,5,1.53,10,2.27,15.08.07.48.25.57.69.56,1.48,0,3,0,4.44,0a.85.85,0,0,0,.94-.63q3-7.28,6-14.52c.1-.23.21-.46.39-.85.57,5.22,1.13,10.25,1.65,15.29.06.54.21.72.78.71,1.45,0,2.91,0,4.37,0a.9.9,0,0,0,1-.61q5-10.69,10-21.37A1.13,1.13,0,0,0,489.81,32.94Z"/><path class="cls-14" d="M504.44,55.09q-2.64-10.83-5.24-21.67c-.09-.41-.27-.49-.64-.49-1.28,0-2.55,0-3.83,0a.93.93,0,0,0-1,.56Q487.57,44.24,481.32,55a.88.88,0,0,0-.23.6c1.5,0,3,0,4.48,0a.8.8,0,0,0,.84-.5c.77-1.47,1.59-2.91,2.36-4.38a.77.77,0,0,1,.79-.47q4,0,8.06,0c.43,0,.58.13.66.54.24,1.43.54,2.85.79,4.28.07.42.24.54.66.53,1.44,0,2.87,0,4.31,0C504.43,55.59,504.54,55.51,504.44,55.09Zm-7.38-9.26c-.24.29-1.06.1-1.63.1h-3.55c-.22,0-.51.06-.3-.35L495.43,38c.49,2.15.95,4.15,1.39,6.16C496.94,44.74,497.37,45.45,497.06,45.83Z"/><path class="cls-14" d="M20,39.34c-.28,0-.7.12-.69-.25s.42-.21.69-.21a5.92,5.92,0,0,0,4.36-5.31,6.17,6.17,0,0,0-3.07-6.2,10.59,10.59,0,0,0-5.85-1.59q-7,0-14,0c-.51,0-1.22-.27-1.38.57s.36,1.14,1,1.35c1.05.37,1.23,1.11,1.22,2.13q-.06,10,0,20c0,1.29,0,2.41-1.55,2.82A.86.86,0,0,0,0,53.79c.14.54.63.53,1.05.6a3.11,3.11,0,0,0,.53,0c4.85,0,9.69,0,14.54,0a10.63,10.63,0,0,0,3-.39,8.5,8.5,0,0,0,6-7.87A7.34,7.34,0,0,0,20,39.34Zm-9-6c0-.56,0-1.13,0-1.69s-.33-1.55.61-1.94a3.05,3.05,0,0,1,3.1.29c1.2.87,1.71,3.64,1.06,5.48-.38,1.09-1.95,1.83-3.62,1.76-.78,0-1.21-.3-1.17-1.16S11,34.29,11,33.38ZM16.1,48.14c-.41,2-3,2.55-4.42,2a1.06,1.06,0,0,1-.63-1.16c0-1.13,0-2.26,0-3.39s0-2.26,0-3.39c0-.54.13-1,.67-1.12,1.91-.47,4.07,0,4.52,2.46A12.16,12.16,0,0,1,16.1,48.14Z"/><path class="cls-14" d="M73.86,52.61c-.89-.34-1-1-1-1.84.05-1.88,0-3.75,0-5.62s0-4,0-6a6.26,6.26,0,0,0-3.68-5.86,8.66,8.66,0,0,0-8.6.6c-.35.22-.69.75-1.12.5s-.15-.8-.16-1.21c0-1.52-.45-1.8-1.84-1.14-2.67,1.27-5.33,2.57-8,3.85-.4.2-.82.41-.84.9s.42.74.85.85c1,.26,1.17.9,1.15,1.85-.06,3.57-.07,7.15,0,10.71,0,1.21-.12,2.11-1.42,2.5a.87.87,0,0,0-.67,1c.1.55.55.62,1,.62H60c.45,0,.9,0,1-.58a.85.85,0,0,0-.63-1c-1.18-.37-1.27-1.22-1.18-2.24,0-.52,0-1,0-1.56,0-2.88,0-5.75,0-8.63a2.48,2.48,0,0,1,1.6-2.46c2-.82,3.72.22,3.77,2.47.07,3.4,0,6.79,0,10.19,0,1-.08,1.77-1.18,2.13-.5.16-1,.52-.76,1.18s.73.52,1.21.52h9.56c.51,0,1.12.12,1.29-.57S74.36,52.79,73.86,52.61Z"/><path class="cls-14" d="M96.47,46.77a1.5,1.5,0,0,0-2.12.1,11.8,11.8,0,0,1-4.23,2.51,5.92,5.92,0,0,1-6.32-2c-.52-.74-.67-1.14.46-1.52,3.72-1.23,7.38-2.63,11.08-3.91,1-.35,1.29-.89,1-1.87a10.68,10.68,0,0,0-6.87-7.49c-7.39-2.68-15,3-15,11.27a9.53,9.53,0,0,0,.37,3,10.73,10.73,0,0,0,9.37,8.25c5.06.52,10.4-2.14,12.51-6.2A1.5,1.5,0,0,0,96.47,46.77ZM82,40.09c.09-3,2.35-5,4.79-4.14a2.9,2.9,0,0,1,1.67,1.36c.82,1.44.62,2-.91,2.55-1.31.46-2.63.9-3.94,1.35C82.1,41.73,81.93,41.62,82,40.09Z"/><path class="cls-14" d="M48.39,46.75a1.46,1.46,0,0,0-2,0A12.62,12.62,0,0,1,42,49.38a5.87,5.87,0,0,1-6.45-2.26c-.41-.66-.42-.95.44-1.25C39.68,44.63,43.31,43.3,47,42c1.46-.52,1.71-.92,1.2-2.41a10.65,10.65,0,0,0-7.43-7.25c-7.31-2-14.22,3.49-14.24,11.32a11,11,0,0,0,1.74,6.45,10.55,10.55,0,0,0,10,5,12.52,12.52,0,0,0,10.58-6.42A1.38,1.38,0,0,0,48.39,46.75ZM33.9,40.1c.05-3,2.47-5,4.93-4.12a2.87,2.87,0,0,1,1.55,1.34c.79,1.44.57,2-1,2.56l-3.95,1.36C34.05,41.72,33.87,41.6,33.9,40.1Z"/><path class="cls-14" d="M108.2,52.61c-.88-.33-1-1-1-1.84,0-4.05,0-8.09,0-12.14V26.09c0-1.48-.37-1.71-1.73-1.06-2.71,1.28-5.41,2.59-8.11,3.89-.43.2-.92.37-.9,1s.5.79,1,.9c.93.22,1.16.76,1.15,1.69,0,6,0,11.93,0,17.89,0,1.08-.16,1.84-1.25,2.24-.46.16-.9.48-.8,1s.73.63,1.26.63h9.95c.51,0,1.12.12,1.3-.56S108.7,52.8,108.2,52.61Z"/><path class="cls-14" d="M121.62,52.58c-.86-.3-1-.89-1-1.72,0-4.09,0-8.18,0-12.28s0-8.35,0-12.53c0-1.39-.41-1.65-1.65-1.06q-4.12,1.95-8.23,3.94c-.43.2-.93.38-.89,1s.52.8,1,.89c1,.2,1.11.82,1.11,1.7,0,6,0,11.93,0,17.89,0,1.05-.1,1.85-1.22,2.24-.46.16-.92.48-.79,1s.73.64,1.28.64h9.94c.51,0,1.12.13,1.27-.59S122.13,52.75,121.62,52.58Z"/><path class="cls-14" d="M135.14,52.54c-.8-.3-.93-.84-.92-1.62.05-2.57,0-5.13,0-7.7s0-5.4,0-8.1c0-1.31-.39-1.56-1.58-1q-4.12,1.95-8.24,3.94c-.42.2-.93.36-.93,1s.56.85,1.06,1c.88.22,1.09.73,1.07,1.61-.06,3,0,6,0,9,0,.93-.12,1.57-1.09,1.92-.5.17-1.13.49-.91,1.22s.8.55,1.32.55h9.82c.51,0,1.13.12,1.31-.55S135.66,52.74,135.14,52.54Z"/><path class="cls-14" d="M129.77,33.88a4.64,4.64,0,1,0-4.57-4.58A4.61,4.61,0,0,0,129.77,33.88Z"/><path class="cls-14" d="M20,39.34v-.46C19.77,39,19.77,39.19,20,39.34Z"/><path class="cls-14" d="M811.8,38.7c-1.63,4.48-3.28,9-4.87,13.46a1.61,1.61,0,0,1-1.9,1.31c-1.26-.12-2.54,0-4,0l5.33-14.69c-.35-.47-.86-.22-1.29-.23-1.78,0-3.56,0-5.34,0-.45,0-1,.16-1.24-.4l1.36-3.91h41.45A17.08,17.08,0,0,1,840,38.12a2.1,2.1,0,0,1-1.57.39c-1.82,0-3.64,0-5.46,0-.35,0-.75-.18-1,.2-1.65,4.53-3.32,9.05-4.91,13.6-.32.92-.78,1.28-1.73,1.12a6,6,0,0,0-.85,0c-3.26,0-3.25,0-2.14-3.07,1.41-3.88,2.8-7.76,4.2-11.64-.18-.32-.49-.22-.76-.22H812.59C812.31,38.51,812,38.44,811.8,38.7Z"/><path class="cls-14" d="M790.47,42.28c-1.16,4.12-1.16,4.12-5.41,4.12h-.85c-2.64,0-2.64,0-3.35,2.5.39.41.89.2,1.33.21,2.87,0,5.75,0,8.62,0a2.73,2.73,0,0,1,1.39.13,1.27,1.27,0,0,1,0,.28c-.52,1.28-.56,3-1.61,3.73s-2.56.17-3.88.17H773.53c1-2.74,1.9-5.35,2.84-8s2.06-5.46,3-8.23a4.54,4.54,0,0,1,2.35-3.06h15.89a11.88,11.88,0,0,1-1.71,4.43,89.4,89.4,0,0,0-11.34.07l-2.12,5.61c1.44-.5,1.87-1.82,3-2.3a19.47,19.47,0,0,0,3.58.15A3.32,3.32,0,0,1,790.47,42.28Z"/><path class="cls-14" d="M887.29,34.19a12.54,12.54,0,0,1-1.71,4.44c-3.37-.27-6.74-.08-10.12-.1a11.36,11.36,0,0,0-3.72.16,3.28,3.28,0,0,0-2.28,2.4c-1.33,3.8-2.75,7.58-4.09,11.38-.25.71-.56,1.05-1.39,1a27.55,27.55,0,0,0-3.4,0c-.84,0-.91-.21-.63-1,1.9-5.13,3.79-10.26,5.6-15.42a5.17,5.17,0,0,1,3-2.88Z"/><path class="cls-14" d="M766.36,48.94a3.54,3.54,0,0,0,2.11-2.42c1.43-4.13,2.95-8.22,4.43-12.33h5.39c-1.9,5.24-3.78,10.49-5.69,15.73-1,2.67-2.19,3.5-5.1,3.51-5,0-10,0-15,0v-.28l1.63-3.93c3.58-.25,7.17,0,10.76-.12C765.35,49.1,765.89,49.28,766.36,48.94Z"/><path class="cls-14" d="M811.8,38.7c.28-.45.74-.32,1.15-.32q6.22,0,12.45,0c.4,0,.87-.13,1.13.35Z"/><path class="cls-14" d="M871.74,38.69c-.2-.43.17-.31.34-.31h12.73a.91.91,0,0,1,.77.26Z"/><path class="cls-14" d="M784.54,38.69c.21-.33.55-.32.88-.32h9.69a1,1,0,0,1,.77.25Z"/><path class="cls-14" d="M792.2,49.25c-3.31,0-6.61,0-9.92,0-.48,0-1.06.23-1.42-.34,3.38,0,6.75,0,10.12.05C791.39,49,791.93,48.64,792.2,49.25Z"/><path class="cls-14" d="M798.5,38.1c2.09.6,4.22.11,6.33.28.52,0,1.16-.27,1.54.37-2.36,0-4.72,0-7.08-.08C799,38.66,798.18,39.06,798.5,38.1Z"/><path class="cls-14" d="M832,38.72c.4-.59,1-.3,1.54-.34,2.17-.14,4.36.27,6.52-.26-.13.76-.74.56-1.21.56C836.53,38.71,834.24,38.71,832,38.72Z"/><path class="cls-14" d="M790.47,42.28c-1.69-.16-3.42.34-5.08-.28l4.63-.08C790.26,41.91,790.49,42,790.47,42.28Z"/><path class="cls-14" d="M861.46,34.19H845a3.85,3.85,0,0,0-2.38,2.87c-.38,1.29-.93,2.53-1.36,3.81-1,3.08-2.44,6-3.18,9.21-.49,2.11.45,3.3,2.6,3.33,4.87.06,9.75,0,14.62,0A2.7,2.7,0,0,0,858,51.79c1.68-4.63,3.56-9.2,5-13.92C863.54,36,863.14,35.22,861.46,34.19Zm-4.69,6.25c-.8,2.32-1.66,4.63-2.48,7a2.37,2.37,0,0,1-1.37,1.5h0a.58.58,0,0,1-.55.35H845.3a.61.61,0,0,1-.57-.33,1.44,1.44,0,0,1-.35-1.75c.85-2.26,1.62-4.55,2.42-6.84a2.29,2.29,0,0,1,2.47-1.65c2.08,0,4.16,0,6.24,0C856.85,38.7,857.21,39.18,856.77,40.44Z"/><path class="cls-14" d="M850.46,49.09a4.39,4.39,0,0,0,2.46-.2l-8.19,0C846.63,49.36,848.55,49,850.46,49.09Z"/><path class="cls-14" d="M921.35,34.19a3.75,3.75,0,0,0-.87,1.25,15.74,15.74,0,0,1-5.57,6.19,51.26,51.26,0,0,1-15.51,6.68c-1.1.29-2.14,1-3.35.83a1.06,1.06,0,0,1,.31-.84,6.72,6.72,0,0,1,3.15-2A42.39,42.39,0,0,0,915.33,35.7c.39-.41,1-.76.63-1.51h-1.42a6.25,6.25,0,0,0-1.65,1.28A27.19,27.19,0,0,1,909,38.86a95,95,0,0,1-10.17,5.76c-.29.16-.61.49-1,.16a3.91,3.91,0,0,1,2-2.67c3-2,6.13-3.85,8.58-6.55.36-.4,1-.68.78-1.37h-9.08c-3.68,3.66-7.23,7.46-11.07,11-2.54,2.29-2.77,5.41-4.18,8.3,6.12,0,12,0,17.83,0a21.3,21.3,0,0,0,12.81-4.11c.21-.16.4-.45.77-.1-1,1.9-2.91,2.86-4.8,4.22,1.18,0,2.07-.07,3,0s1.44-.28,1.78-1.25c1.55-4.45,3.26-8.83,4.79-13.28.54-1.57,1.42-3,1.54-4.74Zm-2.48,8.36c-2.08,5.2-6.14,8-11.52,9.19a42.54,42.54,0,0,1-7.87.74c-1.56,0-3.12,0-4.67,0-.22,0-.51.09-.64-.16s.11-.5.29-.7a4.77,4.77,0,0,1,2.35-1.2c4-1.07,8-1.74,11.81-3.36,3.29-1.42,6.75-2.53,9.33-5.19.27-.28.62-.59,1-.34S919,42.2,918.87,42.55Z"/><path class="cls-14" d="M766.36,48.94c-.29.43-.75.31-1.16.31l-11.11,0c.32-.52.85-.28,1.28-.28C759,48.93,762.7,48.94,766.36,48.94Z"/><path class="cls-15" d="M956.34,45.26V34.51a.11.11,0,0,1,.08,0,19.7,19.7,0,0,1,2,.23,1.08,1.08,0,0,1,.93,1c0,.13,0,.26,0,.38v7.57c0,.12,0,.25,0,.37a1.08,1.08,0,0,1-.93,1c-.67.1-1.35.18-2,.23A.11.11,0,0,1,956.34,45.26Z"/><path class="cls-16" d="M62.17,40.87h-.05v-2h.06a.4.4,0,0,1,.07.28v1.37A.39.39,0,0,1,62.17,40.87Z"/><path class="cls-16" d="M370,43.06h0a.27.27,0,0,1,.06.21c0,.41,0,.83,0,1.24a.25.25,0,0,1-.05.19H370Z"/><path class="cls-14" d="M568.46,43.85l5.28,2.42c2.77,1.25,5.55,2.49,8.32,3.75.83.37,1.62.79,1.61,1.9s-.79,1.47-1.56,1.82q-8.67,3.94-17.35,7.84a2.81,2.81,0,0,1-2.35.15c-3.88-1.7-7.73-3.46-11.85-5.32l10.56-4.77c.85-.38,1.71-.77,2.56-1.18.63-.31.66-.73,0-1-1.15-.58-2.34-1.11-3.52-1.63-.42-.19-.77.13-1.12.29l-12.36,5.53-1.26.54c0-2.46,0-4.76,0-7.06,0-.62.45-.69.85-.87l5.22-2.38c-1.87-.85-3.49-1.62-5.14-2.32a1.24,1.24,0,0,1-.94-1.36c.07-1.83.07-3.67,0-5.49,0-1.05.27-1.1,1.12-.71,3.94,1.82,7.91,3.54,11.83,5.4a3,3,0,0,0,3.13,0c.53-.32,1.14-.5,1.7-.79.37-.19,1-.23.93-.79s-.59-.64-1-.82l-10.87-4.9c-.48-.21-.94-.45-1.4-.67.14-.46.5-.48.76-.6l10-4.54a3.81,3.81,0,0,1,3.36,0q8.47,3.87,17,7.7c.85.38,1.63.77,1.68,1.85s-.8,1.51-1.62,1.88L570.21,43Z"/><path class="cls-14" d="M688.1,39.44c-.85,1.45-1.65,2.78-2.43,4.12l-4.94,8.59c-.24.41-.42.85-1.07.84-2.09,0-4.18,0-6.5,0,.57-.95,1-1.74,1.51-2.52,3-4.88,6-9.76,8.9-14.66a1.86,1.86,0,0,1,1.91-1.07c1.83.08,3.67.05,5.51,0a1.38,1.38,0,0,1,1.4.74c3.34,5.54,6.72,11.07,10.09,16.6.13.22.23.46.46.89h-6.67c-.59,0-.74-.53-.86-.89-.67-2-2.08-2.52-4.11-2.36-2.39.18-4.81,0-7.36,0a12.2,12.2,0,0,1,1.75-3.1,2.25,2.25,0,0,1,1.88-.86c1.08,0,2.15,0,3.23,0,.88,0,.87-.23.48-.88C690.22,43.17,689.22,41.38,688.1,39.44Z"/><path class="cls-14" d="M702.35,49c3.71,0,7.24,0,10.76,0,2,0,2.63-.68,2.63-2.65,0-3.49,0-7,0-10.46,0-.85.18-1.18,1.09-1.13,1.34.08,2.69.05,4,0,.64,0,.84.19.83.83,0,4.34,0,8.67,0,13a4.18,4.18,0,0,1-3.85,4.14c-4,.53-8,.24-11.95.18a2.28,2.28,0,0,1-2-1.22C703.39,50.85,702.93,50,702.35,49Z"/><path class="cls-14" d="M654.71,49c3.38,0,6.59,0,9.8,0s3.54-.4,3.55-3.54,0-6.34,0-9.51c0-1,.29-1.29,1.27-1.23,1.3.09,2.6.05,3.9,0,.62,0,.85.16.85.82,0,4.2,0,8.39,0,12.59a4.34,4.34,0,0,1-4.15,4.59,82.48,82.48,0,0,1-11.66.16,2.39,2.39,0,0,1-1.83-1A16.22,16.22,0,0,1,654.71,49Z"/><path class="cls-14" d="M626.27,47.28c-.28-2-1.76-2.74-3.36-3.56.38-.21.68-.4,1-.56a3.91,3.91,0,0,0,2.43-3.83,4,4,0,0,0-2.82-3.71,14.69,14.69,0,0,0-5.54-.86c-5,0-10,0-15.05,0-1,0-1.28.24-1.26,1.25.05,5.05,0,10.1,0,15.15,0,1.81,0,1.84,1.78,1.84,4.71,0,9.41.06,14.12,0a14.34,14.34,0,0,0,6.3-1.05A4.15,4.15,0,0,0,626.27,47.28ZM617.68,49a45.68,45.68,0,0,1-5.1,0,3.67,3.67,0,0,0-4.21,2.49A3.61,3.61,0,0,1,608,52l-.25-.06c0-2,0-3.92,0-5.88,0-.68.29-.81.89-.81,2.82,0,5.64,0,8.46,0a3.58,3.58,0,0,1,.8.1c1,.22,1.84.68,1.75,1.84A1.84,1.84,0,0,1,617.68,49Zm.72-7.68a33.27,33.27,0,0,1-4.68.09c-2.55-.17-4.78.08-5.59,3.18l-.34-.26c0-1.59,0-3.18,0-4.77,0-.56.16-.8.76-.79,3.21,0,6.43,0,9.64.06.8,0,1.44.37,1.5,1.22S619.08,41.24,618.4,41.29Z"/><path class="cls-14" d="M655,52.43c-3.45-5.69-6.92-11.37-10.35-17.07a1.22,1.22,0,0,0-1.21-.62c-2,0-3.94,0-5.91,0a1.45,1.45,0,0,0-1.48.82c-2.74,4.56-5.53,9.08-8.3,13.62-.73,1.2-1.44,2.41-2.27,3.8,2.12,0,4-.06,5.86,0a1.78,1.78,0,0,0,1.86-1.11c2.32-4.11,4.7-8.18,7.18-12.47L644.14,46c-3.68-.55-6.86-.56-7.77,3.79,2.59,0,5.2.12,7.79,0a2.86,2.86,0,0,1,3.3,1.93c.21.51.36,1.3,1.16,1.31,2.16,0,4.32,0,6.57,0A3.8,3.8,0,0,0,655,52.43Z"/><path class="cls-14" d="M260.88,20.42c.91.37,1.83.72,2.72,1.14.43.2.59.18.56-.32s0-.74,0-1.11c-.08-.62.2-.75.76-.74,2.66,0,5.32,0,8,0h50c1,0,1,0,1,1q0,19.59,0,39.17c0,.64-.16.83-.82.83q-29.06,0-58.13,0c-.62,0-.82-.19-.79-.79s-.05-1.08,0-1.62-.13-.6-.61-.35a20,20,0,0,1-10.84,2.31,19.66,19.66,0,0,1-12.38-5.82,16.42,16.42,0,0,1-1.63-1.71,1.5,1.5,0,0,0-1.69-.65c-1.09.22-2.19.35-3.29.49-.43,0-.59.21-.58.65,0,2.24.07,4.48.13,6.72,0,.92,0,1-.93,1h-64c-1.16,0-1.16,0-1.16-1.18q0-19.62,0-39.24c0-.66.15-.85.84-.85,12.33,0,24.65,0,37,.08,9.17.07,18.34,0,27.51.07a14.8,14.8,0,0,1,5.1,1.4,16,16,0,0,1,4.29,2.43.52.52,0,0,0,.77,0,21.77,21.77,0,0,1,3.37-2,20.79,20.79,0,0,1,9.63-1.93A18.86,18.86,0,0,1,260.88,20.42Z"/><path class="cls-17" d="M260.88,20.42c-1.11-.18-2.18-.55-3.29-.72a20.45,20.45,0,0,0-11.09,1.46,3.58,3.58,0,0,1-.56.16A10.52,10.52,0,0,1,249.33,20a19.17,19.17,0,0,1,11.2.18C260.67,20.22,260.82,20.26,260.88,20.42Z"/><path class="cls-15" d="M261,24.56a20.37,20.37,0,0,1,5.68,3.92c.28-.32.13-.66.13-1,0-1.35,0-2.71,0-4.06,0-.53.16-.67.67-.67q6.56,0,13.09,0a.88.88,0,0,1,.92.56c.52,1.06,1.1,2.09,1.65,3.14a1.1,1.1,0,0,0,.5.59c0-1.23,0-2.37,0-3.51,0-.62.16-.79.78-.79q17.71,0,35.43,0c.61,0,.8.13.8.77q0,16.47,0,33c0,.55-.14.72-.7.72q-17.24,0-34.47,0a.84.84,0,0,1-.87-.51c-.71-1.38-1.45-2.74-2.2-4.1-.11-.2-.13-.48-.53-.61v3.33c0,1.88,0,1.88-1.88,1.88-4.14,0-8.28,0-12.42,0-.56,0-.79-.11-.76-.73.05-1.23,0-2.46,0-3.69,0-.25.18-.61-.12-.74s-.45.23-.66.38a23.28,23.28,0,0,1-8.92,4,15.46,15.46,0,0,1-13.87-4,24.24,24.24,0,0,1-3.82-4.4c-.25-.36-.44-.49-.89-.28a16.43,16.43,0,0,1-7.79,1.32c-.64,0-.85.05-.84.75,0,2.17,0,4.33,0,6.5,0,.71-.17.91-.89.91q-17.79,0-35.58,0c-7.47,0-14.94,0-22.41,0-.78,0-.93-.23-.92-1q0-16.3,0-32.6c0-.66.17-.91.87-.91q30.63,0,61.25,0A12.09,12.09,0,0,1,238.34,25a13.75,13.75,0,0,1,3.41,2.81c.35.39.54.38.94.05a19.54,19.54,0,0,1,9.72-4.53,14.57,14.57,0,0,1,7.14.67C260,24.18,260.55,24.33,261,24.56Z"/><path class="cls-18" d="M261,24.56a2.88,2.88,0,0,1-1.48-.6A3,3,0,0,1,261,24.56Z"/><path class="cls-14" d="M287,40.34V38.89c0-3.86,0-7.73,0-11.6,0-.6.13-.81.77-.8,2.61,0,5.23,0,7.84,0,.55,0,.71.15.7.71q0,12.9,0,25.79c0,.62-.21.72-.77.72q-3.84,0-7.69,0a1.14,1.14,0,0,1-1.12-.62q-3.67-5.84-7.39-11.63c-.12-.18-.17-.42-.46-.49-.17.31-.05.63-.05.93,0,3.7,0,7.39,0,11.08,0,.54-.11.74-.69.73-2.58,0-5.17,0-7.76,0-.48,0-.63-.13-.63-.63q0-13,0-26c0-.47.17-.59.6-.59q4.14,0,8.29,0a.88.88,0,0,1,.85.54q3.47,6.34,7,12.68C286.61,39.91,286.64,40.19,287,40.34Z"/><path class="cls-14" d="M241.51,36.39a13.42,13.42,0,1,1,9.16,16.55,7.11,7.11,0,0,1-.89-.29,13.36,13.36,0,0,1-8.72-13.75c0-.54.05-1.09.11-1.63C241.27,37,241.43,36.69,241.51,36.39Z"/><path class="cls-14" d="M240.74,38.74a9.82,9.82,0,0,1-9.51,7.33c-1.33,0-2.66,0-4-.07-.48,0-.65.11-.64.61,0,2.14,0,4.29,0,6.43,0,.52-.13.67-.65.67-2.71,0-5.43,0-8.14,0-.54,0-.64-.19-.64-.68q0-12.93,0-25.85c0-.43,0-.69.57-.69,4.55,0,9.11-.08,13.67-.06a9.47,9.47,0,0,1,9.61,8.33,7.17,7.17,0,0,1,.07,1.67,12.86,12.86,0,0,1-.17,1.86A.85.85,0,0,1,240.74,38.74Z"/><path class="cls-14" d="M298.91,40.07c0-4.29,0-8.58,0-12.86,0-.55.15-.72.71-.72,5.52,0,11,0,16.56,0,.48,0,.65.14.64.63q0,3.28,0,6.58c0,.54-.19.65-.69.65-2.24,0-4.48,0-6.73,0-.58,0-.77.14-.76.75,0,1.63,0,1.63,1.64,1.62,1.92,0,3.84,0,5.77,0,.55,0,.78.1.77.73,0,2,0,3.89,0,5.84,0,.51-.15.68-.67.68-2.27,0-4.53,0-6.8,0-.49,0-.7.11-.69.66,0,1.93,0,1.93,1.91,1.93s3.75,0,5.62,0c.48,0,.64.14.63.63,0,2,0,4,0,6,0,.52-.2.62-.65.62-5.52,0-11.05,0-16.57,0-.56,0-.7-.17-.69-.71C298.92,48.69,298.91,44.38,298.91,40.07Z"/><path class="cls-14" d="M204.54,40.05c0-4.26,0-8.52,0-12.78,0-.61.16-.79.78-.79,2.86,0,5.71,0,8.57,0,.52,0,.68.14.68.66q0,13,0,25.93c0,.5-.15.63-.63.63-2.91,0-5.82,0-8.73,0-.59,0-.67-.21-.67-.73C204.55,48.67,204.54,44.36,204.54,40.05Z"/><path class="cls-14" d="M174.25,40.09c0-4.21,0-8.42,0-12.63,0-.64.19-.77.8-.77q12.42,0,24.84,0c.7,0,.86.19.85.87q0,12.51,0,25c0,.69-.15.92-.89.92q-12.42,0-24.84,0c-.64,0-.77-.2-.77-.8C174.26,48.51,174.25,44.3,174.25,40.09Z"/><path class="cls-19" d="M240.74,38.74l0-.43A6.55,6.55,0,0,0,241,36.5l0-1.74c.33.6.07,1.25.19,1.88.17,0,.11-.25.27-.25.09.32-.09.59-.16.88a6,6,0,0,1-.33,1.37Z"/><path class="cls-20" d="M241,38.64a4.65,4.65,0,0,1,.33-1.37,3.63,3.63,0,0,1-.29,1.63Z"/><path class="cls-21" d="M249.78,52.65a1.09,1.09,0,0,1,.89.29A1,1,0,0,1,249.78,52.65Z"/><path class="cls-15" d="M259.38,40.1a5,5,0,1,1-4.93-5A5,5,0,0,1,259.38,40.1Z"/><path class="cls-22" d="M226.74,36.46c0-.72,0-1.43,0-2.14,0-.28.05-.51.39-.5a4.11,4.11,0,0,1,3.3,1.35,2.24,2.24,0,0,1-.38,3.21,5.24,5.24,0,0,1-2.93.87c-.34,0-.38-.24-.38-.5C226.74,38,226.74,37.22,226.74,36.46Z"/><path class="cls-20" d="M241,36.5a2.71,2.71,0,0,1-.26,1.81Z"/><path class="cls-15" d="M175.44,40.08c0-3.81,0-7.63,0-11.45,0-.62.18-.77.79-.77q11.28,0,22.55,0c.67,0,.8.19.8.83q0,11.44,0,22.89c0,.63-.17.78-.78.78q-11.28,0-22.54,0c-.68,0-.82-.19-.81-.83,0-3.82,0-7.63,0-11.45Z"/><path class="cls-14" d="M180.24,34.14A8.32,8.32,0,0,1,186,30.71a9.08,9.08,0,0,1,8.87,3.51,2.32,2.32,0,0,1,.21.38c.14.22.24.47.37.7a9.06,9.06,0,0,1,.88,6.94,5.26,5.26,0,0,1-1.05,2.29c-.37-.34-.11-.7,0-1a9.39,9.39,0,0,0,.76-3.28,8.32,8.32,0,0,0-4.12-7.7,8.7,8.7,0,0,0-9.22.21,6,6,0,0,0-2.1,2,.77.77,0,0,1-.67.4.33.33,0,0,1-.24-.22c0-.09,0-.14.08-.17A1.59,1.59,0,0,0,180.24,34.14Z"/><path class="cls-23" d="M179.67,34.91l.14.15a.64.64,0,0,1,0,.69c-.34,1-.63,2-.92,3a5.78,5.78,0,0,0,.19,2.74,8.11,8.11,0,0,0,2.95,5,8.84,8.84,0,0,0,6.2,1.82,9.1,9.1,0,0,0,4.65-1.85c.21-.14.41-.29.65-.06-.06.41-.39.59-.69.8a9.15,9.15,0,0,1-9.14,1c-.13-.06-.28-.07-.41-.13a6.11,6.11,0,0,1-2.18-1.51,9,9,0,0,0-.78-.86l0,0a10.4,10.4,0,0,1-1.69-3.23,8.91,8.91,0,0,1,0-5.31c.13-.37.22-.74.34-1.12h0a6.15,6.15,0,0,0,.6-1.06A.11.11,0,0,1,179.67,34.91Z"/><path class="cls-14" d="M183.32,48.08a7,7,0,0,1,1.74.49,9.15,9.15,0,0,0,7.67-1.33,3.2,3.2,0,0,0,.84-.8.3.3,0,0,1,0-.1c.52-.59,1-1.18,1.51-1.78l.09-.05A8.62,8.62,0,0,0,196.33,38a23.35,23.35,0,0,0-1-2.84.08.08,0,0,1,0-.1s0,0,0,0a8.5,8.5,0,0,1,1.27,6.35,9.27,9.27,0,0,1-12.73,7A3.86,3.86,0,0,1,183.32,48.08Z"/><path class="cls-24" d="M179.06,36.07c.11.74-.37,1.35-.48,2a9.06,9.06,0,0,0,1.5,7c.14.19.36.36.3.65a8.79,8.79,0,0,1-2-7.74A4.65,4.65,0,0,1,179.06,36.07Z"/><path class="cls-24" d="M179.65,35a1.42,1.42,0,0,1-.6,1.06A1.86,1.86,0,0,1,179.65,35Z"/><path class="cls-24" d="M180.36,45.71a1.29,1.29,0,0,1,.78.86A2.09,2.09,0,0,1,180.36,45.71Z"/><path class="cls-25" d="M180.24,34.14a.58.58,0,0,1-.49.6A1.31,1.31,0,0,1,180.24,34.14Z"/><path class="cls-25" d="M195.34,35.05a.59.59,0,0,1,0,.14.84.84,0,0,1-.27-.59A.56.56,0,0,1,195.34,35.05Z"/><path class="cls-14" d="M193.57,46.44c-.63,0-1,.56-1.45.86a8,8,0,0,1-4.51,1.32,10,10,0,0,1-4-.91,9.18,9.18,0,0,1-3.55-3.12,7.48,7.48,0,0,1-1.1-3,6.81,6.81,0,0,1-.35-1.31,13,13,0,0,1,1-4.27,2.92,2.92,0,0,0,.24-.91c.54-.06.58-.62.88-.91a9.24,9.24,0,0,1,5.94-3,9,9,0,0,1,5.49,1.27A9.29,9.29,0,0,1,194.91,35a10.64,10.64,0,0,1,1,2.51,8.63,8.63,0,0,1,0,4.7c-.16.76-.61,1.48-.76,2.28h0c-.54.64-1.06,1.3-1.62,1.92Z"/><path class="cls-23" d="M193.57,46.43c0-.24.13-.36.27-.54.29-.35.79-.55.82-1.12,0-.25.31-.26.53-.26A4.87,4.87,0,0,1,193.57,46.43Z"/><circle class="cls-14" cx="187.49" cy="40.11" r="9.63"/><path class="cls-14" d="M993.49,53.66H987.9c-.33,0-.34,0-.24-.33.28-1,.56-1.94.83-2.92a.41.41,0,0,1,.47-.35c3.55,0,7.1,0,10.65,0a1.09,1.09,0,0,0,1-.56,5.12,5.12,0,0,0,.39-.73c.13-.34.06-.44-.31-.44l-5.26,0-5.89,0c-.44,0-.45,0-.34-.44.43-1.53.8-3.08,1.38-4.57a6,6,0,0,1,3.5-3.46,4.31,4.31,0,0,1,1.56-.13H1006c.39,0,.39,0,.28.37-.28.91-.57,1.81-.85,2.73a.35.35,0,0,1-.4.3c-3.56,0-7.12.05-10.68.05a1.08,1.08,0,0,0-1.1.66,4.71,4.71,0,0,0-.28.65c-.11.32,0,.43.31.43l6.3,0,4.85,0c.41,0,.42,0,.31.39-.45,1.57-.9,3.14-1.43,4.68a6.59,6.59,0,0,1-2.67,3.22,2.88,2.88,0,0,1-1.47.38c-1.64.11-3.29.07-4.94.1h-.74Z"/><path class="cls-14" d="M1019.81,39.84h5.56c.37,0,.38,0,.27.35-.28.92-.57,1.84-.85,2.76-.06.22-.17.28-.39.28l-8.85.06-2.19,0a.44.44,0,0,0-.33.09,2.64,2.64,0,0,0-.74,1.32c-.06.24.11.31.34.31l5.77,0,5.48,0c.27,0,.3.07.23.31-.46,1.65-.92,3.3-1.5,4.91a6.43,6.43,0,0,1-2.63,3.06,3.17,3.17,0,0,1-1.74.4c-3.69.13-7.39.06-11.09.09-.17,0-.22,0-.17-.22.31-1,.62-2.09.91-3.14.07-.25.23-.23.4-.23h8.29c.83,0,1.67,0,2.51,0a.9.9,0,0,0,.82-.42,5.59,5.59,0,0,0,.47-.82c.16-.39.09-.5-.33-.5-1.7,0-3.41,0-5.12,0-2,0-4,0-6.06,0-.37,0-.37,0-.28-.37.42-1.55.81-3.1,1.37-4.61a6.21,6.21,0,0,1,3.09-3.31,2.83,2.83,0,0,1,1.34-.3Z"/><path class="cls-14" d="M1039.25,53.48c.26-.89.52-1.77.77-2.65.65-2.28,1.29-4.57,2-6.85a6.18,6.18,0,0,1,2.28-3.36,4.93,4.93,0,0,1,3-.83c2.07,0,4.14,0,6.21,0h3.85c.73,0,.72,0,.51.68-1.32,4.24-2.57,8.5-3.83,12.76-.07.22-.14.32-.4.31-.69,0-1.38,0-2.07,0-.34,0-.34,0-.24-.33,1-3.19,2-6.38,2.9-9.59.17-.57.19-.53-.38-.53-2.49,0-5-.05-7.48,0-.2,0-.4,0-.59,0a1.12,1.12,0,0,0-1.11.85c-.33.82-.5,1.69-.75,2.54q-1,3.3-1.9,6.6a.31.31,0,0,1-.34.28C1040.86,53.47,1040.07,53.5,1039.25,53.48Z"/><path class="cls-14" d="M988.4,32.14c-.92,0-1.85-.07-2.78-.1-.41,0-.41,0-.38-.41.15-1.75.21-3.51.23-5.28,0-.21-.06-.28-.25-.34-.92-.26-1.83-.56-2.75-.81a64.43,64.43,0,0,0-14.13-2.37,55.8,55.8,0,0,0-11.26.54,57.24,57.24,0,0,0-11,2.79c-.32.11-.39.26-.38.58a77.8,77.8,0,0,0,1,9.63,50.79,50.79,0,0,0,2.6,9.69.75.75,0,0,1,.11.4h-4.29c-.35,0-.37,0-.21.35.43.89,1,1.74,1.45,2.6a.59.59,0,0,0,.58.34c1.22,0,2.43,0,3.64,0a.55.55,0,0,1,.56.35A31.48,31.48,0,0,0,964.91,64l2,1h.12c0-.1.15-.13.23-.18a35.78,35.78,0,0,0,9.26-8.3,39.51,39.51,0,0,0,6.79-13.77,50,50,0,0,0,1.42-6.84c0-.28.12-.39.43-.37.57,0,1.15,0,1.72,0a.41.41,0,0,0,.46-.3c.38-1,.78-1.93,1.18-2.89C988.63,32.21,988.6,32.15,988.4,32.14ZM983,35.93a47.92,47.92,0,0,1-2.42,9.71A36.35,36.35,0,0,1,974.82,56,34.19,34.19,0,0,1,967,63a.32.32,0,0,1-.35,0A30,30,0,0,1,953,50l-.07-.15a0,0,0,0,1,0,0h3.4c4.36,0,8.73.06,13.1,0a8.07,8.07,0,0,0,5.8-2.72,6.31,6.31,0,0,0,1.39-2.1c.77-1.9,1.55-3.8,2.32-5.71.13-.33.13-.34-.25-.35-2.72-.07-5.44,0-8.16,0H957.82c-.4,0-.49-.12-.38-.49a4.67,4.67,0,0,1,1.09-2,2.63,2.63,0,0,1,2-.94c1.16,0,2.32,0,3.49,0l18.72,0C983.09,35.55,983.1,35.56,983,35.93Zm.48-4.14c0,.22-.12.2-.26.2l-10.12-.15h-.71c-3.32,0-6.64-.07-10,0a13.09,13.09,0,0,0-2.26.18,1.22,1.22,0,0,0-.34.1,11.52,11.52,0,0,0-4.11,3.35A19.1,19.1,0,0,0,954,38.92c-.48,1.17-.93,2.36-1.41,3.53-.1.24,0,.29.2.3,1.55.06,3.1,0,4.64,0l11.78-.05c1.36,0,2.72,0,4.08,0,.54,0,.57,0,.4.55a5.39,5.39,0,0,1-1.53,2.61,2.15,2.15,0,0,1-1.47.59c-1.17,0-2.34,0-3.52,0H951.61a.4.4,0,0,1-.44-.31,50,50,0,0,1-2.88-10.62,77.21,77.21,0,0,1-.82-7.74.35.35,0,0,1,.28-.42,54.59,54.59,0,0,1,21.93-2.75,66.18,66.18,0,0,1,13.81,2.63.32.32,0,0,1,.26.37C983.69,29,983.63,30.41,983.52,31.79Z"/><path class="cls-14" d="M1041.89,39.78c-1.66-.07-3.32-.06-5-.07-2.05,0-4.11-.05-6.15.07a3.25,3.25,0,0,0-1.52.32,6,6,0,0,0-2.9,3.26c-1,3.29-2,6.6-3,9.91-.1.36-.09.36.27.36h6.07V53.5h6a.4.4,0,0,0,.46-.35c.27-.89.56-1.78.84-2.67.11-.36.1-.36-.26-.36-1.43,0-2.86,0-4.29,0h-5c-.35,0-.37,0-.27-.35s.28-.8.41-1.2a.31.31,0,0,1,.36-.25c.37,0,.73,0,1.1,0,2.28,0,4.55.07,6.83.07a4.59,4.59,0,0,0,3.65-1.76,6.89,6.89,0,0,0,1.15-2.11c.52-1.45.91-2.95,1.41-4.41C1042.26,39.79,1042.26,39.79,1041.89,39.78Zm-3.47,3.85a3,3,0,0,1-.32.7,1.44,1.44,0,0,1-1.39.79c-2.36,0-4.73,0-7.1,0h-.56c-.4,0-.48-.14-.36-.53a4.29,4.29,0,0,1,.64-1.19.66.66,0,0,1,.56-.2c1.37,0,2.74,0,4.11,0h4C1038.53,43.11,1038.55,43.15,1038.42,43.63Z"/><path class="cls-14" d="M1087.73,39.89c-3.92,0-7.85,0-11.77,0a.49.49,0,0,0-.56.39c-.26.86-.48,1.73-.71,2.59-.08.28,0,.33.26.33h5c1.43,0,2.86,0,4.29,0,.22,0,.31.07.24.3s-.13.47-.2.7c-.24.79-.24.78-1.08.78-2.67,0-5.35-.07-8,0a3.59,3.59,0,0,0-1.89.58,5.52,5.52,0,0,0-2.19,2.63c-.13.35-.27.7-.39,1.05-.42,1.22-.78,2.45-1.11,3.69-.1.39,0,.51.37.57a3.94,3.94,0,0,0,.77,0l6.65,0h4a1.47,1.47,0,0,0,.86-.28,16.87,16.87,0,0,0,1.36-1,4.85,4.85,0,0,0,1.5-2.25c.81-2.49,1.55-5,2.3-7.52.25-.83.51-1.65.71-2.53Zm-4.66,8.78a4.41,4.41,0,0,1-.62,1.2.85.85,0,0,1-.73.37l-8.1.06h-.21c-.2,0-.28-.08-.24-.29a3.87,3.87,0,0,1,.54-1.27.92.92,0,0,1,.84-.44h4.11v0h4.11C1083.15,48.27,1083.2,48.33,1083.07,48.67Z"/><path class="cls-14" d="M1071.7,34.68c-.24,0-.32.08-.38.3-.37,1.45-.75,2.91-1.13,4.36-.12.49-.12.49-.61.48q-3.15-.07-6.3,0a3.32,3.32,0,0,0-1.75.35,5.62,5.62,0,0,0-2.58,3.07c-1.1,3.33-2,6.71-3,10.07-.06.22,0,.26.2.25,3.08,0,6.15,0,9.23-.1a3.34,3.34,0,0,0,2.38-1,7.07,7.07,0,0,0,2-2.82c1.06-3.64,2.15-7.27,3.23-10.91.4-1.33.79-2.65,1.19-4C1073.27,34.69,1072.48,34.7,1071.7,34.68Zm-2.84,8.72c-.56,1.89-1.11,3.78-1.68,5.67a1.29,1.29,0,0,1-1.42,1.12c-1.41.1-2.83,0-4.25,0-.57,0-1.14,0-1.72,0-.35,0-.39-.05-.29-.37.59-1.93,1.17-3.85,1.77-5.77a1.05,1.05,0,0,1,1.2-.88h6.21C1068.88,43.14,1068.92,43.19,1068.86,43.4Z"/><path class="cls-14" d="M1117.14,39.82c.45-.06.91,0,1.37,0,.14,0,.18.06.16.19h-1.28C1117.27,40,1117.17,40,1117.14,39.82Z"/><path class="cls-14" d="M1122.53,39.79c.12,0,.22.06.25.19A.32.32,0,0,1,1122.53,39.79Z"/><path class="cls-14" d="M1122.05,39.78a.36.36,0,0,1,.24.21C1122.18,40,1122.12,39.86,1122.05,39.78Z"/><path class="cls-14" d="M1119.16,39.76a.45.45,0,0,1,.22.25C1119.25,40,1119.21,39.87,1119.16,39.76Z"/><path class="cls-14" d="M1121.88,39.8a.24.24,0,0,1,.17.17A.46.46,0,0,1,1121.88,39.8Z"/><path class="cls-14" d="M1121.7,39.82l.16.12A.18.18,0,0,1,1121.7,39.82Z"/><path class="cls-14" d="M1119,39.81a.29.29,0,0,1,.14.15A.26.26,0,0,1,1119,39.81Z"/><path class="cls-14" d="M1119.47,39.82a.33.33,0,0,1,.13.13S1119.49,39.89,1119.47,39.82Z"/><polygon class="cls-14" points="1119.96 39.89 1119.95 39.88 1119.96 39.89 1119.96 39.89"/><path class="cls-14" d="M1119.4,39.85l.08.07S1119.42,39.88,1119.4,39.85Z"/><path class="cls-14" d="M1122.48,39.85a.09.09,0,0,1,.06.07A.07.07,0,0,1,1122.48,39.85Z"/><path class="cls-14" d="M1122.41,39.85l.07.07Z"/><path class="cls-14" d="M1122.34,39.85a.13.13,0,0,1,.08.07A.1.1,0,0,1,1122.34,39.85Z"/><path class="cls-14" d="M1121.63,39.87l0,0A0,0,0,0,1,1121.63,39.87Z"/><path class="cls-14" d="M1119.9,39.91l0,0S1119.9,39.88,1119.9,39.91Z"/><path class="cls-14" d="M1124.33,42.47l.06.14,0,0c.56.45,1.13.9,1.68,1.38l1.18,1c1,.87,2,1.74,3,2.64.32.29.64.57,1,.83s.67.66,1,1q.89.78,1.8,1.53c.41.35.76.75,1.19,1.08.74.58,1.4,1.27,2.12,1.87s1.14,1,1.71,1.47q.59.5,1.14,1c.45.41,1,.77,1.38,1.21a1.65,1.65,0,0,0,.59.49s0,.07,0,.1h-6.36a.87.87,0,0,1-.32-.22.15.15,0,0,0-.17-.09h0c0-.1-.05-.15-.16-.16h0c0-.06,0-.14-.11-.11l-1.43-1.31a.48.48,0,0,0-.31-.28h0a.89.89,0,0,0-.33-.31v0c0-.13-.09-.23-.23-.25h0c0-.15-.15-.18-.26-.23a.32.32,0,0,1-.2-.16,1,1,0,0,0-.32-.3h0a.46.46,0,0,0-.31-.25h0a.42.42,0,0,0-.32-.32h0c0-.09-.06-.15-.16-.16h0a.17.17,0,0,0-.15-.16,1.33,1.33,0,0,1-.66-.5,10.82,10.82,0,0,0-1.31-1.22,8.16,8.16,0,0,1-.87-.8c-.61-.61-1.22-1.21-1.89-1.76a3.78,3.78,0,0,1-.39-.41c-.62-.69-1.35-1.25-2-1.9a.53.53,0,0,1-.11-.15.35.35,0,0,0-.17-.17h0l-.11-.09h0a.68.68,0,0,0-.28-.3h0a.39.39,0,0,0-.18-.18,1.61,1.61,0,0,1-.36-.33c-.39-.44-.86-.8-1.27-1.22a9.66,9.66,0,0,1-1.63-2.24,3.91,3.91,0,0,1-.31-1.06,5,5,0,0,1,.52-3.39c.13-.24.22-.51.36-.75a8.73,8.73,0,0,1,.68-.92,8.28,8.28,0,0,1,2.59-2,13.14,13.14,0,0,1,1.34-.57c.67-.28,1.32-.6,2-.84,1.13-.41,2.22-.91,3.33-1.35s2.32-1,3.5-1.43c.69-.26,1.38-.53,2.06-.83,1.57-.71,3.21-1.29,4.8-2,1-.45,2.08-.9,3.14-1.29.88-.33,1.74-.73,2.62-1.05.17-.06.31-.19.48-.25,1.3-.48,2.57-1.05,3.87-1.55.6-.23,1.19-.5,1.79-.75s1.24-.53,1.87-.75,1.41-.54,2.1-.85c.88-.41,1.79-.72,2.68-1.12.43-.19.87-.36,1.31-.53.64-.26,1.3-.47,1.92-.76s1.22-.57,1.86-.8c1.23-.44,2.43-1,3.65-1.47,1-.4,2-.87,3-1.25.66-.25,1.29-.55,2-.77.35-.12.65-.35,1-.48.61-.22,1.21-.45,1.82-.7s1.31-.55,2-.82c1.18-.49,2.34-1,3.53-1.45.86-.32,1.71-.67,2.55-1,1-.45,2.08-.83,3.12-1.26a8.64,8.64,0,0,1,.88-.38c1.26-.42,2.44-1.07,3.69-1.52,1-.35,1.89-.75,2.83-1.15s1.65-.67,2.47-1,1.9-.74,2.84-1.14l1.39-.62c.7-.28,1.41-.51,2.1-.83s1.37-.55,2-.83a.19.19,0,0,1,.18,0c0,.05,0,.11,0,.15a16.26,16.26,0,0,0-.68,2.15c-.23.81-.43,1.63-.73,2.42a12.37,12.37,0,0,1-1.3,2.43,10.43,10.43,0,0,1-1.93,2,16.33,16.33,0,0,1-3.15,2,27.18,27.18,0,0,1-2.51,1.15c-.28.11-.58.19-.87.3l-1.43.56c-.87.33-1.76.62-2.64.92-1.21.41-2.41.86-3.6,1.31-2,.75-4,1.35-6,2.14-.58.24-1.18.41-1.77.61-1.06.37-2.1.76-3.14,1.14a7.58,7.58,0,0,0-.81.25,14.06,14.06,0,0,1-1.9.73c-.57.2-1.15.41-1.73.6-.88.28-1.74.6-2.59,1-.6.26-1.24.42-1.85.63l-3.8,1.35c-.36.12-.7.3-1.07.42-.89.29-1.76.62-2.65.92-1,.35-2,.77-3.09,1.13-1.5.51-3,1.08-4.49,1.58-.86.28-1.69.66-2.56.94-1.69.55-3.34,1.2-5,1.77-.75.26-1.5.53-2.24.82s-1.3.45-2,.67-1.4.55-2.11.81l-1.82.61-4.07,1.48c-1.07.37-2.12.78-3.19,1.12a14.86,14.86,0,0,0-3.38,1.45,3.2,3.2,0,0,0-1.66,2.1,1.58,1.58,0,0,0,.43,1.54h0v0Z"/><path class="cls-14" d="M1127.4,43.43l-.06,0a.43.43,0,0,0-.3-.27h0a.32.32,0,0,0-.22-.22h0l-.2-.15,0-.08,0,0a2.53,2.53,0,0,1-.56-1.06,1.58,1.58,0,0,1,.7-1.53,15.36,15.36,0,0,1,3.52-1.36A9,9,0,0,0,1132,38a6.37,6.37,0,0,1,1.23-.42c1.5-.43,3-.91,4.48-1.42,1.31-.46,2.65-.84,4-1.3.92-.33,1.87-.54,2.78-.88.69-.25,1.38-.52,2.09-.72,1.47-.41,2.91-.93,4.36-1.39s3-1,4.51-1.47c.87-.27,1.75-.54,2.62-.84.5-.17,1-.38,1.51-.52.82-.23,1.63-.51,2.44-.78.57-.18,1.13-.4,1.71-.55.95-.24,1.85-.64,2.8-.92.55-.16,1.1-.39,1.66-.55s1.24-.39,1.86-.58c.82-.24,1.61-.57,2.42-.82l2.27-.71c.69-.23,1.37-.48,2.06-.67,1.47-.4,2.86-1,4.32-1.42,1.15-.32,2.27-.7,3.39-1.09,1.28-.44,2.57-.81,3.85-1.25,1-.35,2.06-.61,3.06-1,.81-.3,1.63-.59,2.46-.83,1.36-.41,2.7-.9,4.06-1.31.63-.18,1.22-.46,1.85-.61.16,0,.25,0,.22.16a14.36,14.36,0,0,0-.6,1.32c-.28.57-.5,1.18-.79,1.74a19.5,19.5,0,0,1-1.48,2.33c-.32.44-.7.81-1,1.23a4,4,0,0,1-.58.66c-.31.23-.61.46-.9.72a9.14,9.14,0,0,1-1.64,1.12,9.15,9.15,0,0,1-2.44,1c-1.71.42-3.41.91-5.12,1.36s-3.57,1-5.38,1.41c-.76.17-1.49.44-2.25.63-1,.24-1.9.51-2.86.74-1.83.43-3.63.95-5.44,1.44s-3.33.91-5,1.31q-1.44.35-2.85.78c-1.21.39-2.46.62-3.68,1s-2.73.69-4.08,1.07l-3,.8c-1,.28-2.08.55-3.12.8-.61.15-1.2.33-1.83.43a1.29,1.29,0,0,0-1.24,1.36c0,.19-.06.26-.24.31-1,.32-2.11.52-3.15.83-1.3.4-2.61.73-3.93,1-1.74.42-3.45,1-5.18,1.41-1.11.28-2.22.59-3.33.9a1.27,1.27,0,0,1-.86,0h0a.32.32,0,0,0-.31-.23h0s0-.07-.08-.08h0l-.09-.08h0A.14.14,0,0,0,1127.4,43.43Z"/><path class="cls-14" d="M1132.12,47.42a.63.63,0,0,1-.28-.2c-.42-.42-.89-.79-1.34-1.19s-.78-.69-1.14-1.06a.83.83,0,0,1-.16-.21c0-.07,0-.15.07-.17.51-.1,1-.27,1.52-.37s.87-.21,1.3-.32c1.24-.31,2.46-.66,3.7-.95,1.55-.37,3.07-.86,4.62-1.23.72-.17,1.44-.32,2.15-.52,1-.3,2.06-.5,3.06-.84.78-.26,1.59-.37,2.38-.59l2.55-.68c.57-.14,1.14-.29,1.71-.41a13.23,13.23,0,0,0,2.13-.6c.57-.22,1.18-.32,1.76-.49,1.17-.33,2.36-.56,3.53-.89.66-.18,1.34-.32,2-.51,1-.3,2-.5,3-.77s2.23-.64,3.37-.89c.79-.17,1.59-.36,2.37-.59s1.59-.46,2.4-.65c1.31-.31,2.62-.66,3.93-1,.76-.19,1.53-.37,2.29-.58s1.67-.46,2.51-.67c1-.25,2-.58,3-.76.42-.08.83-.22,1.25-.33s.8-.19,1.19-.31c.75-.23,1.51-.45,2.27-.63l2-.49,2.22-.59c.1,0,.21-.09.31,0v0l0,0c-.09.13-.17.26-.26.38-.48.75-1,1.5-1.45,2.26a12.84,12.84,0,0,1-1.71,2.3,15.51,15.51,0,0,1-1.57,1.57,15,15,0,0,1-2.8,1.73,12.82,12.82,0,0,1-3.25,1c-1.11.17-2.21.42-3.32.6-.65.11-1.29.31-1.94.44-.86.17-1.73.33-2.6.45-.51.07-1,.21-1.51.29-2,.32-3.91.76-5.88,1.06-1.17.17-2.3.48-3.46.67-1.32.22-2.61.52-3.93.71-.75.11-1.48.27-2.22.41-1.54.29-3.08.51-4.59.92a1.37,1.37,0,0,0-1.16,1.33c0,.14-.06.2-.2.22l-1,.19c-1,.19-1.9.42-2.86.58s-2.1.42-3.17.57c-.71.1-1.4.29-2.11.4-1.79.3-3.56.7-5.34,1-1.33.23-2.64.5-4,.75-.59.11-.59.11-1-.14h0l-.08-.07h0c0-.1-.06-.14-.15-.16h0Z"/><path class="cls-14" d="M1138,52.56a.82.82,0,0,1-.41-.27l-.88-.79-1.32-1.2a.27.27,0,0,0-.23-.19h0s0-.06-.08-.08h0a.13.13,0,0,0-.11-.08,3.16,3.16,0,0,1-.81-.82,6,6,0,0,1,1.08-.25c.81-.17,1.62-.36,2.44-.47,1.29-.18,2.55-.49,3.83-.72.86-.15,1.71-.32,2.56-.49a9.2,9.2,0,0,1,1.17-.19c.18,0,.34-.11.51-.14l2.55-.5,2.18-.44c.6-.12,1.2-.22,1.8-.33l2.33-.44c.57-.11,1.13-.21,1.69-.35.83-.2,1.67-.37,2.51-.51,1.15-.19,2.29-.42,3.43-.64s2.23-.43,3.34-.66c.4-.08.8-.15,1.21-.2.59-.07,1.16-.27,1.75-.38l2.85-.55c.43-.08.86-.14,1.28-.26s1.08-.15,1.62-.28,1-.19,1.54-.3q1-.2,2.1-.42c.39-.08.79-.15,1.19-.26a13.62,13.62,0,0,1,1.69-.32c.59-.09,1.18-.21,1.77-.33l2.47-.5c.07,0,.17-.05.2,0s-.06.1-.09.16a.81.81,0,0,0-.16.16,18.4,18.4,0,0,1-1.2,1.69c-.38.48-.73,1-1.13,1.45a15.23,15.23,0,0,1-2.37,2.17,8.26,8.26,0,0,1-2.79,1.33,12.34,12.34,0,0,1-2.1.39c-1.33.19-2.65.42-4,.6s-2.86.43-4.29.63-2.67.48-4,.55a2.89,2.89,0,0,0-1.07.29,1,1,0,0,0-.57.63,1.78,1.78,0,0,0-.08.45c0,.15-.06.21-.2.22l-.76.09-2.7.36c-1.17.14-2.34.25-3.5.42-1.38.2-2.77.27-4.15.51-.48.08-1,.11-1.45.17l-2.89.37-2.81.36-2.36.27c-.54,0-1.07.09-1.6.17A1.16,1.16,0,0,1,1138,52.56Z"/><path class="cls-14" d="M1139.67,54.31a.73.73,0,0,1-.35-.4l2-.26,1.51-.23c.44-.07.88-.14,1.33-.19l2.35-.29,2.36-.3c1.13-.14,2.26-.25,3.38-.42s2-.25,3.08-.38l2.13-.29c.54-.07,1.09-.1,1.63-.22s1.31-.17,2-.25l1.82-.23a.46.46,0,0,1,.36.09c.61.39,1.24.76,1.82,1.17a11.2,11.2,0,0,0,1,.6c.57.33,1.08.74,1.63,1.08l2.23,1.41c1,.62,1.94,1.27,2.93,1.85.56.33,1.05.77,1.62,1.08,0,0,0,0,0,.06h-30a1.53,1.53,0,0,1-.73-.16h0a.46.46,0,0,0-.3-.32l-.07-.06a1.15,1.15,0,0,0-.48-.47h0l-.08-.09h0a.3.3,0,0,0-.24-.23h0l-.09-.08h0a.32.32,0,0,0-.16-.09h0l-.09-.07h0a.3.3,0,0,0-.24-.16h0a.09.09,0,0,0-.09-.08h0l-.08-.08h0l-.09-.08h0l-.09-.09h0l-.08-.08h0l-.09-.09s0,0,0-.06l-.09-.08h0c0-.13-.12-.19-.24-.23h0c-.11-.29-.39-.39-.62-.54h0a.73.73,0,0,0-.33-.32l0,0-.14-.13h0a.3.3,0,0,0-.24-.19h0C1139.85,54.39,1139.8,54.3,1139.67,54.31Z"/><path class="cls-14" d="M1124.3,42.41a1.58,1.58,0,0,1-.43-1.54,3.2,3.2,0,0,1,1.66-2.1,14.86,14.86,0,0,1,3.38-1.45c1.07-.34,2.12-.75,3.19-1.12l4.07-1.48,1.82-.61c.71-.26,1.4-.57,2.11-.81s1.32-.42,2-.67,1.49-.56,2.24-.82c1.68-.57,3.33-1.22,5-1.77.87-.28,1.7-.66,2.56-.94,1.5-.5,3-1.07,4.49-1.58,1-.36,2.05-.78,3.09-1.13.89-.3,1.76-.63,2.65-.92.37-.12.71-.3,1.07-.42l3.8-1.35c.61-.21,1.25-.37,1.85-.63.85-.36,1.71-.68,2.59-1,.58-.19,1.16-.4,1.73-.6a14.06,14.06,0,0,0,1.9-.73,7.58,7.58,0,0,1,.81-.25c1-.38,2.08-.77,3.14-1.14.59-.2,1.19-.37,1.77-.61,2-.79,4-1.39,6-2.14,1.19-.45,2.39-.9,3.6-1.31.88-.3,1.77-.59,2.64-.92l1.43-.56c.29-.11.59-.19.87-.3a27.18,27.18,0,0,0,2.51-1.15,16.33,16.33,0,0,0,3.15-2,10.43,10.43,0,0,0,1.93-2,12.37,12.37,0,0,0,1.3-2.43c.3-.79.5-1.61.73-2.42a16.26,16.26,0,0,1,.68-2.15s0-.1,0-.15a.48.48,0,0,1,.09.47c-.43,1.61-.89,3.21-1.41,4.8a8,8,0,0,1-.4.77,9.44,9.44,0,0,1-1.07,1.71,9.77,9.77,0,0,1-1.13,1.19c-.45.43-1,.77-1.43,1.15-.31.24-.66.43-1,.64a23.12,23.12,0,0,1-3.44,1.74c-.4.18-.85.26-1.24.45a21,21,0,0,1-2.24.85l-3,1c-1.6.58-3.19,1.19-4.81,1.74-.78.27-1.57.52-2.33.82s-1.69.63-2.55.91c-.62.19-1.22.45-1.83.67l-1.12.38c-1.33.47-2.65,1-4,1.44-.88.29-1.75.61-2.62.92-.33.12-.62.29-.95.39-1.4.43-2.75,1-4.15,1.44-1,.3-1.84.73-2.79,1-.75.23-1.49.51-2.23.77l-2.54.94c-.65.25-1.31.49-2,.7s-1.29.47-1.93.7c-.35.13-.71.19-1.06.33-1,.39-1.93.8-2.92,1.1-1.24.37-2.45.85-3.67,1.29s-2.35.82-3.51,1.26c-.51.2-1,.36-1.55.53-.84.28-1.66.63-2.49.94-.58.22-1.18.39-1.77.59l-2.44.88c-1.35.49-2.7,1-4.06,1.46a20.14,20.14,0,0,0-2.18.78,14.75,14.75,0,0,0-2.28,1.06,3.6,3.6,0,0,0-.86.79,3.75,3.75,0,0,0-.44.53A2.11,2.11,0,0,0,1124.3,42.41Z"/><path class="cls-14" d="M1128,43.89a1.27,1.27,0,0,0,.86,0c1.11-.31,2.22-.62,3.33-.9,1.73-.45,3.44-1,5.18-1.41,1.32-.32,2.63-.65,3.93-1,1-.31,2.11-.51,3.15-.83.18-.05.26-.12.24-.31a1.29,1.29,0,0,1,1.24-1.36c.63-.1,1.22-.28,1.83-.43,1-.25,2.08-.52,3.12-.8l3-.8c1.35-.38,2.72-.7,4.08-1.07s2.47-.57,3.68-1q1.41-.44,2.85-.78c1.68-.4,3.34-.87,5-1.31s3.61-1,5.44-1.44c1-.23,1.91-.5,2.86-.74.76-.19,1.49-.46,2.25-.63,1.81-.42,3.59-.93,5.38-1.41s3.41-.94,5.12-1.36a9.15,9.15,0,0,0,2.44-1,9.14,9.14,0,0,0,1.64-1.12c.29-.26.59-.49.9-.72a4,4,0,0,0,.58-.66c.34-.42.72-.79,1-1.23a19.5,19.5,0,0,0,1.48-2.33c.29-.56.51-1.17.79-1.74a14.36,14.36,0,0,1,.6-1.32c.14,0,.16.08.13.17s-.13.35-.19.53c-.32.85-.75,1.65-1.13,2.47a16.37,16.37,0,0,1-1.54,2.49c-.24.34-.57.63-.81,1a9.67,9.67,0,0,1-2.08,1.91,10.16,10.16,0,0,1-3.74,1.81c-.61.14-1.2.34-1.8.5l-3.46.91-2.47.66-1.65.41a17.1,17.1,0,0,0-2.09.59,12.4,12.4,0,0,1-1.51.4c-.94.25-1.9.47-2.84.72l-3.32.89-2.46.66c-1.08.29-2.15.61-3.24.85s-1.93.47-2.87.75c-.78.24-1.56.47-2.35.64-1.2.26-2.36.63-3.55.91-.69.16-1.37.38-2.06.53-.32.07-.63.2-1,.29-.87.23-1.75.44-2.61.69s-1.81.43-2.71.68a9.68,9.68,0,0,0-1.4.39,14.5,14.5,0,0,1-1.6.43,1,1,0,0,0-.8,1.17c0,.25-.07.28-.24.32-.41.1-.82.18-1.23.29-.7.2-1.4.42-2.11.61-.94.25-1.89.51-2.84.74s-1.7.42-2.54.7a3.12,3.12,0,0,1-.44.09c-.59.11-1.12.4-1.72.51-.91.17-1.79.45-2.68.7l-2.36.64A.62.62,0,0,1,1128,43.89Z"/><path class="cls-14" d="M1132.42,47.72c.44.25.44.25,1,.14,1.32-.25,2.63-.52,4-.75,1.78-.31,3.55-.71,5.34-1,.71-.11,1.4-.3,2.11-.4,1.07-.15,2.11-.38,3.17-.57s1.9-.39,2.86-.58l1-.19c.14,0,.19-.08.2-.22a1.37,1.37,0,0,1,1.16-1.33c1.51-.41,3-.63,4.59-.92.74-.14,1.47-.3,2.22-.41,1.32-.19,2.61-.49,3.93-.71,1.16-.19,2.29-.5,3.46-.67,2-.3,3.92-.74,5.88-1.06.51-.08,1-.22,1.51-.29.87-.12,1.74-.28,2.6-.45.65-.13,1.29-.33,1.94-.44,1.11-.18,2.21-.43,3.32-.6a12.82,12.82,0,0,0,3.25-1,15,15,0,0,0,2.8-1.73,15.51,15.51,0,0,0,1.57-1.57,12.84,12.84,0,0,0,1.71-2.3c.48-.76,1-1.51,1.45-2.26.09-.12.17-.25.26-.38,0,.14.15.05.22.1a1.36,1.36,0,0,1-.26.41c-.62,1-1.24,2-1.89,2.95-.25.37-.5.74-.77,1.09s-.67.7-1,1.07a10.44,10.44,0,0,1-2.67,2.15,13.72,13.72,0,0,1-2.48,1.17,26.94,26.94,0,0,1-3.45.79c-.56.12-1.12.21-1.67.35a29.63,29.63,0,0,1-3.48.66c-.5.06-1,.17-1.47.26l-1.73.33c-.54.11-1.09.24-1.64.32-.93.13-1.85.36-2.79.47a11.08,11.08,0,0,0-1.6.33c-.29.08-.59.13-.89.19l-1.62.29-2.25.41c-1,.19-2,.32-3,.54-.77.16-1.55.25-2.32.41-.52.12-1,.18-1.56.34a6.23,6.23,0,0,1-1.38.24,3,3,0,0,0-1.09.33,1.21,1.21,0,0,0-.68,1.19c0,.15,0,.18-.15.2-.87.18-1.74.37-2.62.54-.69.13-1.4.23-2.1.37-1,.18-1.93.33-2.89.52l-2.77.52c-.72.14-1.45.24-2.17.44-.51.14-1,.18-1.57.28l-2.32.45c-.69.12-1.38.26-2.07.37a.68.68,0,0,0-.15,0C1133,48.34,1132.69,48.07,1132.42,47.72Z"/><path class="cls-14" d="M1138,52.56a1.16,1.16,0,0,0,1,.13c.53-.08,1.06-.12,1.6-.17l2.36-.27,2.81-.36,2.89-.37c.49-.06,1-.09,1.45-.17,1.38-.24,2.77-.31,4.15-.51,1.16-.17,2.33-.28,3.5-.42l2.7-.36.76-.09c.14,0,.21-.07.2-.22a1.78,1.78,0,0,1,.08-.45,1,1,0,0,1,.57-.63,2.89,2.89,0,0,1,1.07-.29c1.35-.07,2.68-.35,4-.55s2.86-.43,4.29-.63,2.65-.41,4-.6a12.34,12.34,0,0,0,2.1-.39,8.26,8.26,0,0,0,2.79-1.33,15.23,15.23,0,0,0,2.37-2.17c.4-.46.75-1,1.13-1.45a18.4,18.4,0,0,0,1.2-1.69.81.81,0,0,1,.16-.16c.07,0,.14,0,.22,0s0,.14-.07.2c-.36.53-.68,1.08-1.08,1.56a27.52,27.52,0,0,1-2.18,2.62c-.22.2-.44.4-.67.57a9.51,9.51,0,0,1-1.38,1.08,12.53,12.53,0,0,1-2.71,1.1c-.65.14-1.31.19-2,.34-1,.23-2.09.27-3.13.46-.8.15-1.61.26-2.41.38-1.06.15-2.11.34-3.17.47l-1.9.25a13,13,0,0,0-2.14.31,1.16,1.16,0,0,0-.89.7,1.38,1.38,0,0,0-.06.53c0,.15,0,.21-.22.23-.9.13-1.81.23-2.72.34s-2.05.25-3.07.36c-.67.08-1.34.17-2,.24-.23,0-.46,0-.69.06-.94.21-1.91.26-2.87.41-.38.07-.78.08-1.17.13s-.93.12-1.4.18c-.79.1-1.58.21-2.38.28s-1.56.21-2.34.3l-1.57.16c-.49.05-1,.12-1.47.19a7.14,7.14,0,0,0-1.13.15.17.17,0,0,1-.18,0C1138.24,52.8,1138,52.75,1138,52.56Z"/><path class="cls-14" d="M1143.72,58a1.53,1.53,0,0,0,.73.16h30l.13.13c0,.1-.09.07-.15.07h-29.71A1.22,1.22,0,0,1,1143.72,58Z"/><path class="cls-14" d="M1136.49,68.21c-.11.05-.2.05-.22-.1a1.76,1.76,0,0,1,0-.23V62.47c0-.33,0-.33.35-.34h1.19c.46,0,.46,0,.46-.46s0-1,0-1.45a.58.58,0,0,1,.19.52c0,.43,0,.87,0,1.3s0,.35-.33.35-.94,0-1.42,0c-.2,0-.25.07-.25.26C1136.49,64.5,1136.49,66.35,1136.49,68.21Z"/><path class="cls-14" d="M1135.9,58.26h6.36c0,.08.14.05.14.16s-.19,0-.29,0h-5.78C1136.16,58.47,1136,58.51,1135.9,58.26Z"/><path class="cls-14" d="M1189.07,70.42l.57,0h5.51c.37,0,.37,0,.38-.36V68.82a1,1,0,0,1,0-.42c.08,0,.14,0,.14.13,0,.62,0,1.25,0,1.87,0,.22-.15.18-.27.18h-6.3C1189.07,70.55,1189.07,70.48,1189.07,70.42Z"/><path class="cls-14" d="M1172.36,60.33c0-.2-.15-.19-.3-.19h-5.55c-.13,0-.17.07-.17.19v1.53c0,.14.07.18.19.17.41,0,.83,0,1.24,0,.21,0,.28.09.24.28,0,1.66,0,3.33,0,5-.71-.84-1.28-1.73-1.93-2.57-.4-.52-.74-1.09-1.12-1.63s-.7-.91-1-1.39-.61-.84-.91-1.27a.64.64,0,0,0-.6-.3h-7.3a.17.17,0,0,0-.19.19c0,.52,0,1.05,0,1.57,0,.11.07.12.15.13h1.53c.19,0,.25.08.22.25V68c0,.36,0,.36-.35.36h-1.34c-.11,0-.22,0-.22.15,0,.54,0,1.08,0,1.61,0,.11.08.11.16.13h5.5c.34,0,.39,0,.39-.3v-.2h0v-.12c0-.18,0-.36,0-.53h0a3.14,3.14,0,0,1,0-.53c0-.18-.12-.2-.26-.2h-1.29c-.15.08-.2,0-.2-.12s0-.33,0-.5c0-.71,0-1.41,0-2.12v-2.1c0-.06,0-.12,0-.17a1.5,1.5,0,0,1,0-.2,1.15,1.15,0,0,1,0-.19.49.49,0,0,1,0-.19l.08.06a.6.6,0,0,1,.08.16c.17.08.15.29.27.4a6.51,6.51,0,0,1,.87,1.16c.54.82,1.12,1.6,1.7,2.39.13.17.22.37.35.54.33.44.67.87,1,1.34a9.08,9.08,0,0,0,1.1,1.45H1170c.37,0,.37,0,.37-.38,0-2.44,0-4.89,0-7.33a.75.75,0,0,1,0-.15c0-.37,0-.37.39-.37s.79,0,1.19,0,.39,0,.4-.42A7.71,7.71,0,0,1,1172.36,60.33Z"/><path class="cls-14" d="M1192.13,62.2c.71-.07,1.42,0,2.12,0,.07,0,.17,0,.19.08s-.07.13-.13.17c-.57-.07-1.14,0-1.72,0h-.26C1192.21,62.38,1192.13,62.32,1192.13,62.2Z"/><path class="cls-14" d="M1166.53,62c.41,0,.83,0,1.24,0,.21,0,.28.09.24.28h-1.24C1166.58,62.3,1166.48,62.24,1166.53,62Z"/><path class="cls-14" d="M1155.1,62h1.53c.19,0,.25.08.22.25h-1.48C1155.19,62.29,1155.07,62.24,1155.1,62Z"/><path class="cls-14" d="M1173.44,62.19c.51-.06,1,0,1.51,0,.17,0,.24.07.15.23h-1.36C1173.59,62.39,1173.47,62.37,1173.44,62.19Z"/><path class="cls-14" d="M1140.56,55.11c.23.15.51.25.62.54A2.9,2.9,0,0,1,1140.56,55.11Z"/><path class="cls-14" d="M1142.87,57.18a1.15,1.15,0,0,1,.48.47A1,1,0,0,1,1142.87,57.18Z"/><path class="cls-14" d="M1140.31,68.63c.19.18.44.3.57.55A1.58,1.58,0,0,1,1140.31,68.63Z"/><path class="cls-14" d="M1143.42,57.71a.46.46,0,0,1,.3.32C1143.55,58,1143.49,57.85,1143.42,57.71Z"/><path class="cls-14" d="M1133.09,55.8a.89.89,0,0,1,.33.31C1133.29,56,1133.12,56,1133.09,55.8Z"/><path class="cls-14" d="M1140.24,54.8a.73.73,0,0,1,.33.32A.73.73,0,0,1,1140.24,54.8Z"/><path class="cls-14" d="M1142.56,56.88a.3.3,0,0,1,.24.23A.45.45,0,0,1,1142.56,56.88Z"/><path class="cls-14" d="M1141.17,55.65c.12,0,.22.1.24.23A.33.33,0,0,1,1141.17,55.65Z"/><path class="cls-14" d="M1132.87,55.57c.14,0,.2.12.23.25C1133,55.76,1132.89,55.7,1132.87,55.57Z"/><path class="cls-14" d="M1132.62,55.34c.11,0,.24.08.26.23A.58.58,0,0,1,1132.62,55.34Z"/><path class="cls-14" d="M1132.1,54.88a1,1,0,0,1,.32.3A.67.67,0,0,1,1132.1,54.88Z"/><path class="cls-14" d="M1131.49,54.33a.42.42,0,0,1,.32.32A1.62,1.62,0,0,1,1131.49,54.33Z"/><path class="cls-14" d="M1139.67,54.31c.13,0,.18.08.21.18A.31.31,0,0,1,1139.67,54.31Z"/><path class="cls-14" d="M1133.42,56.1a.48.48,0,0,1,.31.28C1133.64,56.27,1133.48,56.24,1133.42,56.1Z"/><path class="cls-14" d="M1154,62.87c-.16,0-.16-.19-.18-.32A.52.52,0,0,1,1154,62.87Z"/><path class="cls-14" d="M1131.8,54.64a.46.46,0,0,1,.31.25A.52.52,0,0,1,1131.8,54.64Z"/><path class="cls-14" d="M1142,56.49a.3.3,0,0,1,.24.16A.28.28,0,0,1,1142,56.49Z"/><path class="cls-14" d="M1135.11,50.11a.27.27,0,0,1,.23.19A.36.36,0,0,1,1135.11,50.11Z"/><path class="cls-14" d="M1139.87,54.49a.3.3,0,0,1,.24.19Z"/><path class="cls-14" d="M1132.19,47.49c.09,0,.15.06.15.16S1132.23,47.55,1132.19,47.49Z"/><path class="cls-14" d="M1135.26,57.79c.11,0,.16.06.16.16C1135.37,57.9,1135.27,57.89,1135.26,57.79Z"/><path class="cls-14" d="M1131.19,54a.17.17,0,0,1,.15.16S1131.21,54.11,1131.19,54Z"/><path class="cls-14" d="M1131.34,54.18c.1,0,.14.07.16.16S1131.36,54.27,1131.34,54.18Z"/><path class="cls-14" d="M1140.12,54.69l.14.13C1140.19,54.8,1140.12,54.78,1140.12,54.69Z"/><path class="cls-14" d="M1153.74,62.48l-.09-.11A.14.14,0,0,1,1153.74,62.48Z"/><path class="cls-14" d="M1135.16,57.69c.11,0,.1.05.11.11Z"/><path class="cls-14" d="M1142.33,56.72a.32.32,0,0,1,.16.09A.32.32,0,0,1,1142.33,56.72Z"/><path class="cls-14" d="M1135.41,58a.15.15,0,0,1,.17.09C1135.52,58,1135.44,58,1135.41,58Z"/><path class="cls-14" d="M1154,63c-.08,0-.08-.1-.08-.17S1154,63,1154,63Z"/><path class="cls-14" d="M1132.12,47.42l.07.07Z"/><path class="cls-14" d="M1141.64,56.11l.08.08A.07.07,0,0,1,1141.64,56.11Z"/><path class="cls-14" d="M1141.71,56.18l.09.09A.11.11,0,0,1,1141.71,56.18Z"/><path class="cls-14" d="M1141.55,56l.09.09Q1141.56,56.11,1141.55,56Z"/><path class="cls-14" d="M1142.8,57.1l.08.09A.12.12,0,0,1,1142.8,57.1Z"/><path class="cls-14" d="M1142.48,56.8l.09.08A.09.09,0,0,1,1142.48,56.8Z"/><path class="cls-14" d="M1153.8,62.56a.13.13,0,0,1-.07-.1A.12.12,0,0,1,1153.8,62.56Z"/><path class="cls-14" d="M1142.25,56.65l.09.07A.08.08,0,0,1,1142.25,56.65Z"/><path class="cls-14" d="M1132.34,47.65l.08.07Z"/><path class="cls-14" d="M1134.92,50a.13.13,0,0,1,.11.08S1135,50,1134.92,50Z"/><polygon class="cls-14" points="1195.49 68.23 1195.5 68.23 1195.5 68.21 1195.49 68.23"/><polygon class="cls-14" points="1130.46 68.24 1130.46 68.23 1130.47 68.23 1130.46 68.24"/><path class="cls-14" d="M1137.76,70.25h.23c.27,0,.27,0,.28-.28,0-.56,0-1.13,0-1.69-.1-.11-.24-.06-.36-.06h-1.45c-.11.05-.2.05-.22-.1a1.76,1.76,0,0,1,0-.23V62.47c0-.33,0-.33.35-.34h1.19c.46,0,.46,0,.46-.46s0-1,0-1.45c-.12-.14-.29-.08-.43-.08h-7.23c-.18,0-.24.06-.24.24,0,.55,0,1.1,0,1.66a.16.16,0,0,0,.08.16,16.6,16.6,0,0,1,1.73,0c.18,0,.22.08.19.23v1.42c0,.27,0,.28-.27.28h-5.3c-.11,0-.23,0-.23-.11,0-.55,0-1.1,0-1.64,0-.17.12-.17.24-.17h1.23c.57,0,.52,0,.52-.55,0-.3,0-.61,0-.91a.67.67,0,0,1,.07-.37c0-.26-.22-.2-.38-.2H1121c-.27,0-.28,0-.28.27v1.5c0,.11,0,.24.12.29a16.6,16.6,0,0,1,1.73,0c.17,0,.23.07.2.23v5.4c0,.4.06.41-.42.41H1121c-.14,0-.21,0-.21.19v1.69c0,.11,0,.16.15.17h7.41c.27,0,.29,0,.29-.28s0-.77,0-1.15a.72.72,0,0,1,.07-.41l0-.12h0a.12.12,0,0,0-.11,0h0l-1.67,0c-.14.06-.23,0-.24-.13V66.43c0-.11.06-.16.17-.16h5.54c.12,0,.11.12.1.21,0,.4,0,.81,0,1.22s.11.5-.53.51c-.47,0-.94,0-1.41,0,0,0,0,0,0,0a17.35,17.35,0,0,0,0,1.91c0,.08.08.08.14.09h7.21Z"/><path class="cls-14" d="M1141.94,56.42a.09.09,0,0,1,.09.08A.09.09,0,0,1,1141.94,56.42Z"/><path class="cls-14" d="M1141.87,56.34l.08.08A.07.07,0,0,1,1141.87,56.34Z"/><path class="cls-14" d="M1135,50s.07,0,.08.08Z"/><path class="cls-14" d="M1141.41,55.88l.09.08S1141.41,55.93,1141.41,55.88Z"/><path class="cls-14" d="M1141.79,56.26l.09.08A.09.09,0,0,1,1141.79,56.26Z"/><polygon class="cls-14" points="1195.49 68.23 1195.5 68.23 1195.5 68.23 1195.49 68.23"/><path class="cls-14" d="M1199,70.4h7.17a2.43,2.43,0,0,1,.27,0c.19,0,.27-.06.27-.26,0-.63,0-1.25,0-1.88-.12-.08-.27,0-.4-.05a14.42,14.42,0,0,1-1.47,0c-.11,0-.13-.06-.16-.11-.31-.53-.53-1.1-.87-1.62a.59.59,0,0,1,0-.14,2.34,2.34,0,0,1-.54-1,.12.12,0,0,1-.08-.15.19.19,0,0,1-.09-.15s-.06,0,0-.09a18.13,18.13,0,0,0-.85-1.71c-.29-.53-.62-1-.88-1.6a10.37,10.37,0,0,0-.82-1.45.44.44,0,0,0-.43-.22h-7.75c-.3,0-.31,0-.31.3V61.9c0,.11,0,.24.11.3.71-.07,1.42,0,2.12,0,.07,0,.17,0,.19.08s-.07.13-.13.17c-.21.37-.4.75-.64,1.09-.42.62-.71,1.32-1.14,1.94-.54.79-.91,1.68-1.43,2.48a.52.52,0,0,1-.52.29c-.47,0-.95,0-1.42,0-.14,0-.25,0-.25.2,0,.61,0,1.22,0,1.84,0,.11,0,.16.16.17l.57,0h5.51c.37,0,.37,0,.38-.36V68.82a1,1,0,0,1,0-.42c0-.06,0-.13-.07-.17-.54,0-1.07,0-1.6,0-.09,0-.18.06-.25,0s0-.14,0-.21c.19-.3.38-.6.55-.91a.36.36,0,0,1,.36-.22h4.55c.17,0,.31,0,.34.22a6.39,6.39,0,0,1,.63,1.13h-1.59c-.11,0-.21,0-.21.16,0,.64,0,1.27,0,1.91,0,.11.07.12.15.13Zm-3.07-5.72h0c-.25,0-.24,0-.17-.18a14.22,14.22,0,0,1,.9-1.62l.18-.3c.13-.21.13-.2.27.05.32.64.73,1.23,1,1.89a.5.5,0,0,1,0,.15Z"/><path class="cls-14" d="M1197.12,62.63c-.26.42-.51.85-.76,1.28-.15.25-.28.52-.42.77-.25,0-.24,0-.17-.18a14.22,14.22,0,0,1,.9-1.62l.18-.3C1197,62.37,1197,62.38,1197.12,62.63Z"/><path class="cls-14" d="M1182.66,70.24a10.67,10.67,0,0,0,2.39-.2,6.36,6.36,0,0,0,2.06-.91,2,2,0,0,0,.48-.49c.27-.36.53-.72.76-1.1a3.86,3.86,0,0,0,.47-1.29,5.5,5.5,0,0,0-.12-2.76,1.73,1.73,0,0,0-.28-.58c-.05-.06-.1-.13,0-.21s-.24-.31-.35-.48a4,4,0,0,0-2.14-1.59,8.61,8.61,0,0,0-3.26-.52l-1.23,0h-7.86c-.15,0-.21,0-.21.2,0,.56,0,1.13,0,1.69,0,.07,0,.16.1.16.51-.06,1,0,1.51,0,.17,0,.24.07.15.23v5.44c0,.37,0,.37-.37.37h-1.19c-.14,0-.21.05-.21.2,0,.56,0,1.12,0,1.69,0,.11,0,.16.15.16h1.31C1177.41,70.25,1180,70.27,1182.66,70.24Zm-3.4-7.67a1.21,1.21,0,0,0,0-.19c0-.18.09-.25.26-.25.89,0,1.79,0,2.68,0a2.57,2.57,0,0,1,1.89.89,3.54,3.54,0,0,1,1.05,2.25,1.92,1.92,0,0,1-.1.83,2.45,2.45,0,0,1-1.44,1.71l-.47.2-.47.2h-3.18c-.08,0-.14,0-.18,0l0-.07a2.44,2.44,0,0,1,0-.27Z"/><polygon class="cls-14" points="1153.79 62.55 1153.8 62.56 1153.8 62.56 1153.79 62.55"/><polygon class="cls-14" points="1153.73 62.46 1153.73 62.47 1153.74 62.48 1153.73 62.46"/><path class="cls-14" d="M1154,62.86Z"/><polygon class="cls-14" points="1140.87 69.17 1140.88 69.18 1140.88 69.18 1140.87 69.17"/><path class="cls-14" d="M1141.32,69.37a7.92,7.92,0,0,0,3.16,1.11,17.58,17.58,0,0,0,2.52.14,9.93,9.93,0,0,0,4-.81,5.23,5.23,0,0,0,1.36-.78,5.48,5.48,0,0,0,1.48-1.73,5.27,5.27,0,0,0,.4-1.51,6.66,6.66,0,0,0,0-1.48,2.69,2.69,0,0,0-.14-.75.73.73,0,0,1-.08-.48s0,0,0,0-.08-.1-.08-.17-.14-.18-.16-.3a.15.15,0,0,1-.06-.09l-.08-.1a1.39,1.39,0,0,0-.33-.46,7.45,7.45,0,0,0-1.56-1.22,12.15,12.15,0,0,0-2.45-.94,10,10,0,0,0-3-.25,12.18,12.18,0,0,0-2.24.3,11.22,11.22,0,0,0-2.7,1,4.87,4.87,0,0,0-1.79,1.61,4.24,4.24,0,0,0-.73,2.18,5,5,0,0,0,.66,2.93,11.13,11.13,0,0,0,.84,1.08c.19.18.44.3.56.54A.92.92,0,0,1,1141.32,69.37Zm3-6.81a3.11,3.11,0,0,1,4.26-.26c0,.06.12.1.11.19a.14.14,0,0,1,.16.08.22.22,0,0,1,.16.14h0l.08.08h0l.08.07h0l.07.06,0,.1a3.32,3.32,0,0,1,.38,3.3,3,3,0,0,1-.53,1,3.19,3.19,0,0,1-1.8,1.14,3.16,3.16,0,0,1-1.8-.13l-.37-.17a3.14,3.14,0,0,1-.93-.74h0c-.06,0-.06-.06-.06-.1h0v0a.22.22,0,0,1-.14-.22h0a3.07,3.07,0,0,1-.61-1.56A3.38,3.38,0,0,1,1144.27,62.56Z"/><polygon class="cls-14" points="1148.8 62.57 1148.8 62.57 1148.79 62.56 1148.8 62.57"/><polygon class="cls-14" points="1148.64 62.49 1148.64 62.48 1148.64 62.48 1148.64 62.49"/><path class="cls-14" d="M1148.64,62.49a5.77,5.77,0,0,0-1-.52,3.21,3.21,0,0,0-1.57-.12,2.8,2.8,0,0,0-1.72,1,3.53,3.53,0,0,0-.82,1.61,3.63,3.63,0,0,0,.29,2.34,1.28,1.28,0,0,1,.11.33,3.08,3.08,0,0,1-.63-1.58,3.38,3.38,0,0,1,.92-3,3.11,3.11,0,0,1,4.26-.26C1148.59,62.36,1148.65,62.4,1148.64,62.49Z"/><path class="cls-14" d="M1144,67.07a.33.33,0,0,1,.16.25A.22.22,0,0,1,1144,67.07Z"/><path class="cls-14" d="M1149,62.71l-.17-.15A.23.23,0,0,1,1149,62.71Z"/><path class="cls-14" d="M1148.8,62.57a.18.18,0,0,1-.16-.09A.15.15,0,0,1,1148.8,62.57Z"/><path class="cls-14" d="M1144.11,67.31c.07,0,.07.07.07.12S1144.13,67.35,1144.11,67.31Z"/><path class="cls-14" d="M1149.11,62.86l-.08-.07Z"/><path class="cls-14" d="M1149.18,62.93a.07.07,0,0,1-.07-.06Z"/><path class="cls-14" d="M1149,62.79l-.08-.08Z"/><path class="cls-26" d="M1384.1.37s4.54,3.85,14.87,7,24.37,8.49,24.37,8.49l-18.72,23.2,13.5,5.85-4.7,2.48-17.13-6.54L1415,19s-13.76-4.75-17.61-5.85-11-6.07-11.91-8.07A25,25,0,0,1,1384.1.37Z"/><path class="cls-26" d="M1388.85,10.29a40.25,40.25,0,0,0,7,4c3,1.11,16.72,5.44,16.72,5.44l-1.85,2.68-12.81-3.84a26.8,26.8,0,0,1-4.75-1.59,10.64,10.64,0,0,1-4.27-4.06A3.08,3.08,0,0,1,1388.85,10.29Z"/><path class="cls-26" d="M1391.54,17.88a18.2,18.2,0,0,0,4.53,2.06c2,.42,13.29,3.85,13.29,3.85l-2,2.68S1399,24.68,1397.18,24a8.19,8.19,0,0,1-4.27-3A7.62,7.62,0,0,1,1391.54,17.88Z"/><polygon class="cls-26" points="1409.36 35.44 1406.41 38.6 1420.59 44.72 1425.34 42.19 1409.36 35.44"/><polygon class="cls-26" points="1408.68 51.94 1446.33 35.91 1449.23 38.66 1411.84 54.63 1408.68 51.94"/><path class="cls-26" d="M1413.84,55.53l3.85,2.27,41.45-17.56-18.67-21.41,13.5-4.54s6.49-2.26,9-3.53,6.53-3.64,7.85-7.91.48-2.48.48-2.48a26.9,26.9,0,0,1-5.43,3.17c-3.11,1.37-6.07,2.69-10.08,4.06s-23,8.49-23,8.49l18.93,22.78Z"/><polygon class="cls-26" points="1430.3 54.63 1436.84 57.59 1442 55.32 1435.04 52.37 1430.3 54.63"/><polygon class="cls-26" points="1437.94 51.26 1444.27 53.95 1448.8 51.94 1442.27 49.25 1437.94 51.26"/><path class="cls-26" d="M1443.85,19.94s8.75-3.38,10.54-3.85a62.51,62.51,0,0,0,7.44-2.9c1.53-.69,5.38-2.9,5.38-2.9s-1.11,3.79-3.17,5.11a38.6,38.6,0,0,1-8.28,3.64c-2.68.9-9.91,2.9-9.91,2.9Z"/><path class="cls-26" d="M1447.22,23.52s5.17-1.32,7.17-2,3.17-1.16,4.75-1.79,4.48-1.85,4.48-1.85.21,2.74-3.64,4.53a52.88,52.88,0,0,1-6.9,2.75L1449,26Z"/><polygon class="cls-26" points="1371.87 61.65 1383.79 61.65 1383.37 62.75 1372.71 70.5 1380.63 70.5 1380.26 71.61 1368.34 71.61 1368.76 70.5 1379.41 62.75 1371.5 62.75 1371.87 61.65"/><path class="cls-26" d="M1391.54,61.65h4a3.9,3.9,0,0,1,2.42.68,1.13,1.13,0,0,1,.42,1.53l-2.79,5.54a3.84,3.84,0,0,1-1.95,1.53,7.61,7.61,0,0,1-2.64.63V70a1.41,1.41,0,0,0,.64-.58l2.74-5.54a.53.53,0,0,0-.16-.74,1.85,1.85,0,0,0-1.27-.37,3.2,3.2,0,0,0-1.53.37c-.15.05-.26.11-.42.16V61.7C1391.22,61.7,1391.38,61.65,1391.54,61.65Zm-.53,9.91a1.67,1.67,0,0,1-.52,0h-4a4.23,4.23,0,0,1-2.48-.63,1.2,1.2,0,0,1-.37-1.58l2.8-5.54a3.75,3.75,0,0,1,2-1.53,7.35,7.35,0,0,1,2.58-.63v1.58a2.11,2.11,0,0,0-.58.58l-2.79,5.54a.59.59,0,0,0,.21.79,1.94,1.94,0,0,0,1.21.31,3.84,3.84,0,0,0,1.58-.31A2,2,0,0,0,1391,70Z"/><path class="cls-26" d="M1422.12,66.07h6l-1.16,3.33a2.86,2.86,0,0,1-1.84,1.63,8.41,8.41,0,0,1-2.9.58h-6.7c-1.85.16-2.69-.26-1.37-2.21l3.32-6a3.24,3.24,0,0,1,2.48-1.74H1430l-.16,1.16s-3.37-.06-4.53-.06h-2a3,3,0,0,0-1.53.37,1.52,1.52,0,0,0-.85.74l-2,5.54a.64.64,0,0,0,.32.79,2.29,2.29,0,0,0,1.31.31c1.27,0,2.06-.42,2.38-1.1l.79-2.22h-2Z"/><path class="cls-26" d="M1443,61.65v1.16c-2,0-2.63-.06-3.74-.06a3.58,3.58,0,0,0-1.63.32,1.39,1.39,0,0,0-.85.79.64.64,0,0,0,.32.79l3.27,2.64a1.31,1.31,0,0,1,.58,1.53l-.16.58a3,3,0,0,1-1.74,1.53,6.52,6.52,0,0,1-3,.68h-2c-1.32,0-1.27.16-3,.11-1.11,0-2.48,0-2.48,0V70.56a25.44,25.44,0,0,0,3.16,0,22.72,22.72,0,0,0,2.69-.06,3.23,3.23,0,0,0,1.58-.31,1.43,1.43,0,0,0,.79-.79c.11-.32,0-.53-.31-.79L1433.25,66c-.63-.48-.84-1-.63-1.53l.21-.58a3,3,0,0,1,1.68-1.53,7.48,7.48,0,0,1,3.06-.68H1443Z"/><polygon class="cls-26" points="1443.85 71.61 1448.38 61.65 1452.34 61.65 1450.33 66.08 1454.29 66.08 1456.29 61.65 1460.19 61.65 1455.71 71.61 1451.76 71.61 1453.76 67.18 1449.81 67.18 1447.8 71.61 1443.85 71.61"/><polygon class="cls-26" points="1459.67 71.61 1464.52 61.65 1474.43 61.65 1473.85 62.75 1467.89 62.75 1466.26 66.08 1470.27 66.08 1469.68 67.18 1465.73 67.18 1464.1 70.5 1470.06 70.5 1469.47 71.61 1459.67 71.61"/><polygon class="cls-26" points="1473.64 71.61 1477.17 61.65 1478.07 61.65 1487.09 67.18 1489.04 61.65 1491.04 61.65 1487.51 71.61 1486.61 71.61 1477.6 66.08 1475.59 71.61 1473.64 71.61"/><polygon class="cls-26" points="1396.76 71.61 1400.98 61.65 1401.88 61.65 1410.52 67.18 1412.84 61.65 1414.85 61.65 1410.63 71.61 1409.68 71.61 1401.08 66.08 1398.71 71.61 1396.76 71.61"/></g></g></svg>