<svg xmlns="http://www.w3.org/2000/svg" viewBox="0 0 375.38 375.38"><defs><style>.cls-1{fill:#fff;}.cls-2{fill:#F80E26;}</style></defs><g id="Capa_2" data-name="Capa 2"><g id="Capa_1-2" data-name="Capa 1"><circle class="cls-1" cx="187.69" cy="187.69" r="187.69"/><path class="cls-2" d="M222.9,223c1.9,0,4.19-.65,5.6.18s1,3.49,1.55,5.28,2,4.45,1.26,5.56-3.64,1.09-5.54,1.71c-9.58,3.09-19.54,2.13-29.33,2.68-17.11.95-34.23,1.47-51.35,2.23a4.38,4.38,0,0,1-3.81-1.5c-1.6-1.78-3.09-3.67-4.84-5.28-3.35-3.09-5.22-6.3-4.79-11.34.52-6.15-2.83-11.5-6.82-16-9.72-10.94-19.55-21.79-29.67-32.36a15.48,15.48,0,0,0-13.62-4.72c-4.37.59-5.23-.45-3.71-4.75,5.79-16.27,15.37-30,27.86-41.87a111,111,0,0,1,11.52-9.47c2.84-2,4.8-2.07,7.62-.17s5.89,3.93,8.77,6c3.71,2.62,3.4,6.22-.66,8.16a111.7,111.7,0,0,0-23.65,15.06,14.92,14.92,0,0,0-2.07,2,3.88,3.88,0,0,0-1,3.45c.48,1.45,2,.7,3,.67a19,19,0,0,1,9.11,1.85c21.86,10.79,43.92,21.14,66.32,30.76a46.69,46.69,0,0,1,4.4,2.1c5.54,3.11,7,6.45,5.58,12.62-.33,1.49-.6,3-.92,4.49-1.7,7.71.16,12.2,6.86,16.5S214,223,222.9,223Z"/><path class="cls-2" d="M134.61,149.57a108.43,108.43,0,0,1,21.38-4.8c7.13-1,14.3-1,21.48-1.28,6.84-.22,11.49,2.73,14.88,8.35a19.33,19.33,0,0,1,2.72,6c.45,2.16,1.43,2.89,3.66,2.85,9.11-.17,18.18-.56,27-3.26,1.09-.34,2.16-.77,3.24-1.14,3.46-1.16,6.07-3.1,6.69-7a11.46,11.46,0,0,1,1-2.68c2.33-5.44,5.14-7.37,11.1-7.19,5.64.18,11.29.5,16.91,1,6.48.56,12.94,1.37,19.4,2.07a7.23,7.23,0,0,1,1.15.13c1.26.32,3,.29,3.2,1.9.18,1.37-1.26,2-2.36,2.59-7.44,4-15.11,7.4-22.8,10.8-19.68,8.67-39.42,17.2-59.11,25.85-1.81.79-2.84.94-4.13-1-2.29-3.5-5.74-5.79-9.58-7.5-17.66-7.82-35.4-15.46-52.69-24.06Z"/><path class="cls-2" d="M251.07,190.85a34.89,34.89,0,0,1,19.7-8.62,36.39,36.39,0,1,1-31.71,43.35c-.39-2,0-2.41,1.85-2a24.91,24.91,0,0,0,3.11.52c5.08.47,8.89,1.61,11.87,7.06,5.66,10.36,19.49,13.22,29.94,7.53a23.13,23.13,0,0,0,10.28-29.13A22.88,22.88,0,0,0,268,196.41a7.61,7.61,0,0,1-6.68-.54C258.15,194.1,254.81,192.66,251.07,190.85Z"/><path class="cls-2" d="M114,207.49c4.93,4.94,9.65,10,8.37,17.93a7.38,7.38,0,0,0,2.23,6.5c1.31,1.42,1.53,2.67.46,4.53a36.44,36.44,0,1,1-36-54.25C91,182,91.9,182.84,93,184c4.24,4.56,4.27,5.42.57,10.46a2.59,2.59,0,0,1-2.22.94,23.18,23.18,0,0,0-21,23c0,11.49,9,21.77,20.07,22.95,12.36,1.31,23-6.12,25.63-18A22.83,22.83,0,0,0,114,207.49Z"/><path class="cls-2" d="M219.36,184.93a7.39,7.39,0,0,1,3.83,1l51.9,25a5.18,5.18,0,0,1,2.85,6.68c-1,2.68-3.46,3.8-6.47,3.26-16.56-3-33.08-6.33-50-5.94a28.85,28.85,0,0,1-16.84-4.76c-3.92-2.56-4.37-3.93-2.76-8.26a16.38,16.38,0,0,0,1-2.69c1.47-7.88,7.81-10.81,14-13.87a3.93,3.93,0,0,1,1.09-.32C218.4,185,218.88,185,219.36,184.93Z"/><path class="cls-2" d="M231.47,181.36c8.77-7.36,18.32-12.32,29.35-14.24.71-.12,1.66-.57,2.05.35s-.54,1.33-1.05,1.86l-16.36,16.94c-.68.71-1.24,1.32-2.43.71C239.3,185.08,235.51,183.31,231.47,181.36Z"/><path class="cls-2" d="M102.77,193.71c1.56,1.66,2.9,3.14,4.29,4.54.76.77.63,1.4.14,2.27-3.68,6.58-7.31,13.2-11,19.8-1,1.88-2.47,1.8-4.12.86s-3.46-1.87-2.22-4.15C94.08,209.32,98.37,201.67,102.77,193.71Z"/></g></g></svg>