<svg xmlns="http://www.w3.org/2000/svg" viewBox="0 0 375.38 375.38"><defs><style>.cls-1{fill:#fff;}.cls-2{fill:#407688;}</style></defs><g id="Capa_2" data-name="Capa 2"><g id="Capa_1-2" data-name="Capa 1"><circle class="cls-1" cx="187.69" cy="187.69" r="187.69"/><path class="cls-2" d="M250.46,141.23A57.66,57.66,0,0,1,135.14,141c0-31.61,25.92-57.31,57.75-57.28A57.56,57.56,0,0,1,250.46,141.23Z"/><path class="cls-2" d="M174.26,218a73.64,73.64,0,0,1-13.47-4.54,2.06,2.06,0,0,0-2.45.08,139.55,139.55,0,0,0-12.55,10.22c-6.82,6.6-9.38,15-10.17,24.07-.25,3-.22,6-.51,9-.17,1.74.67,2.59,2,3.35,6.12,3.52,12.79,5.44,19.62,6.86,4.33.89,8.71,1.52,13.08,2.19.91.15,1.5.19,1.41,1.4a6.89,6.89,0,0,0,2.47,5.55c2.74,2.67,5.45,5.38,8.4,8.3-2.79.51-5.26-.05-7.71-.29C162,283,149.71,281,138,276.56a41.34,41.34,0,0,1-11.37-6.24c-4-3.19-6.14-7.14-6-12.43a124.92,124.92,0,0,1,2-20.34,47,47,0,0,1,16.55-27.32c5.76-4.82,11.9-9.12,17.88-13.65a1.76,1.76,0,0,1,2.36,0,56.63,56.63,0,0,0,10.48,5.08c1,.38,1.37.79,1.3,1.92C170.91,208.5,171.37,213.3,174.26,218Z"/><path class="cls-2" d="M211.5,218c2.69-4.64,3.17-9.3,2.89-14.08-.07-1.21.1-1.83,1.4-2.29a54.24,54.24,0,0,0,10.48-5.09c.66-.4,1.19-.71,2-.1,7.16,5.45,14.65,10.46,21.23,16.65,8.85,8.33,13.05,18.81,14.48,30.62.56,4.7.73,9.42.95,14.14.26,5.39-2,9.39-6.07,12.61-5.15,4.07-11.15,6.4-17.33,8.25a163,163,0,0,1-35.63,6c-.65.05-1.32,0-2.8,0,3.13-3,5.78-5.58,8.47-8.12,1.77-1.66,3.05-3.55,2.84-6.08-.1-1.17.6-1.1,1.36-1.21,8.24-1.13,16.43-2.5,24.32-5.28a42,42,0,0,0,8.94-4.16c.73-.47,1.49-.89,1.46-2-.16-7.44-.5-14.84-2.94-22a32.12,32.12,0,0,0-10.19-14.29c-3.21-2.7-6.61-5.17-9.88-7.8a2.2,2.2,0,0,0-2.64-.25A68.87,68.87,0,0,1,211.5,218Z"/><path class="cls-2" d="M207.21,207.1a13.79,13.79,0,0,1-5.48,11.34c-3,2.44-3.27,5-2.57,8.6,2.77,14.1,5.24,28.26,7.87,42.39a2.17,2.17,0,0,1-.68,2.19c-4.21,4.18-8.41,8.36-12.57,12.59-.78.79-1.25.72-2,0q-6.24-6.33-12.57-12.59a2.15,2.15,0,0,1-.64-2.19c2.79-15,5.5-30,8.28-45.07a4,4,0,0,0-1.29-4.13c-3.13-2.91-6.15-5.92-7-10.45-.92-4.94-.44-5.55,4.39-4.72a63.24,63.24,0,0,0,21.48-.23C207.24,204.33,207.23,204.28,207.21,207.1Z"/></g></g></svg>