<svg xmlns="http://www.w3.org/2000/svg" viewBox="0 0 375.38 375.38"><defs><style>.cls-1{fill:#fff;}.cls-2{fill:#407688;}</style></defs><g id="Capa_2" data-name="Capa 2"><g id="Capa_1-2" data-name="Capa 1"><circle class="cls-1" cx="187.69" cy="187.69" r="187.69"/><path class="cls-2" d="M299.26,180.22c3.45-4,3.06-7.86-1.11-11-5.24-4-10.45-8-15.76-11.89a2.33,2.33,0,0,1-1-3.12c1.94-6.12,3.73-12.29,5.58-18.43,1.65-5.47-.18-8.73-5.67-10-6.32-1.49-12.64-3-19-4.4a2.38,2.38,0,0,1-2.14-2.48c-.78-6.84-1.6-13.67-2.58-20.47-.6-4.14-3.93-6.37-8-5.62-6.76,1.25-13.52,2.48-20.25,3.88a2.16,2.16,0,0,1-2.76-1.29c-3.35-5.65-6.76-11.27-10.18-16.89-2.81-4.62-6.52-5.37-11-2.26C200,80,194.61,83.7,189.25,87.51a2,2,0,0,1-2.85,0C181,83.67,175.51,79.89,170,76.1c-4.32-3-8.09-2.2-10.84,2.3-3.45,5.68-6.91,11.36-10.3,17.08a2,2,0,0,1-2.61,1.16c-6.36-1.33-12.75-2.53-19.15-3.72-5.82-1.08-8.8,1.21-9.5,7.13-.75,6.39-1.58,12.77-2.31,19.17a2,2,0,0,1-1.8,2.06c-6.49,1.44-13,3-19.43,4.46-5.15,1.18-7.17,4.62-5.63,9.73,1.89,6.29,3.74,12.59,5.74,18.85a2.22,2.22,0,0,1-.94,2.93c-4.87,3.62-9.66,7.34-14.54,10.95a13.62,13.62,0,0,0-4.68,5.09v3.56a26.39,26.39,0,0,0,3.62,4.93c3.94,4.51,7.82,9.09,11.8,13.57A1.9,1.9,0,0,1,89.7,198c-3.15,5.59-6.22,11.23-9.32,16.86-3,5.47-1.91,8.86,3.8,11.55,5.53,2.62,11,5.29,16.66,7.74,1.83.8,2.26,1.78,2.06,3.66-.66,6.26-1.19,12.53-1.68,18.8-.44,5.55,2.08,8.34,7.64,8.48,6.43.17,12.87.3,19.31.33a2.47,2.47,0,0,1,2.81,2c2,6.16,4.2,12.28,6.34,18.41,1.79,5.12,5.31,6.69,10.26,4.62,6-2.54,12.12-5,18.12-7.7,1.46-.64,2.18-.31,3.15.75,4.46,4.85,9,9.64,13.5,14.43,3.49,3.7,7.41,3.7,10.92,0,4.47-4.74,9-9.45,13.34-14.28,1.12-1.25,2-1.48,3.52-.79,6,2.67,12.07,5.18,18.13,7.71,4.59,1.91,8.19.33,9.85-4.35,2.21-6.26,4.42-12.52,6.52-18.82a2.36,2.36,0,0,1,2.61-2q10.11,0,20.21-.36c4.62-.15,7.15-3,7-7.6,0-.89-.15-1.77-.23-2.66-.51-6-1-11.95-1.55-17.91a2,2,0,0,1,1.37-2.32c6-2.75,12-5.62,18-8.44,4.81-2.26,6-6,3.44-10.72-3.16-5.76-6.29-11.53-9.54-17.24a2.15,2.15,0,0,1,.35-3C290.68,190.22,295,185.21,299.26,180.22Zm-27.45,19.94c2.74,5,5.45,10,8.26,14.92.68,1.2.55,1.66-.73,2.24-5.31,2.4-10.57,4.92-15.84,7.41-3.7,1.76-4.89,3.62-4.61,7.69q.6,8.75,1.46,17.48c.15,1.56-.17,2-1.77,2-5.78,0-11.55.14-17.32.3-4.22.12-6,1.47-7.37,5.43-1.9,5.43-3.84,10.85-5.64,16.31-.5,1.53-1.07,1.65-2.46,1.05-5.33-2.34-10.72-4.58-16.09-6.82-3.52-1.46-6-.94-8.61,1.83-4,4.2-8,8.37-11.81,12.67-1.25,1.4-1.88,1.17-3-.07-3.72-4.11-7.55-8.14-11.36-12.18-3.11-3.31-5.36-3.79-9.5-2.05-5.1,2.14-10.24,4.18-15.26,6.51-2,.9-2.4.28-3-1.43-1.78-5.4-3.7-10.75-5.59-16.11-1.24-3.54-3.13-5-6.91-5.11q-8.88-.27-17.76-.34c-1.41,0-1.88-.27-1.72-1.85.6-5.74,1.06-11.5,1.46-17.26.32-4.5-.82-6.32-4.84-8.21-5.08-2.39-10.13-4.82-15.24-7.12-1.43-.64-1.87-1.06-.94-2.64,2.87-4.91,5.52-9.94,8.25-14.92,2.09-3.82,1.84-6.15-1-9.48-4.06-4.71-8.14-9.41-12.38-14.31,5.11-3.87,10.12-7.66,15.12-11.47,3.49-2.64,4.23-4.91,3-9.07-1.64-5.44-3.23-10.9-5-16.3-.52-1.56-.13-2,1.31-2.32q8.64-1.95,17.26-4c3.6-.87,5.23-2.79,5.69-6.44.73-5.88,1.53-11.74,2.17-17.62.16-1.46.64-1.63,1.94-1.37,5.8,1.16,11.61,2.22,17.42,3.34,3.59.69,6-.27,7.9-3.41,2.94-4.78,5.83-9.6,8.73-14.4,1.46-2.4,1.46-2.39,3.85-.72q6.64,4.64,13.29,9.25c3.43,2.37,5.89,2.37,9.36,0,4.8-3.32,9.61-6.63,14.36-10,1-.76,1.46-.64,2.1.44,3,5.09,6.06,10.15,9.13,15.2,2.11,3.46,4.37,4.4,8.41,3.63,5.37-1,10.74-2.05,16.11-3.09,2.69-.53,2.66-.54,3,2.15.7,5.73,1.41,11.46,2.18,17.17a6.5,6.5,0,0,0,5.27,5.86c5.82,1.39,11.64,2.76,17.49,4,1.58.34,1.94.84,1.41,2.46-1.74,5.33-3.3,10.72-4.92,16.09-1.31,4.33-.62,6.51,3,9.25,5,3.81,10,7.6,15.06,11.43l-12.28,14.2C269.77,193.83,269.54,196,271.81,200.16Z"/><path class="cls-2" d="M187.87,123.45a64.06,64.06,0,1,0,64,64.07A64,64,0,0,0,187.87,123.45Zm-.17,114.74a50.68,50.68,0,1,1,50.77-50.54A50.69,50.69,0,0,1,187.7,238.19Z"/><path class="cls-2" d="M208.34,166.58a7.62,7.62,0,0,0-4.51,2.58c-7.31,7.34-14.67,14.63-21.94,22-1,1-1.56,1-2.55,0-2.7-2.84-5.48-5.61-8.31-8.32a6.67,6.67,0,1,0-9.46,9.4c4.7,4.81,9.5,9.54,14.26,14.3a6.36,6.36,0,0,0,4.78,2,7,7,0,0,0,5.27-2.39q10.34-10.4,20.71-20.73c2.51-2.51,5.07-5,7.52-7.55a6.68,6.68,0,0,0,1.1-7.8A6.57,6.57,0,0,0,208.34,166.58Z"/></g></g></svg>