<svg xmlns="http://www.w3.org/2000/svg" viewBox="0 0 369.54 69.92"><defs><style>.cls-1{fill:#606060;}.cls-2{fill:#a9a9a9;}.cls-3{fill:#fefefe;}.cls-4{fill:#aaa;}.cls-5{fill:#a0a0a2;}.cls-6{fill:#7e7e80;}.cls-7{fill:#767676;}.cls-8{fill:#fdfdfd;}.cls-9{fill:#bc070a;}.cls-10{fill:#bc090b;}.cls-11{fill:#be0411;}</style></defs><g id="Capa_2" data-name="Capa 2"><g id="Capa_1-2" data-name="Capa 1"><path class="cls-1" d="M299.72,2.08a.48.48,0,0,0,.11.09l10.92,7.55.11.07c0,.05-.06.06-.09.08a10.66,10.66,0,0,1-3.77,1.6,7.41,7.41,0,0,1-1.88.12,5.69,5.69,0,0,1-2.9-1l-5.11-3.5c-.12-.08-.12-.08-.24,0l-.52.34,14.5,10.16s-.07,0-.11.06a21.27,21.27,0,0,0-2.26,1A45.24,45.24,0,0,0,301.42,23a16.85,16.85,0,0,0-1.65,1.39c-.07.07,0,.07-.15,0l-3.55-2.46-7.39-5.11a.23.23,0,0,1-.11-.09l.19-.13a10.75,10.75,0,0,1,3.48-1.49,7.12,7.12,0,0,1,1.9-.17,5.72,5.72,0,0,1,3.07,1l5.12,3.5.07.05a0,0,0,0,0,.07,0l.61-.39L288.59,8.92s0,0,0,0a19.36,19.36,0,0,0,2.52-1.09A44.94,44.94,0,0,0,298,3.53a16.93,16.93,0,0,0,1.59-1.35s.07-.05.08-.1Z"/><path class="cls-1" d="M324.85,35.55h-2.73s-.07,0-.06-.06V28.25c0-.14,0-.13.12-.13h2.67Z"/><path class="cls-1" d="M274.66,33.5c0-.12,0-.23,0-.34H278a.2.2,0,0,1,.19.11,1.87,1.87,0,0,0,.41.48,1.19,1.19,0,0,0,.72.27,2.33,2.33,0,0,0,.79-.07.73.73,0,0,0,.29-.15.42.42,0,0,0,.05-.61.68.68,0,0,0-.26-.18,2.1,2.1,0,0,0-.6-.14c-.23,0-.45,0-.68,0a12.6,12.6,0,0,1-2.5-.44,4.3,4.3,0,0,1-.76-.34,1.76,1.76,0,0,1-.86-1.48,2.06,2.06,0,0,1,1-1.94c.12-.08.26-.15.39-.22a5,5,0,0,1,1.36-.39,11.07,11.07,0,0,1,2.3-.07,6.83,6.83,0,0,1,1.95.39,3.24,3.24,0,0,1,1,.56,2,2,0,0,1,.71,1.23,1.93,1.93,0,0,1,0,.24s0,.07-.07.07h-3a.21.21,0,0,1-.19-.1,1.6,1.6,0,0,0-1-.71,1.94,1.94,0,0,0-1,.08.52.52,0,0,0-.37.4.27.27,0,0,0,.11.29,1,1,0,0,0,.32.15,5.38,5.38,0,0,0,.89.17c.59.08,1.18.13,1.76.24a6.45,6.45,0,0,1,1.61.52,3.35,3.35,0,0,1,.59.39,1.86,1.86,0,0,1,.39,2.39,2.22,2.22,0,0,1-.71.72,3.92,3.92,0,0,1-1.28.54,6.66,6.66,0,0,1-1.4.2l-.43,0h-.59l-1,0a7.42,7.42,0,0,1-1.92-.37,2.73,2.73,0,0,1-.79-.42,1.84,1.84,0,0,1-.74-1.24Z"/><path class="cls-1" d="M315,30.68l.53-.45,2.37-2a.26.26,0,0,1,.19-.07h3.55v0l-4.21,3.6,4.07,3.79s0,0-.06,0h-3.59a.25.25,0,0,1-.17-.08l-2.3-2.19L315,33l-.08-.07v2.5c0,.15,0,.13-.14.13h-2.54c-.14,0-.13,0-.13-.13V28.25c0-.14,0-.13.13-.13h2.57c.12,0,.11,0,.11.11v2.45Z"/><path class="cls-1" d="M298,33.66h4.16c.09,0,.1,0,.1.1v1.7c0,.09,0,.09-.1.09h-8.37c-.18,0-.16,0-.16-.15V34.1a.27.27,0,0,1,.09-.21l4-3.76a1.33,1.33,0,0,1,.12-.12h-3.94c-.17,0-.15,0-.15-.15V28.27c0-.17,0-.15.14-.15h8.2c.17,0,.15,0,.15.15,0,.44,0,.87,0,1.31a.27.27,0,0,1-.09.21l-4,3.7-.16.15Z"/><path class="cls-1" d="M288.39,35.73h-.49a10.82,10.82,0,0,1-1.26-.15,3.65,3.65,0,0,1-.92-.29,2,2,0,0,1-1.2-1.59,4.6,4.6,0,0,1,0-.64V28.23c0-.12,0-.11.11-.11h2.47c.11,0,.11,0,.11.12v4.35a1.39,1.39,0,0,0,0,.41,1.11,1.11,0,0,0,.52.66,1.59,1.59,0,0,0,.67.21,2.53,2.53,0,0,0,1.06-.08,1.41,1.41,0,0,0,.56-.34,1.09,1.09,0,0,0,.3-.71V28.26c0-.15,0-.14.14-.14h2.45c.1,0,.1,0,.1.1v4.71a4.46,4.46,0,0,1-.09,1,1.94,1.94,0,0,1-1.09,1.37,4.28,4.28,0,0,1-1.12.34,10.93,10.93,0,0,1-1.15.13h-1.16Z"/><path class="cls-1" d="M308,35.73h-1.59a8.36,8.36,0,0,1-1.42-.18,3.52,3.52,0,0,1-1-.33,2,2,0,0,1-1-1.46,4.68,4.68,0,0,1-.07-.84V28.23c0-.11,0-.11.11-.11h2.48c.12,0,.1,0,.1.12V32.6a1.55,1.55,0,0,0,0,.37,1.13,1.13,0,0,0,.63.75,1.85,1.85,0,0,0,.57.15,2.25,2.25,0,0,0,1.12-.11,1.38,1.38,0,0,0,.45-.27,1.09,1.09,0,0,0,.34-.7c0-.07,0-.15,0-.23V28.27c0-.17,0-.15.15-.15h2.47c.05,0,.07,0,.07.06s0,0,0,0c0,1.63,0,3.25,0,4.88a3.33,3.33,0,0,1-.13.94,1.86,1.86,0,0,1-1,1.17,3.73,3.73,0,0,1-1.08.37A11.24,11.24,0,0,1,308,35.73Z"/><path class="cls-1" d="M213.31,64.34h-3c-.19,0-.22-.15-.29-.26l-2.77-4.81c-.06-.1-.13-.21-.23-.4-.13.71-.25,1.34-.36,2l-.57,3.26c0,.11,0,.24-.19.24h-2.32c.32-1.87.63-3.7.94-5.53s.64-3.71,1-5.57c.08-.49.08-.49.56-.49s1.12,0,1.68,0c.25,0,.32.06.28.31-.25,1.46-.49,2.91-.74,4.37,0,.13,0,.26-.05.41a.6.6,0,0,0,.3-.23L212.05,53a.71.71,0,0,1,.55-.23c.85,0,1.69,0,2.55,0,0,.15-.12.21-.2.28-1.6,1.68-3.2,3.36-4.81,5a.55.55,0,0,0-.11.81c1.05,1.69,2.05,3.41,3.07,5.11Z"/><path class="cls-1" d="M258.89,64.34c.27-1.65.53-3.27.8-4.88a.86.86,0,0,0-.08-.57c-1-1.91-1.9-3.83-2.85-5.74-.05-.12-.11-.23-.19-.4h.6c.62,0,1.24,0,1.86,0a.41.41,0,0,1,.42.27l1.91,3.86a3.57,3.57,0,0,0,.58-.66L264.58,53c.08-.09.13-.22.3-.22h2.58l-1.55,1.91c-1.15,1.41-2.28,2.83-3.45,4.22a2.51,2.51,0,0,0-.4,1.3c-.24,1.29-.44,2.59-.66,3.88,0,.12,0,.28-.19.28Z"/><path class="cls-1" d="M218,64.34c-1.17,0-2.34,0-3.5,0-.25,0-.29-.08-.25-.3.38-2.09.77-4.18,1.14-6.27,0-.23.13-.29.36-.29h6.89c.3,0,.32.1.27.34-.11.62-.23,1.23-.32,1.85,0,.25-.14.3-.36.3-1.46,0-2.92,0-4.37,0-.32,0-.42.11-.47.39s-.16.8-.26,1.19,0,.31.25.31c1.48,0,3,0,4.44,0,.31,0,.39.08.33.37-.13.6-.24,1.21-.32,1.82,0,.25-.12.32-.37.32C220.28,64.33,219.12,64.34,218,64.34Z"/><path class="cls-1" d="M227.21,64.34c-1.17,0-2.33,0-3.5,0-.22,0-.28,0-.24-.28.39-2.1.78-4.2,1.15-6.3,0-.23.12-.28.34-.28h7c.22,0,.27,0,.23.27q-.19,1-.33,1.92c0,.24-.13.3-.36.3-1.46,0-2.92,0-4.37,0-.32,0-.43.11-.47.39a12,12,0,0,1-.26,1.19c-.08.27,0,.31.26.31h4.47c.25,0,.35,0,.29.32q-.19.93-.33,1.89c0,.26-.14.3-.38.3C229.52,64.33,228.36,64.34,227.21,64.34Z"/><path class="cls-1" d="M224.12,55.2h-7.91c-.3,0-.34-.08-.29-.35.12-.61.22-1.21.3-1.82,0-.25.12-.29.35-.29h15.82c.31,0,.36.09.3.36-.11.58-.2,1.17-.28,1.76,0,.27-.14.34-.42.34Z"/><path class="cls-1" d="M183.61,59.05l-1.45-.39c-.22,0-.17-.21-.17-.35a9.21,9.21,0,0,1,2-5.85,9.57,9.57,0,0,1,16,1.59c.19.38.18.35-.23.48a.57.57,0,0,1-.79-.33,8.28,8.28,0,0,0-15.32,2.71A8.44,8.44,0,0,0,183.61,59.05Z"/><path class="cls-1" d="M200.6,55.5a9.51,9.51,0,0,1-15.28,10.06c.4-.25.79-.48,1.18-.74.16-.1.23,0,.32.09a8.31,8.31,0,0,0,13-4.12,8.15,8.15,0,0,0,.19-4.1.65.65,0,0,1,.19-.68C200.32,55.86,200.44,55.69,200.6,55.5Z"/><path class="cls-1" d="M199.94,55.21A43.19,43.19,0,0,1,195.82,60a39.55,39.55,0,0,1-3.6,3.25c-.36-.38-.36-.38,0-.71a44.37,44.37,0,0,0,5.64-6.14l.16-.22a1.1,1.1,0,0,0-.52.06,33.2,33.2,0,0,1-9.49.61.37.37,0,0,1-.31-.12l-1.61-1.87c.76.12,1.46.24,2.16.34a40.51,40.51,0,0,0,8.31.29c1.07-.07,2.13-.2,3.2-.32C199.86,55.09,200,55.07,199.94,55.21Z"/><path class="cls-1" d="M195.78,57.62a29.09,29.09,0,0,1-7.24,6.64c-.23-.28-.18-.47.12-.7a29.51,29.51,0,0,0,5-4.81l.2-.26c-1.16.18-2.27.33-3.39.45a24.11,24.11,0,0,1-5-.12.31.31,0,0,1-.25-.16c-.31-.46-.63-.92-1-1.45A26.9,26.9,0,0,0,195.78,57.62Z"/><path class="cls-1" d="M189.45,60.71c-.81.09-1.63.07-2.44.09a29,29,0,0,1-4.56-.38c-.2,0-.31-.1-.32-.32a9.15,9.15,0,0,0-.13-.94,23.62,23.62,0,0,0,9.41.82c0,.18-.14.24-.22.33A28.86,28.86,0,0,1,185,65.06c-.19.11-.26,0-.36-.1s.06-.22.14-.27a28.93,28.93,0,0,0,4.46-3.64c.09-.09.19-.16.29-.25Z"/><path class="cls-1" d="M182.35,61l1.63.23c.14,0,.15.13.19.22a7.51,7.51,0,0,0,1.14,2c.12.14.1.21,0,.29-.29.19-.59.38-.87.59s-.25.12-.38,0A9.34,9.34,0,0,1,182.35,61Z"/><path class="cls-1" d="M199.94,55.21c0-.07-.11-.07-.17-.09s.18-.1.26,0S200,55.19,199.94,55.21Z"/><path class="cls-1" d="M250.81,52.75c-.73,0-1.46,0-2.2,0a.42.42,0,0,0-.46.3q-1.69,3.85-3.42,7.7a.73.73,0,0,1-.23.39c-.14-1.16-.26-2.28-.39-3.39-.17-1.57-.36-3.14-.53-4.72,0-.22-.09-.28-.31-.28-.75,0-1.5,0-2.24,0a.43.43,0,0,0-.48.32c-1.05,2.52-2.12,5-3.18,7.55l-.25.58c-.15-1.29-.29-2.48-.43-3.66-.18-1.5-.36-3-.52-4.51,0-.21-.1-.28-.32-.28-.7,0-1.4,0-2.1,0-.2,0-.26,0-.22.25.17,1.12.33,2.23.5,3.35.39,2.57.79,5.14,1.17,7.72,0,.24.12.29.35.29.75,0,1.51,0,2.27,0a.43.43,0,0,0,.48-.33c1-2.48,2.06-4.95,3.09-7.43l.19-.43c.29,2.67.58,5.25.85,7.82,0,.28.11.38.4.37.74,0,1.49,0,2.24,0a.46.46,0,0,0,.49-.31l5.14-11A.53.53,0,0,0,250.81,52.75Z"/><path class="cls-1" d="M258.3,64.09q-1.35-5.55-2.68-11.1c-.05-.21-.14-.25-.33-.25-.65,0-1.31,0-2,0a.48.48,0,0,0-.49.29q-3.18,5.51-6.38,11a.45.45,0,0,0-.11.31c.76,0,1.53,0,2.29,0a.43.43,0,0,0,.43-.26l1.21-2.24a.39.39,0,0,1,.4-.25h4.13c.22,0,.3.07.34.28.12.73.28,1.46.4,2.19,0,.22.13.28.34.28.74,0,1.47,0,2.2,0C258.3,64.35,258.35,64.3,258.3,64.09Zm-3.78-4.74c-.12.14-.54,0-.83,0h-1.82c-.11,0-.26,0-.15-.18.64-1.27,1.29-2.54,2-3.87.25,1.1.49,2.12.71,3.15C254.46,58.79,254.68,59.15,254.52,59.35Z"/><path class="cls-1" d="M10.23,58.24c-.14,0-.35.06-.35-.13s.22-.11.35-.11a3,3,0,0,0,2.24-2.72,3.15,3.15,0,0,0-1.57-3.17,5.47,5.47,0,0,0-3-.82H.72c-.26,0-.62-.14-.71.29s.19.58.5.69c.54.19.62.57.62,1.09,0,3.41,0,6.83,0,10.24,0,.66,0,1.23-.79,1.44a.45.45,0,0,0-.32.59c.07.27.32.27.54.3a1.22,1.22,0,0,0,.27,0H8.28a5.25,5.25,0,0,0,1.52-.2,4.36,4.36,0,0,0,3.09-4A3.76,3.76,0,0,0,10.23,58.24ZM5.64,55.18c0-.29,0-.58,0-.86s-.17-.79.32-1a1.57,1.57,0,0,1,1.59.14,2.86,2.86,0,0,1,.54,2.81,1.85,1.85,0,0,1-1.86.9c-.4,0-.62-.15-.6-.6S5.64,55.65,5.64,55.18Zm2.6,7.56a1.68,1.68,0,0,1-2.26,1,.53.53,0,0,1-.32-.59c0-.58,0-1.16,0-1.74s0-1.16,0-1.74c0-.27.06-.5.34-.57a1.71,1.71,0,0,1,2.32,1.26A6.17,6.17,0,0,1,8.24,62.74Z"/><path class="cls-1" d="M37.82,65c-.46-.17-.53-.5-.52-.94,0-1,0-1.92,0-2.88s0-2.05,0-3.08a3.22,3.22,0,0,0-1.89-3,4.44,4.44,0,0,0-4.4.31c-.19.11-.36.38-.58.25s-.08-.4-.08-.61c0-.78-.23-.93-.94-.59l-4.1,2c-.21.1-.42.22-.43.47s.22.37.44.43c.5.13.59.46.59,1,0,1.83,0,3.66,0,5.48,0,.62-.06,1.08-.73,1.28a.44.44,0,0,0-.34.51c0,.28.28.32.52.32h5.36c.23,0,.47,0,.53-.3a.45.45,0,0,0-.33-.52c-.6-.19-.65-.63-.6-1.15,0-.26,0-.53,0-.8,0-1.47,0-2.94,0-4.41a1.26,1.26,0,0,1,.82-1.26,1.3,1.3,0,0,1,1.93,1.26c0,1.74,0,3.48,0,5.22,0,.51,0,.91-.61,1.09-.25.08-.49.27-.38.6s.37.27.61.27h4.9c.26,0,.58.06.66-.29S38.08,65.12,37.82,65Z"/><path class="cls-1" d="M49.4,62a.77.77,0,0,0-1.09.05,5.89,5.89,0,0,1-2.17,1.28,3,3,0,0,1-3.23-1c-.27-.38-.34-.58.24-.78,1.9-.63,3.77-1.34,5.67-2,.51-.18.66-.46.51-1a5.44,5.44,0,0,0-3.51-3.83,5.8,5.8,0,0,0-7.66,5.77,4.8,4.8,0,0,0,.19,1.53,5.51,5.51,0,0,0,4.8,4.23,6.64,6.64,0,0,0,6.41-3.18A.76.76,0,0,0,49.4,62ZM42,58.62c0-1.54,1.2-2.54,2.45-2.12a1.5,1.5,0,0,1,.86.7c.42.73.31,1-.47,1.3s-1.35.46-2,.69S42,59.4,42,58.62Z"/><path class="cls-1" d="M24.78,62a.74.74,0,0,0-1,0,6.44,6.44,0,0,1-2.23,1.31,3,3,0,0,1-3.3-1.15c-.21-.34-.22-.49.22-.64,1.88-.64,3.74-1.32,5.6-2,.75-.26.88-.47.62-1.23a5.43,5.43,0,0,0-3.81-3.71,5.78,5.78,0,0,0-7.29,5.79,5.56,5.56,0,0,0,.89,3.3,5.41,5.41,0,0,0,5.11,2.59A6.43,6.43,0,0,0,25,63,.72.72,0,0,0,24.78,62Zm-7.42-3.41c0-1.54,1.26-2.58,2.52-2.1a1.4,1.4,0,0,1,.79.68c.41.74.3,1-.5,1.31l-2,.7C17.43,59.46,17.35,59.39,17.36,58.62Z"/><path class="cls-1" d="M55.4,65c-.45-.17-.52-.5-.52-.94,0-2.07,0-4.15,0-6.22V51.45c0-.76-.19-.87-.88-.54l-4.16,2c-.22.1-.47.19-.46.5s.26.41.5.47c.47.11.59.39.59.86,0,3.06,0,6.11,0,9.17,0,.55-.08.94-.64,1.14-.23.08-.46.25-.41.54s.37.32.64.32h5.1c.26,0,.57.06.66-.29S55.66,65.13,55.4,65Z"/><path class="cls-1" d="M62.28,65c-.44-.15-.51-.45-.51-.88,0-2.09,0-4.19,0-6.28V51.43c0-.71-.21-.85-.85-.54l-4.21,2c-.22.11-.48.2-.45.51s.26.41.5.46c.51.1.57.42.57.87q0,4.57,0,9.16c0,.54-.05.95-.62,1.15-.24.08-.47.24-.41.53s.37.33.65.33h5.1c.26,0,.57.07.65-.3S62.54,65.1,62.28,65Z"/><path class="cls-1" d="M69.2,65c-.41-.16-.48-.44-.47-.83,0-1.32,0-2.63,0-4V56.08c0-.68-.2-.8-.82-.51-1.41.66-2.81,1.34-4.21,2-.22.11-.48.19-.48.5s.29.43.54.5c.45.11.56.37.55.82,0,1.54,0,3.08,0,4.61,0,.48-.06.81-.56,1-.26.09-.58.25-.47.63s.42.28.68.28h5c.26,0,.58.06.67-.28S69.47,65.1,69.2,65Z"/><path class="cls-1" d="M66.45,55.44a2.38,2.38,0,1,0-2.34-2.35A2.35,2.35,0,0,0,66.45,55.44Z"/><path class="cls-1" d="M10.23,58.24V58Q10.06,58.12,10.23,58.24Z"/><path class="cls-1" d="M57.29,24c-.84,2.3-1.68,4.59-2.5,6.89a.82.82,0,0,1-1,.67c-.65-.06-1.3,0-2,0L54.51,24c-.18-.25-.44-.12-.66-.12-.92,0-1.83,0-2.74,0-.23,0-.5.08-.63-.2l.69-2H72.4a9,9,0,0,1-.66,2,1.07,1.07,0,0,1-.81.19H68.14c-.18,0-.39-.09-.53.1-.84,2.32-1.7,4.64-2.51,7-.17.48-.4.66-.89.58a3.09,3.09,0,0,0-.43,0c-1.68,0-1.67,0-1.1-1.58.72-2,1.43-4,2.15-6-.09-.16-.25-.11-.39-.11H57.69C57.55,23.89,57.4,23.86,57.29,24Z"/><path class="cls-1" d="M46.36,25.82c-.59,2.11-.59,2.11-2.77,2.11h-.43c-1.36,0-1.36,0-1.72,1.29.2.2.46.1.68.1h4.42a1.43,1.43,0,0,1,.71.06.59.59,0,0,1,0,.14c-.26.66-.28,1.57-.82,1.92s-1.31.08-2,.09H37.69c.5-1.41,1-2.74,1.46-4.08s1.05-2.79,1.52-4.21a2.34,2.34,0,0,1,1.2-1.57H50A6.23,6.23,0,0,1,49.14,24a46.92,46.92,0,0,0-5.81,0l-1.09,2.88c.74-.26,1-.93,1.52-1.18a10.31,10.31,0,0,0,1.84.08A1.63,1.63,0,0,1,46.36,25.82Z"/><path class="cls-1" d="M95.94,21.68A6.34,6.34,0,0,1,95.07,24c-1.73-.13-3.46,0-5.18-.05A6.12,6.12,0,0,0,88,24a1.71,1.71,0,0,0-1.17,1.23c-.68,1.95-1.4,3.88-2.09,5.83-.13.36-.29.54-.71.51a14.43,14.43,0,0,0-1.74,0c-.44,0-.47-.1-.33-.49q1.47-3.93,2.87-7.9a2.65,2.65,0,0,1,1.54-1.47Z"/><path class="cls-1" d="M34,29.24A1.84,1.84,0,0,0,35.1,28c.73-2.12,1.51-4.22,2.27-6.32h2.76q-1.46,4-2.92,8.05a2.3,2.3,0,0,1-2.61,1.8H26.9v-.15l.83-2c1.84-.13,3.68,0,5.52-.06C33.5,29.31,33.78,29.41,34,29.24Z"/><path class="cls-1" d="M57.29,24c.14-.23.38-.16.59-.16h6.37c.21,0,.44-.07.58.17Z"/><path class="cls-1" d="M88,24c-.1-.22.09-.15.18-.15h6.51a.49.49,0,0,1,.4.13Z"/><path class="cls-1" d="M43.33,24c.11-.17.28-.16.45-.16h5a.49.49,0,0,1,.4.13Z"/><path class="cls-1" d="M47.25,29.39H42.17c-.25,0-.54.11-.73-.17,1.73,0,3.46,0,5.19,0C46.83,29.24,47.11,29.08,47.25,29.39Z"/><path class="cls-1" d="M50.48,23.69a16.71,16.71,0,0,0,3.24.14c.27,0,.59-.14.79.19l-3.63,0C50.73,24,50.31,24.18,50.48,23.69Z"/><path class="cls-1" d="M67.61,24c.2-.3.52-.15.79-.17a20.74,20.74,0,0,0,3.34-.13c-.07.38-.38.28-.62.28Z"/><path class="cls-1" d="M46.36,25.82a9.45,9.45,0,0,1-2.6-.14l2.37,0C46.26,25.63,46.38,25.66,46.36,25.82Z"/><path class="cls-1" d="M82.72,21.68H74.29a2,2,0,0,0-1.22,1.47c-.2.66-.48,1.29-.7,2a49.57,49.57,0,0,0-1.62,4.72c-.26,1.08.22,1.69,1.33,1.7,2.49,0,5,0,7.48,0a1.38,1.38,0,0,0,1.4-.84c.87-2.37,1.83-4.71,2.54-7.13C83.78,22.61,83.58,22.21,82.72,21.68Zm-2.4,3.2c-.42,1.19-.85,2.37-1.28,3.56a1.19,1.19,0,0,1-.7.77h0a.28.28,0,0,1-.28.18H74.44a.31.31,0,0,1-.29-.17.74.74,0,0,1-.18-.9c.44-1.16.83-2.33,1.24-3.5A1.16,1.16,0,0,1,76.47,24c1.07,0,2.13,0,3.2,0C80.35,24,80.54,24.24,80.32,24.88Z"/><path class="cls-1" d="M77.08,29.31a2.26,2.26,0,0,0,1.26-.1H74.15A14.37,14.37,0,0,0,77.08,29.31Z"/><path class="cls-1" d="M113.38,21.68a2,2,0,0,0-.44.64,8,8,0,0,1-2.86,3.17,26.06,26.06,0,0,1-7.94,3.42,4.59,4.59,0,0,1-1.71.43.53.53,0,0,1,.16-.43,3.43,3.43,0,0,1,1.61-1.05,21.75,21.75,0,0,0,8.1-5.41c.2-.21.53-.39.32-.77h-.72a3,3,0,0,0-.85.66,14,14,0,0,1-2,1.73,46.68,46.68,0,0,1-5.2,2.95c-.15.08-.32.25-.54.09a2,2,0,0,1,1-1.37,21.55,21.55,0,0,0,4.4-3.36c.18-.2.48-.35.39-.7h-4.65c-1.88,1.88-3.7,3.82-5.66,5.61-1.3,1.17-1.42,2.77-2.14,4.25,3.13,0,6.13,0,9.13,0a11,11,0,0,0,6.56-2.1c.1-.08.2-.23.39-.05a7.14,7.14,0,0,1-2.46,2.16,14.8,14.8,0,0,1,1.51,0c.53.05.74-.15.92-.64.79-2.28,1.66-4.52,2.45-6.8a9.47,9.47,0,0,0,.79-2.43ZM112.11,26a7.65,7.65,0,0,1-5.9,4.71,22.73,22.73,0,0,1-4,.38H99.79c-.11,0-.26,0-.33-.09s.06-.25.16-.35a2.35,2.35,0,0,1,1.2-.62,45.2,45.2,0,0,0,6-1.72c1.69-.73,3.46-1.3,4.78-2.66.14-.14.32-.3.49-.17S112.18,25.78,112.11,26Z"/><path class="cls-1" d="M34,29.24c-.15.21-.39.15-.59.15h-5.7c.17-.26.44-.14.66-.14Z"/><path class="cls-1" d="M218.77,34.17l-.74-.09a.45.45,0,0,1-.46-.47V30.16a.46.46,0,0,1,.47-.5l.72-.09c.07,0,.09,0,.09-.09q0-.33,0-.66c0-.09,0-.11-.11-.11h-4.86c-.07,0-.1,0-.1.09s0,.45,0,.67,0,.1.09.1l.78.09a.45.45,0,0,1,.42.43c0,.06,0,.13,0,.19,0,.28,0,.56,0,.83,0,.1,0,.12-.12.12h-3.73s-.06,0-.06-.06c0-.35,0-.7,0-1.05a.43.43,0,0,1,.44-.45l.74-.09c.07,0,.08,0,.08-.1v-.66c0-.09,0-.1-.1-.1h-5c0,.28,0,.56,0,.84l.08,0,.77.09a.42.42,0,0,1,.4.36.82.82,0,0,1,0,.27v3.37a.44.44,0,0,1-.39.41l-.22,0-.66.09c0,.28,0,.56,0,.84h5c.08,0,.11,0,.1-.1v-.66c0-.07,0-.1-.08-.11l-.77-.08a.44.44,0,0,1-.4-.37.82.82,0,0,1,0-.22v-.87c0-.09,0-.11.11-.11h2.35c.44,0,.89,0,1.33,0,0,0,.1,0,.1.06,0,.36,0,.72,0,1.07a.43.43,0,0,1-.41.43l-.77.09c-.07,0-.08,0-.08.09,0,.21,0,.43,0,.64s0,.13.13.13h4.83c.09,0,.11,0,.11-.11s0-.44,0-.66C218.85,34.2,218.83,34.17,218.77,34.17Z"/><path class="cls-1" d="M240.76,28.69h-3.84c-.09,0-.12,0-.12.11s0,.46,0,.68c0,.06,0,.09.08.09l.76.09A.44.44,0,0,1,238,30a.87.87,0,0,1,0,.23q0,1.5,0,3s0,.06,0,.09l-.06-.07c-1.06-1.4-2.13-2.8-3.18-4.21a.79.79,0,0,0-.74-.37h-4.24c-.06,0-.09,0-.09.07v.71c0,.05,0,.08.07.08l.76.09a.44.44,0,0,1,.44.45,1.09,1.09,0,0,1,0,.18v3.16a1,1,0,0,1,0,.17.44.44,0,0,1-.44.46l-.75.09c-.06,0-.08,0-.08.09,0,.22,0,.44,0,.66s0,.11.11.11h3.85c.07,0,.1,0,.1-.09s0-.46,0-.69c0-.06,0-.08-.08-.08l-.73-.09a.46.46,0,0,1-.47-.51V30.35l.08.11,3.22,4.24a.73.73,0,0,0,.58.31h3.07c.1,0,.12,0,.12-.12v-4.6a1,1,0,0,1,0-.17.46.46,0,0,1,.47-.48l.73-.09s.07,0,.07-.08v-.71C240.84,28.7,240.82,28.69,240.76,28.69Z"/><path class="cls-1" d="M251.56,31A2.68,2.68,0,0,0,250,29.16a5.64,5.64,0,0,0-2.29-.45c-2.1,0-4.19,0-6.29,0-.07,0-.09,0-.08.09s0,.44,0,.66,0,.11.1.11l.65.07a.44.44,0,0,1,.45.51v3.42a.46.46,0,0,1-.46.49l-.72.08c-.08,0-.1,0-.1.11s0,.43,0,.64,0,.12.12.12h6.14a6.51,6.51,0,0,0,2.1-.3,3.11,3.11,0,0,0,1.51-1A3,3,0,0,0,251.56,31Zm-2.91,1.71a1.28,1.28,0,0,1-1.24,1c-.42,0-.83,0-1.25,0H245c-.08,0-.1,0-.1-.1,0-.62,0-1.23,0-1.85s0-1.23,0-1.85c0-.08,0-.1.1-.1h2a2.86,2.86,0,0,1,.58.06,1.18,1.18,0,0,1,1,.94A3.78,3.78,0,0,1,248.65,32.75Z"/><path class="cls-1" d="M227.62,29.1a6.72,6.72,0,0,0-2.62-.59,11.17,11.17,0,0,0-2.31.08,5.7,5.7,0,0,0-2,.64A3,3,0,0,0,220,34a4.09,4.09,0,0,0,1.74.93,9.2,9.2,0,0,0,2.44.3,11.21,11.21,0,0,0,1.7-.11,5.82,5.82,0,0,0,2-.61,3,3,0,0,0-.23-5.41Zm-1.19,3.61a1.55,1.55,0,0,1-1.17,1.21,3.91,3.91,0,0,1-2,0,1.54,1.54,0,0,1-1.17-1.22,3.49,3.49,0,0,1,0-1.73,1.49,1.49,0,0,1,1.11-1.13,3.78,3.78,0,0,1,2,0,1.58,1.58,0,0,1,1.19,1.37,3.78,3.78,0,0,1,.05.67A3.38,3.38,0,0,1,226.43,32.71Z"/><path class="cls-1" d="M263.07,34.24c0-.08,0-.09-.09-.1s-.36,0-.53,0a.91.91,0,0,1-.82-.5c-.26-.42-.54-.82-.81-1.23l-2.15-3.29a.71.71,0,0,0-.63-.37h-4.7c-.07,0-.09,0-.08.08,0,.23,0,.45,0,.67s0,.11.11.12l1,.1a.32.32,0,0,1,.27.41.8.8,0,0,1-.08.16l-1.31,2.11-.84,1.37a.63.63,0,0,1-.5.33l-.68.08c-.09,0-.11,0-.11.12v.66c0,.07,0,.09.08.09h3.88c.06,0,.08,0,.08-.08q0-.34,0-.69c0-.06,0-.09-.08-.09l-.35,0a2.12,2.12,0,0,1-.43-.06.27.27,0,0,1-.14-.44c.07-.13.16-.25.23-.38a.26.26,0,0,1,.28-.16h3.61s.08,0,.11,0a3.48,3.48,0,0,1,.34.56.25.25,0,0,1-.11.32.75.75,0,0,1-.3.09l-.63.07c-.08,0-.09,0-.09.1s0,.43,0,.65,0,.11.11.11H263c.08,0,.1,0,.1-.1S263.06,34.46,263.07,34.24ZM255.19,32,256.38,30c.42.65.84,1.28,1.27,1.93Z"/><path class="cls-1" d="M220.92,18.1a12.74,12.74,0,0,0,.63,2.35,5.75,5.75,0,0,0,.86,1.6,5.16,5.16,0,0,0,2.37,1.61,14.24,14.24,0,0,0,3.29.67c.87.09,1.75.14,2.63.18,1.55.08,3.1.11,4,.11,2.21,0,3.81,0,5.41-.11a32.71,32.71,0,0,0,3.56-.33,11.29,11.29,0,0,0,2.35-.61,4.89,4.89,0,0,0,2.34-1.84,7.46,7.46,0,0,0,.87-2,18.62,18.62,0,0,0,.53-2.44c.19-1.09.29-2.19.4-3.28.07-.69.13-1.38.17-2.07s.08-1.57.07-2.36c0-1.11-.05-2.22-.12-3.33A9,9,0,0,0,250,4.35a4.78,4.78,0,0,0-2.46-3,8.63,8.63,0,0,0-2.32-.75c-.85-.16-1.71-.25-2.58-.33-1.27-.11-2.54-.19-3.82-.23-1.43,0-2.87-.07-4.3-.06s-3.11.05-4.66.15c-1.25.07-2.5.16-3.74.34a11.19,11.19,0,0,0-2.55.63A4.87,4.87,0,0,0,221,3.23a6.24,6.24,0,0,0-.74,2.38c-.1.83-.13,1.67-.15,2.51a54.34,54.34,0,0,0,.37,7.21C220.62,16.26,220.75,17.18,220.92,18.1Zm.76-9.34a25.84,25.84,0,0,1,.22-3.17,4.81,4.81,0,0,1,.88-2.3A4,4,0,0,1,224.59,2a8.52,8.52,0,0,1,1.93-.48c1.11-.17,2.23-.28,3.35-.35,2.32-.15,4.64-.19,7-.16,1.27,0,2.53.07,3.8.16.94.06,1.87.14,2.8.27a10,10,0,0,1,2.37.52,4.24,4.24,0,0,1,2,1.39,4.77,4.77,0,0,1,.8,1.9,13.71,13.71,0,0,1,.24,2.22c.07,1.17.07,2.34.05,3.51,0,.85-.07,1.71-.15,2.56s-.13,1.52-.22,2.27a20.73,20.73,0,0,1-.78,3.9,5.75,5.75,0,0,1-1,1.83,4.36,4.36,0,0,1-2,1.3,10.92,10.92,0,0,1-2.12.43,48.14,48.14,0,0,1-4.81.31l-2.27,0c-1.48,0-2.9,0-4.32-.09-1.1-.05-2.2-.11-3.29-.26a10.76,10.76,0,0,1-2.3-.51,4.15,4.15,0,0,1-2.47-2.3,10.94,10.94,0,0,1-.76-2.5c-.22-1.12-.35-2.24-.46-3.37A46.81,46.81,0,0,1,221.68,8.76Z"/><path class="cls-1" d="M226.37,4.9c0,.87.11,1.73.16,2.6.05.71.1,1.41.14,2.12s.11,1.67.17,2.5.09,1.37.14,2.05l.18,2.61c.06.72.11,1.44.16,2.16s.13,1.6.19,2.41c0,.38.07.75.09,1.13,0,.06,0,.1.09.11l.58.07c.75.06,1.49.09,2.25.12.1,0,.14,0,.17-.13.16-.64.33-1.28.5-1.92a16.93,16.93,0,0,1,.76-2.28,2,2,0,0,1,1.68-1.32,11.27,11.27,0,0,1,3.28,0,2,2,0,0,1,1.63,1.19,11.12,11.12,0,0,1,.46,1.21c.34,1,.6,2.1.86,3.16,0,.07,0,.09.13.09.55,0,1.11,0,1.66-.08l1.17-.11c.06,0,.1,0,.1-.1s0-.21,0-.31c.05-.67.11-1.33.16-2s.13-1.63.19-2.45c.05-.63.09-1.27.14-1.91s.11-1.54.16-2.32.09-1.39.14-2.09.11-1.66.17-2.49.09-1.44.13-2.16.12-1.74.17-2.61h0l.12-1.83c0-.08,0-.1-.09-.11-.63-.08-1.27-.1-1.91-.13-.06,0-.09,0-.1.08s-.06.25-.08.38c-.61,2.8-1.23,5.6-2,8.38a16.3,16.3,0,0,1-.78,2.36A3.12,3.12,0,0,1,237.62,15a4.63,4.63,0,0,1-1.51.28,12.08,12.08,0,0,1-2.55-.1,3.08,3.08,0,0,1-2.33-1.66,8,8,0,0,1-.65-1.71c-.54-2-1-3.95-1.46-5.93-.28-1.24-.55-2.48-.82-3.72,0-.06,0-.09-.09-.09-.64,0-1.29,0-1.93.13-.07,0-.08,0-.08.1s0,.27,0,.4C226.27,3.44,226.32,4.17,226.37,4.9Z"/><path class="cls-1" d="M291.09,58.57l2.7,1.24,4.26,1.91c.42.2.83.41.82,1s-.4.75-.8.93c-2.95,1.35-5.92,2.68-8.88,4a1.41,1.41,0,0,1-1.2.07c-2-.87-4-1.77-6.07-2.72l5.41-2.44,1.3-.61c.33-.16.35-.37,0-.53-.59-.3-1.19-.57-1.8-.84-.22-.09-.39.07-.58.15L280,63.56l-.65.28c0-1.26,0-2.44,0-3.61,0-.32.23-.36.43-.45l2.67-1.22c-.95-.43-1.78-.83-2.63-1.19a.64.64,0,0,1-.48-.69q.06-1.41,0-2.82c0-.53.14-.56.57-.36,2,.93,4.06,1.82,6.06,2.77a1.53,1.53,0,0,0,1.6,0c.28-.16.59-.25.87-.4s.51-.11.48-.4-.3-.33-.5-.42l-5.57-2.51c-.25-.11-.48-.23-.72-.35.07-.23.26-.24.39-.3l5.13-2.33a2,2,0,0,1,1.72,0L298,53.48c.43.2.83.4.86,1s-.41.77-.83,1L292,58.15Z"/><path class="cls-1" d="M352.35,56.31c-.44.74-.85,1.42-1.25,2.11-.84,1.46-1.68,2.93-2.53,4.39-.12.22-.21.44-.54.44-1.08,0-2.15,0-3.33,0l.77-1.29c1.52-2.5,3-5,4.56-7.51a1,1,0,0,1,1-.54c.93,0,1.88,0,2.82,0a.71.71,0,0,1,.71.38q2.56,4.26,5.17,8.5a4.77,4.77,0,0,1,.23.46h-3.41c-.3,0-.38-.27-.44-.46-.35-1-1.06-1.29-2.1-1.21-1.23.09-2.47,0-3.78,0a6.78,6.78,0,0,1,.9-1.59,1.19,1.19,0,0,1,1-.44c.55,0,1.1,0,1.65,0s.44-.12.24-.45C353.43,58.22,352.92,57.3,352.35,56.31Z"/><path class="cls-1" d="M359.64,61.19c1.91,0,3.71,0,5.51,0,1,0,1.35-.35,1.35-1.36,0-1.79,0-3.57,0-5.36,0-.43.09-.6.56-.57.69,0,1.38,0,2.07,0,.32,0,.43.1.42.43,0,2.22,0,4.44,0,6.66a2.13,2.13,0,0,1-2,2.12,41.67,41.67,0,0,1-6.12.09,1.2,1.2,0,0,1-1-.62Z"/><path class="cls-1" d="M335.25,61.21h5c1.62,0,1.81-.21,1.81-1.81s0-3.25,0-4.87c0-.53.15-.67.65-.63.66,0,1.33,0,2,0,.32,0,.43.08.43.42,0,2.15,0,4.3,0,6.45A2.22,2.22,0,0,1,343,63.12a42.62,42.62,0,0,1-6,.08,1.18,1.18,0,0,1-.93-.51A8,8,0,0,1,335.25,61.21Z"/><path class="cls-1" d="M320.69,60.32c-.15-1-.91-1.4-1.73-1.82l.52-.28a2,2,0,0,0,1.24-2,2,2,0,0,0-1.44-1.9,7.61,7.61,0,0,0-2.84-.44c-2.57,0-5.14,0-7.71,0-.51,0-.65.12-.64.64,0,2.58,0,5.17,0,7.75,0,.93,0,1,.91,1,2.41,0,4.82,0,7.23,0a7.32,7.32,0,0,0,3.23-.54A2.14,2.14,0,0,0,320.69,60.32Zm-4.4.87a22.73,22.73,0,0,1-2.61,0,1.89,1.89,0,0,0-2.16,1.27,1.61,1.61,0,0,1-.17.28l-.12,0c0-1,0-2,0-3,0-.34.15-.41.45-.41H316a1.83,1.83,0,0,1,.4.05c.51.11.95.35.9.94A.94.94,0,0,1,316.29,61.19Zm.36-3.94a15.9,15.9,0,0,1-2.39,0c-1.31-.09-2.45,0-2.86,1.63l-.17-.13c0-.82,0-1.63,0-2.45,0-.28.08-.4.39-.4,1.64,0,3.29,0,4.94,0,.4,0,.73.19.76.62S317,57.23,316.65,57.25Z"/><path class="cls-1" d="M335.39,63c-1.77-2.92-3.54-5.82-5.3-8.74a.62.62,0,0,0-.62-.32q-1.52,0-3,0a.75.75,0,0,0-.76.42c-1.4,2.34-2.83,4.65-4.24,7-.38.61-.74,1.23-1.17,1.94,1.09,0,2.05,0,3,0a.89.89,0,0,0,1-.57c1.19-2.1,2.41-4.19,3.68-6.38.65,1.11,1.24,2.15,1.94,3.35-1.89-.28-3.52-.29-4,1.94,1.33,0,2.66.06,4,0a1.47,1.47,0,0,1,1.69,1c.1.26.18.67.59.67,1.11,0,2.22,0,3.37,0A2.26,2.26,0,0,0,335.39,63Z"/><path class="cls-1" d="M133.58,49.38c.47.19.94.37,1.4.58.22.1.3.1.28-.16s0-.38,0-.57.1-.38.38-.38h29.7c.49,0,.49,0,.49.48q0,10,0,20.06c0,.33-.08.43-.42.43q-14.88,0-29.76,0c-.32,0-.43-.1-.41-.41s0-.55,0-.83-.07-.31-.31-.18a10.23,10.23,0,0,1-5.56,1.19,10.1,10.1,0,0,1-6.33-3,7.69,7.69,0,0,1-.84-.87.76.76,0,0,0-.86-.33c-.56.11-1.13.18-1.69.25-.22,0-.3.1-.3.33,0,1.15,0,2.3.07,3.44,0,.47,0,.49-.47.49H86.15c-.59,0-.59,0-.59-.61q0-10,0-20.09c0-.34.08-.43.43-.43,6.32,0,12.63,0,18.94,0,4.69,0,9.39,0,14.08,0a7.36,7.36,0,0,1,2.62.71,8.07,8.07,0,0,1,2.19,1.25.27.27,0,0,0,.4,0,11,11,0,0,1,1.73-1,10.58,10.58,0,0,1,4.93-1A9.65,9.65,0,0,1,133.58,49.38Z"/><path class="cls-2" d="M133.58,49.38c-.56-.09-1.11-.28-1.68-.37a10.43,10.43,0,0,0-5.68.75c-.09,0-.19.05-.28.08a5.25,5.25,0,0,1,1.73-.68,9.85,9.85,0,0,1,5.74.09C133.48,49.28,133.55,49.3,133.58,49.38Z"/><path class="cls-3" d="M133.66,51.5a10.23,10.23,0,0,1,2.91,2c.14-.17.07-.34.07-.49,0-.7,0-1.39,0-2.08,0-.28.08-.35.34-.35h6.71a.45.45,0,0,1,.46.29c.27.54.57,1.07.85,1.61a.54.54,0,0,0,.26.3c0-.63,0-1.21,0-1.8,0-.31.08-.4.4-.4h18.14c.31,0,.41.07.41.4q0,8.43,0,16.87c0,.29-.07.37-.36.37-5.88,0-11.76,0-17.65,0a.42.42,0,0,1-.44-.26c-.37-.71-.75-1.4-1.13-2.1-.05-.1-.07-.25-.27-.31v1.7c0,1,0,1-1,1-2.12,0-4.24,0-6.37,0-.28,0-.4-.06-.38-.37,0-.63,0-1.26,0-1.9,0-.12.09-.31-.06-.37s-.24.11-.34.19a12,12,0,0,1-4.57,2,7.92,7.92,0,0,1-7.1-2,12.43,12.43,0,0,1-2-2.26c-.13-.18-.22-.25-.46-.14a8.24,8.24,0,0,1-4,.67c-.33,0-.44,0-.43.39,0,1.11,0,2.22,0,3.33,0,.36-.08.46-.45.46q-9.12,0-18.22,0c-3.83,0-7.65,0-11.48,0-.4,0-.47-.12-.47-.49q0-8.36,0-16.69c0-.34.09-.47.45-.47q15.67,0,31.36,0a6.3,6.3,0,0,1,3.11,1.09,7.3,7.3,0,0,1,1.74,1.44c.18.2.28.2.48,0a10,10,0,0,1,5-2.32,7.55,7.55,0,0,1,3.65.34C133.15,51.31,133.41,51.38,133.66,51.5Z"/><path class="cls-4" d="M133.66,51.5a1.42,1.42,0,0,1-.76-.31A1.6,1.6,0,0,1,133.66,51.5Z"/><path class="cls-1" d="M147,59.58v-.74c0-2,0-4,0-5.94,0-.31.07-.42.4-.41h4c.29,0,.37.08.37.36q0,6.6,0,13.21c0,.31-.11.37-.39.37-1.32,0-2.63,0-3.94,0a.6.6,0,0,1-.58-.32c-1.25-2-2.52-4-3.78-6-.06-.09-.09-.21-.24-.25a1,1,0,0,0,0,.48c0,1.89,0,3.78,0,5.68,0,.27-.06.37-.35.37-1.33,0-2.65,0-4,0-.24,0-.32-.07-.32-.32,0-4.44,0-8.88,0-13.32,0-.24.08-.3.31-.3h4.24a.42.42,0,0,1,.43.28c1.19,2.16,2.38,4.33,3.58,6.49C146.76,59.36,146.78,59.5,147,59.58Z"/><path class="cls-1" d="M123.67,57.56A6.87,6.87,0,1,1,128.36,66a3.53,3.53,0,0,1-.46-.15,6.84,6.84,0,0,1-4.46-7c0-.27,0-.55,0-.83S123.62,57.71,123.67,57.56Z"/><path class="cls-1" d="M123.27,58.76A5,5,0,0,1,120.63,62a4.9,4.9,0,0,1-2.23.51q-1,0-2,0c-.25,0-.33.06-.33.31,0,1.1,0,2.2,0,3.29,0,.27-.07.35-.33.35-1.39,0-2.78,0-4.17,0-.28,0-.33-.1-.32-.35V52.84c0-.22,0-.35.29-.35,2.33,0,4.67,0,7,0a4.84,4.84,0,0,1,4.92,4.26,4.13,4.13,0,0,1,0,.86,7.45,7.45,0,0,1-.09,1A.41.41,0,0,1,123.27,58.76Z"/><path class="cls-1" d="M153.06,59.44c0-2.19,0-4.39,0-6.58,0-.28.08-.37.36-.37h8.48c.25,0,.33.07.33.32,0,1.12,0,2.25,0,3.37,0,.27-.09.33-.35.33-1.15,0-2.29,0-3.44,0-.3,0-.4.07-.39.38,0,.83,0,.83.84.83h3c.28,0,.4,0,.39.37,0,1,0,2,0,3,0,.26-.08.35-.34.35-1.16,0-2.33,0-3.49,0-.25,0-.35.05-.35.33,0,1,0,1,1,1s1.92,0,2.88,0c.25,0,.33.06.32.32q0,1.53,0,3.06c0,.27-.1.32-.33.32-2.83,0-5.65,0-8.48,0-.29,0-.36-.09-.36-.37C153.06,63.85,153.06,61.65,153.06,59.44Z"/><path class="cls-1" d="M104.74,59.43q0-3.27,0-6.54c0-.31.08-.41.4-.4h4.39c.26,0,.35.07.35.34q0,6.63,0,13.28c0,.25-.08.32-.33.32-1.49,0-3,0-4.46,0-.31,0-.35-.11-.35-.38Q104.74,62.75,104.74,59.43Z"/><path class="cls-1" d="M89.22,59.45c0-2.15,0-4.31,0-6.47,0-.32.09-.39.4-.39h12.73c.36,0,.43.1.43.44q0,6.42,0,12.83c0,.35-.07.47-.45.47-4.24,0-8.48,0-12.72,0-.33,0-.39-.11-.39-.41C89.23,63.76,89.22,61.61,89.22,59.45Z"/><path class="cls-5" d="M123.27,58.76l0-.22a3.26,3.26,0,0,0,.13-.93v-.89c.17.31,0,.64.1,1,.08,0,0-.13.14-.13a.89.89,0,0,1-.09.45,2.84,2.84,0,0,1-.16.7Z"/><path class="cls-6" d="M123.42,58.71a2.45,2.45,0,0,1,.16-.7,1.82,1.82,0,0,1-.14.83Z"/><path class="cls-7" d="M127.9,65.88a.59.59,0,0,1,.46.15A.5.5,0,0,1,127.9,65.88Z"/><path class="cls-3" d="M132.82,59.46a2.54,2.54,0,1,1-2.53-2.54A2.55,2.55,0,0,1,132.82,59.46Z"/><path class="cls-8" d="M116.1,57.59V56.5c0-.15,0-.26.2-.26a2.12,2.12,0,0,1,1.69.69,1.15,1.15,0,0,1-.2,1.65,2.66,2.66,0,0,1-1.5.44c-.17,0-.19-.12-.19-.26Z"/><path class="cls-6" d="M123.42,57.61a1.37,1.37,0,0,1-.13.93Z"/><path class="cls-3" d="M89.83,59.45c0-2,0-3.91,0-5.86,0-.32.09-.4.4-.4q5.77,0,11.54,0c.35,0,.42.1.42.42,0,3.91,0,7.82,0,11.73,0,.32-.09.4-.4.4q-5.78,0-11.55,0c-.34,0-.41-.1-.41-.43,0-2,0-3.91,0-5.86Z"/><path class="cls-1" d="M92.29,56.41a4.28,4.28,0,0,1,2.93-1.76,4.65,4.65,0,0,1,4.55,1.8,1.6,1.6,0,0,1,.11.19c.07.12.12.24.19.36a4.69,4.69,0,0,1,.45,3.55,2.79,2.79,0,0,1-.54,1.17c-.19-.17-.06-.35,0-.51a4.58,4.58,0,0,0,.39-1.69,4.25,4.25,0,0,0-2.11-3.94,4.46,4.46,0,0,0-4.72.11,3.07,3.07,0,0,0-1.07,1,.39.39,0,0,1-.35.2c-.06,0-.09-.06-.12-.11s0-.07,0-.09A.81.81,0,0,0,92.29,56.41Z"/><path class="cls-9" d="M92,56.8l.07.07a.34.34,0,0,1,0,.36c-.18.51-.33,1-.47,1.55a2.94,2.94,0,0,0,.1,1.41,4.09,4.09,0,0,0,1.51,2.57,4.47,4.47,0,0,0,3.17.93,4.73,4.73,0,0,0,2.38-.94c.11-.08.21-.15.34,0,0,.21-.21.31-.36.41a4.69,4.69,0,0,1-4.68.49,1.72,1.72,0,0,1-.21-.07,3,3,0,0,1-1.12-.77,5.34,5.34,0,0,0-.39-.44h0a5.42,5.42,0,0,1-.86-1.65,4.51,4.51,0,0,1,0-2.72c.06-.19.11-.38.17-.58h0a2.9,2.9,0,0,0,.31-.54A.07.07,0,0,1,92,56.8Z"/><path class="cls-1" d="M93.87,63.54a3.93,3.93,0,0,1,.89.25,4.65,4.65,0,0,0,3.93-.68,1.52,1.52,0,0,0,.43-.41v-.05c.26-.3.52-.6.77-.91l0,0a4.41,4.41,0,0,0,.58-3.32A11.85,11.85,0,0,0,100,57a.07.07,0,0,1,0-.06l0,0a4.35,4.35,0,0,1,.64,3.25,4.74,4.74,0,0,1-6.51,3.59Z"/><path class="cls-10" d="M91.69,57.39c.06.38-.19.69-.25,1A4.7,4.7,0,0,0,92.21,62c.07.09.18.18.15.33a4.47,4.47,0,0,1-1-4A2.39,2.39,0,0,1,91.69,57.39Z"/><path class="cls-10" d="M92,56.86a.71.71,0,0,1-.31.54A1,1,0,0,1,92,56.86Z"/><path class="cls-10" d="M92.36,62.33a.66.66,0,0,1,.39.44A1,1,0,0,1,92.36,62.33Z"/><path class="cls-11" d="M92.29,56.41a.29.29,0,0,1-.25.3C92.11,56.6,92.16,56.47,92.29,56.41Z"/><path class="cls-11" d="M100,56.87s0,.05,0,.08a.43.43,0,0,1-.14-.31A.31.31,0,0,1,100,56.87Z"/><path class="cls-1" d="M99.12,62.7c-.32,0-.51.29-.75.44a4.07,4.07,0,0,1-2.3.68A5.07,5.07,0,0,1,94,63.35a4.58,4.58,0,0,1-1.81-1.59,3.82,3.82,0,0,1-.57-1.56,4.7,4.7,0,0,1-.18-.67,6.85,6.85,0,0,1,.5-2.19,1.26,1.26,0,0,0,.12-.47c.28,0,.3-.31.46-.46a4.74,4.74,0,0,1,3-1.52,4.65,4.65,0,0,1,2.82.65,4.72,4.72,0,0,1,1.42,1.32,5.13,5.13,0,0,1,.52,1.28,4.39,4.39,0,0,1,0,2.41c-.08.39-.32.76-.39,1.17h0c-.28.32-.54.66-.83,1Z"/><path class="cls-9" d="M99.12,62.7c0-.12.06-.19.14-.28s.4-.28.42-.57c0-.13.16-.13.27-.13A2.54,2.54,0,0,1,99.12,62.7Z"/><circle class="cls-1" cx="96.01" cy="59.46" r="4.93"/><path class="cls-1" d="M150.32,30.85h-2.86c-.17,0-.17,0-.12-.17.14-.49.29-1,.42-1.49A.21.21,0,0,1,148,29h5.45a.57.57,0,0,0,.54-.29,2.64,2.64,0,0,0,.2-.37c.06-.18,0-.23-.16-.23h-5.71c-.23,0-.23,0-.17-.22a21.64,21.64,0,0,1,.7-2.34,3.05,3.05,0,0,1,1.8-1.77,2.11,2.11,0,0,1,.79-.07h5.29c.2,0,.2,0,.14.19-.14.46-.29.93-.43,1.4a.19.19,0,0,1-.21.15l-5.47,0a.54.54,0,0,0-.56.34,2.52,2.52,0,0,0-.15.33c-.05.16,0,.22.17.22h3.22l2.49,0c.2,0,.21,0,.15.2-.23.8-.46,1.6-.73,2.39A3.36,3.36,0,0,1,154,30.6a1.5,1.5,0,0,1-.75.2c-.84.05-1.69,0-2.53.05Z"/><path class="cls-1" d="M163.8,23.78h2.85c.19,0,.19,0,.14.18-.15.47-.3.94-.44,1.41,0,.11-.09.14-.2.14l-4.53,0-1.12,0a.25.25,0,0,0-.17,0,1.44,1.44,0,0,0-.38.68c0,.12.06.16.17.16l3,0h2.8c.14,0,.16,0,.12.16-.24.84-.47,1.69-.77,2.51a3.26,3.26,0,0,1-1.34,1.57,1.64,1.64,0,0,1-.89.2c-1.9.07-3.79,0-5.68,0-.09,0-.12,0-.09-.11.16-.54.32-1.07.47-1.61,0-.13.11-.12.2-.12h5.53a.44.44,0,0,0,.42-.21,2.18,2.18,0,0,0,.24-.42c.08-.2,0-.26-.17-.25H161.3c-1,0-2.07,0-3.1,0-.19,0-.19,0-.14-.19a24.34,24.34,0,0,1,.7-2.35,3.17,3.17,0,0,1,1.58-1.7,1.45,1.45,0,0,1,.69-.15Z"/><path class="cls-1" d="M173.75,30.76c.14-.46.27-.9.4-1.35.33-1.17.66-2.35,1-3.52a3.14,3.14,0,0,1,1.17-1.71,2.53,2.53,0,0,1,1.53-.43c1.07,0,2.13,0,3.19,0h2c.37,0,.37,0,.26.36-.68,2.17-1.32,4.35-2,6.53,0,.11-.08.16-.21.16-.35,0-.7,0-1.06,0-.17,0-.17,0-.12-.17.5-1.63,1-3.27,1.49-4.91.08-.3.09-.27-.2-.27-1.28,0-2.56,0-3.83,0l-.3,0a.57.57,0,0,0-.57.43,12,12,0,0,0-.38,1.3c-.33,1.13-.66,2.26-1,3.38,0,.1-.06.14-.17.14C174.58,30.75,174.17,30.77,173.75,30.76Z"/><path class="cls-1" d="M147.72,19.84l-1.43-.06c-.21,0-.21,0-.19-.21q.1-1.35.12-2.7c0-.11,0-.15-.13-.17-.47-.14-.94-.29-1.41-.42a32.92,32.92,0,0,0-7.23-1.21,28.52,28.52,0,0,0-5.77.27,29.42,29.42,0,0,0-5.63,1.43.25.25,0,0,0-.2.3,40.78,40.78,0,0,0,.51,4.93,27.52,27.52,0,0,0,1.33,5,.39.39,0,0,1,.06.21h-2.2c-.18,0-.19,0-.11.18.23.45.5.88.75,1.33a.3.3,0,0,0,.3.17l1.86,0a.28.28,0,0,1,.29.18,16,16,0,0,0,7.05,7.11l1,.51h.06c0-.05.07-.06.11-.09a18.36,18.36,0,0,0,4.75-4.25,20.29,20.29,0,0,0,3.47-7,24.86,24.86,0,0,0,.73-3.51c0-.14.06-.2.22-.19s.59,0,.88,0a.21.21,0,0,0,.24-.15c.19-.49.4-1,.6-1.48C147.83,19.87,147.82,19.84,147.72,19.84ZM145,21.77a24.94,24.94,0,0,1-1.24,5,18.51,18.51,0,0,1-3,5.29,17.44,17.44,0,0,1-4,3.59.15.15,0,0,1-.18,0,15.29,15.29,0,0,1-7-6.63l0-.08h0c.58,0,1.16,0,1.74,0,2.23,0,4.47,0,6.71,0a4.17,4.17,0,0,0,3-1.39,3.38,3.38,0,0,0,.71-1.08c.39-1,.79-1.95,1.19-2.92.07-.18.06-.18-.13-.18-1.39,0-2.79,0-4.18,0h-6.09c-.14,0-.28,0-.43,0s-.24-.06-.19-.25a2.6,2.6,0,0,1,.56-1,1.35,1.35,0,0,1,1-.47l1.78,0,9.59,0C145,21.58,145,21.58,145,21.77Zm.25-2.11c0,.11-.06.1-.14.1l-5.18-.08h-.36c-1.7,0-3.4,0-5.11,0a6.55,6.55,0,0,0-1.16.09.58.58,0,0,0-.17.06,5.71,5.71,0,0,0-2.1,1.71,9.42,9.42,0,0,0-.9,1.76c-.25.6-.48,1.2-.72,1.8,0,.13,0,.15.1.15.79,0,1.59,0,2.38,0l6,0,2.09,0c.28,0,.29,0,.21.28a2.77,2.77,0,0,1-.79,1.34,1.05,1.05,0,0,1-.75.3c-.6,0-1.2,0-1.8,0h-8a.21.21,0,0,1-.23-.16,24.93,24.93,0,0,1-1.47-5.43,37.9,37.9,0,0,1-.42-4,.17.17,0,0,1,.14-.21,27.84,27.84,0,0,1,5.25-1.24,28.46,28.46,0,0,1,6-.17,33.33,33.33,0,0,1,7.07,1.35c.12,0,.14.08.13.19C145.3,18.24,145.27,19,145.22,19.66Z"/><path class="cls-1" d="M175.1,23.74c-.84,0-1.69,0-2.54,0-1.05,0-2.1,0-3.15,0a1.59,1.59,0,0,0-.78.16,3,3,0,0,0-1.48,1.67c-.53,1.69-1,3.38-1.51,5.08-.06.18,0,.18.13.18h3.11v-.07H172a.2.2,0,0,0,.23-.18c.14-.46.29-.91.43-1.37.06-.18.05-.19-.13-.19h-4.76c-.18,0-.19,0-.13-.18s.14-.41.2-.61.09-.13.19-.13h.56c1.17,0,2.33,0,3.5,0a2.35,2.35,0,0,0,1.87-.9,3.66,3.66,0,0,0,.59-1.08c.26-.75.46-1.51.72-2.26C175.3,23.75,175.3,23.75,175.1,23.74Zm-1.77,2a1.89,1.89,0,0,1-.16.36.77.77,0,0,1-.72.4c-1.21,0-2.42,0-3.63,0h-.29c-.2,0-.24-.06-.18-.27a2.16,2.16,0,0,1,.32-.6.37.37,0,0,1,.29-.11c.7,0,1.41,0,2.11,0h2.06C173.39,25.45,173.4,25.47,173.33,25.72Z"/><path class="cls-1" d="M198.58,23.8c-2,0-4,0-6,0a.23.23,0,0,0-.28.2c-.14.44-.25.88-.37,1.32,0,.15,0,.17.13.17h2.59c.73,0,1.47,0,2.2,0,.11,0,.16,0,.12.15s-.06.24-.1.36c-.13.4-.13.4-.56.4-1.36,0-2.73,0-4.1,0a1.79,1.79,0,0,0-1,.3,2.77,2.77,0,0,0-1.12,1.34c-.07.18-.14.36-.2.54q-.31.93-.57,1.89c0,.2,0,.26.19.29a2.56,2.56,0,0,0,.39,0l3.41,0h2.06a.79.79,0,0,0,.44-.14,7,7,0,0,0,.69-.53,2.45,2.45,0,0,0,.77-1.15c.42-1.28.79-2.57,1.18-3.85.13-.43.26-.85.37-1.3Zm-2.39,4.5a2.22,2.22,0,0,1-.32.61.42.42,0,0,1-.37.19l-4.15,0h-.1c-.11,0-.15-.05-.13-.15a2.1,2.1,0,0,1,.28-.65.48.48,0,0,1,.43-.23h2.11v0H196C196.23,28.09,196.26,28.12,196.19,28.3Z"/><path class="cls-1" d="M190.37,21.14c-.12,0-.16,0-.19.15l-.58,2.23c-.07.25-.06.25-.32.24-1.07,0-2.15,0-3.22,0a1.76,1.76,0,0,0-.9.18,3,3,0,0,0-1.32,1.57c-.56,1.71-1.05,3.44-1.56,5.16,0,.11,0,.13.11.13,1.57,0,3.15,0,4.72-.05a1.73,1.73,0,0,0,1.22-.51,3.53,3.53,0,0,0,1-1.45c.54-1.86,1.1-3.72,1.66-5.58l.61-2.06Zm-1.45,4.46c-.29,1-.57,1.94-.86,2.9a.67.67,0,0,1-.73.58c-.73.05-1.45,0-2.18,0h-.88c-.18,0-.2,0-.15-.19.3-1,.6-2,.91-3a.54.54,0,0,1,.61-.45h3.18C188.93,25.47,189,25.49,188.92,25.6Z"/></g></g></svg>